<svg width="71" height="80" viewBox="0 0 71 80" fill="none" xmlns="http://www.w3.org/2000/svg">
<g clip-path="url(#clip0_2116_2922)">
<path d="M33.4688 42.9164C33.4688 42.1226 33.4438 41.3652 33.4746 40.6117C33.5112 39.745 33.1436 39.0183 32.6529 38.3759C31.9139 37.4134 30.9075 36.8343 29.6701 36.7844C26.797 36.6655 24.6417 39.6299 25.702 42.2242C26.2389 43.5377 27.3551 44.4677 28.9042 44.3775C29.8337 44.3239 30.767 44.3622 31.6984 44.3603C31.7985 44.3603 31.8966 44.3603 32.041 44.3603C32.041 45.1618 32.041 45.9307 32.041 46.7015C32.041 51.4606 32.0371 56.2197 32.0371 60.9789C32.0371 61.5234 32.0333 62.0699 32.0621 62.6144C32.0737 62.8541 31.9909 62.9021 31.7754 62.9002C30.4283 62.8944 29.0813 62.8963 27.7361 62.8982C27.4301 62.8982 27.1242 62.9155 26.8201 62.8982C26.7489 62.8944 26.6219 62.7832 26.6238 62.7257C26.6873 61.3067 26.3255 59.9549 25.9561 58.6108C25.5115 56.9886 24.8149 55.4719 23.9836 54.007C23.1272 52.496 22.1131 51.1001 21.0412 49.7426C20.3273 48.8375 19.5363 47.9881 18.859 47.0581C17.6312 45.3708 16.7171 43.5185 16.0782 41.5282C15.1314 38.5811 14.8986 35.5803 15.2969 32.5181C15.5067 30.9017 15.9243 29.339 16.5189 27.8261C17.3483 25.715 18.5203 23.8013 19.9886 22.0641C21.1355 20.7085 22.4556 19.5504 23.9008 18.5245C25.5038 17.3875 27.2531 16.5189 29.114 15.9129C31.5425 15.123 34.0462 14.7816 36.6114 14.9312C38.3664 15.0328 40.0791 15.3588 41.7398 15.9014C43.5641 16.4959 45.3096 17.2935 46.8452 18.4612C47.9421 19.2973 49.0659 20.1256 50.0185 21.1092C50.9711 22.0929 51.7562 23.2472 52.5645 24.3612C53.3823 25.4906 53.9635 26.7561 54.4504 28.0543C55.4183 30.639 55.8956 33.3138 55.7743 36.0769C55.6589 38.7076 55.095 41.2348 54.0135 43.6585C53.1014 45.7044 51.8255 47.4838 50.4092 49.2019C49.3989 50.4252 48.5175 51.754 47.615 53.0617C46.4719 54.7165 45.6636 56.54 45.0767 58.4517C44.6726 59.7632 44.3916 61.1112 44.3839 62.4956C44.3839 62.787 44.3339 62.9097 43.9971 62.9059C42.3768 62.8906 40.7565 62.9059 39.1361 62.8982C39.0649 62.8982 38.9302 62.7832 38.9302 62.7218C38.9341 59.5388 38.9553 56.3578 38.963 53.1748C38.9687 50.3811 38.9629 47.5893 38.9495 44.7955C38.9495 44.4562 39.0091 44.3373 39.3882 44.3545C40.2484 44.3929 41.1125 44.3277 41.9708 44.3737C43.4564 44.4542 44.5186 43.8464 45.1364 42.5119C45.7098 41.2732 45.7156 40.0518 44.9901 38.8342C44.1761 37.469 42.9868 36.7595 41.4223 36.7902C39.2324 36.8324 37.487 38.6904 37.4908 40.8744C37.4908 41.4822 37.4985 42.0919 37.487 42.6998C37.487 42.7726 37.3888 42.9049 37.3349 42.9069C36.061 42.9184 34.787 42.9164 33.4708 42.9164H33.4688ZM19.2977 35.3943C19.3227 35.8851 19.3343 36.376 19.3747 36.865C19.4093 37.2868 19.7018 37.4191 20.0867 37.4613C20.4427 37.5016 20.6486 37.329 20.7525 37.0375C20.8122 36.8688 20.7833 36.6694 20.7949 36.4834C20.8719 35.1546 20.8449 33.8105 21.0527 32.5028C21.3048 30.9247 21.9014 29.4425 22.7308 28.0485C23.5198 26.7235 24.4493 25.5309 25.5924 24.4993C26.5699 23.6173 27.6688 22.9174 28.8349 22.3153C29.0351 22.2118 29.2621 22.1581 29.4604 22.0507C30.5245 21.4774 31.6811 21.1649 32.855 20.9616C33.7286 20.8101 34.6312 20.8216 35.5202 20.7507C35.9147 20.72 36.1841 20.4113 36.1764 20.0278C36.1688 19.6213 35.8666 19.2512 35.4875 19.2877C34.1963 19.4104 32.8858 19.4602 31.6272 19.7383C29.5893 20.1869 27.7226 21.069 26.0196 22.3C24.6129 23.3182 23.3716 24.5012 22.3844 25.9105C21.7147 26.8674 21.1528 27.9105 20.6505 28.967C19.6884 30.9918 19.2765 33.1489 19.2958 35.3885L19.2977 35.3943Z" fill="white"/>
<path d="M35.4606 73.9236C32.7915 73.9236 30.1223 73.9236 27.4532 73.9236C26.6027 73.9236 25.8445 73.3081 25.577 72.3916C25.346 71.5977 25.6905 70.5834 26.4025 70.2076C26.7816 70.0062 27.2377 69.8433 27.6591 69.8413C32.8877 69.8183 38.1181 69.8202 43.3467 69.8298C44.9786 69.8337 46.0023 71.4213 45.2634 72.8076C44.8997 73.4903 44.3223 73.9236 43.4949 73.9236C40.8181 73.9236 38.1412 73.9236 35.4625 73.9236H35.4606Z" fill="white"/>
<path d="M35.4606 64.3517C38.1066 64.3517 40.7545 64.3881 43.3986 64.3344C44.5379 64.3114 45.5001 65.412 45.4847 66.342C45.4635 67.5634 44.6033 68.432 43.3717 68.432C38.7128 68.432 34.0558 68.4301 29.3968 68.4282C28.8022 68.4282 28.2076 68.432 27.611 68.4282C26.6007 68.4205 25.7906 67.8184 25.5731 66.9134C25.3345 65.9278 25.7963 64.9326 26.7239 64.4993C26.9413 64.3977 27.2069 64.3593 27.4494 64.3574C30.1185 64.3478 32.7895 64.3517 35.4586 64.3517H35.4606Z" fill="white"/>
<path d="M33.4842 44.3775H37.485C37.485 45.2289 37.485 46.0687 37.485 46.9086C37.485 51.6658 37.485 56.423 37.485 61.1802C37.485 61.6787 37.5042 62.1773 37.4907 62.6758C37.4888 62.7525 37.3676 62.8925 37.2983 62.8944C36.6421 62.9097 35.9839 62.8982 35.3277 62.9002C34.8274 62.9002 34.3271 62.9174 33.8267 62.9174C33.642 62.9174 33.4438 62.9596 33.4457 62.6355C33.4669 58.4478 33.4784 54.2601 33.4861 50.0743C33.49 48.2105 33.4784 46.3468 33.4746 44.483C33.4746 44.4542 33.4803 44.4236 33.4861 44.3795L33.4842 44.3775Z" fill="white"/>
<path d="M28.221 75.3157H42.8078C42.4018 75.6723 42.0804 75.9734 41.7379 76.2495C40.5775 77.1852 39.4459 78.1593 38.2355 79.0221C37.3272 79.6702 36.2996 80.1074 35.1199 79.9732C34.2193 79.8715 33.4188 79.4919 32.726 78.9684C31.2577 77.8601 29.849 76.6713 28.4173 75.5151C28.3596 75.4671 28.3115 75.4077 28.2229 75.3138L28.221 75.3157Z" fill="white"/>
<path d="M36.8365 5.88658C36.8365 7.38411 36.8422 8.88165 36.8365 10.3792C36.8307 11.4261 36.1591 11.9745 35.1296 11.7847C34.5773 11.683 34.1789 11.1903 34.177 10.5594C34.1693 7.88457 34.1731 5.20972 34.1712 2.53487C34.1712 2.10536 34.1577 1.67585 34.177 1.24826C34.2097 0.498538 34.7254 0 35.4471 0C36.2495 0 36.8076 0.475529 36.8192 1.25593C36.8422 2.79948 36.8269 4.34495 36.8269 5.8885C36.8307 5.8885 36.8345 5.8885 36.8384 5.8885L36.8365 5.88658Z" fill="#62DDE4"/>
<path d="M54 5.89808C53.8673 6.22405 53.7653 6.56536 53.594 6.87023C52.8781 8.14534 52.143 9.41086 51.4137 10.6783C50.6651 11.9802 49.9204 13.2841 49.1583 14.5784C48.785 15.215 47.9941 15.3646 47.3071 14.9638C46.7394 14.6321 46.5142 13.8555 46.8471 13.2726C47.8478 11.5143 48.862 9.76175 49.8703 8.00537C50.4015 7.08115 50.9268 6.15119 51.4599 5.22889C51.787 4.66324 52.3316 4.41973 52.8955 4.57312C53.4843 4.73227 53.9115 5.26724 54 5.89808Z" fill="#62DDE4"/>
<path d="M15.2373 48.2642C15.2276 48.6017 15.0371 48.9564 14.6349 49.1846C13.2802 49.9573 11.9235 50.7262 10.5687 51.499C9.2813 52.2333 7.99582 52.9716 6.71033 53.7079C6.06566 54.0779 5.31901 53.9917 4.91873 53.497C4.4742 52.9505 4.44534 52.1298 4.94375 51.685C5.31516 51.3532 5.78855 51.1327 6.22731 50.8777C6.9759 50.4444 7.72833 50.0187 8.48269 49.5969C9.12928 49.2364 9.78742 48.897 10.4302 48.5327C11.0998 48.153 11.7503 47.7427 12.42 47.363C12.8125 47.1406 13.207 46.9028 13.6304 46.7629C14.3694 46.5174 15.2315 47.2844 15.2353 48.2623L15.2373 48.2642Z" fill="#62DDE4"/>
<path d="M23.0637 15.1997C22.2227 15.192 21.9052 14.7433 21.6223 14.2505C20.8987 12.9869 20.1732 11.7252 19.4478 10.4616C18.6761 9.11749 17.8986 7.77719 17.1347 6.42922C16.846 5.91918 17.1116 5.1963 17.7274 4.74761C18.1642 4.4274 18.8589 4.47342 19.2284 4.88183C19.4458 5.12152 19.6306 5.39763 19.7961 5.67758C20.5812 7.01404 21.3606 8.35243 22.1323 9.69656C22.8308 10.9122 23.5159 12.1356 24.2048 13.357C24.4377 13.7712 24.2856 14.5305 23.8661 14.8142C23.5775 15.0098 23.233 15.121 23.0656 15.1997H23.0637Z" fill="#62DDE4"/>
<path d="M57.1887 46.6536C57.6005 46.8606 58.0682 47.0812 58.5223 47.3304C59.3152 47.7657 60.0984 48.2163 60.8835 48.6631C61.8669 49.223 62.8503 49.7829 63.8317 50.3466C64.4687 50.7109 65.1056 51.0733 65.7349 51.4491C66.4084 51.8518 66.6009 52.5862 66.2256 53.263C65.86 53.9207 65.1499 54.147 64.4552 53.775C63.6373 53.3378 62.8426 52.8527 62.0362 52.3925C60.8431 51.7118 59.65 51.0311 58.455 50.3523C57.8507 50.0091 57.2465 49.6659 56.6345 49.338C56.165 49.0868 55.7551 48.803 55.7762 48.199C55.7974 47.595 56.036 47.1099 56.6018 46.8338C56.7519 46.7609 56.9251 46.7322 57.1907 46.6536H57.1887Z" fill="#62DDE4"/>
<path d="M64.9998 17.0653C65.7214 17.1497 66.1794 17.4891 66.3738 18.1353C66.5374 18.6875 66.3372 19.2397 65.7715 19.5714C64.5226 20.3058 63.2525 21.0076 61.9939 21.7267C60.9047 22.3498 59.8174 22.9807 58.7302 23.6077C58.3722 23.8129 58.0201 24.0314 57.6506 24.2155C56.9924 24.5434 56.1958 24.1753 55.9321 23.439C55.6415 22.6221 55.8532 22.1332 56.6134 21.7152C57.8623 21.0287 59.0919 20.3078 60.3332 19.6098C60.9913 19.2397 61.6687 18.9023 62.3249 18.5303C62.9484 18.1775 63.5507 17.7921 64.1723 17.4392C64.434 17.2916 64.7208 17.1881 64.9979 17.0653H64.9998Z" fill="#62DDE4"/>
<path d="M5.93479 17.0864C6.18881 17.1708 6.4409 17.213 6.65066 17.3319C8.38453 18.304 10.1107 19.2877 11.8369 20.2732C12.7644 20.8025 13.6939 21.3278 14.606 21.882C15.2815 22.2942 15.3893 22.9673 14.9428 23.6882C14.5271 24.3574 13.8959 24.5204 13.2128 24.1311C11.8234 23.3412 10.4359 22.5454 9.04651 21.7573C7.77835 21.0364 6.49671 20.3384 5.24201 19.5964C4.37797 19.0863 4.36834 17.8918 5.2093 17.3395C5.41328 17.2053 5.6827 17.1727 5.93671 17.0883L5.93479 17.0864Z" fill="#62DDE4"/>
<path d="M65.0941 34.2285C66.597 34.2285 68.0999 34.2342 69.601 34.2265C70.2341 34.2227 70.6844 34.4662 70.9172 35.0721C71.0962 35.5343 70.9904 36.1708 70.5709 36.5026C70.3303 36.6924 69.9839 36.8477 69.6837 36.8496C66.6086 36.8726 63.5334 36.8707 60.4582 36.8573C59.6846 36.8535 59.1824 36.3262 59.1785 35.5918C59.1728 34.7385 59.6019 34.2534 60.4467 34.2419C61.9958 34.2208 63.5449 34.2361 65.0941 34.2361C65.0941 34.2342 65.0941 34.2304 65.0941 34.2285Z" fill="#62DDE4"/>
<path d="M5.93673 36.8554C4.41839 36.8554 2.89813 36.8554 1.3798 36.8554C0.802483 36.8554 0.352178 36.6253 0.121252 36.0865C-0.101976 35.563 -0.0115299 35.0645 0.346405 34.6177C0.596574 34.3052 0.946811 34.2381 1.31437 34.2361C2.44205 34.2285 3.56974 34.2246 4.69743 34.2265C6.66222 34.2285 8.62701 34.2227 10.5918 34.2496C11.4039 34.2611 11.7888 34.7174 11.7811 35.5553C11.7734 36.3607 11.3462 36.8477 10.5629 36.8573C9.02151 36.8765 7.47816 36.863 5.9348 36.863V36.8592L5.93673 36.8554Z" fill="#62DDE4"/>
<path d="M40.8469 42.9107C40.283 42.9107 39.7192 42.9145 39.1554 42.9049C39.0918 42.9049 38.9725 42.8225 38.9725 42.7784C38.9725 41.9673 38.8975 41.1447 39.0206 40.3509C39.2978 38.5734 41.378 37.7527 42.8271 38.5983C44.2203 39.4133 44.4897 41.3786 43.414 42.4735C43.1946 42.6959 42.829 42.8493 42.5115 42.8877C41.963 42.9548 41.4011 42.9069 40.8469 42.9069V42.9107Z" fill="white"/>
<path d="M30.2339 42.9088C29.8433 42.9088 29.4488 42.8743 29.062 42.9145C27.3762 43.0929 26.7951 41.5685 26.9375 40.441C27.1607 38.6827 29.291 37.6876 30.7708 38.5983C31.7388 39.1947 32.0313 40.0614 32.0313 41.1064C32.0313 41.6528 32.0371 42.1974 32.0198 42.742C32.0178 42.8033 31.8831 42.9107 31.8081 42.9126C31.2847 42.928 30.7593 42.9203 30.2359 42.9203V42.9049L30.2339 42.9088Z" fill="white"/>
</g>
<defs>
<clipPath id="clip0_2116_2922">
<rect width="71" height="80" fill="white"/>
</clipPath>
</defs>
</svg>
