<svg width="60" height="61" viewBox="0 0 60 61" fill="none" xmlns="http://www.w3.org/2000/svg">
<g id="icon / feathericons / camera">
<path id="Vector" d="M57.5 48.1719C57.5 49.498 56.9732 50.7697 56.0355 51.7074C55.0979 52.6451 53.8261 53.1719 52.5 53.1719H7.5C6.17392 53.1719 4.90215 52.6451 3.96447 51.7074C3.02678 50.7697 2.5 49.498 2.5 48.1719V20.6719C2.5 19.3458 3.02678 18.074 3.96447 17.1363C4.90215 16.1987 6.17392 15.6719 7.5 15.6719H17.5L22.5 8.17188H37.5L42.5 15.6719H52.5C53.8261 15.6719 55.0979 16.1987 56.0355 17.1363C56.9732 18.074 57.5 19.3458 57.5 20.6719V48.1719Z" stroke="#F2F2F2" stroke-width="5" stroke-linecap="round" stroke-linejoin="round"/>
<path id="Vector_2" d="M30 43.1719C35.5228 43.1719 40 38.6947 40 33.1719C40 27.649 35.5228 23.1719 30 23.1719C24.4772 23.1719 20 27.649 20 33.1719C20 38.6947 24.4772 43.1719 30 43.1719Z" stroke="#F2F2F2" stroke-width="5" stroke-linecap="round" stroke-linejoin="round"/>
</g>
</svg>
