<svg width="21" height="19" viewBox="0 0 21 19" fill="none" xmlns="http://www.w3.org/2000/svg">
<g id="Group">
<path id="Vector" d="M2.66602 18.5547H17.8027C19.4629 18.5547 20.4688 17.4023 20.4688 15.9082C20.4688 15.4492 20.332 14.9707 20.0879 14.541L12.5098 1.33789C12.002 0.449219 11.1328 0 10.2344 0C9.33594 0 8.45703 0.449219 7.95898 1.33789L0.380859 14.541C0.117188 14.9805 0 15.4492 0 15.9082C0 17.4023 1.00586 18.5547 2.66602 18.5547ZM2.67578 17.0215C1.99219 17.0215 1.58203 16.4941 1.58203 15.8984C1.58203 15.7129 1.62109 15.4785 1.72852 15.2734L9.29688 2.08008C9.50195 1.71875 9.87305 1.5625 10.2344 1.5625C10.5957 1.5625 10.957 1.71875 11.1621 2.08008L18.7305 15.2832C18.8379 15.4883 18.8867 15.7129 18.8867 15.8984C18.8867 16.4941 18.457 17.0215 17.7832 17.0215H2.67578Z" fill="#62DDE4"/>
<path id="Vector_2" d="M10.2344 11.9727C10.7031 11.9727 10.9766 11.6992 10.9863 11.1914L11.123 6.04492C11.1328 5.54688 10.7422 5.17578 10.2246 5.17578C9.69727 5.17578 9.32617 5.53711 9.33594 6.03516L9.46289 11.1914C9.47266 11.6895 9.74609 11.9727 10.2344 11.9727ZM10.2344 15.1465C10.8008 15.1465 11.2891 14.6973 11.2891 14.1309C11.2891 13.5547 10.8105 13.1152 10.2344 13.1152C9.6582 13.1152 9.17969 13.5645 9.17969 14.1309C9.17969 14.6875 9.66797 15.1465 10.2344 15.1465Z" fill="#62DDE4"/>
</g>
</svg>
