<svg width="17" height="20" viewBox="0 0 17 20" fill="none" xmlns="http://www.w3.org/2000/svg">
<g id="Group 17">
<g id="Vector">
<path d="M10 18H4V19C4 19.55 4.45 20 5 20H9C9.55 20 10 19.55 10 19V18Z" fill="#F2F2F2"/>
<path d="M9 14V12.89C9.57 13.5 10.25 13.96 11 14.32V15C11 15.55 10.55 16 10 16H4C3.45 16 3 15.55 3 15V12.74C1.19 11.47 0 9.38 0 7C0 3.13 3.13 0 7 0C8.65 0 10.16 0.57 11.35 1.5C10.66 1.81 10 2.2 9.46 2.67C8.73 2.26 7.9 2 7 2C4.24 2 2 4.24 2 7C2 9.05 3.23 10.81 5 11.58V14H9Z" fill="#F2F2F2"/>
</g>
<path id="Star 2" d="M13.0376 3.12493C13.2074 2.71174 13.7926 2.71174 13.9624 3.12493L14.4403 4.28735C14.4911 4.41086 14.5891 4.50892 14.7126 4.55969L15.8751 5.03755C16.2883 5.20741 16.2883 5.79259 15.8751 5.96245L14.7126 6.44031C14.5891 6.49108 14.4911 6.58914 14.4403 6.71265L13.9624 7.87507C13.7926 8.28826 13.2074 8.28826 13.0376 7.87507L12.5597 6.71265C12.5089 6.58914 12.4109 6.49108 12.2874 6.44031L11.1249 5.96245C10.7117 5.79259 10.7117 5.20741 11.1249 5.03755L12.2874 4.55969C12.4109 4.50892 12.5089 4.41086 12.5597 4.28735L13.0376 3.12493Z" fill="#F2F2F2"/>
<path id="Star 3" d="M11.7212 9.70204C11.8214 9.44969 12.1786 9.44969 12.2788 9.70204L12.5207 10.3112C12.5512 10.388 12.612 10.4488 12.6888 10.4793L13.298 10.7212C13.5503 10.8214 13.5503 11.1786 13.298 11.2788L12.6888 11.5207C12.612 11.5512 12.5512 11.612 12.5207 11.6888L12.2788 12.298C12.1786 12.5503 11.8214 12.5503 11.7212 12.298L11.4793 11.6888C11.4488 11.612 11.388 11.5512 11.3112 11.5207L10.702 11.2788C10.4497 11.1786 10.4497 10.8214 10.702 10.7212L11.3112 10.4793C11.388 10.4488 11.4488 10.388 11.4793 10.3112L11.7212 9.70204Z" fill="#F2F2F2"/>
</g>
</svg>
