<svg width="143" height="80" viewBox="0 0 143 80" fill="none" xmlns="http://www.w3.org/2000/svg">
<path d="M102 13.3282C104.067 12.345 106.227 11.491 108.341 10.6115C111.171 9.45262 113.982 8.24842 116.774 7C116.915 7.10937 118.263 10.9012 118.445 11.3712L126.621 32.5466C127.794 35.5798 128.922 38.6305 130 41.6986C128.374 42.4734 126.647 43.1029 124.986 43.8056L115.23 48C114.941 47.7231 112.632 41.0598 112.326 40.2419L105.534 22.4871C104.358 19.4423 103.311 16.316 102 13.327V13.3282Z" fill="white"/>
<path d="M15.0023 41.4271C15.3069 40.251 15.8499 39.054 16.2742 37.9103C17.4112 34.8867 18.5727 31.8723 19.7585 28.8683L23.9125 18.0898L26.3563 11.6084C26.9317 10.07 27.4723 8.52456 28.0885 7C28.5105 7.09377 28.9628 7.34034 29.3639 7.5105L32.3215 8.79429L43 13.4097C42.5257 14.8289 41.9397 16.2029 41.4084 17.6002C40.3086 20.5474 39.1902 23.4877 38.0508 26.4211L29.8243 48C29.6824 48.0058 16.1893 42.0557 15 41.4271H15.0023Z" fill="#62DDE4"/>
<path d="M74.2884 25.9714C73.7486 26.4661 73.134 26.8949 72.5521 27.339C71.1372 28.4168 69.693 29.4392 68.25 30.4758C66.8409 31.4876 65.433 32.4959 64.004 33.4807C63.4782 33.8435 62.9653 34.2499 62.4161 34.5773C62.2187 34.6951 62.0411 34.7846 61.8109 34.8058C61.0175 34.88 59.8223 33.8741 59.2229 33.3935C58.5183 32.8281 57.0671 31.5807 57.0017 30.6136C56.99 30.4334 57.0391 30.2732 57.1151 30.1106C57.4504 29.4027 58.0065 28.723 58.4459 28.0716C59.8737 25.9561 61.3295 23.8264 62.9758 21.8758C65.9704 18.329 70.1171 13.966 74.6284 12.5171C75.479 12.2439 76.3459 12.1167 77.2328 12.0448C80.9506 11.7374 87.0731 13.0825 90.7852 13.9377C92.0576 14.2263 93.3265 14.5279 94.593 14.8388C95.8409 15.1498 97.1086 15.5456 98.3962 15.6116C99.1229 15.6492 99.7995 15.5479 100.51 15.3995C101.087 16.6611 101.529 17.9969 102.014 19.2973L104.098 24.7746L112 45.6227C110.176 46.6664 108.379 47.7559 106.61 48.8915L103.815 50.7384C103.159 51.1719 102.454 51.722 101.72 52C100.35 50.7267 99.0388 49.3803 97.6846 48.0881L92.2492 42.9971L74.2849 25.9714H74.2884Z" fill="white"/>
<path d="M81.6908 47.8845L81.7707 47.9123L81.817 48.0164L81.8517 48.0326C81.8633 48.0453 81.8737 48.058 81.8853 48.0708C82.706 48.9812 84.1565 50.0953 85.1207 50.926L92.6727 57.3536C93.1924 57.8025 94.6128 58.8923 94.9276 59.4164C95.1823 59.8398 95.2089 60.5247 95.1835 61.0129C95.1279 62.0888 94.6521 62.9865 93.8465 63.6934C93.8002 63.735 93.7527 63.7743 93.7041 63.8137C93.6555 63.853 93.6057 63.89 93.5559 63.9271C93.505 63.9641 93.454 63.9988 93.402 64.0323C93.3499 64.0659 93.2966 64.0994 93.2434 64.1307C93.1901 64.1619 93.1346 64.192 93.0802 64.2209C93.0246 64.2498 92.969 64.2764 92.9123 64.303C92.8556 64.3285 92.7989 64.354 92.741 64.3771C92.6831 64.4002 92.6252 64.4222 92.5662 64.4419C92.5072 64.4615 92.4481 64.4812 92.3879 64.4986C92.3277 64.5159 92.2675 64.5321 92.2073 64.546C92.1472 64.5599 92.0858 64.5738 92.0244 64.5842C91.9631 64.5957 91.9017 64.605 91.8404 64.6143C91.779 64.6223 91.7165 64.6293 91.6552 64.6351C91.5927 64.6409 91.5313 64.6443 91.4688 64.6466C91.4063 64.649 91.3438 64.649 91.2824 64.649C91.2199 64.649 91.1574 64.6455 91.0961 64.642C90.5532 64.605 89.9975 64.4511 89.5241 64.1827C88.8029 63.7732 88.1593 63.1832 87.5076 62.673L84.5072 60.3199C82.2638 58.5568 79.9985 56.8226 77.7123 55.1162C76.917 54.5112 75.2848 53.1692 74.4896 52.7608C74.7639 53.1032 75.1552 53.3971 75.4839 53.6921C76.2364 54.3631 76.9946 55.0271 77.7586 55.6854L82.8287 60.0677C84.4401 61.4351 86.1417 62.8072 87.628 64.3065C87.5585 65.35 87.327 66.3345 86.754 67.2242C86.1868 68.1046 85.2538 68.8161 84.2132 69.015C84.124 69.0324 84.0338 69.0463 83.9423 69.0567C83.852 69.0671 83.7606 69.074 83.6691 69.0775C83.5777 69.081 83.4862 69.081 83.3959 69.0775C83.3045 69.074 83.2142 69.0659 83.1227 69.0555C83.0325 69.044 82.9422 69.0301 82.853 69.0116C82.7639 68.9931 82.6748 68.9722 82.5868 68.9468C82.4988 68.9213 82.412 68.8936 82.3263 68.8612C82.2407 68.8288 82.1562 68.7941 82.074 68.7559C80.8354 68.1775 79.4961 66.9303 78.4057 66.08L72.9327 61.8273C71.5077 60.704 70.1163 59.5182 68.5952 58.5244L80.1165 68.8033C79.9823 69.2048 79.8179 69.5831 79.5979 69.9452C79.0134 70.91 78.1232 71.6504 77.0108 71.9084C74.9133 72.3955 73.0994 70.8302 71.4325 69.7959C71.9094 69.0694 72.4662 68.55 72.6247 67.6545C72.9002 66.0997 72.2069 64.4558 71.3098 63.219C70.5921 62.2288 69.4021 61.2847 68.1693 61.095C67.7641 59.3134 66.9515 57.718 65.3726 56.7035C64.4187 56.0892 63.216 55.7097 62.0862 55.9607C62.0712 55.9156 62.0573 55.8705 62.0411 55.8254C61.4473 54.1884 60.1577 52.5595 58.5603 51.8098C57.4085 51.2696 56.2903 51.295 55.1107 51.7277C54.8271 51.0775 54.4926 50.4898 54.0423 49.9391C53.1868 48.8922 51.9552 48.0048 50.5754 47.8718C50.4272 47.8567 50.279 47.851 50.1297 47.8544C49.9804 47.8579 49.8322 47.8695 49.6852 47.8915C49.5382 47.9123 49.3923 47.9424 49.2476 47.9817C49.1041 48.021 48.9629 48.0685 48.8251 48.124C47.6676 48.5867 46.6281 49.488 45.5967 50.1844C44.7829 50.7339 43.917 51.2314 43.1577 51.8561C41.1053 50.3522 39.0344 48.8736 36.945 47.4194C35.6485 46.5344 34.2328 45.7258 33 44.7598C34.337 41.7333 35.3707 38.538 36.5642 35.4503C38.2797 31.0229 39.9628 26.5839 41.6135 22.1311C42.4157 20.0024 43.263 17.8911 44.0351 15.752C46.5436 15.9128 48.9802 15.3401 51.4158 14.8114C56.0194 13.8119 59.7734 12.8551 64.5357 13.0183C65.8217 13.0622 67.1263 13.1617 68.3892 13.422C63.6814 16.8071 60.079 21.5734 56.8147 26.2947C56.2313 27.1392 54.944 28.8641 54.7183 29.8394C54.4856 30.8413 55.1165 32.0294 55.6548 32.8404C56.9524 34.7967 59.0823 36.7437 61.4588 37.2041C61.952 37.3002 62.4914 37.3152 62.9648 37.1231C63.745 36.8062 64.4975 36.1595 65.1989 35.6944C67.2027 34.3501 69.1845 32.9734 71.1419 31.562C72.142 30.8343 73.1098 30.028 74.1377 29.3454C80.2485 34.8961 86.3072 40.5036 92.3138 46.1665L97.4847 50.9873C98.2823 51.7358 99.1319 52.475 99.8751 53.2756C100.327 53.7615 100.717 54.2833 100.887 54.9323C101.137 55.8855 100.963 56.8978 100.46 57.74C100 58.5094 99.2917 59.0543 98.4165 59.2683C97.7428 59.4326 97.0495 59.3955 96.4174 59.1028C95.3467 58.6065 93.7434 57.1419 92.7711 56.3726C90.0959 54.2474 87.3919 52.1581 84.6612 50.1034C83.7756 49.4463 82.9005 48.6527 81.9501 48.0974L81.8483 48.0395L81.8135 48.0233L81.7672 47.9192L81.6874 47.8915L81.6908 47.8845Z" fill="#62DDE4"/>
<path d="M47.2795 59.9428C46.7316 60.0527 46.2008 60.014 45.6951 59.7406C44.9809 59.3548 44.4318 58.5883 44.1755 57.768C43.9523 57.0527 43.9078 56.0577 44.245 55.3735C44.548 54.758 47.8719 51.0926 48.4357 50.6494C48.8287 50.341 49.2798 50.1575 49.7411 50.0139C50.2218 49.969 50.6307 50.0289 51.0716 50.2499C51.8803 50.6556 52.5547 51.5108 52.8428 52.4309C53.0171 52.9877 53.0889 53.6731 52.8326 54.2175C52.4077 55.1188 49.1397 58.6807 48.3161 59.3673C47.9846 59.6432 47.6737 59.808 47.2795 59.9428Z" fill="white"/>
<path d="M52.8733 64.9687C52.0399 65.0743 51.2539 64.9147 50.5475 64.4607C50.5012 64.4313 50.4549 64.3997 50.4098 64.368C50.3647 64.3363 50.3208 64.3023 50.2768 64.2683C50.2329 64.2342 50.1902 64.199 50.1486 64.1627C50.1071 64.1263 50.0655 64.0888 50.0263 64.05C49.986 64.0113 49.9468 63.9726 49.9088 63.9327C49.8708 63.8928 49.834 63.8518 49.7984 63.8095C49.7628 63.7673 49.7272 63.7251 49.6939 63.6805C49.6607 63.6371 49.6274 63.5925 49.5954 63.5467C49.5633 63.501 49.5336 63.4552 49.504 63.4083C49.4743 63.3614 49.447 63.3144 49.4197 63.2652C49.3924 63.2171 49.3674 63.1678 49.3425 63.1185C49.3176 63.0692 49.295 63.0188 49.2724 62.9683C49.2499 62.9179 49.2297 62.8663 49.2107 62.8146C49.1917 62.763 49.1727 62.7114 49.1561 62.6586C49.1395 62.6058 49.124 62.553 49.1098 62.5002C49.0955 62.4474 49.0825 62.3934 49.0706 62.3395C48.8961 61.5194 49.0457 60.7756 49.5123 60.0857C50.1795 59.099 51.8297 57.629 52.7308 56.7103C53.461 55.9677 54.1697 55.0455 55.0174 54.4389C55.3581 54.1949 55.7262 54.0964 56.131 54.0189C56.8077 53.9521 57.4334 54.0588 58.0294 54.3967C58.8533 54.8613 59.6856 55.875 59.9206 56.7913C60.0441 57.2735 60.0429 57.9035 59.777 58.3399C59.6108 58.6145 59.4208 58.8726 59.2071 59.1131C58.2455 60.1983 57.1734 61.2073 56.1749 62.262C55.4994 62.9754 54.8227 63.8905 54.0498 64.4877C53.7043 64.7552 53.2912 64.8619 52.8745 64.9675L52.8733 64.9687Z" fill="white"/>
<path d="M59.1532 69C58.4304 68.9659 57.8087 68.7664 57.2382 68.2577C56.5832 67.6749 56.085 66.8523 56.0105 65.9154C55.9449 65.1001 56.1906 64.544 56.6577 63.9417C57.4373 62.9342 58.3247 61.9985 59.1566 61.0408C59.8761 60.2134 60.6457 59.1 61.5131 58.4673C61.9613 58.1399 62.4183 58.0438 62.9421 58C63.7106 58.0073 64.3067 58.2872 64.8671 58.8627C65.5266 59.5393 65.9792 60.4726 65.9992 61.4716C66.0215 62.5716 65.5477 63.0802 64.9061 63.8225C64.1087 64.7448 61.2406 68.2285 60.5078 68.6763C60.0852 68.9343 59.6259 68.9854 59.1532 69Z" fill="white"/>
<path d="M65.5633 71.9991C65.4119 72.0027 65.2604 71.9954 65.109 71.9807C64.9575 71.9648 64.8086 71.9403 64.6609 71.906C64.5132 71.8717 64.368 71.8276 64.2253 71.7749C64.0826 71.7223 63.9449 71.661 63.811 71.5912C63.0186 71.187 62.3577 70.4791 62.1062 69.6303C61.9422 69.0803 61.9497 68.3846 62.2601 67.8825C62.7871 67.0288 65.8312 63.9581 66.646 63.3715C66.9202 63.1743 67.173 63.0836 67.5009 63.0065C68.123 62.9673 68.68 63.1057 69.2033 63.4449C70.1295 64.0451 70.7328 65.1278 70.9381 66.1775C71.0658 66.8267 71.0119 67.3864 70.6252 67.9376C70.0669 68.7313 67.7463 71.1111 66.9502 71.5667C66.5146 71.8166 66.0527 71.9158 65.5633 71.9991Z" fill="white"/>
</svg>
