<svg width="55" height="80" viewBox="0 0 55 80" fill="none" xmlns="http://www.w3.org/2000/svg">
<g clip-path="url(#clip0_2116_2898)">
<path d="M54.7835 26.478C54.5903 26.0328 54.2388 25.722 53.892 25.4066C53.2402 24.8152 52.5745 24.2424 51.9483 23.6278C51.3803 23.0688 51.2453 22.1412 51.5736 21.4246C51.9646 20.5711 52.3557 19.7153 52.7537 18.8642C53.3636 17.5585 52.8352 16.1531 51.4944 15.6289C50.6448 15.295 49.7742 15.0167 48.9153 14.7105C48.5195 14.5691 48.1611 14.3696 47.8841 14.0357C47.5023 13.5765 47.4092 13.0407 47.4348 12.4749C47.4721 11.5286 47.5489 10.5847 47.5698 9.64082C47.5908 8.71778 46.9716 7.86665 46.1057 7.52805C45.6029 7.3286 45.0815 7.36107 44.5601 7.38426C43.7686 7.41441 42.9749 7.47703 42.1834 7.46543C41.264 7.45383 40.5866 7.01087 40.2537 6.13654C39.9255 5.27381 39.6066 4.40412 39.318 3.52515C38.8664 2.14756 37.2928 1.48659 35.9893 2.13828C35.2002 2.53254 34.4018 2.91521 33.5987 3.28859C32.6373 3.73619 31.8645 3.61096 31.1313 2.85259C30.5144 2.21713 29.9302 1.54921 29.3412 0.885926C28.2961 -0.285258 26.7179 -0.296854 25.6704 0.869692C25.1001 1.50283 24.5321 2.13828 23.9502 2.75982C23.182 3.58313 22.4348 3.74779 21.4129 3.29091C20.5563 2.91057 19.7207 2.47688 18.8664 2.09422C17.6536 1.54921 16.2477 2.08262 15.7495 3.30251C15.4073 4.13277 15.135 4.99319 14.8487 5.84433C14.6438 6.46123 14.318 6.96449 13.7104 7.25902C13.2984 7.45847 12.8608 7.49326 12.4115 7.47239C11.5596 7.4376 10.7076 7.39354 9.85335 7.36802C8.39618 7.32396 7.28817 8.51602 7.40456 9.90288C7.46973 10.6891 7.50698 11.4776 7.5512 12.2661C7.57681 12.7369 7.56983 13.2031 7.35335 13.6414C7.07634 14.198 6.60847 14.5157 6.03817 14.7152C5.16992 15.019 4.29701 15.3135 3.4404 15.6405C2.33472 16.0649 1.71322 17.2732 2.07634 18.398C2.30679 19.1054 2.67923 19.7663 2.97951 20.4528C3.17504 20.9004 3.41247 21.3411 3.53119 21.8095C3.75232 22.6746 3.38454 23.3634 2.74441 23.9339C2.09031 24.5183 1.43854 25.1074 0.784444 25.6942C0.449249 25.998 0.197852 26.3621 0.0884478 26.8027C-0.148982 27.7513 0.0954311 28.5653 0.821688 29.2309C1.55027 29.9011 2.29981 30.5528 3.00744 31.2486C3.61731 31.8469 3.75232 32.7305 3.40781 33.4843C3.02141 34.3331 2.63268 35.1819 2.22997 36.0261C1.61545 37.3202 2.17644 38.8671 3.58705 39.3286C4.35986 39.5837 5.12802 39.862 5.89618 40.1287C6.37802 40.298 6.8296 40.5091 7.15316 40.9288C7.53491 41.4228 7.58612 41.991 7.5512 42.5824C7.50232 43.4915 7.42085 44.4006 7.41387 45.3121C7.40223 46.5389 8.3985 47.5176 9.62988 47.5315C10.1885 47.5385 10.7449 47.513 11.3035 47.5014C11.8506 47.4898 12.4022 47.4457 12.9469 47.4759C13.7593 47.5199 14.3901 47.9212 14.709 48.6679C15.0675 49.5075 15.3934 50.3679 15.6518 51.2445C16.1127 52.81 17.6979 53.4222 19.1294 52.7242C19.9325 52.3322 20.7402 51.9496 21.5596 51.597C22.4674 51.2097 23.196 51.3698 23.8757 52.0887C24.4972 52.745 25.0908 53.4269 25.703 54.0925C26.7691 55.2521 28.2798 55.2312 29.3203 54.0577C29.8976 53.4083 30.4795 52.7613 31.0731 52.1258C31.7155 51.444 32.6187 51.2005 33.3217 51.5228C34.2318 51.9403 35.1397 52.3624 36.0382 52.8053C37.1671 53.3596 38.7384 52.8077 39.1923 51.655C39.5019 50.8665 39.7742 50.0641 40.0396 49.2616C40.4795 47.9443 41.1895 47.4364 42.5838 47.4666C43.0098 47.4759 43.4357 47.4666 43.8617 47.4666V47.5385C44.3599 47.5385 44.8557 47.5431 45.3515 47.5362C46.3175 47.5222 46.9623 47.0167 47.3766 46.1841C47.649 45.6391 47.5768 45.0523 47.5442 44.4725C47.5047 43.7188 47.4418 42.9651 47.4348 42.2113C47.4255 41.3069 47.8422 40.632 48.6941 40.2957C49.5182 39.9687 50.3538 39.6718 51.2011 39.4098C52.7467 38.9343 53.4241 37.4663 52.7467 36.0122C52.372 35.2121 52.0368 34.3957 51.6364 33.6095C51.1941 32.7421 51.4455 31.6591 52.1438 31.0538C52.8515 30.4392 53.5382 29.7968 54.2295 29.1613C55.0047 28.4424 55.2048 27.4382 54.7835 26.478ZM27.4558 45.0987C17.9772 45.0941 9.89757 37.4547 9.83705 27.6237C9.77653 17.7417 17.7281 9.97246 27.2323 9.8449C37.0344 9.71503 45.0675 17.5585 45.1443 27.357C45.2211 37.188 37.2463 45.0987 27.4558 45.0987Z" fill="#62DDE4"/>
<path d="M54.1155 73.8704C53.473 73.6895 52.8724 73.5225 52.2742 73.3509C50.3771 72.8105 48.48 72.2702 46.5829 71.7275C46.115 71.593 45.6448 71.4608 45.1769 71.3286C44.737 71.2034 44.4344 71.3286 44.2272 71.7414C43.2495 73.6826 42.2765 75.626 41.3035 77.5695C40.9055 78.365 40.5098 79.1628 40.0931 79.9977C40.0442 79.9374 39.9953 79.8956 39.9721 79.8446C39.2947 78.3047 38.622 76.7647 37.9423 75.2248C37.2975 73.7637 36.6434 72.3073 35.9963 70.8462C35.5051 69.7376 35.0163 68.6291 34.5298 67.5205C33.7616 65.7765 32.9912 64.0348 32.2277 62.2884C31.5503 60.7462 30.8822 59.1993 30.2072 57.657C30.1001 57.4112 29.9977 57.1631 29.872 56.9288C29.8045 56.8036 29.8324 56.7456 29.9372 56.676C30.8822 56.0638 31.6643 55.2776 32.3929 54.4334C32.7048 54.0739 32.784 54.067 33.2169 54.2595C33.8268 54.5331 34.4297 54.83 35.0582 55.0549C36.1313 55.4376 37.2346 55.4933 38.345 55.1964C39.9046 54.7813 40.9288 53.7585 41.5805 52.3322C41.8669 51.706 42.1183 51.0636 42.372 50.4235C42.4604 50.2009 42.5954 50.1128 42.8399 50.0942C43.4264 50.0478 43.8222 50.1615 44.0759 50.8039C44.6648 52.2905 45.3538 53.7376 45.9986 55.201C46.9949 57.4692 47.9912 59.742 48.9828 62.0125C49.8045 63.891 50.6215 65.7695 51.4409 67.6481C52.3231 69.675 53.203 71.7043 54.0829 73.7313C54.0922 73.7545 54.0945 73.78 54.1155 73.8727V73.8704Z" fill="white"/>
<path d="M0.861267 73.8379C1.11499 73.2419 1.35708 72.6737 1.60149 72.1055C2.21834 70.6815 2.8352 69.2553 3.4567 67.8336C4.12477 66.3006 4.79981 64.7676 5.47021 63.2347C5.99628 62.031 6.52002 60.8274 7.04376 59.6237C7.62337 58.2948 8.19832 56.9659 8.78259 55.6394C9.4716 54.0739 10.1676 52.5108 10.8613 50.9477C10.8845 50.892 10.9148 50.841 10.9451 50.7877C11.0684 50.572 11.1476 50.238 11.3245 50.1708C11.6248 50.0594 11.9926 50.0942 12.3277 50.1197C12.4302 50.1267 12.5512 50.296 12.6047 50.4189C12.8375 50.9569 13.0424 51.5089 13.2728 52.047C13.8594 53.4199 14.7346 54.5215 16.1918 55.0596C17.1043 55.3982 18.0377 55.4538 18.9921 55.2961C19.9837 55.1315 20.8706 54.6862 21.7644 54.2641C22.2067 54.0554 22.2835 54.0623 22.6117 54.438C23.2519 55.1732 23.9246 55.8759 24.7253 56.4441C24.7323 56.4488 24.7393 56.4557 24.7463 56.4604C24.8929 56.5647 25.1234 56.6459 25.1606 56.7781C25.1979 56.9149 25.0442 57.1028 24.9721 57.2674C24.3319 58.7192 23.6895 60.171 23.047 61.6205C22.1276 63.7031 21.2104 65.7881 20.291 67.8707C19.7044 69.195 19.1108 70.5169 18.5289 71.8435C17.7793 73.548 17.0414 75.2573 16.2942 76.9642C15.8636 77.9452 15.426 78.9216 14.9907 79.9003C14.9767 79.9304 14.9465 79.9513 14.9022 80C14.7556 79.7101 14.6182 79.4364 14.4809 79.1605C13.9129 78.0241 13.345 76.8877 12.777 75.7513C12.102 74.3969 11.4292 73.0425 10.7472 71.6927C10.5517 71.3054 10.284 71.1918 9.86034 71.3124C8.16341 71.7948 6.46881 72.2864 4.77188 72.7711C3.51024 73.1306 2.24628 73.4854 0.984638 73.8426C0.96136 73.8495 0.935755 73.8426 0.861267 73.8379Z" fill="white"/>
<path d="M27.5023 12.2105C19.0712 12.1896 12.1718 19.059 12.2183 27.582C12.2649 35.9009 18.9781 42.7076 27.4651 42.7355C35.9497 42.7332 42.7514 35.9472 42.7561 27.4822C42.7607 19.0428 35.9451 12.2313 27.5023 12.2105ZM34.318 37.3016L27.5 32.4221L20.682 37.3016L23.2332 29.3353L16.4711 24.3838L24.8627 24.3398L27.5 16.4012L30.1373 24.3398L38.5289 24.3838L31.7668 29.3353L34.318 37.3016Z" fill="white"/>
</g>
<defs>
<clipPath id="clip0_2116_2898">
<rect width="55" height="80" fill="white"/>
</clipPath>
</defs>
</svg>
