<svg width="63" height="80" viewBox="0 0 63 80" fill="none" xmlns="http://www.w3.org/2000/svg">
<g clip-path="url(#clip0_2104_7503)">
<path d="M43.4397 23.524C45.4215 24.8155 47.7761 25.5724 50.3047 25.5724C57.3035 25.5724 63 19.8352 63 12.7846C63 5.73409 57.3035 0 50.3047 0C43.3058 0 37.6114 5.73409 37.6114 12.7846C37.6114 13.9703 37.7844 15.1123 38.087 16.2045L30.5641 21.5867L18.6471 30.1104C16.8691 29.1574 14.8491 28.6123 12.6943 28.6123C5.69545 28.6133 0 34.3485 0 41.398C0 48.4475 5.69545 54.1826 12.6933 54.1826C15.7119 54.1826 18.4865 53.1143 20.6661 51.3348L30.5631 58.4144L38.086 63.7965C37.7833 64.8856 37.6104 66.0266 37.6104 67.2133C37.6104 74.2638 43.3038 80.001 50.3036 80.001C57.3035 80.001 62.999 74.2638 62.999 67.2133C62.999 60.1627 57.3025 54.4287 50.3036 54.4287C47.772 54.4287 45.4123 55.1886 43.4314 56.4791L32.6613 48.7724L25.2126 43.4433C25.3186 42.7757 25.3896 42.0967 25.3896 41.399C25.3896 39.8541 25.1003 38.3757 24.601 37.0032L32.6624 31.2348L43.4397 23.525V23.524ZM50.0236 5.45481C53.9657 5.45481 57.1656 8.68055 57.1656 12.658C57.1656 16.6354 53.9647 19.8643 50.0236 19.8643C46.0825 19.8643 42.8765 16.6385 42.8765 12.658C42.8765 8.67744 46.0763 5.45481 50.0236 5.45481ZM12.5481 49.0216C8.5998 49.0216 5.40203 45.7959 5.40203 41.8164C5.40203 37.8369 8.60083 34.6122 12.5481 34.6122C16.4954 34.6122 19.6901 37.8379 19.6901 41.8164C19.6901 45.7948 16.4923 49.0216 12.5481 49.0216ZM50.0236 60.1077C53.9657 60.1077 57.1656 63.3335 57.1656 67.3109C57.1656 71.2883 53.9647 74.5172 50.0236 74.5172C46.0825 74.5172 42.8765 71.2925 42.8765 67.3109C42.8765 63.3293 46.0763 60.1077 50.0236 60.1077Z" fill="#F2F2F2"/>
<path d="M45.1417 67.4989C45.1417 70.2614 47.3634 72.5 50.1041 72.5C52.8448 72.5 55.063 70.2621 55.063 67.4989C55.063 64.7358 52.8405 62.5 50.1041 62.5C47.3677 62.5 45.1417 64.7386 45.1417 67.4989Z" fill="#62DDE4"/>
<path d="M7.44092 41.4996C7.44092 44.2621 9.66208 46.5 12.403 46.5C15.1439 46.5 17.3622 44.2614 17.3622 41.4996C17.3622 38.7379 15.1417 36.5 12.403 36.5C9.66423 36.5 7.44092 38.7386 7.44092 41.4996Z" fill="#62DDE4"/>
<path d="M45.1417 12.4989C45.1417 15.2614 47.3634 17.5 50.1041 17.5C52.8448 17.5 55.063 15.2614 55.063 12.4989C55.063 9.73647 52.8405 7.5 50.1041 7.5C47.3677 7.5 45.1417 9.73863 45.1417 12.4989Z" fill="#62DDE4"/>
</g>
<defs>
<clipPath id="clip0_2104_7503">
<rect width="63" height="80" fill="white"/>
</clipPath>
</defs>
</svg>
