<svg width="24" height="24" viewBox="0 0 24 24" fill="none" xmlns="http://www.w3.org/2000/svg">
<g id="Group">
<path id="Vector" d="M13.586 2C14.0556 2.00011 14.5101 2.16543 14.87 2.467L15 2.586L19.414 7C19.746 7.33202 19.9506 7.77028 19.992 8.238L20 8.414V20C20.0002 20.5046 19.8096 20.9906 19.4665 21.3605C19.1234 21.7305 18.6532 21.9572 18.15 21.995L18 22H6C5.49542 22.0002 5.00943 21.8096 4.63945 21.4665C4.26947 21.1234 4.04284 20.6532 4.005 20.15L4 20V4C3.99984 3.49542 4.19041 3.00943 4.5335 2.63945C4.87659 2.26947 5.34684 2.04284 5.85 2.005L6 2H13.586ZM12 4H6V20H18V10H13.5C13.1022 10 12.7206 9.84196 12.4393 9.56066C12.158 9.27936 12 8.89782 12 8.5V4ZM11.293 11.173C11.4652 11.0008 11.6943 10.8974 11.9373 10.8821C12.1803 10.8668 12.4206 10.9407 12.613 11.09L12.707 11.173L14.828 13.294C15.0093 13.4735 15.115 13.7156 15.1237 13.9705C15.1323 14.2255 15.0432 14.4742 14.8745 14.6656C14.7059 14.857 14.4704 14.9767 14.2164 15.0002C13.9623 15.0237 13.7089 14.9492 13.508 14.792L13.414 14.708L13 14.294V17C12.9997 17.2549 12.9021 17.5 12.7272 17.6854C12.5522 17.8707 12.313 17.9822 12.0586 17.9972C11.8042 18.0121 11.5536 17.9293 11.3582 17.7657C11.1627 17.6021 11.0371 17.3701 11.007 17.117L11 17V14.294L10.586 14.708C10.4065 14.8893 10.1644 14.995 9.90945 15.0037C9.65448 15.0123 9.40583 14.9232 9.21442 14.7545C9.02301 14.5859 8.9033 14.3504 8.8798 14.0964C8.85629 13.8423 8.93078 13.5889 9.088 13.388L9.172 13.294L11.292 11.173H11.293ZM14 4.414V8H17.586L14 4.414Z" fill="#F2F2F2"/>
</g>
</svg>
