<svg width="24" height="25" viewBox="0 0 24 25" fill="none" xmlns="http://www.w3.org/2000/svg">
<g id="icon / Sent">
<path id="Vector" d="M5.21081 12.6777C4.29987 12.45 4.17668 11.2058 5.02526 10.8038L18.9695 4.19864C19.8187 3.7964 20.7036 4.68129 20.3014 5.53047L13.6962 19.4747C13.2942 20.3233 12.05 20.2001 11.8223 19.2892L10.6455 14.5821C10.556 14.2238 10.2762 13.944 9.91791 13.8545L5.21081 12.6777Z" fill="#F2F2F2"/>
<path id="Star 2" d="M5.03755 4.12493C5.20741 3.71174 5.79259 3.71174 5.96245 4.12493L6.29464 4.93302C6.34542 5.05652 6.44348 5.15459 6.56698 5.20536L7.37507 5.53755C7.78826 5.70741 7.78826 6.29259 7.37507 6.46245L6.56698 6.79464C6.44348 6.84542 6.34541 6.94348 6.29464 7.06698L5.96245 7.87507C5.79259 8.28826 5.20741 8.28826 5.03755 7.87507L4.70536 7.06698C4.65458 6.94348 4.55652 6.84541 4.43302 6.79464L3.62493 6.46245C3.21174 6.29259 3.21174 5.70741 3.62493 5.53755L4.43302 5.20536C4.55652 5.15458 4.65459 5.05652 4.70536 4.93302L5.03755 4.12493Z" fill="#F2F2F2"/>
</g>
</svg>
