<svg width="24" height="25" viewBox="0 0 24 25" fill="none" xmlns="http://www.w3.org/2000/svg">
<g id="icon / star">
<path id="Star 1" d="M9.59779 6.5723C9.91995 5.70168 11.1513 5.70168 11.4735 6.5723L13.077 10.9056C13.1783 11.1794 13.3941 11.3952 13.6678 11.4965L18.0011 13.0999C18.8718 13.4221 18.8718 14.6535 18.0011 14.9756L13.6678 16.5791C13.3941 16.6804 13.1783 16.8962 13.077 17.1699L11.4735 21.5033C11.1513 22.3739 9.91995 22.3739 9.59779 21.5033L7.99431 17.1699C7.89303 16.8962 7.67721 16.6804 7.4035 16.5791L3.07015 14.9756C2.19953 14.6535 2.19953 13.4221 3.07015 13.0999L7.4035 11.4965C7.67721 11.3952 7.89303 11.1794 7.99431 10.9056L9.59779 6.5723Z" fill="#F2F2F2"/>
<path id="Star 2" d="M16.0019 4.12663C16.1718 3.71344 16.7569 3.71344 16.9268 4.12663L17.259 4.93471C17.3098 5.05821 17.4078 5.15628 17.5313 5.20705L18.3394 5.53924C18.7526 5.7091 18.7526 6.29428 18.3394 6.46414L17.5313 6.79634C17.4078 6.84711 17.3098 6.94517 17.259 7.06868L16.9268 7.87676C16.7569 8.28995 16.1718 8.28995 16.0019 7.87676L15.6697 7.06868C15.6189 6.94517 15.5209 6.84711 15.3974 6.79634L14.5893 6.46414C14.1761 6.29428 14.1761 5.7091 14.5893 5.53924L15.3974 5.20705C15.5209 5.15628 15.6189 5.05821 15.6697 4.93471L16.0019 4.12663Z" fill="#F2F2F2"/>
<path id="Star 3" d="M21.1855 8.88935C21.2858 8.637 21.6429 8.637 21.7432 8.88935L21.9851 9.49849C22.0156 9.57527 22.0764 9.63608 22.1532 9.66657L22.7623 9.90849C23.0147 10.0087 23.0147 10.3659 22.7623 10.4661L22.1532 10.708C22.0764 10.7385 22.0156 10.7993 21.9851 10.8761L21.7432 11.4853C21.6429 11.7376 21.2858 11.7376 21.1855 11.4853L20.9436 10.8761C20.9131 10.7993 20.8523 10.7385 20.7755 10.708L20.1664 10.4661C19.914 10.3659 19.914 10.0087 20.1664 9.90849L20.7755 9.66657C20.8523 9.63608 20.9131 9.57527 20.9436 9.49849L21.1855 8.88935Z" fill="#F2F2F2"/>
</g>
</svg>
