<svg width="1440" height="1024" viewBox="0 0 1440 1024" fill="none" xmlns="http://www.w3.org/2000/svg">
<g opacity="0.2" filter="url(#filter0_bf_654_6301)">
<path d="M414.07 870.977C-163.306 797.148 -304.076 280.175 -293.859 -113.189C-288.814 -307.416 -125.393 -451.512 68.0233 -487.671C434.847 -556.248 573.51 -229.319 655.333 127.186C686.779 264.193 804.591 370.604 1087.07 406.724C1365.66 472.238 1769.09 814.039 1810.9 1201.04C1820.94 1293.94 1774.68 1382.81 1710.51 1453.7L1657.34 1512.44C1571.07 1607.74 1439.37 1648.02 1317.44 1616.41C1158.72 1575.26 1071.57 1416.06 1011.92 1264.96C913.034 1014.44 627.929 893.051 414.07 870.977Z" fill="#36294D"/>
</g>
<g opacity="0.2" filter="url(#filter1_bf_654_6301)">
<path d="M580.852 736.868C112.818 725.53 -43.987 366.122 -56.9651 103.833C-60.8629 25.0564 -5.11857 -40.4362 69.0513 -67.2647C222.69 -122.838 382.129 11.834 427.826 168.694C482.947 357.896 628.635 528.125 960.005 536.153C1167.43 562.663 1513.26 730.922 1580.58 998.017C1595.53 1057.3 1573.28 1117.88 1538.12 1167.9L1498.76 1223.91C1448.6 1295.27 1358.34 1326.45 1274.84 1301.24C1189.44 1275.47 1135.5 1194.49 1105.41 1110.51C1021.71 876.93 751.757 736.868 580.852 736.868Z" fill="#36294D"/>
</g>
<g opacity="0.6" filter="url(#filter2_f_654_6301)">
<circle cx="2" cy="2" r="2" transform="matrix(1 0 0 -1 234.021 186.756)" fill="#FFD7DE"/>
</g>
<g opacity="0.6" filter="url(#filter3_f_654_6301)">
<circle cx="2" cy="2" r="2" transform="matrix(1 0 0 -1 342.584 148.497)" fill="#FFD7DE"/>
</g>
<g opacity="0.6" filter="url(#filter4_f_654_6301)">
<circle cx="2" cy="2" r="2" transform="matrix(1 0 0 -1 265.039 81.543)" fill="#FFD7DE"/>
</g>
<g opacity="0.6" filter="url(#filter5_f_654_6301)">
<circle cx="2" cy="2" r="2" transform="matrix(1 0 0 -1 1209.53 562.652)" fill="#FFD7DE"/>
</g>
<g opacity="0.6" filter="url(#filter6_f_654_6301)">
<circle cx="3" cy="3" r="3" transform="matrix(1 0 0 -1 48.0215 126.147)" fill="#FFD7DE"/>
</g>
<g filter="url(#filter7_f_654_6301)">
<circle cx="1.68" cy="1.68" r="1.68" transform="matrix(1 0 0 -1 97.8652 278.258)" fill="#FEEFEB"/>
</g>
<g filter="url(#filter8_f_654_6301)">
<circle cx="1.82" cy="1.82" r="1.82" transform="matrix(1 0 0 -1 374.225 560.653)" fill="#FEEFEB"/>
</g>
<g filter="url(#filter9_f_654_6301)">
<circle cx="1.82" cy="1.82" r="1.82" transform="matrix(1 0 0 -1 1377.64 811.25)" fill="#FEEFEB"/>
</g>
<g filter="url(#filter10_f_654_6301)">
<circle cx="1.82" cy="1.82" r="1.82" transform="matrix(1 0 0 -1 1284.59 887.768)" fill="#FEEFEB"/>
</g>
<g filter="url(#filter11_f_654_6301)">
<circle cx="1.61" cy="1.61" r="1.61" transform="matrix(1 0 0 -1 107.793 407.265)" fill="#FEEFEB"/>
</g>
<g filter="url(#filter12_f_654_6301)">
<circle cx="1.61" cy="1.61" r="1.61" transform="matrix(1 0 0 -1 1258.55 691.34)" fill="#FEEFEB"/>
</g>
<g filter="url(#filter13_f_654_6301)">
<circle cx="1.79167" cy="1.79167" r="1.79167" transform="matrix(1 0 0 -1 344.953 322.728)" fill="#FAE8EC"/>
</g>
<g filter="url(#filter14_f_654_6301)">
<circle cx="2.70833" cy="2.70833" r="2.70833" transform="matrix(1 0 0 -1 460.461 436.068)" fill="#FAE8EC"/>
</g>
<g filter="url(#filter15_f_654_6301)">
<circle cx="3.125" cy="3.125" r="3.125" transform="matrix(1 0 0 -1 261.861 453.936)" fill="#FAE8EC"/>
</g>
<g filter="url(#filter16_f_654_6301)">
<circle cx="3.125" cy="3.125" r="3.125" transform="matrix(1 0 0 -1 215.334 568.713)" fill="#FAE8EC"/>
</g>
<g filter="url(#filter17_f_654_6301)">
<circle cx="3.125" cy="3.125" r="3.125" transform="matrix(1 0 0 -1 215.334 320.029)" fill="#FAE8EC"/>
</g>
<g filter="url(#filter18_f_654_6301)">
<circle cx="3.125" cy="3.125" r="3.125" transform="matrix(1 0 0 -1 1345.93 660.535)" fill="#FAE8EC"/>
</g>
<g opacity="0.6" filter="url(#filter19_f_654_6301)">
<circle cx="2" cy="2" r="2" transform="matrix(1 0 0 -1 1139.05 732.9)" fill="#FFD7DE"/>
</g>
<g opacity="0.6" filter="url(#filter20_f_654_6301)">
<circle cx="2" cy="2" r="2" transform="matrix(1 0 0 -1 804.061 452.652)" fill="#FFD7DE"/>
</g>
<g filter="url(#filter21_f_654_6301)">
<circle cx="1.82" cy="1.82" r="1.82" transform="matrix(1 0 0 -1 972.18 701.25)" fill="#FEEFEB"/>
</g>
<g filter="url(#filter22_f_654_6301)">
<circle cx="1.82" cy="1.82" r="1.82" transform="matrix(1 0 0 -1 879.125 777.768)" fill="#FEEFEB"/>
</g>
<g filter="url(#filter23_f_654_6301)">
<circle cx="1.82" cy="1.82" r="1.82" transform="matrix(1 0 0 -1 1127.27 672.556)" fill="#FEEFEB"/>
</g>
<g filter="url(#filter24_f_654_6301)">
<circle cx="1.82" cy="1.82" r="1.82" transform="matrix(1 0 0 -1 1052.82 837.07)" fill="#FEEFEB"/>
</g>
<g filter="url(#filter25_f_654_6301)">
<circle cx="1.61" cy="1.61" r="1.61" transform="matrix(1 0 0 -1 853.082 581.34)" fill="#FEEFEB"/>
</g>
<g filter="url(#filter26_f_654_6301)">
<circle cx="1.61" cy="1.61" r="1.61" transform="matrix(1 0 0 -1 1144.65 893.152)" fill="#FEEFEB"/>
</g>
<g filter="url(#filter27_f_654_6301)">
<circle cx="3.125" cy="3.125" r="3.125" transform="matrix(1 0 0 -1 1086.24 605.055)" fill="#FAE8EC"/>
</g>
<g filter="url(#filter28_f_654_6301)">
<circle cx="3.125" cy="3.125" r="3.125" transform="matrix(1 0 0 -1 940.461 550.535)" fill="#FAE8EC"/>
</g>
<g opacity="0.6" filter="url(#filter29_f_654_6301)">
<circle cx="2" cy="2" r="2" transform="matrix(1 0 0 -1 799.051 582.9)" fill="#FFD7DE"/>
</g>
<g opacity="0.6" filter="url(#filter30_f_654_6301)">
<circle cx="2" cy="2" r="2" transform="matrix(1 0 0 -1 464.061 302.652)" fill="#FFD7DE"/>
</g>
<g filter="url(#filter31_f_654_6301)">
<circle cx="1.82" cy="1.82" r="1.82" transform="matrix(1 0 0 -1 632.18 551.25)" fill="#FEEFEB"/>
</g>
<g filter="url(#filter32_f_654_6301)">
<circle cx="1.82" cy="1.82" r="1.82" transform="matrix(1 0 0 -1 539.125 627.768)" fill="#FEEFEB"/>
</g>
<g filter="url(#filter33_f_654_6301)">
<circle cx="1.82" cy="1.82" r="1.82" transform="matrix(1 0 0 -1 787.268 522.556)" fill="#FEEFEB"/>
</g>
<g filter="url(#filter34_f_654_6301)">
<circle cx="1.82" cy="1.82" r="1.82" transform="matrix(1 0 0 -1 712.824 687.07)" fill="#FEEFEB"/>
</g>
<g filter="url(#filter35_f_654_6301)">
<circle cx="1.61" cy="1.61" r="1.61" transform="matrix(1 0 0 -1 513.082 431.34)" fill="#FEEFEB"/>
</g>
<g filter="url(#filter36_f_654_6301)">
<circle cx="1.61" cy="1.61" r="1.61" transform="matrix(1 0 0 -1 804.646 743.152)" fill="#FEEFEB"/>
</g>
<g filter="url(#filter37_f_654_6301)">
<circle cx="3.125" cy="3.125" r="3.125" transform="matrix(1 0 0 -1 746.244 455.055)" fill="#FAE8EC"/>
</g>
<g filter="url(#filter38_f_654_6301)">
<circle cx="3.125" cy="3.125" r="3.125" transform="matrix(1 0 0 -1 600.461 400.535)" fill="#FAE8EC"/>
</g>
<defs>
<filter id="filter0_bf_654_6301" x="-349.966" y="-552.442" width="2217.84" height="2235.06" filterUnits="userSpaceOnUse" color-interpolation-filters="sRGB">
<feFlood flood-opacity="0" result="BackgroundImageFix"/>
<feGaussianBlur in="BackgroundImageFix" stdDeviation="27.7996"/>
<feComposite in2="SourceAlpha" operator="in" result="effect1_backgroundBlur_654_6301"/>
<feBlend mode="normal" in="SourceGraphic" in2="effect1_backgroundBlur_654_6301" result="shape"/>
<feGaussianBlur stdDeviation="16.6797" result="effect2_foregroundBlur_654_6301"/>
</filter>
<filter id="filter1_bf_654_6301" x="-112.757" y="-135.621" width="1753.66" height="1501.1" filterUnits="userSpaceOnUse" color-interpolation-filters="sRGB">
<feFlood flood-opacity="0" result="BackgroundImageFix"/>
<feGaussianBlur in="BackgroundImageFix" stdDeviation="27.7996"/>
<feComposite in2="SourceAlpha" operator="in" result="effect1_backgroundBlur_654_6301"/>
<feBlend mode="normal" in="SourceGraphic" in2="effect1_backgroundBlur_654_6301" result="shape"/>
<feGaussianBlur stdDeviation="22.2397" result="effect2_foregroundBlur_654_6301"/>
</filter>
<filter id="filter2_f_654_6301" x="230.821" y="179.556" width="10.4" height="10.4" filterUnits="userSpaceOnUse" color-interpolation-filters="sRGB">
<feFlood flood-opacity="0" result="BackgroundImageFix"/>
<feBlend mode="normal" in="SourceGraphic" in2="BackgroundImageFix" result="shape"/>
<feGaussianBlur stdDeviation="1.6" result="effect1_foregroundBlur_654_6301"/>
</filter>
<filter id="filter3_f_654_6301" x="339.384" y="141.297" width="10.4" height="10.4" filterUnits="userSpaceOnUse" color-interpolation-filters="sRGB">
<feFlood flood-opacity="0" result="BackgroundImageFix"/>
<feBlend mode="normal" in="SourceGraphic" in2="BackgroundImageFix" result="shape"/>
<feGaussianBlur stdDeviation="1.6" result="effect1_foregroundBlur_654_6301"/>
</filter>
<filter id="filter4_f_654_6301" x="261.839" y="74.343" width="10.4" height="10.4" filterUnits="userSpaceOnUse" color-interpolation-filters="sRGB">
<feFlood flood-opacity="0" result="BackgroundImageFix"/>
<feBlend mode="normal" in="SourceGraphic" in2="BackgroundImageFix" result="shape"/>
<feGaussianBlur stdDeviation="1.6" result="effect1_foregroundBlur_654_6301"/>
</filter>
<filter id="filter5_f_654_6301" x="1206.33" y="555.452" width="10.4" height="10.4" filterUnits="userSpaceOnUse" color-interpolation-filters="sRGB">
<feFlood flood-opacity="0" result="BackgroundImageFix"/>
<feBlend mode="normal" in="SourceGraphic" in2="BackgroundImageFix" result="shape"/>
<feGaussianBlur stdDeviation="1.6" result="effect1_foregroundBlur_654_6301"/>
</filter>
<filter id="filter6_f_654_6301" x="43.2215" y="115.347" width="15.6" height="15.6" filterUnits="userSpaceOnUse" color-interpolation-filters="sRGB">
<feFlood flood-opacity="0" result="BackgroundImageFix"/>
<feBlend mode="normal" in="SourceGraphic" in2="BackgroundImageFix" result="shape"/>
<feGaussianBlur stdDeviation="2.4" result="effect1_foregroundBlur_654_6301"/>
</filter>
<filter id="filter7_f_654_6301" x="96.2652" y="273.297" width="6.55937" height="6.56011" filterUnits="userSpaceOnUse" color-interpolation-filters="sRGB">
<feFlood flood-opacity="0" result="BackgroundImageFix"/>
<feBlend mode="normal" in="SourceGraphic" in2="BackgroundImageFix" result="shape"/>
<feGaussianBlur stdDeviation="0.8" result="effect1_foregroundBlur_654_6301"/>
</filter>
<filter id="filter8_f_654_6301" x="372.491" y="555.279" width="7.10729" height="7.10656" filterUnits="userSpaceOnUse" color-interpolation-filters="sRGB">
<feFlood flood-opacity="0" result="BackgroundImageFix"/>
<feBlend mode="normal" in="SourceGraphic" in2="BackgroundImageFix" result="shape"/>
<feGaussianBlur stdDeviation="0.866667" result="effect1_foregroundBlur_654_6301"/>
</filter>
<filter id="filter9_f_654_6301" x="1375.91" y="805.877" width="7.10729" height="7.10656" filterUnits="userSpaceOnUse" color-interpolation-filters="sRGB">
<feFlood flood-opacity="0" result="BackgroundImageFix"/>
<feBlend mode="normal" in="SourceGraphic" in2="BackgroundImageFix" result="shape"/>
<feGaussianBlur stdDeviation="0.866667" result="effect1_foregroundBlur_654_6301"/>
</filter>
<filter id="filter10_f_654_6301" x="1282.86" y="882.395" width="7.10729" height="7.10656" filterUnits="userSpaceOnUse" color-interpolation-filters="sRGB">
<feFlood flood-opacity="0" result="BackgroundImageFix"/>
<feBlend mode="normal" in="SourceGraphic" in2="BackgroundImageFix" result="shape"/>
<feGaussianBlur stdDeviation="0.866667" result="effect1_foregroundBlur_654_6301"/>
</filter>
<filter id="filter11_f_654_6301" x="106.26" y="402.512" width="6.28737" height="6.28664" filterUnits="userSpaceOnUse" color-interpolation-filters="sRGB">
<feFlood flood-opacity="0" result="BackgroundImageFix"/>
<feBlend mode="normal" in="SourceGraphic" in2="BackgroundImageFix" result="shape"/>
<feGaussianBlur stdDeviation="0.766667" result="effect1_foregroundBlur_654_6301"/>
</filter>
<filter id="filter12_f_654_6301" x="1257.01" y="686.586" width="6.28737" height="6.28664" filterUnits="userSpaceOnUse" color-interpolation-filters="sRGB">
<feFlood flood-opacity="0" result="BackgroundImageFix"/>
<feBlend mode="normal" in="SourceGraphic" in2="BackgroundImageFix" result="shape"/>
<feGaussianBlur stdDeviation="0.766667" result="effect1_foregroundBlur_654_6301"/>
</filter>
<filter id="filter13_f_654_6301" x="344.236" y="318.428" width="5.01732" height="5.01659" filterUnits="userSpaceOnUse" color-interpolation-filters="sRGB">
<feFlood flood-opacity="0" result="BackgroundImageFix"/>
<feBlend mode="normal" in="SourceGraphic" in2="BackgroundImageFix" result="shape"/>
<feGaussianBlur stdDeviation="0.358333" result="effect1_foregroundBlur_654_6301"/>
</filter>
<filter id="filter14_f_654_6301" x="459.378" y="429.568" width="7.58268" height="7.58341" filterUnits="userSpaceOnUse" color-interpolation-filters="sRGB">
<feFlood flood-opacity="0" result="BackgroundImageFix"/>
<feBlend mode="normal" in="SourceGraphic" in2="BackgroundImageFix" result="shape"/>
<feGaussianBlur stdDeviation="0.541667" result="effect1_foregroundBlur_654_6301"/>
</filter>
<filter id="filter15_f_654_6301" x="260.611" y="446.436" width="8.75" height="8.75" filterUnits="userSpaceOnUse" color-interpolation-filters="sRGB">
<feFlood flood-opacity="0" result="BackgroundImageFix"/>
<feBlend mode="normal" in="SourceGraphic" in2="BackgroundImageFix" result="shape"/>
<feGaussianBlur stdDeviation="0.625" result="effect1_foregroundBlur_654_6301"/>
</filter>
<filter id="filter16_f_654_6301" x="214.084" y="561.213" width="8.75" height="8.75" filterUnits="userSpaceOnUse" color-interpolation-filters="sRGB">
<feFlood flood-opacity="0" result="BackgroundImageFix"/>
<feBlend mode="normal" in="SourceGraphic" in2="BackgroundImageFix" result="shape"/>
<feGaussianBlur stdDeviation="0.625" result="effect1_foregroundBlur_654_6301"/>
</filter>
<filter id="filter17_f_654_6301" x="214.084" y="312.529" width="8.75" height="8.75" filterUnits="userSpaceOnUse" color-interpolation-filters="sRGB">
<feFlood flood-opacity="0" result="BackgroundImageFix"/>
<feBlend mode="normal" in="SourceGraphic" in2="BackgroundImageFix" result="shape"/>
<feGaussianBlur stdDeviation="0.625" result="effect1_foregroundBlur_654_6301"/>
</filter>
<filter id="filter18_f_654_6301" x="1344.68" y="653.035" width="8.75" height="8.75" filterUnits="userSpaceOnUse" color-interpolation-filters="sRGB">
<feFlood flood-opacity="0" result="BackgroundImageFix"/>
<feBlend mode="normal" in="SourceGraphic" in2="BackgroundImageFix" result="shape"/>
<feGaussianBlur stdDeviation="0.625" result="effect1_foregroundBlur_654_6301"/>
</filter>
<filter id="filter19_f_654_6301" x="1135.85" y="725.7" width="10.4" height="10.4" filterUnits="userSpaceOnUse" color-interpolation-filters="sRGB">
<feFlood flood-opacity="0" result="BackgroundImageFix"/>
<feBlend mode="normal" in="SourceGraphic" in2="BackgroundImageFix" result="shape"/>
<feGaussianBlur stdDeviation="1.6" result="effect1_foregroundBlur_654_6301"/>
</filter>
<filter id="filter20_f_654_6301" x="800.861" y="445.452" width="10.4" height="10.4" filterUnits="userSpaceOnUse" color-interpolation-filters="sRGB">
<feFlood flood-opacity="0" result="BackgroundImageFix"/>
<feBlend mode="normal" in="SourceGraphic" in2="BackgroundImageFix" result="shape"/>
<feGaussianBlur stdDeviation="1.6" result="effect1_foregroundBlur_654_6301"/>
</filter>
<filter id="filter21_f_654_6301" x="970.446" y="695.877" width="7.10729" height="7.10656" filterUnits="userSpaceOnUse" color-interpolation-filters="sRGB">
<feFlood flood-opacity="0" result="BackgroundImageFix"/>
<feBlend mode="normal" in="SourceGraphic" in2="BackgroundImageFix" result="shape"/>
<feGaussianBlur stdDeviation="0.866667" result="effect1_foregroundBlur_654_6301"/>
</filter>
<filter id="filter22_f_654_6301" x="877.392" y="772.395" width="7.10729" height="7.10656" filterUnits="userSpaceOnUse" color-interpolation-filters="sRGB">
<feFlood flood-opacity="0" result="BackgroundImageFix"/>
<feBlend mode="normal" in="SourceGraphic" in2="BackgroundImageFix" result="shape"/>
<feGaussianBlur stdDeviation="0.866667" result="effect1_foregroundBlur_654_6301"/>
</filter>
<filter id="filter23_f_654_6301" x="1125.53" y="667.182" width="7.10729" height="7.10656" filterUnits="userSpaceOnUse" color-interpolation-filters="sRGB">
<feFlood flood-opacity="0" result="BackgroundImageFix"/>
<feBlend mode="normal" in="SourceGraphic" in2="BackgroundImageFix" result="shape"/>
<feGaussianBlur stdDeviation="0.866667" result="effect1_foregroundBlur_654_6301"/>
</filter>
<filter id="filter24_f_654_6301" x="1051.09" y="831.697" width="7.10729" height="7.10656" filterUnits="userSpaceOnUse" color-interpolation-filters="sRGB">
<feFlood flood-opacity="0" result="BackgroundImageFix"/>
<feBlend mode="normal" in="SourceGraphic" in2="BackgroundImageFix" result="shape"/>
<feGaussianBlur stdDeviation="0.866667" result="effect1_foregroundBlur_654_6301"/>
</filter>
<filter id="filter25_f_654_6301" x="851.549" y="576.586" width="6.28737" height="6.28664" filterUnits="userSpaceOnUse" color-interpolation-filters="sRGB">
<feFlood flood-opacity="0" result="BackgroundImageFix"/>
<feBlend mode="normal" in="SourceGraphic" in2="BackgroundImageFix" result="shape"/>
<feGaussianBlur stdDeviation="0.766667" result="effect1_foregroundBlur_654_6301"/>
</filter>
<filter id="filter26_f_654_6301" x="1143.11" y="888.398" width="6.28737" height="6.28664" filterUnits="userSpaceOnUse" color-interpolation-filters="sRGB">
<feFlood flood-opacity="0" result="BackgroundImageFix"/>
<feBlend mode="normal" in="SourceGraphic" in2="BackgroundImageFix" result="shape"/>
<feGaussianBlur stdDeviation="0.766667" result="effect1_foregroundBlur_654_6301"/>
</filter>
<filter id="filter27_f_654_6301" x="1084.99" y="597.555" width="8.75" height="8.75" filterUnits="userSpaceOnUse" color-interpolation-filters="sRGB">
<feFlood flood-opacity="0" result="BackgroundImageFix"/>
<feBlend mode="normal" in="SourceGraphic" in2="BackgroundImageFix" result="shape"/>
<feGaussianBlur stdDeviation="0.625" result="effect1_foregroundBlur_654_6301"/>
</filter>
<filter id="filter28_f_654_6301" x="939.211" y="543.035" width="8.75" height="8.75" filterUnits="userSpaceOnUse" color-interpolation-filters="sRGB">
<feFlood flood-opacity="0" result="BackgroundImageFix"/>
<feBlend mode="normal" in="SourceGraphic" in2="BackgroundImageFix" result="shape"/>
<feGaussianBlur stdDeviation="0.625" result="effect1_foregroundBlur_654_6301"/>
</filter>
<filter id="filter29_f_654_6301" x="795.851" y="575.7" width="10.4" height="10.4" filterUnits="userSpaceOnUse" color-interpolation-filters="sRGB">
<feFlood flood-opacity="0" result="BackgroundImageFix"/>
<feBlend mode="normal" in="SourceGraphic" in2="BackgroundImageFix" result="shape"/>
<feGaussianBlur stdDeviation="1.6" result="effect1_foregroundBlur_654_6301"/>
</filter>
<filter id="filter30_f_654_6301" x="460.861" y="295.452" width="10.4" height="10.4" filterUnits="userSpaceOnUse" color-interpolation-filters="sRGB">
<feFlood flood-opacity="0" result="BackgroundImageFix"/>
<feBlend mode="normal" in="SourceGraphic" in2="BackgroundImageFix" result="shape"/>
<feGaussianBlur stdDeviation="1.6" result="effect1_foregroundBlur_654_6301"/>
</filter>
<filter id="filter31_f_654_6301" x="630.446" y="545.877" width="7.10729" height="7.10656" filterUnits="userSpaceOnUse" color-interpolation-filters="sRGB">
<feFlood flood-opacity="0" result="BackgroundImageFix"/>
<feBlend mode="normal" in="SourceGraphic" in2="BackgroundImageFix" result="shape"/>
<feGaussianBlur stdDeviation="0.866667" result="effect1_foregroundBlur_654_6301"/>
</filter>
<filter id="filter32_f_654_6301" x="537.392" y="622.395" width="7.10729" height="7.10656" filterUnits="userSpaceOnUse" color-interpolation-filters="sRGB">
<feFlood flood-opacity="0" result="BackgroundImageFix"/>
<feBlend mode="normal" in="SourceGraphic" in2="BackgroundImageFix" result="shape"/>
<feGaussianBlur stdDeviation="0.866667" result="effect1_foregroundBlur_654_6301"/>
</filter>
<filter id="filter33_f_654_6301" x="785.534" y="517.182" width="7.10729" height="7.10656" filterUnits="userSpaceOnUse" color-interpolation-filters="sRGB">
<feFlood flood-opacity="0" result="BackgroundImageFix"/>
<feBlend mode="normal" in="SourceGraphic" in2="BackgroundImageFix" result="shape"/>
<feGaussianBlur stdDeviation="0.866667" result="effect1_foregroundBlur_654_6301"/>
</filter>
<filter id="filter34_f_654_6301" x="711.091" y="681.697" width="7.10729" height="7.10656" filterUnits="userSpaceOnUse" color-interpolation-filters="sRGB">
<feFlood flood-opacity="0" result="BackgroundImageFix"/>
<feBlend mode="normal" in="SourceGraphic" in2="BackgroundImageFix" result="shape"/>
<feGaussianBlur stdDeviation="0.866667" result="effect1_foregroundBlur_654_6301"/>
</filter>
<filter id="filter35_f_654_6301" x="511.549" y="426.586" width="6.28737" height="6.28664" filterUnits="userSpaceOnUse" color-interpolation-filters="sRGB">
<feFlood flood-opacity="0" result="BackgroundImageFix"/>
<feBlend mode="normal" in="SourceGraphic" in2="BackgroundImageFix" result="shape"/>
<feGaussianBlur stdDeviation="0.766667" result="effect1_foregroundBlur_654_6301"/>
</filter>
<filter id="filter36_f_654_6301" x="803.113" y="738.398" width="6.28737" height="6.28664" filterUnits="userSpaceOnUse" color-interpolation-filters="sRGB">
<feFlood flood-opacity="0" result="BackgroundImageFix"/>
<feBlend mode="normal" in="SourceGraphic" in2="BackgroundImageFix" result="shape"/>
<feGaussianBlur stdDeviation="0.766667" result="effect1_foregroundBlur_654_6301"/>
</filter>
<filter id="filter37_f_654_6301" x="744.994" y="447.555" width="8.75" height="8.75" filterUnits="userSpaceOnUse" color-interpolation-filters="sRGB">
<feFlood flood-opacity="0" result="BackgroundImageFix"/>
<feBlend mode="normal" in="SourceGraphic" in2="BackgroundImageFix" result="shape"/>
<feGaussianBlur stdDeviation="0.625" result="effect1_foregroundBlur_654_6301"/>
</filter>
<filter id="filter38_f_654_6301" x="599.211" y="393.035" width="8.75" height="8.75" filterUnits="userSpaceOnUse" color-interpolation-filters="sRGB">
<feFlood flood-opacity="0" result="BackgroundImageFix"/>
<feBlend mode="normal" in="SourceGraphic" in2="BackgroundImageFix" result="shape"/>
<feGaussianBlur stdDeviation="0.625" result="effect1_foregroundBlur_654_6301"/>
</filter>
</defs>
</svg>
