<svg width="24" height="24" viewBox="0 0 24 24" fill="none" xmlns="http://www.w3.org/2000/svg">
<g id="icon / star">
<path id="Star 1" d="M9.59791 6.07235C9.92007 5.20173 11.1515 5.20173 11.4736 6.07235L13.0771 10.4057C13.1784 10.6794 13.3942 10.8952 13.6679 10.9965L18.0013 12.6C18.8719 12.9221 18.8719 14.1535 18.0013 14.4757L13.6679 16.0792C13.3942 16.1805 13.1784 16.3963 13.0771 16.67L11.4736 21.0033C11.1515 21.874 9.92007 21.874 9.59791 21.0033L7.99443 16.67C7.89315 16.3963 7.67734 16.1805 7.40362 16.0792L3.07027 14.4757C2.19966 14.1535 2.19965 12.9221 3.07027 12.6L7.40362 10.9965C7.67734 10.8952 7.89315 10.6794 7.99443 10.4057L9.59791 6.07235Z" fill="#F2F2F2"/>
<path id="Star 2" d="M16.0018 3.62664C16.1716 3.21345 16.7568 3.21345 16.9267 3.62664L17.2589 4.43473C17.3096 4.55823 17.4077 4.65629 17.5312 4.70707L18.3393 5.03926C18.7525 5.20912 18.7525 5.7943 18.3393 5.96416L17.5312 6.29635C17.4077 6.34712 17.3096 6.44519 17.2589 6.56869L16.9267 7.37678C16.7568 7.78996 16.1716 7.78996 16.0018 7.37678L15.6696 6.56869C15.6188 6.44519 15.5208 6.34712 15.3972 6.29635L14.5892 5.96416C14.176 5.7943 14.176 5.20912 14.5892 5.03926L15.3972 4.70707C15.5208 4.65629 15.6188 4.55823 15.6696 4.43472L16.0018 3.62664Z" fill="#F2F2F2"/>
<path id="Star 3" d="M21.1854 8.3893C21.2856 8.13694 21.6428 8.13694 21.743 8.3893L21.985 8.99844C22.0155 9.07522 22.0763 9.13603 22.1531 9.16652L22.7622 9.40844C23.0145 9.50866 23.0145 9.86585 22.7622 9.96607L22.1531 10.208C22.0763 10.2385 22.0155 10.2993 21.985 10.3761L21.743 10.9852C21.6428 11.2376 21.2856 11.2376 21.1854 10.9852L20.9435 10.3761C20.913 10.2993 20.8522 10.2385 20.7754 10.208L20.1663 9.96607C19.9139 9.86585 19.9139 9.50866 20.1663 9.40844L20.7754 9.16652C20.8522 9.13603 20.913 9.07522 20.9435 8.99844L21.1854 8.3893Z" fill="#F2F2F2"/>
</g>
</svg>
