<svg width="48" height="49" viewBox="0 0 48 49" fill="none" xmlns="http://www.w3.org/2000/svg">
<g id="icon / jam-icons / outline &#38; logos / files">
<path id="Vector" d="M18 34.7356H10C8.93913 34.7356 7.92172 34.3142 7.17157 33.564C6.42143 32.8139 6 31.7965 6 30.7356V8.7356C6 7.67473 6.42143 6.65731 7.17157 5.90717C7.92172 5.15702 8.93913 4.7356 10 4.7356H26C27.0609 4.7356 28.0783 5.15702 28.8284 5.90717C29.5786 6.65731 30 7.67473 30 8.7356V14.7356H36L42 20.7356V40.7356C42 41.7965 41.5786 42.8139 40.8284 43.564C40.0783 44.3142 39.0609 44.7356 38 44.7356H22C20.9391 44.7356 19.9217 44.3142 19.1716 43.564C18.4214 42.8139 18 41.7965 18 40.7356V34.7356ZM18 30.7356V18.7356C18 17.6747 18.4214 16.6573 19.1716 15.9072C19.9217 15.157 20.9391 14.7356 22 14.7356H26V8.7356H10V30.7356H18ZM34.344 18.7356H22V40.7356H38V22.3916L34.344 18.7356Z" fill="#C1C7CD"/>
</g>
</svg>
