<svg width="24" height="24" viewBox="0 0 24 24" fill="none" xmlns="http://www.w3.org/2000/svg">
<g id="icon / login">
<path id="Vector" d="M11 21.0323C11 20.7756 11.1023 20.5294 11.2843 20.348C11.4663 20.1665 11.7132 20.0645 11.9706 20.0645H19.7353C19.8211 20.0645 19.9034 20.0305 19.9641 19.97C20.0247 19.9095 20.0588 19.8275 20.0588 19.7419V4.25806C20.0588 4.17251 20.0247 4.09046 19.9641 4.02997C19.9034 3.96947 19.8211 3.93548 19.7353 3.93548H11.9706C11.7132 3.93548 11.4663 3.83353 11.2843 3.65204C11.1023 3.47055 11 3.2244 11 2.96774C11 2.71108 11.1023 2.46493 11.2843 2.28344C11.4663 2.10196 11.7132 2 11.9706 2H19.7353C20.9854 2 22 3.01161 22 4.25806V19.7419C22 20.3408 21.7614 20.9152 21.3367 21.3386C20.912 21.7621 20.3359 22 19.7353 22H11.9706C11.7132 22 11.4663 21.898 11.2843 21.7166C11.1023 21.5351 11 21.2889 11 21.0323Z" fill="#F2F2F2"/>
<path id="Vector_2" d="M3 14.3528C3 14.6731 3.13048 14.9804 3.36274 15.2069C3.595 15.4334 3.91002 15.5607 4.23848 15.5607H10.2526C10.2811 15.9907 10.317 16.4182 10.3591 16.8482L10.3962 17.2166C10.4101 17.3555 10.458 17.489 10.5361 17.6059C10.6141 17.7228 10.7199 17.8197 10.8445 17.8882C10.9691 17.9567 11.1088 17.9949 11.2518 17.9995C11.3947 18.0042 11.5367 17.9751 11.6657 17.9148C13.9292 16.8564 15.9783 15.4084 17.7144 13.6402L17.7516 13.6027C17.911 13.4406 18 13.2246 18 13C18 12.7754 17.911 12.5594 17.7516 12.3973L17.7144 12.3598C15.9783 10.5916 13.9292 9.14351 11.6657 8.08521C11.5367 8.02491 11.3947 7.99584 11.2518 8.00048C11.1088 8.00511 10.9691 8.04331 10.8445 8.11183C10.7199 8.18035 10.6141 8.27717 10.5361 8.39407C10.458 8.51097 10.4101 8.64451 10.3962 8.78335L10.3591 9.15175C10.317 9.58054 10.2811 10.0093 10.2526 10.4393H4.23848C3.91002 10.4393 3.595 10.5666 3.36274 10.7931C3.13048 11.0196 3 11.3268 3 11.6472V14.3528Z" fill="#F2F2F2"/>
<path id="Star 3" d="M2.72118 5.70204C2.82141 5.44969 3.17859 5.44969 3.27882 5.70204L3.52073 6.31118C3.55123 6.38796 3.61204 6.44877 3.68882 6.47927L4.29796 6.72118C4.55031 6.82141 4.55031 7.17859 4.29796 7.27882L3.68882 7.52073C3.61204 7.55123 3.55123 7.61204 3.52073 7.68882L3.27882 8.29796C3.17859 8.55031 2.82141 8.55031 2.72118 8.29796L2.47927 7.68882C2.44877 7.61204 2.38796 7.55123 2.31118 7.52073L1.70204 7.27882C1.44969 7.17859 1.44969 6.82141 1.70204 6.72118L2.31118 6.47927C2.38796 6.44877 2.44877 6.38796 2.47927 6.31118L2.72118 5.70204Z" fill="#F2F2F2"/>
<path id="Star 2" d="M6.53755 2.12493C6.70741 1.71174 7.29259 1.71174 7.46245 2.12493L7.79464 2.93302C7.84542 3.05652 7.94348 3.15459 8.06698 3.20536L8.87507 3.53755C9.28826 3.70741 9.28826 4.29259 8.87507 4.46245L8.06698 4.79464C7.94348 4.84542 7.84541 4.94348 7.79464 5.06698L7.46245 5.87507C7.29259 6.28826 6.70741 6.28826 6.53755 5.87507L6.20536 5.06698C6.15458 4.94348 6.05652 4.84541 5.93302 4.79464L5.12493 4.46245C4.71174 4.29259 4.71174 3.70741 5.12493 3.53755L5.93302 3.20536C6.05652 3.15458 6.15459 3.05652 6.20536 2.93302L6.53755 2.12493Z" fill="#F2F2F2"/>
</g>
</svg>
