<svg width="48" height="49" viewBox="0 0 48 49" fill="none" xmlns="http://www.w3.org/2000/svg">
<g id="icon / jam-icons / outline &#38; logos / medal">
<path id="Vector" d="M16 31.7695L14.776 29.2535C14.5914 28.8719 14.2902 28.5589 13.916 28.3595L9.91603 26.2395C9.50439 26.0206 9.18216 25.6648 9.00504 25.2335C8.82793 24.8022 8.80705 24.3226 8.94603 23.8775L10.366 19.3315C10.4872 18.9434 10.4872 18.5276 10.366 18.1395L8.94603 13.5935C8.80669 13.148 8.82759 12.6678 9.00511 12.236C9.18264 11.8043 9.50559 11.4482 9.91803 11.2295L13.916 9.10954C14.2899 8.91074 14.591 8.59842 14.776 8.21754L16.786 4.08354C16.9993 3.64513 17.3654 3.29972 17.8155 3.11225C18.2655 2.92479 18.7686 2.90818 19.23 3.06554L23.354 4.47154C23.7728 4.61448 24.2272 4.61448 24.646 4.47154L28.77 3.06554C29.2317 2.90832 29.735 2.92523 30.185 3.11307C30.6351 3.30092 31.0011 3.64676 31.214 4.08554L33.224 8.21754C33.4087 8.59916 33.7099 8.91222 34.084 9.11154L38.084 11.2315C38.4957 11.4505 38.8179 11.8063 38.995 12.2376C39.1721 12.6689 39.193 13.1485 39.054 13.5935L37.634 18.1395C37.5129 18.5276 37.5129 18.9434 37.634 19.3315L39.054 23.8775C39.1934 24.3231 39.1725 24.8033 38.995 25.2351C38.8174 25.6668 38.4945 26.0229 38.082 26.2415L34.084 28.3615C33.7102 28.5603 33.4091 28.8727 33.224 29.2535L32 31.7695V45.5275L24 42.8115L16 45.5275V31.7675V31.7695ZM20 34.1435V39.9435L24 38.5855L28 39.9455V34.1435L24.646 32.9995C24.2272 32.8566 23.7728 32.8566 23.354 32.9995L20 34.1435ZM29.626 27.5035C30.1823 26.3593 31.0879 25.4214 32.212 24.8255L34.74 23.4855L33.816 20.5255C33.4517 19.36 33.4517 18.1111 33.816 16.9455L34.74 13.9855L32.212 12.6455C31.0876 12.0491 30.1819 11.1106 29.626 9.96554L28.388 7.42154L25.936 8.25754C24.6808 8.68544 23.3192 8.68544 22.064 8.25754L19.612 7.42154L18.374 9.96754C17.8178 11.1118 16.9122 12.0496 15.788 12.6455L13.26 13.9855L14.184 16.9455C14.5483 18.1111 14.5483 19.36 14.184 20.5255L13.26 23.4855L15.788 24.8255C16.9125 25.422 17.8181 26.3605 18.374 27.5055L19.612 30.0495L22.064 29.2135C23.3192 28.7856 24.6808 28.7856 25.936 29.2135L28.388 30.0495L29.626 27.5035ZM24 12.7355C24.5305 12.7355 25.0392 12.9463 25.4142 13.3213C25.7893 13.6964 26 14.2051 26 14.7355V22.7355C26 23.266 25.7893 23.7747 25.4142 24.1498C25.0392 24.5248 24.5305 24.7355 24 24.7355C23.4696 24.7355 22.9609 24.5248 22.5858 24.1498C22.2107 23.7747 22 23.266 22 22.7355V14.7355C22 14.2051 22.2107 13.6964 22.5858 13.3213C22.9609 12.9463 23.4696 12.7355 24 12.7355Z" fill="#C1C7CD"/>
</g>
</svg>
