<svg width="25" height="25" viewBox="0 0 25 25" fill="none" xmlns="http://www.w3.org/2000/svg">
<path d="M5.71081 12.6777C4.79987 12.45 4.67668 11.2058 5.52526 10.8038L19.4695 4.19864C20.3187 3.7964 21.2036 4.68129 20.8014 5.53047L14.1962 19.4747C13.7942 20.3233 12.55 20.2001 12.3223 19.2892L11.1455 14.5821C11.0559 14.2238 10.7762 13.944 10.4179 13.8545L5.71081 12.6777Z" fill="#F2F2F2"/>
<path d="M5.53755 4.12493C5.70741 3.71174 6.29259 3.71174 6.46245 4.12493L6.79464 4.93302C6.84542 5.05652 6.94348 5.15459 7.06698 5.20536L7.87507 5.53755C8.28826 5.70741 8.28826 6.29259 7.87507 6.46245L7.06698 6.79464C6.94348 6.84542 6.84541 6.94348 6.79464 7.06698L6.46245 7.87507C6.29259 8.28826 5.70741 8.28826 5.53755 7.87507L5.20536 7.06698C5.15458 6.94348 5.05652 6.84541 4.93302 6.79464L4.12493 6.46245C3.71174 6.29259 3.71174 5.70741 4.12493 5.53755L4.93302 5.20536C5.05652 5.15458 5.15459 5.05652 5.20536 4.93302L5.53755 4.12493Z" fill="#F2F2F2"/>
</svg>
