<svg width="48" height="49" viewBox="0 0 48 49" fill="none" xmlns="http://www.w3.org/2000/svg">
<g id="icon / jam-icons / outline &#38; logos / smiley">
<path id="Vector" d="M24 44.7356C12.954 44.7356 4 35.7816 4 24.7356C4 13.6896 12.954 4.7356 24 4.7356C35.046 4.7356 44 13.6896 44 24.7356C44 35.7816 35.046 44.7356 24 44.7356ZM24 40.7356C28.2435 40.7356 32.3131 39.0499 35.3137 36.0493C38.3143 33.0487 40 28.9791 40 24.7356C40 20.4921 38.3143 16.4225 35.3137 13.4219C32.3131 10.4213 28.2435 8.7356 24 8.7356C19.7565 8.7356 15.6869 10.4213 12.6863 13.4219C9.68571 16.4225 8 20.4921 8 24.7356C8 28.9791 9.68571 33.0487 12.6863 36.0493C15.6869 39.0499 19.7565 40.7356 24 40.7356ZM16.16 31.5236C16.0565 31.282 16.0016 31.0223 15.9985 30.7595C15.9954 30.4966 16.044 30.2358 16.1417 29.9917C16.2394 29.7477 16.3842 29.5253 16.5678 29.3372C16.7515 29.1491 16.9704 28.9991 17.212 28.8956C17.4536 28.7921 17.7133 28.7372 17.9761 28.7341C18.239 28.731 18.4998 28.7796 18.7439 28.8773C18.9879 28.975 19.2103 29.1198 19.3984 29.3034C19.5865 29.4871 19.7365 29.706 19.84 29.9476C20.1896 30.761 20.77 31.454 21.5094 31.941C22.2487 32.428 23.1147 32.6875 24 32.6875C24.8853 32.6875 25.7513 32.428 26.4906 31.941C27.23 31.454 27.8104 30.761 28.16 29.9476C28.2635 29.706 28.4135 29.4871 28.6016 29.3034C28.7897 29.1198 29.0121 28.975 29.2561 28.8773C29.5002 28.7796 29.761 28.731 30.0239 28.7341C30.2867 28.7372 30.5464 28.7921 30.788 28.8956C31.0296 28.9991 31.2485 29.1491 31.4322 29.3372C31.6158 29.5253 31.7606 29.7477 31.8583 29.9917C31.956 30.2358 32.0046 30.4966 32.0015 30.7595C31.9984 31.0223 31.9435 31.282 31.84 31.5236C31.183 33.0585 30.0899 34.3668 28.6962 35.2863C27.3025 36.2057 25.6696 36.6958 24 36.6958C22.3304 36.6958 20.6975 36.2057 19.3038 35.2863C17.9101 34.3668 16.817 33.0585 16.16 31.5236ZM18 16.7356C18.5304 16.7356 19.0391 16.9463 19.4142 17.3214C19.7893 17.6965 20 18.2052 20 18.7356V22.7356C20 23.266 19.7893 23.7747 19.4142 24.1498C19.0391 24.5249 18.5304 24.7356 18 24.7356C17.4696 24.7356 16.9609 24.5249 16.5858 24.1498C16.2107 23.7747 16 23.266 16 22.7356V18.7356C16 18.2052 16.2107 17.6965 16.5858 17.3214C16.9609 16.9463 17.4696 16.7356 18 16.7356ZM30 16.7356C30.5304 16.7356 31.0391 16.9463 31.4142 17.3214C31.7893 17.6965 32 18.2052 32 18.7356V22.7356C32 23.266 31.7893 23.7747 31.4142 24.1498C31.0391 24.5249 30.5304 24.7356 30 24.7356C29.4696 24.7356 28.9609 24.5249 28.5858 24.1498C28.2107 23.7747 28 23.266 28 22.7356V18.7356C28 18.2052 28.2107 17.6965 28.5858 17.3214C28.9609 16.9463 29.4696 16.7356 30 16.7356Z" fill="#C1C7CD"/>
</g>
</svg>
