<svg width="24" height="25" viewBox="0 0 24 25" fill="none" xmlns="http://www.w3.org/2000/svg">
<path d="M9.59791 6.5723C9.92007 5.70168 11.1515 5.70168 11.4736 6.5723L13.0771 10.9056C13.1784 11.1794 13.3942 11.3952 13.6679 11.4965L18.0013 13.0999C18.8719 13.4221 18.8719 14.6535 18.0013 14.9756L13.6679 16.5791C13.3942 16.6804 13.1784 16.8962 13.0771 17.1699L11.4736 21.5033C11.1515 22.3739 9.92007 22.3739 9.59791 21.5033L7.99443 17.1699C7.89315 16.8962 7.67734 16.6804 7.40362 16.5791L3.07027 14.9756C2.19966 14.6535 2.19965 13.4221 3.07027 13.0999L7.40362 11.4965C7.67734 11.3952 7.89315 11.1794 7.99443 10.9056L9.59791 6.5723Z" fill="#F2F2F2"/>
<path d="M16.0018 4.12663C16.1716 3.71344 16.7568 3.71344 16.9267 4.12663L17.2589 4.93471C17.3096 5.05821 17.4077 5.15628 17.5312 5.20705L18.3393 5.53924C18.7525 5.7091 18.7525 6.29428 18.3393 6.46414L17.5312 6.79634C17.4077 6.84711 17.3096 6.94517 17.2589 7.06868L16.9267 7.87676C16.7568 8.28995 16.1716 8.28995 16.0018 7.87676L15.6696 7.06868C15.6188 6.94517 15.5208 6.84711 15.3972 6.79634L14.5892 6.46414C14.176 6.29428 14.176 5.7091 14.5892 5.53924L15.3972 5.20705C15.5208 5.15628 15.6188 5.05821 15.6696 4.93471L16.0018 4.12663Z" fill="#F2F2F2"/>
<path d="M21.1854 8.88935C21.2856 8.637 21.6428 8.637 21.743 8.88935L21.985 9.49849C22.0155 9.57527 22.0763 9.63608 22.1531 9.66657L22.7622 9.90849C23.0145 10.0087 23.0145 10.3659 22.7622 10.4661L22.1531 10.708C22.0763 10.7385 22.0155 10.7993 21.985 10.8761L21.743 11.4853C21.6428 11.7376 21.2856 11.7376 21.1854 11.4853L20.9435 10.8761C20.913 10.7993 20.8522 10.7385 20.7754 10.708L20.1663 10.4661C19.9139 10.3659 19.9139 10.0087 20.1663 9.90849L20.7754 9.66657C20.8522 9.63608 20.913 9.57527 20.9435 9.49849L21.1854 8.88935Z" fill="#F2F2F2"/>
</svg>
