<svg width="48" height="49" viewBox="0 0 48 49" fill="none" xmlns="http://www.w3.org/2000/svg">
<g id="icon / jam-icons / outline &#38; logos / target">
<path id="Vector" d="M24 44.7356C12.954 44.7356 4 35.7816 4 24.7356C4 13.6896 12.954 4.7356 24 4.7356C35.046 4.7356 44 13.6896 44 24.7356C44 35.7816 35.046 44.7356 24 44.7356ZM24 40.7356C28.2435 40.7356 32.3131 39.0499 35.3137 36.0493C38.3143 33.0487 40 28.9791 40 24.7356C40 20.4921 38.3143 16.4225 35.3137 13.4219C32.3131 10.4213 28.2435 8.7356 24 8.7356C19.7565 8.7356 15.6869 10.4213 12.6863 13.4219C9.68571 16.4225 8 20.4921 8 24.7356C8 28.9791 9.68571 33.0487 12.6863 36.0493C15.6869 39.0499 19.7565 40.7356 24 40.7356ZM24 38.7356C22.1615 38.7356 20.341 38.3735 18.6424 37.6699C16.9439 36.9663 15.4005 35.9351 14.1005 34.6351C12.8005 33.3351 11.7693 31.7917 11.0657 30.0932C10.3621 28.3946 10 26.5741 10 24.7356C10 22.8971 10.3621 21.0766 11.0657 19.378C11.7693 17.6795 12.8005 16.1361 14.1005 14.8361C15.4005 13.5361 16.9439 12.5048 18.6424 11.8013C20.341 11.0977 22.1615 10.7356 24 10.7356C27.713 10.7356 31.274 12.2106 33.8995 14.8361C36.525 17.4616 38 21.0226 38 24.7356C38 28.4486 36.525 32.0096 33.8995 34.6351C31.274 37.2606 27.713 38.7356 24 38.7356ZM24 34.7356C26.6522 34.7356 29.1957 33.682 31.0711 31.8067C32.9464 29.9313 34 27.3878 34 24.7356C34 22.0834 32.9464 19.5399 31.0711 17.6645C29.1957 15.7892 26.6522 14.7356 24 14.7356C21.3478 14.7356 18.8043 15.7892 16.9289 17.6645C15.0536 19.5399 14 22.0834 14 24.7356C14 27.3878 15.0536 29.9313 16.9289 31.8067C18.8043 33.682 21.3478 34.7356 24 34.7356ZM24 32.7356C21.8783 32.7356 19.8434 31.8927 18.3431 30.3925C16.8429 28.8922 16 26.8573 16 24.7356C16 22.6139 16.8429 20.579 18.3431 19.0787C19.8434 17.5785 21.8783 16.7356 24 16.7356C26.1217 16.7356 28.1566 17.5785 29.6569 19.0787C31.1571 20.579 32 22.6139 32 24.7356C32 26.8573 31.1571 28.8922 29.6569 30.3925C28.1566 31.8927 26.1217 32.7356 24 32.7356ZM24 28.7356C25.0609 28.7356 26.0783 28.3142 26.8284 27.564C27.5786 26.8139 28 25.7965 28 24.7356C28 23.6747 27.5786 22.6573 26.8284 21.9072C26.0783 21.157 25.0609 20.7356 24 20.7356C22.9391 20.7356 21.9217 21.157 21.1716 21.9072C20.4214 22.6573 20 23.6747 20 24.7356C20 25.7965 20.4214 26.8139 21.1716 27.564C21.9217 28.3142 22.9391 28.7356 24 28.7356ZM24 26.7356C23.4696 26.7356 22.9609 26.5249 22.5858 26.1498C22.2107 25.7747 22 25.266 22 24.7356C22 24.2052 22.2107 23.6965 22.5858 23.3214C22.9609 22.9463 23.4696 22.7356 24 22.7356C24.5304 22.7356 25.0391 22.9463 25.4142 23.3214C25.7893 23.6965 26 24.2052 26 24.7356C26 25.266 25.7893 25.7747 25.4142 26.1498C25.0391 26.5249 24.5304 26.7356 24 26.7356Z" fill="#C1C7CD"/>
</g>
</svg>
