<svg width="25" height="25" viewBox="0 0 25 25" fill="none" xmlns="http://www.w3.org/2000/svg">
<g id="icon / jam-icons / outline &#38; logos / user">
<path id="Vector" d="M9.0008 12.57C9.12374 12.5175 9.25596 12.4903 9.38963 12.4898C9.52329 12.4893 9.6557 12.5156 9.77902 12.5672C9.90235 12.6188 10.0141 12.6945 10.1076 12.79C10.2012 12.8855 10.2746 12.9988 10.3236 13.1231C10.3726 13.2475 10.3962 13.3804 10.3929 13.514C10.3897 13.6477 10.3597 13.7793 10.3047 13.9011C10.2497 14.023 10.1709 14.1325 10.0728 14.2234C9.97475 14.3142 9.85948 14.3845 9.7338 14.43C9.06534 14.6934 8.49162 15.1519 8.0873 15.7458C7.68298 16.3397 7.46677 17.0415 7.4668 17.76V19.5C7.4668 19.7652 7.57215 20.0196 7.75969 20.2071C7.94723 20.3946 8.20158 20.5 8.4668 20.5H16.4668C16.732 20.5 16.9864 20.3946 17.1739 20.2071C17.3614 20.0196 17.4668 19.7652 17.4668 19.5V17.853C17.4669 17.1115 17.2417 16.3874 16.8209 15.7768C16.4001 15.1662 15.8038 14.6979 15.1108 14.434C14.9843 14.3901 14.868 14.3213 14.7686 14.2316C14.6692 14.1419 14.5889 14.0332 14.5323 13.9119C14.4758 13.7905 14.4441 13.6591 14.4393 13.5253C14.4345 13.3916 14.4565 13.2582 14.5042 13.1331C14.5519 13.008 14.6242 12.8938 14.7168 12.7972C14.8095 12.7006 14.9206 12.6235 15.0435 12.5706C15.1665 12.5177 15.2988 12.4901 15.4327 12.4893C15.5666 12.4885 15.6992 12.5146 15.8228 12.566C16.8944 12.9742 17.8167 13.6983 18.4674 14.6425C19.1182 15.5867 19.4667 16.7063 19.4668 17.853V19.5C19.4668 20.2956 19.1507 21.0587 18.5881 21.6213C18.0255 22.1839 17.2624 22.5 16.4668 22.5H8.4668C7.67115 22.5 6.90809 22.1839 6.34548 21.6213C5.78287 21.0587 5.4668 20.2956 5.4668 19.5V17.76C5.46693 16.6402 5.80407 15.5463 6.43436 14.6206C7.06464 13.695 7.9589 12.9805 9.0008 12.57ZM12.4668 2.5C13.5277 2.5 14.5451 2.92143 15.2952 3.67157C16.0454 4.42172 16.4668 5.43913 16.4668 6.5V8.5C16.4668 9.56087 16.0454 10.5783 15.2952 11.3284C14.5451 12.0786 13.5277 12.5 12.4668 12.5C11.4059 12.5 10.3885 12.0786 9.63837 11.3284C8.88822 10.5783 8.4668 9.56087 8.4668 8.5V6.5C8.4668 5.43913 8.88822 4.42172 9.63837 3.67157C10.3885 2.92143 11.4059 2.5 12.4668 2.5V2.5ZM12.4668 4.5C11.9364 4.5 11.4277 4.71071 11.0526 5.08579C10.6775 5.46086 10.4668 5.96957 10.4668 6.5V8.5C10.4668 9.03043 10.6775 9.53914 11.0526 9.91421C11.4277 10.2893 11.9364 10.5 12.4668 10.5C12.9972 10.5 13.5059 10.2893 13.881 9.91421C14.2561 9.53914 14.4668 9.03043 14.4668 8.5V6.5C14.4668 5.96957 14.2561 5.46086 13.881 5.08579C13.5059 4.71071 12.9972 4.5 12.4668 4.5Z" fill="#C1C7CD"/>
</g>
</svg>
