<svg width="57" height="80" viewBox="0 0 57 80" fill="none" xmlns="http://www.w3.org/2000/svg">
<g clip-path="url(#clip0_2106_4033)">
<path d="M51.8629 5.19995H23.1285C18.1622 5.19995 13.6652 7.22934 10.4104 10.5114L14.0422 14.1736C16.4697 11.7257 19.6974 10.3774 23.1285 10.3774H46.7258V34.1721C46.7258 37.6347 45.3886 40.8866 42.9611 43.3345L46.5929 46.9967C49.8477 43.7146 51.8602 39.18 51.8602 34.1721V5.19995H51.8629Z" fill="#A97BFE"/>
<path d="M23.1285 0.0197754C20.0093 0.0197754 16.9796 0.637892 14.1263 1.85498C11.3733 3.02831 8.89961 4.71035 6.77856 6.84915L10.4104 10.5114C13.6652 7.22932 18.1622 5.19992 23.1285 5.19992H51.8629V34.1748C51.8629 39.1827 49.8503 43.7174 46.5956 46.9994L50.2274 50.6616C52.3484 48.5228 54.0165 46.0285 55.1801 43.2524C56.3871 40.3752 57 37.3201 57 34.1748V0.0197754H23.1285Z" fill="#7160FF"/>
<path d="M5.14307 52.3082H33.8775C38.8438 52.3082 43.3408 50.2788 46.5956 46.9967L42.9638 43.3345C40.5362 45.7824 37.3086 47.1307 33.8775 47.1307H10.2775V23.336C10.2775 19.8734 11.6147 16.6215 14.0422 14.1736L10.4104 10.5114C7.15561 13.7935 5.14307 18.3281 5.14307 23.336V52.3109V52.3082Z" fill="#12CFFF"/>
<path d="M33.8774 57.4883C36.9966 57.4883 40.0263 56.8701 42.8796 55.6531C45.6327 54.4797 48.1063 52.7977 50.2273 50.6589L46.5955 46.9967C43.3407 50.2787 38.8437 52.3081 33.8774 52.3081H5.14301V23.3332C5.14301 18.3254 7.15556 13.7907 10.4104 10.5086L6.77854 6.84644C4.6575 8.98523 2.98942 11.4796 1.82583 14.2556C0.618846 17.1356 0.00585938 20.1879 0.00585938 23.3332V57.4883H33.8774Z" fill="#11FFF5"/>
<path d="M22.1438 22.3568C18.634 25.8959 18.634 31.6313 22.1438 35.1677C25.6535 38.7068 31.3413 38.7068 34.8483 35.1677L31.2165 31.5055C30.4896 32.2385 29.524 32.6432 28.4961 32.6432C27.4681 32.6432 26.5025 32.2385 25.7756 31.5055C24.2757 29.993 24.2757 27.5315 25.7756 26.0163L22.1438 22.3513V22.3568Z" fill="#A97BFE"/>
<path d="M18.1296 19.0747L18.0835 19.1486C15.6885 21.7797 14.3757 25.1711 14.3757 28.765C14.3757 32.5694 15.8431 36.1441 18.512 38.8326C21.1783 41.5211 24.726 43.0035 28.4961 43.0035C32.269 43.0035 35.814 41.5211 38.4802 38.8326L34.8484 35.1704C31.3386 38.7095 25.6509 38.7095 22.1438 35.1704C18.6341 31.6313 18.6341 25.8959 22.1438 22.3595L18.5093 18.6918L18.1269 19.0775L18.1296 19.0747Z" fill="#7160FF"/>
<path d="M22.1573 22.3376L25.7892 25.9999C26.5161 25.2669 27.4816 24.8621 28.5096 24.8621C29.5376 24.8621 30.5032 25.2669 31.2301 25.9999C32.73 27.5123 32.73 29.9739 31.2301 31.4891L31.2165 31.5027L34.851 35.1677L34.8619 35.1513C38.3716 31.6121 38.3716 25.8768 34.8619 22.3404C31.3521 18.8013 25.6644 18.8013 22.1573 22.3404V22.3376Z" fill="#12CFFF"/>
<path d="M28.5096 14.5045C24.7367 14.5045 21.1917 15.9869 18.5255 18.6754L22.1573 22.3376C25.6671 18.7985 31.3548 18.7985 34.8619 22.3376C38.3716 25.8768 38.3716 31.6121 34.8619 35.1485L34.851 35.1649L38.4828 38.8271L38.8761 38.4306L38.9222 38.3567C41.3172 35.7256 42.63 32.3342 42.63 28.7403C42.63 24.9359 41.1626 21.3612 38.4937 18.6727C35.8275 15.9842 32.2797 14.5018 28.5096 14.5018V14.5045Z" fill="#11FFF5"/>
<path d="M22.1573 22.3377L22.1465 22.3541L25.7783 26.0163L26.0468 25.7455C30.7961 21.2272 38.3065 21.312 42.9555 25.9999C47.6885 30.7725 47.6885 38.5372 42.9555 43.3099L46.5873 46.9721C53.3328 40.1701 53.3328 29.1397 46.5873 22.3377C39.8417 15.5356 28.9029 15.5356 22.1573 22.3377Z" fill="#A97BFE"/>
<path d="M42.8009 13.7114C40.1157 12.6119 37.2786 12.0567 34.3709 12.0567C31.4633 12.0567 28.6262 12.6146 25.941 13.7114C23.1582 14.8492 20.6628 16.5203 18.5255 18.6755L18.512 18.6892L22.1465 22.3541L22.1573 22.3377C28.9029 15.5357 39.8417 15.5357 46.5873 22.3377C53.3328 29.1397 53.3328 40.1701 46.5873 46.9721L50.2191 50.6343C52.3564 48.4791 54.0136 45.9629 55.142 43.1567C56.2323 40.4491 56.7829 37.5882 56.7829 34.6563C56.7829 31.7243 56.2296 28.8635 55.142 26.1558C54.0136 23.3496 52.3564 20.8334 50.2191 18.6782C48.0818 16.523 45.5864 14.8519 42.8036 13.7141L42.8009 13.7114Z" fill="#7160FF"/>
<path d="M30.9589 31.7598C26.2096 36.2781 18.6992 36.1933 14.0502 31.5055C9.31722 26.7329 9.31722 18.9681 14.0502 14.1955L10.4184 10.5333C3.67286 17.3353 3.67286 28.3657 10.4184 35.1677C17.164 41.9697 28.1028 41.9697 34.8484 35.1677L31.2138 31.5L30.9562 31.7598H30.9589Z" fill="#12CFFF"/>
<path d="M34.8484 35.1704C28.1028 41.9724 17.164 41.9724 10.4184 35.1704C3.67286 28.3684 3.67286 17.338 10.4184 10.536L6.78661 6.87378C4.6493 9.02898 2.99207 11.5452 1.86374 14.3514C0.776093 17.059 0.222778 19.9199 0.222778 22.8518C0.222778 25.7838 0.776093 28.6446 1.86374 31.3523C2.99207 34.1584 4.6493 36.6747 6.78661 38.8299C8.92393 40.9851 11.4193 42.6562 14.2021 43.794C16.8873 44.8934 19.7244 45.4487 22.632 45.4487C25.5397 45.4487 28.3767 44.8907 31.062 43.794C33.8448 42.6562 36.3401 40.9851 38.4775 38.8299L34.8457 35.1649L34.8484 35.1704Z" fill="#11FFF5"/>
<path d="M10.8993 66.3513V77.3351H0.00585938V66.3513H10.8993ZM8.72048 68.5483H2.18471V75.1388H8.72048V72.9417H4.36357V70.7446H8.72048V68.5475V68.5483Z" fill="white"/>
<path d="M18.8404 77.336V75.1389H20.9513L18.8404 69.6469L15.8785 77.336H13.3933L17.7502 66.3521H19.9291L24.286 77.336H18.8396H18.8404Z" fill="white"/>
<path d="M29.1996 66.3513V77.3351H27.0208V66.3513H29.1996Z" fill="white"/>
<path d="M33.9924 66.3513H44.8859V68.5483H36.1713V70.7454H44.8859V72.9425H36.1713V77.3359H33.9924V66.3513Z" fill="white"/>
<path d="M47.9303 77.3359L51.2266 69.0259L51.7833 70.4285L53.5622 74.913H50.7115V74.275H52.4168L51.2266 71.177L48.8542 77.3359H47.9303Z" fill="white"/>
<path d="M50.7114 77.3359V76.6616H56.0242L52.1664 66.9385H50.2811L46.1617 77.3359H45.4539L49.8756 66.1884H52.5783L57 77.3359H50.7114Z" fill="white"/>
<path d="M54.2141 75.3582H50.7114V76.2156H55.3715L51.8681 67.3837H50.5803L46.6377 77.3359H47.4552L51.017 68.3572H51.4369L54.2141 75.3582Z" fill="white"/>
</g>
<defs>
<clipPath id="clip0_2106_4033">
<rect width="57" height="80" fill="white"/>
</clipPath>
</defs>
</svg>
