<svg width="368" height="80" viewBox="0 0 368 80" fill="none" xmlns="http://www.w3.org/2000/svg">
<path d="M80.0329 8.02186L66.1704 1.72986C64.9666 1.03285 63.951 1.598 63.951 2.99203V20.5493C60.7851 18.4534 57.2257 17.0266 53.4901 16.3561C49.7548 15.6855 45.9222 15.7855 42.2265 16.6498C34.4232 18.1323 27.4502 22.4704 22.665 28.8194L40.9288 38.5023C45.1984 30.138 52.4586 28.2919 57.8568 30.1568C59.6779 30.8248 61.2449 32.0468 62.3378 33.6514C63.4307 35.2563 63.9947 37.1631 63.951 39.1051V68.248C63.9864 69.0051 64.2032 69.7425 64.5829 70.3983C64.9626 71.054 65.4943 71.6088 66.1328 72.0157L79.9764 78.3266C81.1988 79.0234 82.177 78.4583 82.177 77.0643L82.365 11.8649C82.3156 11.0831 82.0777 10.325 81.6715 9.65566C81.2653 8.98632 80.703 8.42566 80.0329 8.02186Z" fill="#FF9664"/>
<path d="M41.2671 39.7831C37.0162 48.1285 29.7749 49.9937 24.4518 48.1285C22.6488 47.454 21.0958 46.2414 20.0027 44.6545C18.9095 43.068 18.3288 41.1834 18.3389 39.2557V11.8083C18.3033 11.0512 18.0866 10.3136 17.7069 9.65794C17.3272 9.00223 16.7956 8.44757 16.157 8.04069L2.38876 1.72986C1.16616 1.03285 0.188091 1.598 0.188091 2.99203L0 68.1725C0.0445494 68.9277 0.265115 69.6617 0.644014 70.316C1.02291 70.9703 1.5496 71.5266 2.18185 71.9403L16.0442 78.2511C17.2479 78.948 18.226 78.3828 18.226 76.9888V57.7174C21.3934 59.8263 24.9561 61.2677 28.6972 61.9543C32.4385 62.6408 36.2799 62.5583 39.9882 61.7111C47.7904 60.2134 54.7604 55.8705 59.5495 49.5225L41.2671 39.7831Z" fill="#FF9664"/>
<path d="M141.971 19.3064H131.25C131.513 17.3283 131.739 15.388 131.889 13.6549C131.889 13.41 131.792 13.1753 131.62 13.0022C131.447 12.829 131.212 12.7318 130.968 12.7318H125.325C125.094 12.7266 124.869 12.8126 124.701 12.971C124.532 13.1295 124.432 13.348 124.422 13.5795C124.347 14.6156 124.14 16.4994 123.858 19.3064H119.72C119.479 19.3063 119.247 19.401 119.075 19.57C118.902 19.7391 118.803 19.9691 118.798 20.2106V24.7883C118.803 25.0298 118.902 25.2598 119.075 25.4289C119.247 25.5979 119.479 25.6926 119.72 25.6925H122.955C122.278 30.0066 121.3 35.1117 119.908 40.7631C119.908 40.7631 124.009 47.7711 127.864 54.6846C125.49 59.2423 122.579 63.4988 119.193 67.3628H126.266C126.997 67.3734 127.721 67.208 128.375 66.88C129.03 66.5523 129.597 66.0717 130.027 65.4791C130.573 64.6877 131.25 63.5951 131.908 62.3708C132.397 63.2748 132.83 64.1226 133.187 64.8763C133.572 65.636 134.162 66.272 134.89 66.7117C135.619 67.1514 136.456 67.3771 137.306 67.3628H143.438C143.438 67.3628 140.165 61.2591 135.915 54.176C140.297 43.3951 142.681 31.9043 142.949 20.2671C142.955 20.1378 142.933 20.0089 142.886 19.8886C142.838 19.7682 142.766 19.6592 142.674 19.5686C142.581 19.478 142.471 19.4079 142.35 19.3627C142.229 19.3175 142.1 19.2983 141.971 19.3064ZM127.488 40.2546C127.488 40.2546 128.993 33.3597 130.272 25.6925H136.14C135.615 32.7908 134.05 39.7728 131.494 46.4146C130.14 44.3237 128.786 42.1948 127.488 40.2546Z" fill="white"/>
<path d="M163.903 33.284C167.639 27.6986 170.37 21.5015 171.972 14.9731C171.996 14.8475 171.994 14.7183 171.965 14.5936C171.937 14.4689 171.883 14.3515 171.807 14.2487C171.731 14.146 171.634 14.0602 171.524 13.9968C171.413 13.9334 171.29 13.8938 171.163 13.8804H145.714C145.476 13.8853 145.249 13.9821 145.081 14.1506C144.913 14.3192 144.816 14.5464 144.812 14.7847V20.0406C144.816 20.2789 144.913 20.5061 145.081 20.6746C145.249 20.8432 145.476 20.94 145.714 20.9448H160.762C159.949 24.9473 158.13 28.6757 155.476 31.7769V35.3371H144.83C144.711 35.3346 144.592 35.3563 144.482 35.4009C144.371 35.4454 144.27 35.512 144.186 35.5963C144.102 35.6809 144.035 35.7817 143.991 35.8926C143.946 36.0034 143.925 36.122 143.927 36.2414V41.3466C143.925 41.466 143.946 41.5849 143.991 41.6957C144.035 41.8066 144.102 41.9074 144.186 41.9917C144.27 42.0763 144.371 42.1429 144.482 42.1874C144.592 42.232 144.711 42.2534 144.83 42.2509H155.42V55.1551C155.546 56.4043 155.242 57.6591 154.557 58.7114C153.873 59.7634 152.85 60.5494 151.658 60.9386C150.191 61.2806 148.672 61.3443 147.181 61.1269L149.608 64.8946C150.173 65.734 150.953 66.4057 151.866 66.84C152.779 67.274 153.792 67.4546 154.799 67.3623C155.134 67.3409 155.467 67.2966 155.796 67.2306C158.319 66.7671 160.564 65.3423 162.059 63.2557C163.555 61.0451 164.222 58.3757 163.94 55.7203V42.232H172.386C172.505 42.2346 172.623 42.2131 172.734 42.1686C172.845 42.124 172.945 42.0574 173.03 41.9729C173.114 41.8886 173.18 41.7877 173.225 41.6769C173.269 41.566 173.291 41.4474 173.288 41.3277V36.2226C173.291 36.1031 173.269 35.9846 173.225 35.8737C173.18 35.7629 173.114 35.662 173.03 35.5774C172.945 35.4931 172.845 35.4266 172.734 35.382C172.623 35.3374 172.505 35.316 172.386 35.3186H163.903V33.284Z" fill="white"/>
<path d="M205.79 19.3062H195.069C195.332 17.3282 195.558 15.3878 195.709 13.6547C195.716 13.5288 195.698 13.4027 195.655 13.2841C195.612 13.1655 195.546 13.0569 195.46 12.9651C195.373 12.8733 195.269 12.8003 195.153 12.7504C195.038 12.7005 194.913 12.6749 194.787 12.6751H189.144C188.914 12.6747 188.693 12.7621 188.525 12.9197C188.357 13.0772 188.256 13.2929 188.241 13.5228C188.241 14.5778 187.978 16.5935 187.658 19.325H183.52C183.279 19.325 183.047 19.4197 182.875 19.5887C182.703 19.7578 182.603 19.9877 182.599 20.2293V24.7881C182.603 25.0297 182.703 25.2597 182.875 25.4287C183.047 25.5978 183.279 25.6924 183.52 25.6924H186.774C186.097 30.0063 185.119 35.1115 183.727 40.7629C183.727 40.7629 187.828 47.7709 191.683 54.6846C189.309 59.2423 186.398 63.4986 183.012 67.3626H190.085C190.817 67.3749 191.541 67.21 192.196 66.882C192.851 66.554 193.417 66.0729 193.846 65.4789C194.392 64.6877 195.069 63.5952 195.727 62.3706C196.216 63.2749 196.649 64.1226 197.006 64.876C197.401 65.6566 198.011 66.3066 198.766 66.7477C199.52 67.1889 200.385 67.4023 201.257 67.3626H207.389C207.389 67.3626 204.116 61.2592 199.865 54.176C204.183 43.3829 206.503 31.8923 206.712 20.2669C206.717 20.1426 206.697 20.0185 206.653 19.9021C206.609 19.7857 206.542 19.6795 206.456 19.5897C206.369 19.5 206.266 19.4286 206.152 19.3799C206.037 19.3312 205.914 19.3061 205.79 19.3062ZM191.307 40.2543C191.307 40.2543 192.812 33.3595 194.091 25.6924H199.959C199.434 32.7906 197.868 39.7726 195.313 46.4146C193.959 44.3235 192.605 42.1946 191.307 40.2543Z" fill="white"/>
<path d="M227.741 33.284C231.467 27.6956 234.191 21.4991 235.791 14.9731C235.816 14.8401 235.811 14.7032 235.777 14.5722C235.743 14.4412 235.681 14.3192 235.595 14.215C235.509 14.1107 235.401 14.0267 235.279 13.9689C235.157 13.9111 235.023 13.8809 234.888 13.8804H209.533C209.295 13.8853 209.069 13.9821 208.9 14.1506C208.732 14.3192 208.635 14.5464 208.63 14.7847V20.0406C208.635 20.2789 208.732 20.5061 208.9 20.6746C209.069 20.8432 209.295 20.94 209.533 20.9448H224.581C223.769 24.9473 221.949 28.6757 219.295 31.7769V35.3371H208.781C208.662 35.3346 208.543 35.3563 208.432 35.4009C208.322 35.4454 208.221 35.512 208.137 35.5963C208.052 35.6809 207.986 35.7817 207.942 35.8926C207.897 36.0034 207.876 36.122 207.878 36.2414V41.3466C207.876 41.466 207.897 41.5849 207.942 41.6957C207.986 41.8066 208.052 41.9074 208.137 41.9917C208.221 42.0763 208.322 42.1429 208.432 42.1874C208.543 42.232 208.662 42.2534 208.781 42.2509H219.371V55.1551C219.497 56.4043 219.192 57.6591 218.508 58.7114C217.824 59.7634 216.801 60.5494 215.609 60.9386C214.141 61.2806 212.623 61.3443 211.132 61.1269L213.558 64.8946C214.112 65.7134 214.871 66.3723 215.759 66.8054C216.647 67.2383 217.633 67.4306 218.618 67.3623C218.953 67.3409 219.286 67.2966 219.615 67.2306C222.138 66.7671 224.383 65.3423 225.878 63.2557C227.374 61.0451 228.041 58.3757 227.759 55.7203V42.232H236.186C236.305 42.2346 236.424 42.2131 236.535 42.1686C236.645 42.124 236.746 42.0574 236.83 41.9729C236.914 41.8886 236.981 41.7877 237.025 41.6769C237.07 41.566 237.091 41.4474 237.089 41.3277V36.2226C237.091 36.1031 237.07 35.9846 237.025 35.8737C236.981 35.7629 236.914 35.662 236.83 35.5774C236.746 35.4931 236.645 35.4266 236.535 35.382C236.424 35.3374 236.305 35.316 236.186 35.3186H227.759L227.741 33.284Z" fill="white"/>
<path d="M324.587 29.8557L325.66 28.2355C326.025 27.6829 326.362 27.1177 326.676 26.54H314.825C314.597 26.54 314.378 26.4487 314.215 26.2862C314.052 26.1237 313.961 25.9033 313.961 25.6735V20.022C313.967 19.7937 314.058 19.576 314.221 19.4145C314.38 19.2531 314.6 19.1602 314.825 19.1554H319.321C319.039 18.2135 318.756 17.2716 318.457 16.3108C318.155 15.3501 317.855 14.427 317.535 13.6923H326.941L327.842 16.1225C328.199 17.0832 328.558 18.0063 328.915 19.1554H330.475C330.926 18.1005 331.34 17.0455 331.736 15.9906C332.13 14.9357 332.489 13.8995 332.809 12.8257H343.19C342.87 13.9372 342.551 15.011 342.211 16.0659C341.875 17.1209 341.498 18.1381 341.102 19.1554H347.46C348.208 17.3781 348.835 15.5531 349.34 13.6923H358.746C358.557 14.5589 358.295 15.4631 358.013 16.3862C357.73 17.3093 357.391 18.27 357.071 19.1554H362.526C362.754 19.1603 362.968 19.2538 363.128 19.4158C363.284 19.5778 363.373 19.7954 363.373 20.022V25.6735C363.376 25.7864 363.356 25.8986 363.313 26.0037C363.273 26.1087 363.21 26.2044 363.13 26.2851C363.053 26.3659 362.959 26.43 362.854 26.4737C362.751 26.5175 362.64 26.5401 362.526 26.54H337.907L337.059 28.2355C336.797 28.7817 336.495 29.328 336.175 29.8557H364.388C364.503 29.858 364.614 29.8829 364.719 29.9286C364.822 29.9746 364.916 30.0406 364.996 30.1226C365.073 30.2049 365.136 30.3017 365.176 30.408C365.219 30.514 365.239 30.6271 365.236 30.7409V36.3926C365.239 36.5063 365.219 36.6194 365.176 36.7254C365.136 36.8317 365.073 36.9286 364.996 37.0109C364.916 37.0931 364.822 37.1589 364.719 37.2049C364.614 37.2506 364.503 37.2754 364.388 37.278H355.491C356.772 38.8226 358.03 40.3109 359.254 41.7237C360.477 43.1366 361.661 44.3423 362.734 45.3783H350.921C348.602 42.8043 346.428 40.0997 344.414 37.278H331.397C330.213 38.9546 329.046 40.4614 327.916 41.818C326.79 43.1743 325.717 44.3423 324.721 45.3783H311.647C312.794 44.3046 314.018 43.08 315.296 41.6106C316.577 40.1414 317.835 38.7471 319.059 37.2026H313.04C312.925 37.2 312.814 37.1751 312.709 37.1294C312.606 37.0837 312.512 37.0177 312.435 36.9354C312.355 36.8531 312.292 36.7563 312.252 36.6503C312.209 36.544 312.189 36.4309 312.192 36.3171V30.6657C312.189 30.5517 312.209 30.4386 312.252 30.3326C312.292 30.2266 312.355 30.1294 312.435 30.0474C312.512 29.9651 312.606 29.8991 312.709 29.8534C312.814 29.8074 312.925 29.7826 313.04 29.7803L324.587 29.8557ZM315.185 67.5323C317.427 65.5611 319.41 63.3143 321.09 60.8446C322.485 58.7057 323.549 56.3689 324.251 53.912H314.959C314.743 53.9171 314.532 53.8374 314.375 53.6894C314.215 53.5414 314.121 53.3374 314.112 53.1209V47.978C314.121 47.7614 314.215 47.5574 314.375 47.4094C314.532 47.2617 314.743 47.1817 314.959 47.1869H361.981C362.198 47.1817 362.406 47.2617 362.566 47.4094C362.722 47.5574 362.817 47.7614 362.828 47.978V56.9074C362.828 58.1631 362.771 59.256 362.657 60.1851C362.583 61.0906 362.451 61.9903 362.263 62.8791C362.092 63.6709 361.852 64.4463 361.547 65.1963C361.228 65.9671 360.857 66.716 360.437 67.438H348.533C350.093 66.0214 351.26 64.2234 351.919 62.2197C352.535 60.248 352.875 58.2003 352.935 56.1351V53.818H334.501C333.976 56.318 333.12 58.7377 331.962 61.014C330.704 63.3383 329.126 65.4749 327.277 67.3626L315.185 67.5323Z" fill="white"/>
<path d="M266.412 47.3566H249.672C249.566 47.3514 249.46 47.3674 249.359 47.4034C249.26 47.4397 249.167 47.4952 249.089 47.5669C249.01 47.6386 248.947 47.7252 248.901 47.8217C248.856 47.918 248.831 48.0226 248.826 48.1289V66.3832C248.835 66.5997 248.93 66.804 249.088 66.9517C249.246 67.0997 249.456 67.1797 249.672 67.1746H266.412C266.63 67.1797 266.842 67.1006 267.003 66.9532C267.165 66.8054 267.263 66.6014 267.277 66.3832V48.1289C267.263 47.9123 267.164 47.7103 267.002 47.5657C266.841 47.4215 266.629 47.3463 266.412 47.3566ZM261.315 61.3534H254.845V52.8197H261.315V61.3534Z" fill="white"/>
<path d="M266.412 36.5806H249.672C249.205 36.5806 248.826 36.9603 248.826 37.4283V42.7786C248.826 43.2466 249.205 43.6263 249.672 43.6263H266.412C266.88 43.6263 267.258 43.2466 267.258 42.7786V37.4283C267.258 36.9603 266.88 36.5806 266.412 36.5806Z" fill="white"/>
<path d="M301.754 59.9403H295.53C296.157 57.3571 297.253 54.9114 298.765 52.7254H290.714C289.194 54.9068 288.098 57.354 287.479 59.9403H283.171C282.543 57.3571 281.447 54.9114 279.936 52.7254H271.867C273.385 54.9068 274.483 57.354 275.102 59.9403H269.252C269.028 59.9403 268.812 60.0297 268.654 60.1885C268.495 60.3477 268.406 60.5631 268.406 60.788V66.3077C268.406 66.5343 268.494 66.752 268.653 66.914C268.811 67.076 269.026 67.1694 269.252 67.1743H301.754C301.98 67.1694 302.196 67.076 302.353 66.914C302.513 66.752 302.602 66.5343 302.602 66.3077V60.788C302.602 60.5631 302.51 60.3477 302.353 60.1885C302.194 60.0297 301.98 59.9403 301.754 59.9403Z" fill="white"/>
<path d="M266.412 26.8415H249.672C249.205 26.8415 248.826 27.221 248.826 27.6892V32.9828C248.826 33.4508 249.205 33.8305 249.672 33.8305H266.412C266.88 33.8305 267.258 33.4508 267.258 32.9828V27.6892C267.258 27.221 266.88 26.8415 266.412 26.8415Z" fill="white"/>
<path d="M271.096 50.1069C271.105 50.3234 271.199 50.5274 271.358 50.6754C271.516 50.8232 271.726 50.9032 271.942 50.898H298.539C298.753 50.9032 298.964 50.8232 299.121 50.6754C299.281 50.5274 299.375 50.3234 299.384 50.1069V37.6549H302.43C301.623 36.2606 300.89 34.9043 300.211 33.5292C299.535 32.154 298.896 30.7789 298.331 29.366H300.947C301.141 28.8346 301.312 28.294 301.455 27.7458C301.64 27.1053 301.811 26.446 302 25.7301C302.188 25.0142 302.336 24.2984 302.47 23.5825C302.601 22.8667 302.733 22.1885 302.864 21.5857H297.429C297.315 22.0755 297.184 22.5653 297.07 23.0739C296.945 23.6178 296.779 24.1528 296.582 24.6752C296.32 23.9216 296.054 23.1869 295.849 22.4334C295.641 21.6799 295.415 20.9452 295.21 20.1916H299.461C299.994 19.1181 300.439 18.003 300.796 16.8573C301.167 15.7519 301.475 14.626 301.717 13.4852H295.866C295.678 14.2199 295.473 14.9546 295.284 15.6704C295.096 16.3863 294.834 17.0645 294.568 17.7238C294.4 16.9891 294.249 16.2544 294.117 15.5574C293.986 14.8604 293.855 14.1257 293.724 13.4287H286.087C286.407 15.5574 286.82 17.6485 287.308 19.7207C287.799 21.7929 288.381 23.8463 289.003 25.8996H281.948C282.626 23.8086 283.19 21.7176 283.66 19.6076C284.13 17.4978 284.506 15.4256 284.826 13.3722H271.265C271.048 13.367 270.839 13.447 270.68 13.5949C270.522 13.7428 270.428 13.9468 270.418 14.1634V18.2701C270.421 18.379 270.445 18.4863 270.488 18.5859C270.532 18.6856 270.595 18.7756 270.674 18.8508C270.753 18.926 270.845 18.985 270.947 19.0244C271.048 19.0637 271.156 19.0827 271.265 19.0802H276.287C276.08 19.8149 275.873 20.6061 275.628 21.4538C275.384 22.3015 275.102 23.1681 274.801 24.0535L274.406 22.7348C274.255 22.3204 274.142 21.8871 274.011 21.4726H268.763C269.158 22.716 269.516 24.0723 269.835 25.5606C270.155 27.0488 270.381 28.3298 270.494 29.3283H272.469C271.829 30.628 271.114 31.9657 270.343 33.322C269.572 34.6783 268.707 36.0912 267.748 37.5606H271.096V50.1069ZM291.202 45.8494H279.334V41.4223H291.202V45.8494ZM279.691 33.096H290.977C291.185 33.6986 291.39 34.2826 291.616 34.8666C291.841 35.4506 292.066 35.9969 292.295 36.562H278.149C278.694 35.4506 279.202 34.2826 279.691 33.096Z" fill="white"/>
<path d="M268.218 22.6218V17.0833C268.218 16.8585 268.128 16.6428 267.97 16.4839C267.811 16.3249 267.596 16.2356 267.371 16.2356H262.782C262.65 15.5574 262.537 14.898 262.387 14.2576L262.011 12.5244H254.186C254.337 13.0896 254.487 13.6736 254.638 14.2952C254.788 14.9169 254.882 15.5574 254.957 16.1791H248.731C248.505 16.179 248.288 16.2677 248.126 16.4262C247.965 16.5846 247.871 16.8002 247.866 17.0268V22.5652C247.871 22.7918 247.965 23.0074 248.126 23.1658C248.288 23.3243 248.505 23.413 248.731 23.413H267.371C267.586 23.4134 267.794 23.3319 267.951 23.185C268.108 23.038 268.203 22.8366 268.218 22.6218Z" fill="white"/>
</svg>
