<svg width="647" height="80" viewBox="0 0 647 80" fill="none" xmlns="http://www.w3.org/2000/svg">
<g clip-path="url(#clip0_2106_3941)">
<path d="M101.454 25.495L50.7049 0L0 25.495H101.454ZM97.8008 28.6986H68.0818V34.9277H71.6017C71.6017 34.9277 74.8098 35.3726 74.8098 38.7542V67.8977C74.8098 67.8977 74.587 70.9232 72.181 71.7686H68.0818V77.6863H97.8008V71.7686H93.5234C93.5234 71.7686 90.9837 70.9232 90.9837 67.2747V38.6652C90.9837 38.6652 90.7609 34.9722 94.0581 34.9722H97.8008V28.6986ZM3.6536 28.6986H33.4171V34.9277H29.8972C29.8972 34.9277 26.6891 35.3726 26.6891 38.7542V67.8977C26.6891 67.8977 26.9119 70.9232 29.318 71.7686H33.4171V77.6863H3.6536V71.7686H7.931C7.931 71.7686 10.4707 70.9232 10.4707 67.2747V38.6652C10.4707 38.6652 10.6935 34.9722 7.39632 34.9722H3.6536V28.6986ZM65.5867 28.6986H35.8677V34.9277H39.3431C39.3431 34.9277 42.5957 35.3726 42.5957 38.7542V67.8977C42.5957 67.8977 42.3284 70.9232 39.9669 71.7686H35.8677V77.6863H65.5867V71.7686H61.3093C61.3093 71.7686 58.7696 70.9232 58.7696 67.2747V38.6652C58.7696 38.6652 58.5468 34.9722 61.844 34.9722H65.5867V28.6986Z" fill="white"/>
<path d="M144.184 15.3504H127.208V42.8031H144.184V15.3504ZM140.486 39.3326H130.906V34.7052H140.486V39.3326ZM140.486 31.4127H130.906V26.5184H140.486V31.4127ZM140.486 23.2703H130.906V18.8209H140.486V23.2703Z" fill="white"/>
<path d="M146.367 50.4561C143.649 48.0089 141.689 45.6062 140.486 43.2036L137.188 44.7163C138.258 47.0745 140.174 49.7442 142.847 52.6807L146.367 50.4561Z" fill="white"/>
<path d="M160.803 48.0534V25.6285H164.501V21.891H160.803V16.2848C161.471 15.8398 161.828 15.4394 161.828 15.0834C161.828 14.8165 161.605 14.6385 161.115 14.5495L156.971 14.1046V21.891H145.208V25.6285H155.323C153.719 29.9444 152.293 33.0589 151.045 34.9722C149.129 38.1313 146.768 41.1123 144.005 43.871L147.392 46.8521C150.065 43.6485 152.159 40.5339 153.719 37.5083C154.743 35.6396 155.813 33.0589 156.971 29.7664V47.386C156.838 48.6318 155.946 49.2547 154.342 49.2547H149.575L151.09 53.0812C155.278 53.0812 157.907 52.6807 158.976 51.8354C160.224 51.0345 160.848 49.7887 160.848 48.0534H160.803Z" fill="white"/>
<path d="M134.069 45.0723C134.069 45.0723 133.936 44.7608 133.713 44.6719L130.549 43.2036C129.257 46.3626 127.52 49.0767 125.336 51.3014L128.856 52.9922C130.549 51.0345 132.198 48.6318 133.713 45.7397C133.936 45.5617 134.069 45.3393 134.069 45.0723Z" fill="white"/>
<path d="M211.374 53.0367V15.3949H175.551V53.0367H179.249V51.8354H207.676V53.0367H211.374ZM197.963 48.8098C198.542 48.6318 198.943 48.4094 199.166 48.1869C199.879 47.6085 200.28 46.6296 200.28 45.2948V43.426H206.34V40.7119H200.28V38.1758C201.127 38.0868 201.929 37.9978 202.686 37.9088C203.176 38.6652 203.666 39.4216 204.156 40.2225L206.696 38.5317C205.538 36.7965 204.335 35.3282 203.176 34.0823V24.3382H195.111V23.1813H205.849V20.4672H195.111C195.557 20.0668 195.78 19.7553 195.78 19.5773C195.78 19.3104 195.468 19.1769 194.889 19.1769L191.636 18.9099V20.4672H181.032V23.1813H191.636V24.3382H183.75V34.4828H191.636V36.2625C188.294 36.485 184.953 36.6185 181.566 36.752L182.235 39.5996C182.235 39.9555 182.368 40.089 182.591 40.089C182.814 40.089 183.037 39.911 183.259 39.5551C188.651 39.1546 193.195 38.7987 196.894 38.4872V40.7119H180.764V43.426H187.091L185.844 44.6274C187.091 45.4728 188.383 46.5851 189.72 48.0089L191.903 45.9622C190.923 45.0278 189.898 44.1824 188.874 43.426H196.938V44.7609C196.894 45.4283 196.448 45.7842 195.602 45.7842H193.24L194.443 48.8098H179.339V18.5095H207.765V48.8098H198.052M199.701 30.4338V32.1246H195.067V30.4338H199.701ZM195.067 28.3871V26.6963H199.701V28.3871H195.067ZM199.745 34.4828C200.146 34.8832 200.503 35.2837 200.859 35.6841C198.943 35.8176 197.027 35.9066 195.022 36.0401V34.4828H199.745ZM187.18 28.3871V26.6963H191.636V28.3871H187.18ZM191.591 30.4338V32.1246H187.136V30.4338H191.591Z" fill="white"/>
<path d="M231.157 30.6118C229.464 28.8765 227.325 27.2748 224.786 25.762L222.112 28.4316C224.474 29.8999 226.657 31.5462 228.662 33.3259L231.202 30.6118H231.157Z" fill="white"/>
<path d="M249.96 41.3793C251.118 42.7141 252.232 44.1379 253.302 45.7397C249.96 46.1402 246.529 46.4961 243.054 46.8076C244.613 44.4494 246.039 41.8688 247.287 39.0211C247.732 38.7097 247.955 38.4427 247.955 38.2203C247.955 37.8643 247.688 37.6863 247.198 37.6863L244.301 36.7075C242.697 40.6674 240.648 44.1824 238.153 47.208C236.816 47.3415 235.524 47.4305 234.143 47.5195L235.123 51.7019C235.167 52.1468 235.346 52.3693 235.657 52.3693C235.925 52.3693 236.192 52.1023 236.504 51.5239C244.836 50.5006 251.118 49.6997 255.396 49.0323C256.198 50.3671 256.955 51.7464 257.713 53.2147L261.233 50.901C258.426 46.1402 255.574 42.2247 252.678 39.1991L250.005 41.3793H249.96Z" fill="white"/>
<path d="M230.979 37.8643C228.35 42.4917 225.454 46.6296 222.246 50.3671L225.454 53.0812C226.033 53.0812 226.301 52.6363 226.301 51.7464C228.796 48.3649 231.157 44.6719 233.341 40.7564L230.979 37.9088V37.8643Z" fill="white"/>
<path d="M245.104 32.1246H233.341V35.5951H260.743V32.1246H248.98V25.0945H258.381V21.624H248.98V16.0623C249.47 15.6173 249.693 15.3059 249.693 15.0834C249.693 14.7275 249.336 14.505 248.668 14.505L245.148 14.1935V21.624H235.881V25.0945H245.148V32.1246H245.104Z" fill="white"/>
<path d="M234.499 19.0879C232.717 17.3526 230.533 15.7063 227.949 14.1935L225.276 16.9522C227.726 18.376 229.954 20.0222 232.004 21.802L234.544 19.0879H234.499Z" fill="white"/>
<path d="M309.621 49.5217C304.141 45.8287 299.952 42.0467 297.145 38.2647C294.962 35.3726 293.135 31.9466 291.62 27.9866C292.066 25.228 292.289 22.2024 292.289 18.9544V16.6407C292.957 16.1958 293.313 15.7063 293.313 15.2614C293.313 14.9499 292.957 14.772 292.199 14.7275L287.922 14.416C288.145 15.6618 288.279 16.7297 288.279 17.6196V18.9544C288.279 25.1835 287.298 30.4783 285.338 34.9277C284.046 37.7308 281.818 40.5784 278.654 43.426C276.649 45.2503 273.842 47.208 270.278 49.2547L273.798 52.4138C277.229 50.3226 280.169 48.0534 282.664 45.5172C286.14 42.1357 288.501 38.6207 289.793 35.0612C289.972 34.6162 290.105 34.2158 290.194 33.8153C291.219 36.0845 292.333 38.1313 293.447 39.9555C295.719 43.5595 299.462 47.7864 304.72 52.6808L309.576 49.6107L309.621 49.5217Z" fill="white"/>
<path d="M330.072 18.9099C327.933 17.2636 325.305 15.6618 322.186 14.1935L319.646 16.7742C322.542 18.198 325.26 19.7553 327.711 21.446L330.072 18.9099Z" fill="white"/>
<path d="M344.597 47.3415H352.395V29.8999C352.885 30.1223 353.464 30.3003 354.088 30.5228L357.786 27.5417C353.464 26.4293 350.479 25.3615 348.83 24.4271C347.494 23.6262 346.291 22.6029 345.266 21.446C345.444 21.0456 345.667 20.6006 345.845 20.1112C346.023 19.9777 346.202 19.8443 346.335 19.7553H351.682L349.365 23.1368L352.573 24.3381L356.583 19.4438C357.162 19.0879 357.43 18.7764 357.43 18.4649C357.43 18.2425 357.296 18.02 357.073 17.8865L355.068 16.5962C354.756 16.3292 354.444 16.1958 354.088 16.1958L353.063 16.7297H339.563C340.186 15.9733 340.677 15.5728 340.944 15.4839C341.167 15.3059 341.256 15.1279 341.256 15.0389C341.256 14.8609 341.078 14.683 340.677 14.5495L337.558 13.4816C335.553 16.3292 332.924 18.7764 329.671 20.7786L333.013 22.6474C334.305 21.7575 335.508 20.7786 336.577 19.7553H341.79C341.389 21.0011 340.766 22.0689 339.919 22.9143C338.716 24.0267 337.201 25.0055 335.419 25.8064C334.216 26.3404 332.255 27.0078 329.448 27.8087L331.721 29.188H324.191C327.31 27.6752 329.76 26.4293 331.453 25.4505V22.3804C327.221 24.6496 322.854 26.2959 318.354 27.3192L319.29 30.9232C319.29 31.3237 319.468 31.5017 319.691 31.5017C319.958 31.5017 320.27 31.2792 320.537 30.8787C321.651 30.3448 322.72 29.8554 323.745 29.4104V47.3415H331.275C327.666 48.6763 323.3 49.7441 318.22 50.5005L321.25 53.3926C325.527 52.5473 330.117 51.3014 335.018 49.6997C335.597 49.5662 335.864 49.4327 335.864 49.2547C335.864 49.0322 335.775 48.8543 335.553 48.6763L333.859 47.386H341.746L340.365 48.8543C344.241 50.545 348.964 52.0133 354.489 53.2592L357.519 50.0556C352.439 49.3437 348.117 48.4538 344.508 47.386M338.672 27.6307C340.231 26.9188 341.479 26.1179 342.503 25.228C342.904 24.8721 343.261 24.5161 343.617 24.0712C344.33 24.9611 345.132 25.7174 345.934 26.3404C347.048 27.2302 348.652 28.2091 350.746 29.188H334.795C336.444 28.5651 337.736 28.0311 338.672 27.6307ZM327.711 32.2136H348.563V34.3938H327.711V32.2136ZM327.711 37.1079H348.563V39.2881H327.711V37.1079ZM327.711 44.2269V42.1357H348.563V44.2269H327.711Z" fill="white"/>
<path d="M380.287 15.3949H368.702V18.8654H380.287V15.3949Z" fill="white"/>
<path d="M401.629 47.3415C401.629 47.3415 401.406 47.1635 401.273 46.8965C400.782 45.7842 400.381 44.4494 400.159 42.8476C399.891 40.6674 399.758 37.9088 399.758 34.4827C399.758 30.4338 399.936 24.4716 400.248 16.5962H383.495V19.9777H387.817V31.2792H382.604V34.7497H387.817V52.8142H391.515V34.7497H394.856V31.2792H391.515V19.9777H396.282C396.104 25.7619 396.015 30.6118 396.015 34.4827C396.015 38.3537 396.238 41.7797 396.683 44.4494C397.218 47.386 398.109 49.6551 399.312 51.3459C400.203 52.5028 401.05 53.0812 401.896 53.0812C402.476 53.0812 403.188 52.4583 403.99 51.2124C404.792 50.0111 405.639 47.6529 406.575 44.1379L403.545 41.4238C402.654 45.3837 401.985 47.386 401.54 47.386L401.629 47.3415Z" fill="white"/>
<path d="M371.197 51.0345H377.569V52.6362H381.267V38.3537H367.499V52.6362H371.197V51.0345ZM371.197 41.8242H377.569V47.5639H371.197V41.8242Z" fill="white"/>
<path d="M382.47 20.9566H366.697V24.4271H382.47V20.9566Z" fill="white"/>
<path d="M368.346 35.8176H380.777V32.614H368.346V35.8176Z" fill="white"/>
<path d="M380.777 26.8743H368.346V30.0779H380.777V26.8743Z" fill="white"/>
<path d="M452.691 45.2948H436.561V22.3359H450.151V18.4205H418.382V22.3359H432.373V45.2948H416.065V49.2547H452.691V45.2948Z" fill="white"/>
<path d="M502.594 48.5428C498.45 47.6084 495.242 46.6741 492.925 45.7397C490.831 44.9388 488.737 43.8265 486.643 42.4471H501.435V38.9766H484.593V36.7074H496.846V33.4149H484.593V30.9677H498.227V27.4972H490.563L492.034 23.8487H500.722V20.3782H494.663L497.024 16.9521C497.47 16.7297 497.692 16.4627 497.692 16.1068C497.692 15.9288 497.47 15.7508 497.069 15.5728L494.351 14.1045L490.786 20.3782H488.291V15.0834C488.737 14.6385 488.959 14.2825 488.959 14.06C488.959 13.7931 488.648 13.6596 488.024 13.6596L484.816 13.3926V20.3782H480.717V15.0834C481.162 14.6385 481.385 14.2825 481.385 14.06C481.385 13.7931 481.073 13.6596 480.449 13.6596L477.241 13.3926V20.3782H475.325C473.855 17.931 472.295 15.8398 470.691 14.1045L468.152 16.5072C469.132 17.5306 470.112 18.8209 471.092 20.3782H464.454V23.8487H473.588L474.746 27.4972H466.949V30.9677H480.672V33.4149H468.419V36.7074H480.672V38.9766H463.741V42.4471H478.177C476.305 43.782 474.523 44.8053 472.83 45.5172C469.889 46.8075 466.414 47.9199 462.359 48.8543L465.701 52.2358C468.998 51.3459 471.85 50.2781 474.211 49.0322C476.35 47.8309 478.533 46.3181 480.672 44.4939V53.6151H484.548V44.4494C486.464 46.1846 488.38 47.5639 490.385 48.6763C492.39 49.8776 495.108 51.079 498.494 52.2803L502.549 48.5873M478.667 27.4972L477.508 23.8487H487.979L486.509 27.4972H478.712H478.667Z" fill="white"/>
<path d="M528.748 53.0812H532.625V39.5106C534.63 42.3582 536.635 44.6719 538.729 46.4516C540.734 48.2759 543.407 50.1001 546.749 51.8799L550.625 48.3203C547.105 46.9855 544.298 45.6062 542.07 44.2269C542.962 44.1824 543.808 43.96 544.655 43.6485C546.125 43.1146 546.882 41.9577 546.882 40.089V33.2369H532.58V30.2113H549.6V27.0078H532.58V25.7175C533.026 25.228 533.248 24.8721 533.248 24.6496C533.248 24.3826 532.981 24.2047 532.402 24.1602C533.293 23.0478 534.095 21.9355 534.808 20.7786H538.862C539.664 22.3359 540.377 24.0712 540.957 25.8954L544.298 25.1835C543.897 23.7597 543.318 22.2914 542.561 20.7786H549.333V17.5751H536.635C536.857 17.1746 537.036 16.7742 537.214 16.3737C538.016 16.1068 538.372 15.8398 538.372 15.5284C538.372 15.3059 538.105 15.1724 537.57 15.0389L534.006 14.149C532.892 17.1746 531.154 19.9777 528.793 22.6029L531.644 24.0712L528.614 23.8042V26.9633H511.861V30.1668H528.614V33.1924H514.98V43.5595H518.678V36.485H527.456C525.139 39.3326 522.956 41.5128 520.995 42.9811C518.099 45.0723 514.713 46.8965 510.792 48.4093L514 51.6129C517.208 50.2336 519.926 48.5873 522.243 46.6741C524.382 44.8498 526.52 42.4916 528.614 39.5995V52.9922M543.229 36.574V38.8876C543.229 39.911 542.872 40.4449 542.16 40.4894L539.664 40.5784L540.823 43.3815C538.461 41.7353 536.055 39.4661 533.738 36.5295H543.184L543.229 36.574Z" fill="white"/>
<path d="M518.723 20.7786H521.307C522.154 22.3359 522.911 24.0712 523.535 25.8954L526.877 25.1835C526.476 23.7597 525.852 22.2914 525.05 20.7786H529.238V17.5751H520.416C520.594 17.2191 520.817 16.8187 520.995 16.3737C521.797 16.1068 522.154 15.8398 522.154 15.5284C522.154 15.3059 521.886 15.1724 521.352 15.0389L517.787 14.149C516.406 17.8865 514.267 21.3571 511.416 24.6051L514.802 26.2959C516.272 24.4716 517.564 22.6029 518.723 20.7341V20.7786Z" fill="white"/>
<path d="M567.868 27.5417C566.22 26.0734 564.215 24.7386 561.809 23.4483L559.135 26.1624C561.363 27.3638 563.457 28.7431 565.373 30.2114L567.868 27.5417Z" fill="white"/>
<path d="M571.566 28.8765C572.279 28.1201 572.947 27.3192 573.571 26.5183V47.6084H577.269V45.0278H597.632V41.5573H587.696V37.6863H596.117V34.4828H587.696V30.6118H596.117V27.4082H587.696V23.5373H597.275V20.1557H588.453L590.235 17.3971C590.814 17.1301 591.082 16.7742 591.082 16.3737C591.082 16.1958 590.859 16.0178 590.413 15.8398L587.562 14.3715L584.487 20.1557H577.982C577.982 20.1557 578.161 19.8443 578.25 19.6663C579.364 17.6196 580.121 16.5072 580.522 16.3737C580.745 16.1513 580.878 15.9733 580.878 15.8843C580.878 15.7063 580.656 15.5284 580.255 15.3949L576.824 14.1935C574.551 19.1769 571.566 23.4038 567.913 26.8743L571.611 28.921M577.269 23.4483H583.997V27.3192H577.269V23.4483ZM577.269 30.5673H583.997V34.4383H577.269V30.5673ZM577.269 37.6418H583.997V41.5128H577.269V37.6418Z" fill="white"/>
<path d="M569.383 19.0879C567.779 17.6196 565.818 16.2403 563.501 14.9055L560.828 17.5751C563.011 18.8209 565.016 20.2447 566.888 21.802L569.427 19.0879H569.383Z" fill="white"/>
<path d="M572.279 48.2759C570.675 47.8309 569.517 47.03 568.715 45.9177V33.5929H561.675V37.0634H564.705V45.5173C563.056 46.8076 561.051 48.0534 558.645 49.2547L560.828 52.1913C560.962 52.5918 561.185 52.8143 561.497 52.8143C561.719 52.8143 561.942 52.5918 562.165 52.1024L566.22 48.2314C566.576 48.7208 567.022 49.2102 567.512 49.6552C568.759 50.812 570.452 51.6129 572.591 52.1024C574.641 52.5918 577.403 52.8143 580.834 52.8143H597.453L598.79 48.5428C593.354 48.8988 587.339 49.0768 580.789 49.0768C576.958 49.0768 574.151 48.8098 572.235 48.2759H572.279Z" fill="white"/>
<path d="M619.241 21.98V24.6941H634.747V21.98H619.241Z" fill="white"/>
<path d="M621.202 20.9121C623.118 19.8887 625.123 18.7764 627.172 17.5306C629.578 19.2213 631.94 20.6006 634.346 21.713C637.153 22.9588 640.495 24.1157 644.282 25.1835L646.955 21.4905C643.257 20.8231 640.316 20.1112 638.133 19.3548C635.638 18.6429 632.965 17.4416 630.069 15.8398C630.559 15.6618 630.826 15.4839 630.826 15.2614C630.826 14.9944 630.603 14.772 630.202 14.594L627.128 13.4371C624.053 15.6173 621.068 17.4416 618.038 18.8209C614.83 20.2892 611.132 21.624 606.944 22.6919L609.974 25.406C615.008 23.7152 618.707 22.2469 621.157 20.9566L621.202 20.9121Z" fill="white"/>
<path d="M642.812 38.2648V26.6964H611.533V38.2648H615.231V37.1524H639.113V38.2648H642.812ZM625.078 34.1268H622.36C621.959 32.8365 621.425 31.5017 620.712 30.0779L617.727 30.7453C618.261 31.7687 618.707 32.9255 619.152 34.1268H615.231V29.7219H625.078V34.1268ZM634.702 34.1268L635.772 32.614C636.217 32.3916 636.44 32.1246 636.44 31.7687C636.44 31.6352 636.262 31.4572 635.905 31.2792L633.41 30.0779L631.182 34.1268H628.554V29.7219H639.158V34.1268H634.747H634.702Z" fill="white"/>
<path d="M618.93 51.7909H635.549V52.9477H639.425V39.3771H615.053V53.1257H618.93V51.7909ZM618.93 42.1357H635.594V44.4049H618.93V42.1357ZM618.93 46.9855H635.594V49.0767H618.93V46.9855Z" fill="white"/>
<path d="M125.336 79.5996H127.698V63.0034H125.336V79.5996Z" fill="white"/>
<path d="M145.075 76.7075L136.787 63.0034H133.535V79.5996H135.673V65.495L144.228 79.5996H147.258V63.0034H145.075V76.7075Z" fill="white"/>
<path d="M163.565 71.5017C162.585 70.8788 162.14 70.7453 158.13 69.7664C156.08 69.277 155.1 68.7876 155.1 67.3193C155.1 65.673 156.481 64.6496 158.842 64.6496C160.491 64.6496 162.273 65.0946 162.407 67.1858H164.858C164.858 66.4739 164.768 65.3615 163.833 64.3827C162.496 62.9144 160.224 62.7364 159.065 62.7364C155.902 62.7364 152.649 64.2047 152.649 67.5862C152.649 68.6986 153.006 69.9444 154.387 70.8343C155.233 71.4127 156.392 71.6797 158.976 72.3026C161.338 72.881 162.853 73.2369 162.853 75.1057C162.853 75.9511 162.407 78.0868 158.887 78.0868C155.011 78.0868 154.877 75.9511 154.832 74.7942H152.382C152.382 75.5951 152.382 76.9299 153.362 78.1313C154.699 79.822 157.328 80 158.62 80C162.942 80 165.303 77.7753 165.303 74.8387C165.303 74.1713 165.169 72.525 163.61 71.5462L163.565 71.5017Z" fill="white"/>
<path d="M168.2 64.9611H173.858V79.5996H176.131V64.9611H181.834V63.0034H168.2V64.9611Z" fill="white"/>
<path d="M185.532 79.5996H187.893V63.0034H185.532V79.5996Z" fill="white"/>
<path d="M191.993 64.9611H197.696V79.5996H200.013V64.9611H205.671V63.0034H191.993V64.9611Z" fill="white"/>
<path d="M220.998 73.1925C220.998 74.3938 220.998 77.9088 216.454 77.9088C215.295 77.9088 213.647 77.6418 212.577 76.2625C212.221 75.7731 211.82 75.0612 211.82 73.2814V63.0034H209.503V73.1035C209.503 75.5951 209.948 76.5295 210.483 77.2859C212.043 79.5106 214.85 79.911 216.454 79.911C217.657 79.911 220.241 79.6441 221.89 77.5974C223.226 75.9511 223.271 74.0823 223.271 73.1925V62.9589H220.998V73.148V73.1925Z" fill="white"/>
<path d="M227.548 64.9611H233.207V79.5996H235.524V64.9611H241.183V63.0034H227.548V64.9611Z" fill="white"/>
<path d="M246.975 72.0801H254.861V70.1224H246.975V64.9611H255.262V63.0034H244.658V79.5996H255.44V77.5529H246.975V72.0801Z" fill="white"/>
<path d="M268.941 79.5996H271.302V72.0801H278.52V70.1224H271.302V64.9611H278.966V63.0034H268.941V79.5996Z" fill="white"/>
<path d="M290.417 62.5584C288.858 62.5584 286.541 62.9144 284.758 64.7831C282.932 66.7408 282.575 69.4995 282.575 71.4127C282.575 75.9511 284.447 80 290.194 80C295.942 80 297.992 75.5506 297.992 71.1457C297.992 65.5395 295.051 62.5584 290.373 62.5584M294.071 76.5295C293.09 77.6863 291.709 78.0423 290.328 78.0423C288.947 78.0423 287.565 77.6863 286.585 76.5295C285.427 75.1057 285.07 73.1035 285.07 71.2792C285.07 67.8977 286.184 64.5161 290.462 64.5161C294.338 64.5161 295.586 67.3637 295.586 71.1457C295.586 72.2581 295.452 74.8832 294.071 76.5295Z" fill="white"/>
<path d="M311.581 71.1902C312.116 71.0568 312.829 70.8343 313.586 70.1224C314.344 69.366 314.789 68.3426 314.789 67.1858C314.789 65.851 314.165 64.6051 312.918 63.8042C311.67 63.0034 309.888 63.0034 309.041 63.0034H303.026V79.5996H305.343V72.1246H308.284C311.091 72.1246 311.715 72.792 311.982 75.2392C312.16 76.5295 312.383 78.5317 312.74 79.6441H315.235C314.566 77.8198 314.433 76.396 314.165 74.4383C313.943 72.3916 313.185 71.6797 311.581 71.2347M311.136 69.7664C310.512 70.1224 309.175 70.1224 308.908 70.1224H305.21V64.9166H308.908C309.843 64.9166 312.294 64.9166 312.294 67.5862C312.294 68.9655 311.492 69.544 311.136 69.7219V69.7664Z" fill="white"/>
<path d="M328.156 79.5996H330.473V63.0034H328.156V79.5996Z" fill="white"/>
<path d="M347.895 76.7075L339.563 63.0034H336.354V79.5996H338.449V65.495L347.048 79.5996H350.033V63.0034H347.895V76.7075Z" fill="white"/>
<path d="M356.048 79.5996H358.454V72.0801H365.672V70.1224H358.454V64.9611H366.118V63.0034H356.048V79.5996Z" fill="white"/>
<path d="M377.569 62.5584C376.009 62.5584 373.692 62.9144 371.955 64.7831C370.083 66.7408 369.771 69.4995 369.771 71.4127C369.771 75.9511 371.643 80 377.391 80C383.138 80 385.188 75.5506 385.188 71.1457C385.188 65.5395 382.247 62.5584 377.569 62.5584ZM381.178 76.5295C380.198 77.6863 378.816 78.0423 377.435 78.0423C376.054 78.0423 374.673 77.6863 373.692 76.5295C372.534 75.1057 372.178 73.1035 372.178 71.2792C372.178 67.8977 373.291 64.5161 377.569 64.5161C381.445 64.5161 382.693 67.3637 382.693 71.1457C382.693 72.2581 382.559 74.8832 381.178 76.5295Z" fill="white"/>
<path d="M398.689 71.1902C399.223 71.0568 399.936 70.8343 400.694 70.1224C401.451 69.366 401.897 68.3426 401.897 67.1858C401.897 65.851 401.273 64.6051 400.025 63.8042C398.778 63.0034 396.995 63.0034 396.149 63.0034H390.134V79.5996H392.451V72.1246H395.391C398.243 72.1246 398.822 72.792 399.09 75.2392C399.268 76.5295 399.491 78.5317 399.847 79.6441H402.342C401.674 77.8198 401.496 76.396 401.273 74.4383C401.05 72.3916 400.293 71.6797 398.689 71.2347M398.288 69.7664C397.664 70.1224 396.327 70.1224 396.06 70.1224H392.362V64.9166H396.06C396.995 64.9166 399.446 64.9166 399.446 67.5862C399.446 68.9655 398.644 69.544 398.288 69.7219V69.7664Z" fill="white"/>
<path d="M416.199 76.663L411.432 63.0034H407.288V79.5996H409.56V64.7386L414.907 79.5996H417.135L422.66 64.6496V79.5996H424.977V63.0034H421.1L416.199 76.663Z" fill="white"/>
<path d="M436.116 63.0034L428.987 79.5996H431.393L433.22 75.2837H441.062L442.888 79.5996H445.428L438.611 63.0034H436.116ZM433.977 73.4149L437.274 65.2725L440.393 73.4149H434.022H433.977Z" fill="white"/>
<path d="M445.962 64.9611H451.621V79.5996H453.938V64.9611H459.597V63.0034H445.962V64.9611Z" fill="white"/>
<path d="M463.339 79.5996H465.656V63.0034H463.339V79.5996Z" fill="white"/>
<path d="M478.488 62.5584C476.929 62.5584 474.612 62.9144 472.83 64.7831C471.003 66.7408 470.646 69.4995 470.646 71.4127C470.646 75.9511 472.518 80 478.266 80C484.013 80 486.063 75.5506 486.063 71.1457C486.063 65.5395 483.122 62.5584 478.444 62.5584M482.097 76.5295C481.117 77.6863 479.736 78.0423 478.355 78.0423C476.973 78.0423 475.592 77.6863 474.612 76.5295C473.454 75.1057 473.097 73.1035 473.097 71.2792C473.097 67.8977 474.211 64.5161 478.488 64.5161C482.365 64.5161 483.612 67.3637 483.612 71.1457C483.612 72.2581 483.479 74.8832 482.097 76.5295Z" fill="white"/>
<path d="M502.816 76.7075L494.484 63.0034H491.231V79.5996H493.37V65.495L501.925 79.5996H504.955V63.0034H502.816V76.7075Z" fill="white"/>
<path d="M518.812 79.5996H521.173V63.0034H518.812V79.5996Z" fill="white"/>
<path d="M538.55 76.7075L530.263 63.0034H527.01V79.5996H529.149V65.495L537.704 79.5996H540.689V63.0034H538.55V76.7075Z" fill="white"/>
<path d="M551.427 63.0034H546.526V79.5996H551.293C553.789 79.5996 555.838 79.5996 557.531 78.2648C558.823 77.2414 560.338 75.0612 560.338 71.4572C560.338 69.188 559.759 66.9188 558.244 65.1836C556.373 63.0034 553.699 63.0034 551.427 63.0034ZM555.615 76.7965C554.501 77.6418 552.808 77.7308 551.204 77.7308H548.932V64.9166H551.739C553.789 64.9166 555.17 65.1836 556.239 66.3849C557.843 68.1202 557.888 70.9233 557.888 71.5462C557.888 72.525 557.799 75.2392 555.66 76.7965H555.615Z" fill="white"/>
<path d="M576.601 73.1925C576.601 74.3938 576.601 77.9088 572.056 77.9088C570.898 77.9088 569.249 77.6418 568.18 76.2625C567.824 75.7731 567.423 75.0612 567.423 73.2814V63.0034H565.061V73.1035C565.061 75.5951 565.551 76.5295 566.041 77.2859C567.601 79.5106 570.408 79.911 572.012 79.911C573.215 79.911 575.799 79.6441 577.448 77.5974C578.784 75.9511 578.829 74.0823 578.829 73.1925V62.9589H576.556V73.148L576.601 73.1925Z" fill="white"/>
<path d="M595.137 71.5017C594.156 70.8788 593.711 70.7453 589.701 69.7664C587.651 69.277 586.671 68.7876 586.671 67.3193C586.671 65.673 588.097 64.6496 590.414 64.6496C592.062 64.6496 593.844 65.0946 593.978 67.1858H596.429C596.384 66.4739 596.34 65.3615 595.404 64.3827C594.067 62.9144 591.795 62.7364 590.681 62.7364C587.517 62.7364 584.265 64.2047 584.265 67.5862C584.265 68.6986 584.621 69.9444 586.003 70.8343C586.849 71.4127 588.008 71.6797 590.592 72.3026C592.953 72.881 594.468 73.2369 594.468 75.1057C594.468 75.9511 594.023 78.0868 590.503 78.0868C586.626 78.0868 586.493 75.9511 586.448 74.7942H583.998C583.998 75.5951 583.997 76.9299 584.978 78.1313C586.314 79.822 588.943 80 590.235 80C594.557 80 596.919 77.7753 596.919 74.8387C596.919 74.1713 596.785 72.525 595.226 71.5462L595.137 71.5017Z" fill="white"/>
<path d="M599.771 64.9611H605.429V79.5996H607.746V64.9611H613.405V63.0034H599.771V64.9611Z" fill="white"/>
<path d="M625.702 71.1902C626.237 71.0568 626.95 70.8343 627.707 70.1224C628.465 69.366 628.91 68.3426 628.91 67.1858C628.91 65.851 628.287 64.6051 627.039 63.8042C625.791 63.0034 624.009 63.0034 623.163 63.0034H617.147V79.5996H619.464V72.1246H622.405C625.212 72.1246 625.836 72.792 626.103 75.2392C626.282 76.5295 626.504 78.5317 626.861 79.6441H629.356C628.688 77.8198 628.554 76.396 628.286 74.4383C628.064 72.3916 627.351 71.6797 625.702 71.2347M625.301 69.7664C624.677 70.1224 623.341 70.1224 623.073 70.1224H619.375V64.9166H623.073C624.009 64.9166 626.415 64.9166 626.415 67.5862C626.415 68.9655 625.613 69.544 625.257 69.7219L625.301 69.7664Z" fill="white"/>
<path d="M644.371 63.0034L639.336 71.1457L634.346 63.0034H631.45L638.044 73.059V79.5996H640.405V73.1925L647 63.0034H644.371Z" fill="white"/>
</g>
<defs>
<clipPath id="clip0_2106_3941">
<rect width="647" height="80" fill="white"/>
</clipPath>
</defs>
</svg>
