<svg width="282" height="80" viewBox="0 0 282 80" fill="none" xmlns="http://www.w3.org/2000/svg">
<g clip-path="url(#clip0_2106_4019)">
<path d="M114.359 61.7723H106.722V64.987H114.359V61.7723Z" fill="white"/>
<path d="M114.359 40.3173H106.722V52.1324H114.359V40.3173Z" fill="white"/>
<path d="M114.359 55.347H106.722V58.5617H114.359V55.347Z" fill="white"/>
<path d="M110.48 36.0338C113.128 36.0338 114.792 34.2595 114.792 31.9967C114.729 29.6713 113.128 27.8969 110.543 27.8969C107.958 27.8969 106.294 29.6713 106.294 31.9967C106.294 34.3221 107.958 36.0338 110.484 36.0338H110.48Z" fill="white"/>
<path d="M114.359 68.2017H106.722V70.1138H114.359V68.2017Z" fill="white"/>
<path d="M122.921 61.9142C125.384 63.3211 129.078 64.5444 132.962 64.5444C137.829 64.5444 140.54 62.2816 140.54 58.9166C140.54 55.7979 138.447 53.961 133.147 52.0655C126.308 49.619 121.937 46.0077 121.937 40.0751C121.937 33.3451 127.603 28.2058 136.597 28.2058C141.094 28.2058 144.419 29.1827 146.575 30.2849L144.726 36.3428C143.246 35.5453 140.355 34.3847 136.471 34.3847C131.667 34.3847 129.574 36.9523 129.574 39.3404C129.574 42.5216 131.978 43.9912 137.518 46.133C144.726 48.8258 148.235 52.4329 148.235 58.3697C148.235 64.9786 143.183 70.7275 132.466 70.7275C128.095 70.7275 123.534 69.5042 121.256 68.1599L122.921 61.9184V61.9142Z" fill="white"/>
<path d="M181.926 61.1794C181.926 64.7281 182.048 67.6631 182.174 70.1138H175.521L175.151 65.5882H175.029C173.735 67.7299 170.78 70.7901 165.421 70.7901C160.062 70.7901 154.952 67.5462 154.952 57.8186V40.3215H162.525V56.5327C162.525 61.4884 164.127 64.6697 168.132 64.6697C171.15 64.6697 173.121 62.5279 173.924 60.6325C174.172 59.9603 174.357 59.1629 174.357 58.3071V40.3215H181.935V61.1836L181.926 61.1794Z" fill="white"/>
<path d="M190.425 49.1849C190.425 45.7573 190.362 42.8849 190.177 40.3132H196.83L197.2 44.7803H197.385C198.68 42.4549 201.941 39.641 206.93 39.641C212.167 39.641 217.585 43.006 217.585 52.4288V70.1096H210.011V53.2847C210.011 49.0012 208.41 45.7573 204.282 45.7573C201.265 45.7573 199.171 47.899 198.369 50.1618C198.121 50.834 198.062 51.7525 198.062 52.6083V70.1054H190.425V49.1807V49.1849Z" fill="white"/>
<path d="M224.667 27.2456H247.451V33.5205H232.241V45.6487H246.409V51.8234H232.241V70.1138H224.671V27.2498L224.667 27.2456Z" fill="white"/>
<path d="M258.48 58.2779L255.206 70.1096H247.514L260.085 27.2456H269.508L282 70.1096H274.069L270.647 58.2779H258.476H258.48ZM269.525 52.5373L266.6 42.1919C265.864 39.4907 265.196 36.2635 264.599 33.6249H264.444C263.864 36.2927 263.208 39.595 262.519 42.1835L259.623 52.5415H269.525V52.5373Z" fill="white"/>
<path d="M72.4515 6.92619C63.5369 0.680496 53.4287 -1.21075 42.7447 0.726421C31.1192 2.83059 22.1878 9.00531 15.9001 18.8206C17.5225 26.4064 20.8597 34.2135 25.8066 41.6073L42.1689 25.3543C43.8375 23.6969 46.5442 23.6969 48.2128 25.3543C49.8814 27.0118 49.8814 29.7004 48.2128 31.3579L30.9763 48.4793C32.1826 49.9113 33.4561 51.3182 34.7926 52.6959L68.6688 19.046C70.3374 17.3886 73.0441 17.3886 74.7127 19.046C76.3813 20.7035 76.3813 23.3921 74.7127 25.0496L41.0383 58.4991C42.5219 59.739 44.0308 60.908 45.5607 62.0102L59.7416 47.924C61.4102 46.2666 64.1169 46.2666 65.7855 47.924C67.4541 49.5814 67.4541 52.2701 65.7855 53.9275L52.9327 66.6945C59.0859 70.1221 65.4283 72.4851 71.6109 73.7251C81.1264 67.8175 87.7924 58.211 89.5913 46.5672C92.1467 30.0219 86.2625 16.5912 72.4599 6.92202L72.4515 6.92619ZM55.2318 22.5446C52.8697 22.5446 50.9573 20.645 50.9573 18.2987C50.9573 15.9524 52.8697 14.0528 55.2318 14.0528C57.5939 14.0528 59.5062 15.9524 59.5062 18.2987C59.5062 20.645 57.5939 22.5446 55.2318 22.5446Z" fill="url(#paint0_linear_2106_4019)"/>
<path d="M46.8426 72.744C44.3544 71.3496 41.8956 69.7798 39.4915 68.0389C36.1922 65.6508 32.9895 62.9454 29.9507 59.9228C28.1729 58.1568 26.5001 56.3365 24.9408 54.4745C23.062 52.2326 21.343 49.9322 19.7837 47.5859C15.7656 41.5448 12.8193 35.2281 11.0036 28.9866C10.4278 30.4478 9.85621 31.909 9.25098 33.3535C6.23323 40.5303 3.2491 47.7153 0.264973 54.9045C-0.251995 56.1445 -0.0544543 56.4409 1.2779 56.4576C3.41302 56.4868 5.54814 56.4493 7.68326 56.466C9.22156 56.4785 9.58722 56.562 9.67128 57.6308C9.68809 57.8687 9.6965 58.1526 9.6965 58.495C9.7007 62.1981 9.7007 65.9055 9.7007 69.6086C9.7007 72.41 9.7007 75.2114 9.7007 78.0128C9.7007 79.904 9.78896 79.9917 11.7265 79.9917C16.9677 79.9959 22.213 79.9917 27.4542 79.9917C28.858 79.9917 30.2576 79.9917 31.6614 79.9917C34.2882 79.9917 36.9193 79.9917 39.5462 79.9917C43.0389 79.9917 46.5358 79.9917 50.0284 79.9917C52.5082 79.9917 54.967 79.737 57.3837 79.2652C58.426 79.0607 59.4516 78.8227 60.4561 78.5513C55.9084 77.1903 51.3272 75.2448 46.8468 72.7357L46.8426 72.744Z" fill="white"/>
</g>
<defs>
<linearGradient id="paint0_linear_2106_4019" x1="78.1591" y1="12.0572" x2="36.8199" y2="53.6785" gradientUnits="userSpaceOnUse">
<stop stop-color="#FFA502"/>
<stop offset="1" stop-color="#FF8430"/>
</linearGradient>
<clipPath id="clip0_2106_4019">
<rect width="282" height="80" fill="white"/>
</clipPath>
</defs>
</svg>
