<svg width="370" height="80" viewBox="0 0 370 80" fill="none" xmlns="http://www.w3.org/2000/svg">
<g clip-path="url(#clip0_2106_3811)">
<path d="M248.543 17.2869V12.7304H242.284V17.2869H212.319V12.7304H206.066V17.2869H193.68V18.9565H261.896V17.2869H248.543Z" fill="white"/>
<path d="M261.89 51.3391H193.68V53.0087H261.89V51.3391Z" fill="white"/>
<path d="M193.68 58.7768H202.777C202.059 59.9246 201.26 61.1942 200.744 62.029C197.461 67.3971 205.081 67.5246 214.959 67.3971L240.367 67.4145C250.251 67.5478 258.439 66.1043 258.439 62.9739V61.2638H251.519V63.3681C251.519 65.2 248.937 65.7913 234.409 65.7913H214.959C214.959 65.7913 206.019 65.3913 207.559 62.0869L209.754 58.7768H261.884V57.1072H193.674V58.7768H193.68Z" fill="white"/>
<path d="M227.125 45.4898H212.319V41.5188H227.125V39.8492H212.319V37.4434H206.066V39.8492H193.68V41.5188H206.066V45.4898H193.68V47.1594H227.125V45.4898Z" fill="white"/>
<path d="M199.621 34.7362C198.341 35.7391 196.633 36.6724 194.352 37.3623C194.352 37.3623 193.686 37.629 193.697 37.7739C193.721 38.1101 194.259 38.0116 194.259 38.0116C194.259 38.0116 206.563 37.2869 209.904 30.2087H210.802V31.3623C210.802 35.1826 213.853 37.0956 220.269 37.0956H227.136V35.3565H222.105C218.439 35.5304 217.299 33.9072 217.218 31.884V30.2087H227.142V28.5391H212.336V24.5391H227.142V22.8695H212.336V20.4637H206.083V22.8695H193.697V24.5391H206.083V28.5391H193.697V30.2087H203.037C202.597 31.4203 201.647 33.1594 199.638 34.7304L199.621 34.7362Z" fill="white"/>
<path d="M228.109 47.9478C227.287 48.3594 227.687 48.8985 228.543 48.6782C229.667 48.3826 236.847 46.8985 240.981 40.7478C242.921 41.8376 244.924 43.1594 246.829 44.771C248.248 45.971 249.122 46.3768 248.277 44.771C246.627 41.6347 244.467 39.1072 242.718 37.3565C243.459 35.3681 243.911 33.0434 243.911 30.3072V24.4869H244.942C248.358 24.3246 249.782 25.4608 249.493 27.7217V42.7884C249.493 46.5101 251.485 48.2898 255.468 48.1275H261.861V46.3188H257.86C256.001 46.3188 255.468 46.0579 255.468 43.113V28.2087C255.468 24.6492 252.625 22.8695 246.644 22.8695H243.905V20.3594L237.727 20.4173C237.756 20.4753 237.808 21.4492 237.854 22.8637H229.649V24.4811H237.889C237.935 27.3739 237.901 31.1014 237.588 33.2579C233.124 30.3826 229.551 29.0318 229.551 29.0318V36.2898C229.551 36.2898 232.539 36.8811 236.54 38.5681C235.527 41.6115 233.315 45.3333 228.109 47.942V47.9478Z" fill="white"/>
<path d="M327.54 41.113C325.386 40.5681 323.886 39.0551 322.143 35.942C321.634 35.0261 319.955 31.7739 319.746 31.4087H313.852C314.9 33.687 316.428 36.7304 317.801 38.9333C319.514 41.6696 321.854 41.7101 327.117 41.5884C327.326 41.5884 327.54 41.5942 327.748 41.5884C328.414 41.571 328.252 41.2927 327.534 41.113H327.54Z" fill="white"/>
<path d="M344.685 48.2029H338.223V48.1855H322.138C317.21 48.1855 314.246 49.1652 313.001 51.1188V48.1855H306.886V67.3449H313.001V64.8232C314.008 66.6319 316.967 67.4725 322.138 67.3333H344.685C355.322 67.4783 360.03 65.9304 360.03 62.5565V53.5536C360.03 48.6551 355.079 48.0638 344.685 48.2029ZM321.397 49.942H344.685C350.192 49.942 353.342 50.9333 353.342 53.8377V56.8406H313.001V51.9188C313.881 50.8754 316.168 49.7855 321.391 49.9478L321.397 49.942ZM344.685 65.7449H328.102V65.7623H321.397C316.967 65.9014 314.246 65.3449 313.007 63.8145V58.6609H353.348V61.913C353.348 64.4116 350.377 65.7391 344.691 65.7391L344.685 65.7449Z" fill="white"/>
<path d="M345.195 35.942C343.452 39.0551 341.952 40.5681 339.798 41.113C339.086 41.2927 338.918 41.571 339.59 41.5884C339.798 41.5942 340.012 41.5884 340.221 41.5884C345.484 41.7101 347.824 41.6696 349.532 38.9333C350.91 36.7362 352.433 33.687 353.486 31.4087H347.592C347.378 31.7681 345.704 35.0261 345.195 35.942Z" fill="white"/>
<path d="M369.427 32.7304C363.029 30.6667 361.135 24.6029 358.819 19.0783C357.244 15.3159 355.768 14.7884 349.746 14.7884H327.239C322.971 14.7884 320.146 15.687 318.571 17.1594C319.376 15.4145 319.619 14.2841 319.619 14.2841H310.343C308.71 20.3652 304.726 30.1101 299.509 32.1043C298.328 32.5565 298.438 33.2696 299.231 32.9971C301.188 32.3246 302.949 31.5652 304.552 30.7594V45.1478H310.667V42.5855C311.657 44.4174 314.628 45.258 319.822 45.1188H346.903C357.545 45.2696 362.247 43.7159 362.247 40.342V33.0029C364.204 33.2986 366.451 33.3565 368.923 33.2986C369.172 33.2986 370.979 33.2348 369.421 32.7304H369.427ZM326.469 16.3942H342.56C343.156 16.4116 343.944 16.4232 344.986 16.4232C349.914 16.4232 351.234 19.7681 351.234 19.7681C351.593 20.4928 351.9 21.1188 352.178 21.6928H315.82C316.608 20.6551 317.245 19.6696 317.749 18.771C318.71 17.6754 320.262 16.4 326.469 16.4V16.3942ZM310.227 27.2406C311.814 26.029 313.151 24.7826 314.263 23.5652H353.069C353.984 25.5652 354.233 26.3188 354.604 27.1826C352.49 27.0087 349.937 26.9855 346.909 27.0261H335.913V27.0087H319.827C314.877 27.0087 311.906 27.9942 310.673 29.9652V27.0087L310.227 27.2464V27.2406ZM319.086 43.5536C314.633 43.6928 311.906 43.1304 310.673 41.5826V30.7536C311.541 29.7043 313.834 28.5971 319.086 28.7652H330.597V43.5362H330.331V43.5536H319.086ZM355.571 39.7101C355.571 42.2087 352.606 43.5362 346.909 43.5362H336.706V28.7652H346.909C352.415 28.7652 355.571 29.7565 355.571 32.6551V39.7043V39.7101Z" fill="white"/>
<path d="M173.831 12.5739H169.928V67.3159H173.831V12.5739Z" fill="#C4000F"/>
<path d="M283.824 12.5739H279.921V67.3159H283.824V12.5739Z" fill="#C4000F"/>
<path d="M137.41 24.5043C137.914 24.4811 138.47 24.5507 138.475 24.4174C138.475 24.2898 138.319 24.3072 138.088 24.2551C135.273 23.6 133.837 22.058 131.979 18.8869C131.811 18.5681 131.77 18.5333 131.591 18.1913H126.924C127.873 19.7855 129.304 22.2145 129.611 22.6319C131.081 24.6029 133.16 24.713 137.41 24.5043Z" fill="white"/>
<path d="M132.61 15.1478H116.715V15.1304H99.6398C95.0133 15.1304 92.0197 15.942 90.4737 17.5594V15.1304H83.7686V67.2232H90.4737V65.3565C91.8808 66.7884 94.8743 67.4435 99.6398 67.3101H132.61C143.907 67.4667 148.904 65.8203 148.904 62.2377V20.829C148.904 15.629 143.646 15.0029 132.61 15.1536V15.1478ZM141.805 62.6783C141.805 64.771 138.655 65.8145 132.61 65.8145H98.8465C94.7006 65.9362 91.9676 65.4957 90.4737 64.2725V18.3652C91.6955 17.4319 94.11 16.6261 98.8465 16.7768H115.001V16.7942H132.61C139.176 16.6435 141.805 17.6522 141.805 20.3768V62.6841V62.6783Z" fill="white"/>
<path d="M98.5454 48.3942C99.5529 49.6754 101.585 50.3362 103.27 50.3362C111.406 50.4464 115.001 49.258 115.001 46.6783V35.8609C115.001 32.116 111.22 31.6638 103.27 31.7739C101.435 31.7739 99.2923 32.5391 98.5454 34.0174V31.7565H94.0405V50.3246H98.5454V48.3942ZM98.5454 34.4464C99.2402 33.658 100.555 32.9913 104.457 32.9507C108.302 32.9913 109.894 33.7449 109.894 35.5304V46.9913C109.894 48.4986 107.625 49.2522 103.27 49.2522C101.168 49.3217 99.4834 48.9217 98.5454 47.7391V34.4406V34.4464Z" fill="white"/>
<path d="M139.61 62.5333C134.283 59.7565 130.091 55.3739 127.225 50.0232C135.655 40.829 138.742 31.0841 138.742 31.0841L131.104 31.0957C131.104 31.0957 129.906 36.4348 125.69 42.9044C125.378 43.3855 125.082 43.8551 124.787 44.3188C123.953 41.7855 123.374 39.1188 123.067 36.3594C122.679 32.8464 122.523 29.6 122.488 26.887H138.232V25.3855H122.477C122.477 21.5826 122.691 19.171 122.691 19.171H115.58C115.58 19.171 115.436 21.6638 115.546 25.3855H94.0405V26.887H115.604C115.905 33.5652 117.04 43.1884 120.832 50.0406C120.687 50.2203 120.549 50.3942 120.392 50.5739C116.721 54.8232 115.795 56.8406 106.246 64.2435C105.824 64.5681 105.847 64.9681 106.264 64.8406C110.809 63.4841 116.675 59.1826 121.099 55.7043C121.927 55.0551 122.726 54.3826 123.484 53.7044C126.414 57.1478 131.892 62.1333 139.871 63.4957C140.062 63.5246 140.519 63.6464 140.606 63.2348C140.699 62.8232 139.604 62.5217 139.604 62.5217L139.61 62.5333Z" fill="white"/>
<path d="M116.559 51.2232C116.437 51.0145 115.557 51.1536 114.636 51.4261C103.363 54.7768 94.0229 55.4377 94.0229 55.4377L94.0693 61.9652C94.0693 61.9652 102.008 60.3015 114.822 52.7189C116.014 52.0116 116.686 51.4377 116.559 51.2232Z" fill="white"/>
<path d="M16.5663 64.2319V75.7217L5.59364 63.8724H4.76562V79.4087H5.98738V67.7043L17.0642 79.3739L17.7938 79.3681V79.084V64.2319H16.5663Z" fill="#BC000E"/>
<path d="M34.3598 78.0116C33.4681 78.4869 32.5764 78.8406 31.6731 79.0724C30.7757 79.3043 29.8492 79.4203 28.888 79.4203C26.3692 79.4203 24.3947 78.7246 22.9645 77.3333C21.5285 75.942 20.8105 74.0406 20.8105 71.6232C20.8105 69.2058 21.5633 67.3565 23.0746 65.9768C24.58 64.6029 26.6472 63.913 29.2702 63.913C30.185 63.913 31.0941 64.0116 31.9974 64.2029C32.9007 64.3942 33.8329 64.6898 34.7941 65.0898V67.2811C34.7941 67.2811 32.7733 65.8666 32.0032 65.4666C31.2331 65.0724 30.324 64.8753 29.2702 64.8753C27.452 64.8753 26.0276 65.4608 24.9969 66.6377C23.9663 67.8145 23.4509 69.4435 23.4509 71.5246C23.4509 73.6058 23.9894 75.2522 25.0606 76.4753C26.1376 77.6985 27.5736 78.313 29.3686 78.313C30.3008 78.313 31.1694 78.1275 31.9916 77.7623C32.8138 77.3971 33.6245 76.7304 34.3772 75.9246L34.3541 78.0058L34.3598 78.0116Z" fill="#BC000E"/>
<path d="M44.7476 63.913H43.6127L36.8149 79.1072H38.8589L40.7929 73.513H46.2937L48.3376 79.1072H51.337L44.7476 63.913ZM41.3372 72.2377L43.5606 66.8232L45.7899 72.2377H41.3372Z" fill="#BC000E"/>
<path d="M63.23 65.2464V64.1565H54.9673V79.1072H57.3181V71.6H63.23V70.5043H57.3181V65.2464H63.23Z" fill="#BC000E"/>
<path d="M63.2303 56.3015L60.3409 29.7275H63.0044V2.73044H35.1299V24.9565L32.478 0.579712L4.76562 3.3971L7.65498 29.971H4.99724V56.9681H32.8601V34.742L35.5121 59.1188L63.2303 56.3015ZM10.388 29.971L35.1299 27.4551V29.7217H57.6021L32.8601 32.2377V29.9652H10.388V29.971Z" fill="#BC000E"/>
<mask id="mask0_2106_3811" style="mask-type:luminance" maskUnits="userSpaceOnUse" x="4" y="0" width="60" height="60">
<path d="M63.2303 56.3015L60.3409 29.7275H63.0044V2.73044H35.1299V24.9565L32.478 0.579712L4.76562 3.3971L7.65498 29.971H4.99724V56.9681H32.8601V34.742L35.5121 59.1188L63.2303 56.3015ZM10.388 29.971L35.1299 27.4551V29.7217H57.6021L32.8601 32.2377V29.9652H10.388V29.971Z" fill="white"/>
</mask>
<g mask="url(#mask0_2106_3811)">
<path d="M25.0605 13.5884C25.0258 13.484 25.0258 13.2058 24.9563 13.171C24.8058 12.3826 24.0936 12.058 23.9546 11.884C23.5435 11.4898 23.2945 11.5014 23.2308 11.571C23.5493 11.7101 23.5435 12.371 23.6825 12.3362C23.9604 12.4753 24.771 14.771 24.3773 15.4261C24.1862 15.7391 23.9951 15.9478 23.6825 16.0869C23.5782 16.0869 22.8487 16.5391 22.2523 16.3536C21.8933 16.2435 21.569 15.9478 21.4706 15.4956C21.4358 15.2869 21.4011 15.0782 21.4011 14.8348C21.239 13.8956 21.4069 13.9304 21.4242 13.5826C21.5053 12.0869 21.9859 10.2551 22.1249 9.80288C22.4375 9.48983 22.3333 8.93331 22.1249 8.94491C21.8122 8.96809 21.8875 8.62027 21.6095 8.62027C21.54 8.62027 21.4706 8.65505 21.4011 8.65505C21.0537 8.7594 20.7062 8.96809 20.3646 9.10722C20.2257 9.10722 20.1214 9.14201 20.1909 8.89853C20.5731 8.30723 21.1 7.46085 21.1926 7.19418C21.3084 6.86954 21.6501 6.94491 21.899 6.49273C22.0091 6.28983 21.9917 6.14491 21.9917 6.03476C21.818 5.63476 20.8857 5.50143 20.2546 6.44635C20.0056 6.81737 19.6408 7.33331 19.6061 7.40288C19.5077 7.10143 19.195 7.04346 19.1718 6.71882C19.1602 6.54491 18.587 6.73041 18.6044 6.60867C18.6217 6.48693 20.1967 4.91012 20.3704 4.73621C22.2059 4.61447 23.4856 3.90143 23.4856 3.90143C24.0067 3.5536 23.4856 3.48404 23.5898 3.03186C23.6651 2.69563 22.9645 2.84056 22.7618 2.37099C23.0339 1.83186 22.5534 1.77969 22.4144 1.53621C22.4144 1.53621 22.2117 0.724616 21.8527 0.65505C21.7138 0.33621 20.2836 -0.486979 19.0965 1.57099C18.9923 1.64056 18.8881 1.71012 18.7839 1.74491C18.6796 1.81447 18.2975 2.23186 18.1585 2.33621C17.5853 2.91012 16.2477 3.54201 15.0086 4.24346C13.949 4.93331 12.953 5.21737 12.2119 4.9565C11.5865 4.57389 10.9264 4.37679 10.3416 3.93041C10.2374 3.86085 9.58888 3.58259 9.751 3.82607C9.84944 3.97679 10.7354 4.7594 10.7875 5.61157C10.5732 6.02896 10.5269 6.52172 11.077 7.12462C11.766 7.88983 12.9936 7.73911 13.0631 7.70433C13.2715 7.53041 13.7 7.33331 13.4221 6.9507C13.3873 6.88114 13.4221 6.81157 13.4221 6.74201C13.6189 6.59128 14.4585 5.44925 15.2113 5.20577C16.1609 4.89853 17.0873 3.61157 17.4695 3.40867C18.199 3.02027 18.3785 3.64056 18.2975 4.10433C18.1701 4.81737 17.8111 5.83766 17.3652 6.39418C17.3131 6.45795 16.3983 7.87244 13.3294 9.27534C13.3294 9.27534 11.905 9.90723 11.8992 9.58259C11.8934 8.88694 12.0382 8.79418 12.0382 8.79418C11.9397 8.73621 11.9282 8.77679 11.4939 9.22896C11.297 9.43766 11.077 9.70433 10.9901 10.6319C10.9322 11.3623 11.0133 11.4261 11.2681 11.3971C11.9745 11.3101 13.0225 10.4522 13.5379 10.3652C13.6421 10.3478 13.9026 10.3304 13.949 10.7072C13.9721 10.9275 13.7984 11.142 13.7116 11.229C13.6421 11.3333 13.3815 11.4319 13.451 11.6058C13.8679 11.8493 13.3468 12.6493 13.5552 13.0319C13.3815 13.4493 13.1094 13.5884 12.7967 13.5884C12.0208 13.5768 11.9282 13.9884 11.5865 14.0406C11.1001 13.971 10.4458 14.2493 9.9942 14.6666C9.79154 14.8522 9.80891 15.113 9.9942 15.3971C10.2432 15.7913 9.77995 15.9536 9.79733 16.2608C10.3995 15.6637 10.6543 16.1217 10.8975 15.6753C11.2044 15.5478 12.1366 14.713 12.762 14.5391C12.9878 14.4753 13.0052 14.6493 13.3294 14.8058C13.4105 14.8464 13.4047 15.2406 13.1789 15.3333C12.2872 15.6985 11.7892 16.9101 11.0828 17.2985C10.828 17.4377 10.2026 17.8666 9.9942 18.1855C9.57729 18.5333 9.50781 19.1246 8.99247 19.4319C8.6798 19.6058 8.88825 19.9884 8.74928 20.2319C8.74928 20.2377 8.74349 20.2493 8.7377 20.2551L7.81704 21.2C7.51595 21.3913 7.63175 21.6348 7.63175 21.6348C7.6665 21.6695 7.95601 22.3072 8.02549 22.2724C8.47714 23.1768 9.86102 21.7855 9.9305 21.4029C9.9305 21.3681 9.96524 21.3681 9.96524 21.2985C9.9305 20.4637 10.3821 19.5304 11.0364 18.7652C11.4186 18.4869 11.5576 17.8608 12.0382 17.7565C12.6346 17.7739 11.9339 18.9739 11.8992 19.113C11.7602 19.5304 11.6792 20.0522 11.5518 20.4C11.4302 20.742 11.2912 21.0898 10.9785 21.3681C10.7701 21.6116 10.7238 22.3942 9.9942 23.2464C9.85523 23.3159 9.71626 23.4898 9.5773 23.5594C9.22988 23.8724 9.47307 24.1507 9.3341 24.4985C9.16039 24.8116 9.36884 24.9855 9.29936 25.2638C9.36884 25.4029 9.47307 25.5072 9.64678 25.5768C10.1332 25.5768 10.0289 25.0203 10.2374 24.742C10.2026 24.1507 10.2258 24.3536 10.7238 23.0782C11.2217 21.8029 12.0092 20.7594 12.1424 20.1623C12.2119 19.8551 12.4261 19.6406 12.594 19.6058C12.7562 19.571 13.0457 19.5478 13.1499 19.7101C13.2483 19.8724 13.0978 19.9942 13.0746 20.2898C13.0457 20.6493 13.2078 21.084 12.9067 21.9362C12.872 22.0058 12.7677 22.3188 12.8025 22.3884C12.6925 22.8232 13.1789 23.0898 13.1789 23.4087C13.5089 23.171 13.5031 22.713 13.7058 22.5275C13.8795 22.2145 13.7521 21.9884 13.7753 21.6927C13.7984 21.3971 13.9142 20.8927 13.8795 20.5449C14.0532 20.0232 13.949 19.5362 14.0185 19.0145C14.0995 18.2029 13.9142 18.1449 13.9837 17.9072C13.9837 17.1884 14.6264 17.0898 15.0202 16.4869C15.2981 16.1739 15.576 15.8608 15.7787 15.4782C16.2535 15.2 16.572 14.6782 16.6762 14.6087C16.8499 14.8869 17.4058 15.0261 16.9541 15.5826C16.9194 15.7217 16.7457 15.8608 16.8152 15.9304C16.5372 16.4174 16.4677 16.9333 16.1898 17.4203C15.3328 18.8 15.7613 19.084 15.6339 19.8145C15.6687 20.1971 16.1898 19.9536 16.294 20.3362C16.4967 20.5913 16.2246 20.771 16.1203 20.8232C17.1568 20.6666 16.6646 19.7913 18.1643 19.6406C18.2338 19.6406 18.3033 19.6058 18.3728 19.5362C18.8881 17.9594 17.3421 19.2811 16.8673 18.9507C16.5893 18.7594 16.4214 18.9391 16.2593 18.7768C16.2361 18.4753 16.5025 18.2551 16.5372 18.2203C16.7109 17.8029 16.7457 17.4203 16.9541 16.9681C17.1626 16.3768 17.3016 15.8551 17.6142 15.2695C17.7879 15.1652 17.898 15.1072 17.9616 15.2348C18.0311 15.3739 17.8922 15.5826 17.8574 15.7565C17.9269 15.7913 18.0659 15.6869 18.1701 15.6174C18.2396 15.5478 18.5175 15.5478 18.7954 15.2695C19.0676 14.9913 19.4208 14.9913 19.7277 14.8522C19.9014 14.8174 20.0751 14.7478 20.2488 14.6435C21.0768 14.4695 20.5267 15.6174 20.8742 16C20.9263 16.2261 21.2042 17.1014 21.7543 17.4087C22.3044 17.7159 23.1266 17.4551 23.474 17.3507C23.7867 17.2464 24.0646 17.1072 24.2731 17.0029C25.4717 16.3768 25.7612 16.6029 26.0333 16.3942C26.2476 16.342 26.2418 16.1739 26.2765 16.0695C26.1144 15.1072 25.6338 14.3304 25.1011 13.6058L25.0605 13.5884ZM16.3751 9.48983C17.1163 9.19418 17.8864 8.82317 18.1411 8.68983C18.3959 8.5623 18.4191 8.48114 18.558 8.41157C18.6275 8.37679 19.0444 8.23766 19.1834 8.16809C19.0097 8.41157 18.8534 8.57389 18.7491 8.85215C18.6796 8.99128 18.6333 9.24636 18.558 9.38549C18.558 9.38549 19.1834 8.65505 19.2876 8.44635C19.3397 8.3536 19.6408 8.17969 19.6524 8.40578C19.664 8.60867 19.3918 9.19998 19.3282 9.38549C19.2587 9.52462 19.1429 9.90723 18.7086 10.1913C18.2164 10.4927 18.1006 10.3014 17.7011 10.771C17.4231 10.9797 16.9657 11.3043 16.7341 11.4319C16.5025 11.5536 16.6704 11.2348 16.6357 11.1652C16.462 10.9913 15.4544 11.7101 15.246 11.7797C15.1418 11.8145 15.0723 11.8145 15.0028 11.8145C14.8523 11.7739 14.6554 11.6811 14.638 11.4377C14.528 9.86665 15.6455 9.78549 16.3867 9.48983H16.3751ZM18.1411 12.371C17.9616 12.7652 16.9657 13.9768 16.3983 14.3536C16.1493 14.5159 15.8192 15.229 15.4197 15.4145C15.2402 15.4956 15.136 15.8145 14.997 16.0232C14.858 16.1971 14.2211 16.9739 14.0995 16.6145C13.7463 15.5884 14.7538 15.3623 14.5164 14.8811C14.3427 14.7072 14.169 14.4985 14.2385 14.1855C14.4122 13.8724 14.7249 13.7681 14.997 13.5942C15.136 13.5246 15.2402 13.4203 15.3444 13.2464C15.9987 12.8695 16.5546 12.4811 16.6241 12.342C16.902 12.0985 17.9385 11.2695 18.6333 11.0551C18.6449 11.4898 18.4249 11.6811 18.4249 11.8203C18.3206 11.9942 18.3264 11.9826 18.1469 12.3768L18.1411 12.371ZM20.6657 12.684C20.5962 12.9507 20.0114 12.7188 19.6987 12.7536C19.2934 12.8348 18.6391 13.0087 18.5349 12.8927C18.4017 12.8058 18.7781 12.058 18.8476 11.884C18.9518 11.6753 19.056 11.5014 19.0908 11.2927C19.195 10.9449 19.6293 10.2145 19.6987 10.1797C20.0462 9.97099 20.4283 9.79708 20.8047 9.65795C20.9842 9.69853 21.0247 11.258 20.6657 12.6782V12.684Z" fill="white"/>
<path d="M19.699 25.2174C19.3515 25.113 19.0447 25.2348 18.5583 25.6C17.655 26.4522 16.0047 26.458 16.9312 25.5304C17.7418 24.7942 18.2514 23.6812 19.699 22.6841C20.0522 22.4406 20.7702 21.8145 20.0232 21.1304C19.9537 21.1304 20.0695 21.5014 19.2531 21.3507C18.3846 21.171 17.7071 21.6348 15.9295 22.5101C15.5184 22.713 15.5473 22.2145 15.5589 21.9826C15.1073 22.2551 14.4182 22.5855 14.4935 23.1014C14.5514 23.4435 14.6324 23.6 14.9278 23.7449C15.1883 23.8725 15.5473 23.6232 15.7558 23.5536C16.2421 23.3101 16.688 23.2058 17.1396 22.8928C17.5623 22.7246 17.8924 23.0783 17.4871 23.4841C17.4176 23.7275 16.5027 24.6377 16.2421 24.9391C15.5531 25.7449 15.6979 25.7681 15.032 26.1565C14.754 26.313 14.4182 26.6725 14.6846 26.9565C14.9046 27.1884 14.6614 27.5362 14.893 27.6174C15.999 28.0058 18.1008 26.6377 18.7667 27.3043C18.8362 27.3739 19.0157 27.8551 18.1182 28.2029C18.1529 28.2029 18.8015 28.2203 19.0794 28.1739C19.9595 27.942 20.6717 27.513 21.0886 27.1304C22.2235 25.8551 20.0522 25.2985 19.7047 25.2232L19.699 25.2174Z" fill="white"/>
<path d="M13.4451 40.2898C13.8735 40.3014 14.2731 40.1159 14.6552 39.9072C16.5023 39.9188 15.7612 38.3478 15.657 38.2087C15.489 38.0058 15.0374 37.2116 14.2789 37.171C13.8851 37.113 13.7288 38 13.4508 38.2435C12.7271 38.9043 10.7989 39.8261 11.071 40.7362C12.4549 40.9449 12.2349 40.2608 13.4508 40.2898H13.4451Z" fill="white"/>
<path d="M24.0762 38.5913C24.7652 38.5333 24.302 38.4406 24.4062 38.371H24.4178C24.8405 38.1333 25.9985 38.5681 25.8712 38.0348C25.7438 37.4957 25.7669 37.3739 25.5932 37.0319C25.3732 36.2841 25.0258 35.7449 24.1804 35.9594C23.3292 36.1739 23.1092 35.9942 22.837 36.4116C22.7328 36.6203 22.3854 36.6203 22.3159 36.829C22.6286 36.8985 22.837 37.2812 23.1787 37.3101C24.0472 37.5594 23.3871 38.6551 24.0762 38.5913Z" fill="white"/>
<path d="M13.4452 42.8174C13.3758 42.7826 13.3063 42.7478 13.2368 42.713C12.9936 43.0261 13.2657 43.4898 12.2003 44.4811C11.3781 45.2406 9.61206 46.6956 9.33412 47.1826C8.7493 47.4261 7.52176 48.5101 7.57387 48.8116C7.60283 48.9913 8.41347 48.7478 8.813 48.5391C9.77419 48.0463 11.0712 48.4985 12.0266 47.9478C12.5883 47.6232 11.9919 48.8811 12.0266 49.4029C11.9224 50.0637 12.3798 50.8753 12.4725 51.1014C12.5651 51.3275 13.1731 51.6405 13.4394 51.6579C13.5089 51.6579 13.7348 51.9478 14.2559 51.6058C14.7481 51.2753 14.5164 50.7188 14.5106 50.342C14.4817 48.8232 13.5784 48.0232 13.4394 47.884C13.1963 47.6405 12.8373 47.3101 13.231 47.0203C13.6247 46.7304 14.6149 45.971 14.7886 45.6406C14.9623 45.3101 14.8523 44.8521 14.5975 44.2319C14.3022 43.5246 13.7174 42.9565 13.4394 42.8232L13.4452 42.8174Z" fill="white"/>
<path d="M26.873 39.942C26.294 39.9246 24.9391 41.1884 24.0763 41.3623C22.6751 41.6406 22.1076 42.2956 22.0381 42.3304C21.8992 42.3652 21.7602 42.4 21.795 42.5739C21.8644 42.6435 21.9339 42.713 22.0381 42.7826C22.2813 42.9565 22.6288 43.1304 22.9356 43.1304C23.1788 42.8869 23.5899 42.9217 23.7637 42.6493C23.8679 42.5449 24.4411 42.284 24.279 45.1768C24.418 45.5942 24.6264 48.0522 24.6264 48.8116C24.5569 49.1246 24.6611 51.0609 24.5222 51.7217C24.5569 52.1391 24.3137 52.3768 24.0705 52.6551C23.451 53.3797 22.4493 53.2174 22.4493 53.9362C22.5535 53.7565 23.4626 53.5652 24.2095 53.6927C24.7248 53.8319 25.2344 54.1275 25.5239 54.2493C25.8134 54.371 26.1608 53.9768 26.3172 53.1768C26.543 51.0435 26.1435 49.8551 26.1435 49.1594C26.074 47.8782 25.7266 46.6319 25.6918 45.3855C25.4428 42.9797 24.7596 42.3014 24.8291 42.1971C25.4486 41.9884 26.1435 41.9188 26.763 41.7449C27.5216 41.6753 28.2975 41.0145 28.2801 40.4985C28.2627 39.9826 27.3826 40.0116 26.8615 39.942H26.873Z" fill="white"/>
<path d="M21.9047 44.1333C21.6847 44.058 20.5903 43.8898 20.3529 43.8203C20.2139 43.7855 20.075 43.7159 19.9708 43.6116C19.8665 42.9507 20.0055 42.4348 19.936 41.7391C19.9708 40.8116 20.2834 40.9101 20.3529 40.8754C20.8683 40.6667 22.0089 40.2493 22.0437 40.2203C22.5127 39.8783 22.1132 39.8029 22.0437 39.8029C21.4936 39.6985 20.8683 39.5942 20.3877 39.8725C20.3877 39.8377 19.7739 40.0927 20.0402 39.5246C20.1097 39.5246 20.2834 38.3478 20.3529 38.2783C20.5961 37.8319 20.4919 37.171 20.5614 36.6493C21.1462 35.1246 21.3604 33.513 20.5266 33.4203C19.9534 33.3507 19.3859 33.0087 18.8011 33.2927C18.06 33.5072 18.0426 34.3188 18.0426 34.9565C18.2337 34.8 18.8243 34.1681 19.218 35.1304C19.4786 35.6348 19.218 35.9594 19.218 36.1681C19.079 36.858 18.8938 39.4667 19.0443 40.0116C19.2354 40.7014 17.3535 41.1884 17.1451 41.3971C16.6934 41.3971 16.5834 41.9072 15.6628 41.9884C15.5238 41.9884 15.4196 42.058 15.3501 42.1623C15.4196 42.2667 16.7977 42.6841 17.5967 42.1623C18.39 41.6406 18.1873 41.7217 18.4942 41.6058C19.137 41.3681 18.9748 42.3362 18.8069 42.6783C18.7027 42.9217 18.5637 43.1652 18.4247 43.3333C17.6431 44.3768 15.7612 46.0348 15.628 46.9333L15.6628 46.8985C15.7323 46.8638 17.1046 46.4464 17.6373 45.8667C18.17 45.287 18.9575 44.2203 18.8069 45.2696C18.8069 45.2696 18.8069 45.3855 18.8069 45.4029C18.7953 45.5652 18.5753 46.3014 18.6737 46.829C18.7722 47.3565 18.6737 48.0406 18.8127 48.5971C18.8474 48.7014 18.8822 48.8058 18.9169 48.9101C19.0559 49.1188 18.9169 50.0116 19.4323 49.4609C19.5365 49.3507 19.5365 49.1478 19.7739 49.1478C20.3066 49.1014 20.0229 48.6029 20.0171 47.8319C20.0171 46.8638 19.8086 46.029 19.8434 45.0609C19.8434 45.0609 19.7913 44.6898 20.3587 44.887C20.7756 44.9913 21.0478 45.4435 21.4994 45.5478C21.6731 45.5826 21.8468 45.513 22.0495 45.4435C22.3969 45.1304 22.1884 44.713 22.0495 44.371C21.98 44.2667 22.1363 44.2087 21.9105 44.1275L21.9047 44.1333Z" fill="white"/>
<path fill-rule="evenodd" clip-rule="evenodd" d="M60.891 24.4928C60.6072 24.313 59.9761 23.9188 59.3739 23.8029C58.0248 23.5362 56.0445 22.5449 55.3033 21.5768C54.9675 21.1362 54.429 20.8464 54.3827 20.7826C54.3711 20.7652 53.3694 20.0812 53.3288 20.029C53.3288 20.029 52.3329 19.3681 51.6728 19.0551C51.0185 18.742 51.5802 18.3362 51.5917 18.3246C51.5917 18.3246 53.3404 17.113 53.5952 16.6667C53.8442 16.2203 54.1105 16.1739 54.2205 16.0696C55.147 15.2 54.869 15.142 54.9791 14.8696C55.0891 14.5971 55.4654 14.6667 55.5002 14.6667C55.5928 14.6667 56.415 14.742 56.4498 14.742C56.5019 14.742 56.6756 14.8116 56.9593 14.7362C57.2431 14.6609 58.0363 14.7015 58.0653 14.6957C58.1811 14.6667 58.3085 14.6087 58.4417 14.6319C58.9975 14.7304 59.5823 14.5449 59.6229 14.5449C59.6229 14.5449 60.1498 14.4406 60.1672 14.4406C60.4219 14.429 60.6593 14.1739 60.7867 14.0406C60.9199 13.9073 61.0473 13.4957 60.532 13.4087L60.4277 13.4261C60.3814 13.4551 60.0745 13.571 59.3971 13.5884C58.7138 13.6116 58.0305 13.629 57.8568 13.6522C57.7642 13.6638 57.6658 13.6696 57.5615 13.6928C57.4457 13.7159 56.7972 13.7971 56.693 13.8493C56.5888 13.9015 56.3687 13.7797 55.7492 13.9188C55.5986 13.9536 53.4852 14.1044 53.2014 14.0754C53.0393 14.058 52.854 14.0754 52.7787 14.0986C52.414 14.1913 51.4759 14.1102 51.3659 14.0986C51.2733 14.0812 50.7406 14.0986 50.7406 14.0986C50.6421 14.0986 50.5611 14.0464 50.5032 13.9304C50.3584 13.6058 49.9415 13.4261 50.4221 12.829C50.4221 12.829 50.7 12.5971 50.5321 12.3942C50.4337 12.2725 50.2079 12.1681 50.1499 12.1044C50.092 12.0406 49.8604 11.971 49.8315 11.9652C49.5941 11.913 49.403 12.1971 49.4146 12.2609C49.4146 12.2609 49.2582 12.6667 49.2235 12.7246C49.2003 12.771 48.8124 13.2986 48.714 13.3565C48.6039 13.4145 48.4766 13.5362 48.4476 13.5536C48.4186 13.5768 48.436 13.7102 48.5866 13.7623C48.6387 13.7623 48.9108 13.9362 48.9166 14.0522C48.9282 14.2377 48.6445 14.3536 48.6097 14.3652C48.5981 14.3652 48.5924 14.371 48.5866 14.3768C48.355 14.5507 47.8744 14.5159 47.8628 14.5159C47.7933 14.5507 47.2085 14.5159 46.8553 14.7015C46.5947 14.8406 45.703 14.7015 45.5293 14.7015C45.1587 14.7015 44.1512 14.6493 43.5085 14.8812C42.8658 15.113 42.113 14.9913 42.113 14.9913C42.113 14.9913 41.644 14.7652 41.3024 14.9044C41.2271 14.9333 40.6712 15.1362 40.5496 15.5768C40.5323 15.8725 40.3064 16.4232 40.3354 16.5623C40.4049 16.9275 42.0841 16.1797 42.2867 16.1565C42.4894 16.1333 43.1495 16.1971 43.8559 15.8725C44.1512 15.7391 44.487 15.6522 45.0892 15.4899C45.6914 15.3275 46.0273 15.7855 46.1489 15.8899C46.8147 16.4522 46.6063 16.5855 47.0348 16.9333C47.7238 17.4899 47.6485 18.1797 48.5692 18.4058C49.4841 18.6377 49.5999 19.2406 47.7759 20.3188C47.3996 20.5391 47.1448 20.7362 47.029 20.7594C47.0116 20.771 45.5351 21.4261 45.2977 21.4435C44.8055 21.4841 43.9833 21.9246 43.7285 21.9246C43.4679 21.9246 43.2595 21.9768 43.0916 22.0696C42.8136 22.2145 40.2138 22.5565 38.7662 22.5681L38.3667 22.2899C38.3667 22.2899 37.944 22.0058 37.6603 22.3768C37.6313 22.4058 37.5445 22.6319 37.4171 22.7073C37.4171 22.7073 36.7859 23.9652 36.8612 24.2145C36.896 24.3304 36.9249 24.429 36.9365 24.4986C36.9365 24.4986 37.087 24.4174 37.1449 24.3362C37.3302 24.1797 37.3534 24.2029 37.6197 24.2725C37.8861 24.342 38.4072 24.4174 38.442 24.4116C38.442 24.4116 38.9689 24.2319 39.2352 24.2957C39.4958 24.3594 41.3313 24.3652 41.9046 23.8841C42.4778 23.4029 43.7111 23.2116 44.2438 23.1652C44.4986 23.142 44.5218 22.6841 45.5061 22.6783C45.8767 22.6783 45.7551 22.0754 46.8553 21.9246C48.7024 21.6754 49.5767 20.3015 49.9473 19.7275C50.3179 19.1536 50.9201 19.9478 52.3097 20.7015C52.8424 20.9913 53.103 21.6058 53.6183 21.8957C53.6357 21.9073 54.0642 22.3362 54.5158 23.0435C55.118 23.9884 56.1776 24.2725 56.6235 25.1536C56.6235 25.1536 58.3085 27.1768 58.3201 27.1884C58.7254 27.4435 59.7618 27.2174 60.3003 26.8232C61.0125 26.3073 61.5279 26.3884 61.6611 26.2667C62.7091 25.5362 62.7091 25.1884 62.767 24.9102C62.8365 24.5797 61.9274 25.1478 60.9083 24.4986L60.891 24.4928ZM50.2658 18.1681C50.0805 18.0174 49.9299 17.7507 49.5478 17.7217C49.1656 17.6928 47.9323 16.6493 47.8222 16.1217C47.7064 15.5942 47.4806 15.5594 47.6022 15.3565C47.7412 14.8812 48.6618 14.6725 49.3683 14.858C50.0747 15.0493 51.308 14.6551 52.2113 14.7015C52.8251 14.7362 53.682 14.6609 54.0758 14.7246C54.6664 14.8174 54.0758 15.4029 53.9947 15.5246L53.1377 16.2203C52.9467 16.3536 52.5529 16.4754 51.8291 17.3913C51.5744 17.7102 50.7695 18.5739 50.26 18.1681H50.2658Z" fill="white"/>
<path fill-rule="evenodd" clip-rule="evenodd" d="M52.8131 42.2956C53.34 42.5797 53.2126 42.742 53.5543 42.8464C53.8959 42.9507 53.7569 43.1652 54.3938 43.3391C55.025 43.513 55.5982 43.8666 55.853 43.9884C56.1078 44.1101 56.1541 44.4058 56.6 44.4522C57.0458 44.5043 57.3122 43.9304 57.3527 43.658C57.3527 43.658 57.6943 43.484 57.8796 42.9855C58.1402 42.2782 57.648 42.3884 57.3932 41.7507C57.3932 41.6406 57.3816 41.5246 57.3353 41.4319C57.3353 41.4319 57.0805 40.8522 57.069 40.829C57.069 40.8174 57.2137 40.6724 56.9474 40.1739H56.9416L56.9184 40.1449V40.1333C56.9184 40.1333 56.6057 39.8261 56.6 39.4898C56.5942 38.9217 56.0209 38.6145 55.9399 38.5565C55.3203 38.2261 55.0308 38.0811 55.1524 38.5333C55.2045 38.7246 55.3261 39.1304 55.3492 39.2464C55.3724 39.3623 55.2798 39.5884 55.4419 40.1043C55.4708 40.1971 55.4651 40.3768 55.4651 40.3768C55.4651 40.3768 55.4014 40.6898 55.4303 40.7942C55.4593 40.8985 55.4766 41.0145 55.4766 41.1014C55.4766 41.1014 55.523 41.5594 55.274 41.5942C55.274 41.5942 55.0597 41.5478 54.8281 41.6464C54.5965 41.7449 54.4923 41.6695 54.2838 41.7275C54.0754 41.7855 53.12 41.9188 53.12 41.9188C53.12 41.9188 52.3035 42.0116 52.8305 42.2956H52.8131Z" fill="white"/>
<path fill-rule="evenodd" clip-rule="evenodd" d="M44.4637 34.255C44.4232 33.7507 43.9426 33.3391 43.5604 33.4318C43.352 33.4898 43.3057 33.8608 43.3057 33.8608C43.3057 33.8608 43.2593 34.4521 42.8656 34.9217C42.8366 34.9681 42.5298 35.4782 42.4776 35.5304C42.4776 35.5304 42.3618 36.1159 42.2692 36.5623C42.1823 37.0028 41.7133 37.4666 41.6438 37.6869C41.447 37.7797 40.6827 39.3391 40.6421 39.5942C40.619 39.6753 40.5205 40.0579 40.2136 40.371C40.1036 40.4869 39.6578 41.4376 39.4493 42.1391C39.3972 42.3188 39.2119 42.3478 39.154 42.5855C39.1251 42.6666 39.0093 42.9565 39.0093 42.9565C38.9919 42.9797 38.5924 43.9594 38.4476 44.0695C38.3028 44.1855 37.498 45.2927 37.4517 45.5884C37.3764 46.1217 37.1158 45.9246 36.8089 46.6666C36.6931 46.7768 36.3689 47.6637 36.3168 48.1971C36.2878 48.4753 35.9867 48.5971 36.1546 48.8115C36.2183 48.8869 36.89 48.8521 37.3359 48.3362C37.5038 48.2318 37.6717 48.0347 37.7933 47.7391C37.9149 47.4434 38.685 46.3942 38.8877 46.1623C39.0961 45.9188 39.3972 45.2057 39.4204 45.0318C40.0805 44.3072 40.5379 43.0898 40.59 42.7594C40.6421 42.4289 40.7753 42.3884 40.8621 42.1681C40.949 41.9478 41.1922 41.6869 41.1922 41.6869C41.1922 41.6869 41.3543 41.5014 41.4122 41.3391C41.4122 41.4724 41.447 42.3652 41.447 42.3652C41.447 42.3652 41.3659 42.9043 41.4354 43.3101C41.5049 43.7159 41.5396 44.4579 41.5222 44.5333C41.4875 44.7014 41.4875 45.8898 41.4701 46.0289C41.4643 46.0811 41.4412 47.1594 41.5107 47.2695C41.5801 47.3797 41.4991 48.9623 41.5686 49.6695C41.5049 49.7971 41.5628 50.6898 41.5686 50.7536C41.6496 51.3507 41.4759 51.7681 41.6265 52.4C41.777 53.026 41.528 53.0898 41.6902 53.455C42.0492 54.284 42.3908 54.4115 42.6224 54.3652C43.0567 54.284 43.2825 53.5536 43.4446 53.1942C43.572 52.9275 43.5778 52.7768 43.6067 52.5043C43.6357 52.2318 43.8268 51.9188 43.8442 51.8898C43.9773 51.6811 43.9136 51.2811 43.9136 51.2811C43.9136 51.2811 44.041 50.8869 44.0526 50.8C44.0526 50.7072 44.0873 50.5681 44.0873 50.5681C44.0873 50.5681 44.1047 50.4173 44.151 50.3594C44.151 50.3594 44.2263 50.1681 44.2263 50.1565C44.2611 50.0405 44.4985 49.0782 44.4579 47.7565C44.4521 47.542 43.2072 50.6376 42.9351 50.0695C42.8424 49.8782 42.7961 49.4434 42.8309 49.1304C42.8656 48.8115 42.7729 48.6144 42.7382 48.1971C42.7035 47.7797 42.6977 46.8231 42.6977 46.8231C42.6861 46.6898 42.8772 45.4376 42.8424 45.3449C42.8656 45.2985 42.9003 44.2782 42.8714 44.0521C42.8424 43.826 42.9119 43.7101 42.9524 43.4956C43.0219 43.113 42.8308 41.7855 42.8424 41.7681C42.8424 41.7681 42.9872 41.1362 42.4834 40.7652C42.3445 40.6608 42.1071 40.713 42.0376 40.1333C41.997 39.7565 42.4719 39.4318 42.4661 39.1594C42.4661 39.1594 42.5182 38.9159 42.8251 38.4521C43.1319 37.9884 43.4041 37.3855 43.4099 37.3101L43.5025 37.2C43.5025 37.2 43.5952 37.0028 43.6067 36.8695C43.7631 36.2492 44.5853 35.8086 44.4927 35.1768C44.5274 35.0202 44.4811 34.6029 44.4579 34.2666L44.4637 34.255Z" fill="white"/>
<path fill-rule="evenodd" clip-rule="evenodd" d="M59.0204 49.8608C59.0204 49.8608 59.0899 50.5507 58.0997 51.3391C57.816 51.571 57.5323 52.3768 57.4512 52.5101C57.376 52.5623 57.0922 53.0666 54.9672 53.3739C54.8224 53.3739 54.6777 53.3739 54.5445 53.4202C54.4692 53.4434 54.2376 53.4782 54.2029 53.4608C54.1276 53.4318 53.1722 53.8434 52.1821 53.2985C51.603 52.9797 51.383 52.371 51.3772 52.3536L51.354 52.313C51.354 52.313 51.1861 51.8086 51.1051 51.7043C51.0877 51.6695 51.0645 51.3217 51.0645 51.2347C51.0472 50.7536 50.775 49.7217 50.7576 49.6811C50.7576 49.513 50.7229 49.3333 50.6708 49.1536C50.694 49.0782 50.7113 49.0028 50.7229 48.9159C50.7576 48.8289 50.6882 48.3014 50.6882 48.3014C50.6882 48.3014 50.6013 47.6927 50.6013 47.6521C50.6013 47.6521 50.6997 47.3565 50.6882 47.1072C50.6766 46.8579 50.6245 45.5478 50.6245 45.5478V45.5362C50.6303 45.4956 50.6245 44.684 50.5666 43.6521C50.5087 42.626 50.7982 41.0318 50.7982 40.9391C50.804 40.7594 50.7287 40.6782 50.7982 40.3883C50.9661 39.7217 50.8561 39.1652 50.8561 39.1304C51.0472 38.6492 51.0124 38.1391 51.1224 37.9304C51.2325 37.7217 51.1572 36.997 51.1572 36.8753C51.1688 36.3594 51.024 36.1912 50.9429 36.1043C50.1555 35.2347 49.2927 35.8434 49.2927 35.8434C49.2927 35.8434 48.8816 35.9941 49.0437 36.2898C49.1595 36.4927 49.4317 37.0782 49.3796 37.9362C49.3274 38.7941 49.3796 39.8956 49.3796 39.8956C49.3796 39.913 49.4085 40.8347 49.3159 41.1478C49.2174 41.4608 49.2058 41.9883 49.2058 41.9883C49.2058 42.1217 49.2927 43.4086 49.3101 43.484C49.2753 43.5883 49.3043 44.0985 49.3217 44.2608C49.339 44.4231 49.2406 45.5188 49.3101 45.8434C49.3796 46.1739 49.4664 47.2579 49.4085 47.3854C49.3622 47.4898 49.478 49.3101 49.478 49.3101C49.478 49.3101 49.5127 50.3478 49.5127 50.3594C49.5301 50.6144 49.5996 50.9912 49.6054 51.0086C49.5764 51.1246 49.8775 53.2753 50.5781 53.884C50.6418 54.0695 51.134 54.5912 51.8346 54.8173C51.852 54.8231 52.0547 54.8173 52.2342 54.9739C52.4079 55.1304 53.0796 55.1825 53.2533 55.1825C53.3401 55.1825 55.0077 55.0666 55.9284 55.0666C56.3395 55.0318 56.8027 54.997 56.8606 54.997C56.9938 54.997 57.1675 54.9565 57.2775 54.9043C57.2775 54.9043 57.4396 54.8347 57.4686 54.8231C58.1403 54.6202 58.5398 54.0695 58.534 54.0637C58.534 54.0637 59.2636 53.3797 59.5184 52.4927C59.5184 52.4927 59.5821 51.9767 59.5994 51.8608C59.6747 51.4608 59.391 49.884 59.003 49.8666L59.0204 49.8608Z" fill="white"/>
</g>
</g>
<defs>
<clipPath id="clip0_2106_3811">
<rect width="370" height="80" fill="white"/>
</clipPath>
</defs>
</svg>
