<svg width="525" height="80" viewBox="0 0 525 80" fill="none" xmlns="http://www.w3.org/2000/svg">
<g clip-path="url(#clip0_2106_3860)">
<path d="M220.404 27.991H200.609C198.037 27.991 196.889 29.0561 196.889 31.4615V51.985C196.889 53.6006 197.307 55.4555 200.609 55.4555H220.404C222.94 55.4555 224.124 54.3545 224.124 51.985V31.4615C224.124 29.9776 223.741 27.991 220.404 27.991ZM219.076 53.7801H201.936C200.644 53.7801 200.405 53.2655 200.405 52.2483V31.2102C200.405 29.9058 200.967 29.6545 201.936 29.6545H219.076C220.212 29.6545 220.607 30.0494 220.607 31.2102V52.2483C220.607 53.5288 220.069 53.7801 219.076 53.7801Z" fill="white"/>
<path d="M207.917 45.1039C209.113 45.1039 210.213 44.8646 210.213 43.1533V39.2161C210.213 37.828 209.543 37.2655 207.917 37.2655H204.532C203.324 37.2655 202.199 37.5048 202.199 39.2161V43.1533C202.199 44.5415 202.869 45.1039 204.532 45.1039H207.917ZM204.866 42.543V39.8025C204.866 39.0366 204.986 38.905 205.764 38.905H206.685C207.45 38.905 207.582 39.0247 207.582 39.8025V42.543C207.582 43.261 207.498 43.4405 206.685 43.4405H205.764C204.95 43.4405 204.866 43.261 204.866 42.543Z" fill="white"/>
<path d="M218.215 38.4383C217.067 38.4383 216.827 39.0725 216.636 39.5751L216.612 39.623C215.883 41.7412 215.751 42.1122 215.153 43.3567C214.387 39.8384 214.268 37.2415 214.22 35.7935H218.968C219.602 35.7935 219.973 35.4824 219.973 34.9439C219.973 34.3216 219.459 34.1062 218.968 34.1062H218.442C218.61 33.8908 218.729 33.6395 218.729 33.3642C218.729 32.7659 218.347 32.4786 217.701 32.0478C216.959 31.5572 216.146 31.0426 215.811 31.0426C215.404 31.0426 215.069 31.3777 215.069 31.7846C215.069 31.9162 215.117 32.1316 215.177 32.1795C215.308 32.3709 215.464 32.5624 215.595 32.7419C215.811 33.0291 216.014 33.3044 216.134 33.4959C216.289 33.7472 216.421 33.9386 216.528 34.0942H214.184V32.0957C214.184 31.0067 213.562 30.3605 212.522 30.3605C211.888 30.3605 211.086 30.7913 210.919 31.4973C210.859 31.7846 210.883 33.4719 210.919 34.0942H202.092C201.613 34.0942 201.087 34.3216 201.087 34.9319C201.087 35.5422 201.601 35.7816 202.092 35.7816H210.991C211.11 37.8279 211.397 42.3874 212.868 46.9947C211.517 48.6821 209.615 50.3575 207.785 51.5063C207.522 51.6858 207.295 51.8653 207.295 52.2722C207.295 52.6791 207.618 53.1099 208.132 53.1099C208.766 53.1099 211.589 51.3268 213.777 49.3881C214.854 51.9252 216.194 52.4757 217.15 52.4757H217.174C218.765 52.4517 219.65 51.3627 219.854 50.6327C219.973 50.2019 219.889 49.8549 219.638 49.6993C219.268 49.4719 218.957 49.7113 218.646 49.9626C218.275 50.2498 217.916 50.525 217.402 50.2139C217.019 49.9865 216.385 48.2034 216.158 46.9469C218.49 44.0867 220.045 40.8676 220.045 39.982C220.045 39.2281 219.351 38.4143 218.215 38.4143V38.4383Z" fill="white"/>
<path d="M210.512 47.8683C210.727 47.7965 211.23 47.629 211.23 47.0067C211.23 46.516 210.751 46.1929 210.416 46.1929C210.356 46.1929 210.213 46.2049 210.105 46.2169C210.057 46.2169 210.01 46.2169 209.986 46.2169C207.354 46.5878 205.488 46.7913 203.156 46.887H203.12C202.702 46.9229 201.721 46.9947 201.721 48.2034C201.721 48.8616 202.247 49.5796 203.012 49.5796C203.156 49.5796 207.976 48.5744 210.488 47.8564H210.524L210.512 47.8683Z" fill="white"/>
<path d="M517.859 45.1997H503.71C501.688 45.1997 500.827 46.0494 500.827 48.0598V52.7031C500.827 54.187 501.174 55.5632 503.71 55.5632H517.859C519.893 55.5632 520.766 54.7135 520.766 52.7031V48.0598C520.766 46.0613 519.893 45.1997 517.859 45.1997ZM517.273 51.2192V52.4159C517.273 53.5408 517.094 53.7562 516.125 53.7562H505.444C504.463 53.7562 504.296 53.5647 504.296 52.4159V51.2192H517.273ZM517.273 48.3351V49.472H504.296V48.3351C504.296 47.2102 504.475 46.9948 505.444 46.9948H516.125C517.106 46.9948 517.273 47.1862 517.273 48.3351Z" fill="white"/>
<path d="M520.096 35.8893H501.581C499.129 35.8893 498.794 37.1458 498.794 38.3665V41.3463C498.794 42.5789 499.129 43.8235 501.581 43.8235H520.096C522.548 43.8235 522.883 42.6268 522.883 41.3463V38.3665C522.883 37.1339 522.548 35.8893 520.096 35.8893ZM508.112 41.5976C508.112 41.442 508.076 41.2984 507.968 41.1309C507.537 40.4487 507.119 39.5632 506.724 38.5101C506.497 37.9476 506.222 37.6365 505.839 37.5048H509.176V42.2199H507.777C507.968 42.0882 508.123 41.8848 508.123 41.5976H508.112ZM503.734 38.9768C503.734 39.9461 506.018 41.7053 506.975 42.2079H503.267C502.322 42.2079 502.119 42.1122 502.119 41.0591V38.6297C502.119 37.6484 502.275 37.4929 503.267 37.4929H504.894C504.248 37.6963 503.734 38.3066 503.734 38.9768ZM518.183 38.893C518.183 38.2348 517.668 37.7202 517.058 37.5048H518.338C519.319 37.5048 519.486 37.6604 519.486 38.6417V41.071C519.486 42.1122 519.283 42.2199 518.338 42.2199H514.869C515.85 41.7053 518.183 39.8863 518.183 38.893ZM514.582 39.7068C514.535 39.8265 514.391 40.1137 514.235 40.4128C513.841 41.1787 513.709 41.454 513.709 41.5617C513.709 41.813 513.853 42.0643 514.08 42.2079H512.405V37.4929H515.862C515.384 37.7202 515.109 38.3545 514.582 39.6948V39.7068Z" fill="white"/>
<path d="M524.271 33.1847C521.855 32.5146 517.274 30.8631 513.757 27.3568C512.729 26.2917 512.453 26.1241 510.934 26.1241C509.415 26.1241 509.128 26.3755 508.614 26.8422C506.557 28.7928 503.997 31.2102 497.454 33.1608C497.347 33.1847 496.785 33.3523 496.785 33.9626C496.785 34.4173 497.179 34.7644 497.538 34.7644C498.005 34.7644 499.799 34.2378 500.827 33.9147C501.94 33.5677 502.909 33.2446 503.77 32.9454C503.602 33.1369 503.578 33.3762 503.578 33.4839C503.578 33.7831 503.698 34.2737 504.523 34.2737H516.951C517.561 34.2737 517.932 33.9746 517.932 33.4839C517.932 33.3164 517.848 33.077 517.656 32.9095C520.814 34.19 523.613 34.8362 524.187 34.8362C524.522 34.8362 524.977 34.5609 524.977 34.0344C524.977 33.6155 524.737 33.3403 524.247 33.2087L524.271 33.1847ZM516.975 32.6462H504.571C507.825 31.4016 509.248 30.4084 510.528 29.4989L510.623 29.4271C510.803 29.2954 510.863 29.2476 510.982 29.2476C511.126 29.2476 511.186 29.2835 511.437 29.4989C513.171 30.8033 515.216 31.8564 517.178 32.6821C517.106 32.6821 517.058 32.6462 516.987 32.6462H516.975Z" fill="white"/>
<path d="M272.601 54.187V42.2199C273.247 43.1174 275.208 45.7502 276.022 45.7502C276.476 45.7502 276.871 45.3672 276.871 44.9125C276.871 44.6133 276.632 44.338 276.56 44.2782C273.929 41.0591 272.864 37.5647 272.601 36.5355V36.4158H275.771C276.405 36.4158 276.775 36.1047 276.775 35.5781C276.775 35.0516 276.405 34.7404 275.771 34.7404H272.601V30.4801C275.579 30.181 276.393 29.9297 276.393 28.8407C276.393 28.0748 275.699 27.2131 274.754 27.2131C274.455 27.2131 272.804 27.8115 272.792 27.8115C270.304 28.6612 268.152 28.9125 265.424 29.2236L264.886 29.2834C264.611 29.3074 263.798 29.3672 263.798 30.157C263.798 30.7793 264.324 30.9947 264.767 30.9947C265.209 30.9947 267.458 30.899 269.073 30.7793V34.7404H264.731C264.252 34.7404 263.726 34.9558 263.726 35.5781C263.726 36.1047 264.097 36.4158 264.731 36.4158H268.857C267.769 42.0763 265.101 46.528 263.594 48.335C263.355 48.5983 263.224 48.7898 263.224 49.065C263.224 49.5318 263.618 49.9027 264.097 49.9027C264.659 49.9027 267.039 47.6051 269.073 44.2902V54.187C269.073 54.7973 269.072 56.4128 270.831 56.4128C272.589 56.4128 272.589 54.7973 272.589 54.187H272.601Z" fill="white"/>
<path d="M280.639 41.7292C280.926 42.3515 281.309 42.9259 282.23 42.9259C283.306 42.9259 284.143 41.8848 284.143 40.9872C284.143 39.8623 282.301 38.5938 281.309 37.8997C281.249 37.8638 281.165 37.804 281.069 37.7442C279.909 36.9783 278.773 36.2842 278.402 36.2842C277.996 36.2842 277.565 36.6073 277.565 37.1219C277.565 37.3852 277.708 37.6006 277.852 37.7681C279.084 39.1204 279.945 40.1974 280.651 41.7292H280.639Z" fill="white"/>
<path d="M280.555 33.1608C281.692 34.8841 281.871 35.0995 282.613 35.0995C283.581 35.0995 284.407 34.2498 284.407 33.2565C284.407 32.6462 284.215 32.0838 281.763 30.4921C281.536 30.3485 279.586 29.0561 279.048 29.0561C278.57 29.0561 278.211 29.4271 278.211 29.8938C278.211 30.1092 278.342 30.3246 278.462 30.4443C279.299 31.4136 279.969 32.2393 280.567 33.1608H280.555Z" fill="white"/>
<path d="M293.461 45.3313C293.437 44.8766 293.054 44.5415 292.6 44.5535L289.239 45.0681V29.2835C289.239 28.6971 289.239 27.1294 287.445 27.1294C285.651 27.1294 285.722 28.7569 285.722 29.2835V45.6066L276.979 46.9589C276.764 46.9589 276.56 47.0666 276.405 47.2221C276.261 47.3897 276.178 47.5931 276.19 47.8085C276.214 48.2513 276.572 48.5864 277.015 48.5864C277.027 48.5864 277.039 48.5864 277.063 48.5864L285.722 47.258V54.2109C285.722 54.8093 285.722 56.4009 287.481 56.4009C289.239 56.4009 289.239 54.7494 289.239 54.2109V46.7195L292.672 46.193C292.887 46.193 293.09 46.0853 293.246 45.9297C293.389 45.7622 293.473 45.5587 293.461 45.3433V45.3313Z" fill="white"/>
<path d="M473.712 50.1899C473.066 50.1899 472.803 50.3814 472.073 50.9199C471.391 51.4345 469.466 52.727 466.487 53.7322C465.088 54.1989 464.753 54.3066 464.753 54.8571C464.753 55.252 465.088 55.6828 465.698 55.6828C466.057 55.6828 468.652 55.2999 471.774 54.4502C474.812 53.6125 475.697 53.062 475.697 51.973C475.697 51.0755 474.716 50.2019 473.712 50.2019V50.1899Z" fill="white"/>
<path d="M470.363 49.5916H487.311C489.488 49.5916 490.469 48.7061 490.469 46.7435V38.6896C490.469 36.6791 489.524 35.8175 487.311 35.8175H470.363C468.15 35.8175 467.205 36.6791 467.205 38.6896V46.7435C467.205 48.742 468.15 49.5916 470.363 49.5916ZM470.674 39.7068V38.5699C470.674 37.6963 470.817 37.457 471.786 37.457H485.756C486.713 37.457 486.869 37.7322 486.869 38.5699V39.7068H470.674ZM470.674 43.7158V41.3583H486.869V43.7158H470.674ZM470.674 46.8631V45.3433H486.869V46.8631C486.869 47.6889 486.713 47.9402 485.756 47.9402H471.786C470.817 47.9402 470.674 47.7008 470.674 46.8631Z" fill="white"/>
<path d="M471.009 34.2977H486.019C488.053 34.2977 488.926 33.5438 488.926 31.7607V29.8459C488.926 28.0389 488.089 27.3089 486.019 27.3089H471.009C468.975 27.3089 468.102 28.0628 468.102 29.8459V31.7607C468.102 33.0172 468.449 34.2977 471.009 34.2977ZM471.559 31.4974V30.0972C471.559 29.1638 471.666 28.9484 472.731 28.9484H484.189C485.254 28.9484 485.362 29.1638 485.362 30.0972V31.4974C485.362 32.4188 485.218 32.6462 484.189 32.6462H472.731C471.666 32.6462 471.559 32.4308 471.559 31.4974Z" fill="white"/>
<path d="M488.795 51.8414C486.247 51.1234 483.34 50.6088 482.802 50.6088C482.168 50.6088 481.797 50.92 481.797 51.4346C481.797 51.8414 482.084 52.1406 482.587 52.2842C484.812 52.9783 486.366 53.5767 488.244 54.7614C489.979 55.8743 490.266 56.0419 490.828 56.0419C491.833 56.0419 492.754 55.2281 492.754 54.3306C492.754 53.2895 491.868 52.739 488.795 51.8534V51.8414Z" fill="white"/>
<path d="M400.212 53.5288C400.212 54.8451 400.763 55.5153 401.827 55.5153C402.892 55.5153 403.442 54.8451 403.442 53.5288V38.6417C404.04 37.792 405.248 36.0927 405.248 35.2909C405.248 34.178 404.159 33.6754 403.382 33.6754C402.341 33.6754 401.994 34.549 401.719 35.243V35.2789C400.475 38.4742 399.279 40.2573 397.091 43.0456C396.947 43.2251 396.792 43.4046 396.792 43.7038C396.792 44.1466 397.162 44.5295 397.617 44.5295C398.095 44.5295 399.136 43.5602 400.2 42.4831V53.5407L400.212 53.5288Z" fill="white"/>
<path d="M397.999 35.5542C398.872 35.5542 404.626 30.181 404.626 28.5295C404.626 27.5722 403.669 26.9738 402.795 26.9738C402.15 26.9738 401.647 27.1653 401.241 28.0868C400.08 30.7315 399.434 32.012 397.604 33.9746C397.401 34.19 397.198 34.4173 397.198 34.7285C397.198 35.1952 397.545 35.5542 397.987 35.5542H397.999Z" fill="white"/>
<path d="M407.508 38.0194C406.587 38.0194 406.217 38.546 406.157 39.4914C406.037 42.16 405.846 44.8646 405.212 47.4495C405.116 47.8803 404.47 49.9985 404.47 50.154C404.47 50.4891 404.745 50.8601 405.176 50.8601C405.606 50.8601 405.822 50.6088 406.432 49.3283C408.118 45.6783 409.039 40.724 409.039 39.4076C409.039 38.4263 408.154 38.0194 407.508 38.0194Z" fill="white"/>
<path d="M406.564 34.9678H409.673V53.5647C409.673 54.0434 409.673 55.4914 411.288 55.4914C412.03 55.4914 412.903 55.1563 412.903 53.5886V34.9678H416.252C416.862 34.9678 417.233 34.6567 417.233 34.1421C417.233 33.5318 416.73 33.3164 416.252 33.3164H412.903V28.8885C412.903 27.644 412.329 26.9858 411.252 26.9858C410.523 26.9858 409.661 27.3089 409.661 28.8885V33.3164H406.552C405.942 33.3164 405.571 33.6275 405.571 34.1421C405.571 34.6567 405.93 34.9678 406.552 34.9678H406.564Z" fill="white"/>
<path d="M414.613 31.1742C415.127 32.5026 415.223 32.6701 415.797 32.6701C416.371 32.6701 417.005 32.1555 417.005 31.4614C417.005 30.4323 414.732 28.5774 414.374 28.5056C413.823 28.3979 413.668 28.6851 413.668 28.9723C413.668 29.1997 414.075 30.0374 414.314 30.54C414.457 30.8272 414.565 31.0546 414.613 31.1742Z" fill="white"/>
<path d="M424.863 35.7816H417.926C417.316 35.7816 416.945 36.0928 416.945 36.6073C416.945 37.1219 417.304 37.3972 417.926 37.3972H420.139V52.5834C420.139 53.5049 420.031 53.7203 418.967 53.7203H417.866C417.173 53.7203 416.826 53.9955 416.826 54.546C416.826 55.0965 417.173 55.3717 417.866 55.3717H420.569C423.069 55.3717 423.416 54.1032 423.416 52.739V37.3972H424.863C425.485 37.3972 425.844 37.098 425.844 36.5714C425.844 36.2723 425.713 35.7816 424.863 35.7816Z" fill="white"/>
<path d="M418.715 30.4802H424.493C425.079 30.4802 425.437 30.1691 425.437 29.6545C425.437 29.1399 425.091 28.8287 424.493 28.8287H418.715C418.105 28.8287 417.747 29.1399 417.747 29.6545C417.747 30.2648 418.249 30.4802 418.715 30.4802Z" fill="white"/>
<path d="M419.29 49.0411C419.625 48.8496 419.613 48.3351 419.314 48.1196C418.943 47.8564 418.333 47.9641 417.902 47.8324C417.376 47.6769 416.778 47.3777 416.634 46.7913C416.276 44.3021 416.587 42.4592 416.563 39.4794C416.563 38.522 416.072 38.0194 415.151 38.0553C414.505 38.0793 413.632 38.5101 413.668 39.4914C413.752 41.6335 413.836 43.7756 414.146 45.9057C414.338 47.2341 414.721 48.5265 416.024 49.1488C417.041 49.6275 418.321 49.5916 419.29 49.0292V49.0411Z" fill="white"/>
<path d="M346.496 48.8736C344.104 51.2311 342.465 52.4398 338.625 53.7442C338.243 53.8638 338.016 54.163 338.016 54.534C338.016 55.0246 338.41 55.3597 338.781 55.3597C338.889 55.3597 338.972 55.3358 339.128 55.3119C339.188 55.2999 339.271 55.2879 339.379 55.264C344.151 54.0673 346.831 51.9012 348.111 50.8601C348.242 50.7524 348.362 50.6567 348.457 50.5849C352.464 53.6843 357.44 55.3238 357.99 55.3238C358.325 55.3238 358.792 55.0366 358.792 54.5101C358.792 54.0194 358.397 53.7801 358.062 53.6365L358.026 53.6125C355.825 52.6073 352.512 51.0875 350.192 49.0531C354.856 44.5654 356.95 39.0366 356.95 38.1271C356.95 37.2176 356.316 36.2363 354.545 36.2363H351.531C350.981 36.2363 350.778 36.0927 350.778 35.7337C350.778 35.3507 351.472 34.1899 352.141 33.065C352.955 31.7008 353.732 30.4083 353.732 29.8339C353.732 28.5774 352.823 27.9431 351.029 27.9431H333.183C332.358 27.9431 332.191 28.3739 332.191 28.7329C332.191 29.4988 332.92 29.5587 333.147 29.5587H338.865C338.889 38.2947 337.884 47.1623 330.552 52.9184C330.384 53.0381 330.062 53.2655 330.062 53.6843C330.062 54.1032 330.432 54.4981 330.863 54.4981C331.377 54.4981 339.104 50.4173 341.149 39.8623C343.685 45.2834 344.881 47.2819 346.508 48.8736H346.496ZM348.505 32.6701C347.692 34.154 346.914 35.5662 346.914 36.0568C346.914 36.727 347.237 37.8638 349.438 37.8638H351.603C352.56 37.8638 352.835 37.8878 352.835 38.3305C352.811 38.6178 351.436 43.1653 348.17 47.0905C344.139 42.4472 343.051 36.4996 342.477 30.7673L342.441 29.5706H349.008C349.175 29.5706 349.558 29.5706 349.713 29.7501C349.773 29.8219 349.809 29.9057 349.797 30.0254C349.773 30.3485 349.127 31.5332 348.493 32.6821L348.505 32.6701Z" fill="white"/>
<path d="M232.341 35.8773C234.099 35.8773 234.099 34.2618 234.099 33.7352V32.5026C234.099 31.5333 234.219 31.2939 235.307 31.2939H253.428C254.492 31.2939 254.612 31.5333 254.612 32.5026V33.7352C254.612 34.3216 254.612 35.8773 256.43 35.8773C257.662 35.8773 258.284 35.1593 258.284 33.7352V32.2513C258.284 30.4203 257.387 29.6425 255.294 29.6425H246.18V28.1107C246.18 26.3276 244.924 26.1241 244.385 26.1241C242.795 26.1241 242.567 27.3687 242.567 28.1107V29.6425H233.549C231.456 29.6425 230.559 30.4203 230.559 32.2513V33.7352C230.559 35.1593 231.157 35.8773 232.353 35.8773H232.341Z" fill="white"/>
<path d="M248.811 44.9245C250.27 47.1025 252.053 48.9454 254.122 50.3934C256.299 51.9013 258.607 52.7509 259.157 52.6313C259.6 52.5355 259.863 52.0688 259.767 51.6141C259.696 51.267 259.444 51.0875 259.193 50.9559C256.586 49.6515 254.038 47.9641 251.395 43.285C253.691 41.6335 255.091 40.0539 254.971 39.2521C254.899 38.7494 254.624 38.2947 254.194 37.9835C253.787 37.6844 253.297 37.5647 252.854 37.6365C252.28 37.7322 251.981 38.0314 251.706 38.4503C251.108 39.3239 248.955 42.0045 247.484 43.0576C246.658 40.9993 245.378 39.2401 243.692 37.8519C244.529 37.1578 244.912 36.739 245.426 36.1885L245.462 36.1526H252.387C253.009 36.1526 253.392 35.8295 253.392 35.291C253.392 34.7524 253.033 34.4293 252.387 34.4293H236.24C235.618 34.4293 235.236 34.7524 235.236 35.291C235.236 35.9252 235.75 36.1526 236.24 36.1526H240.785C239.697 37.5527 237.221 40.018 232.281 42.0643C232.03 42.184 231.552 42.3994 231.552 42.9499C231.552 43.5004 231.97 43.8115 232.365 43.8115C232.819 43.8115 235.092 42.9499 236.396 42.3755C237.951 41.6933 240.295 40.4607 242.245 39.0247L242.281 39.0726C242.484 39.3358 242.675 39.5752 242.95 40.0299C239.852 43.5722 235.188 46.1331 232.114 47.2341C231.611 47.4016 231.408 47.6649 231.408 48.0957C231.408 48.5625 231.791 48.9574 232.245 48.9574C232.796 48.9574 239.733 46.8751 244.302 42.9619C244.433 43.3328 244.529 43.6559 244.661 44.1466L244.697 44.2663C241.431 47.8684 236.719 50.8003 231.444 52.5355C230.989 52.6911 230.571 52.9065 230.571 53.457C230.571 54.0075 231.025 54.2827 231.348 54.2827C231.743 54.2827 239.278 52.4757 245.115 47.8205C245.163 50.8841 244.84 52.715 244.134 53.4331C243.692 53.8758 243.142 53.8639 242.556 53.8519C242.46 53.8519 242.352 53.8519 242.269 53.8519L239.948 53.6963C239.314 53.6963 238.943 54.0075 238.943 54.558C238.943 55.3598 241.3 56.2453 244.469 56.2453C248.117 56.2453 248.668 52.1646 248.668 49.7352C248.668 48.1675 248.512 46.6956 248.201 45.3433C248.369 45.2476 248.524 45.1638 248.68 45.0681L248.823 44.9843L248.811 44.9245Z" fill="white"/>
<path d="M299.8 45.9058C300.949 45.9058 301.331 45.2117 301.331 43.8953V42.184C301.331 41.2625 301.487 41.1189 302.42 41.1189H322.12C323.029 41.1189 323.208 41.2865 323.208 42.184V43.8594C323.208 45.1758 323.555 45.9058 324.691 45.9058C325.827 45.9058 326.449 45.1997 326.449 43.8594V41.8011C326.449 39.5393 324.643 39.4435 323.579 39.4435L324.105 30.2049C324.153 29.5707 323.962 29.0082 323.567 28.5774C323.124 28.0987 322.454 27.8355 321.689 27.8355H317.742C317.12 27.8355 316.737 28.1466 316.737 28.6612C316.737 29.1758 317.096 29.4869 317.742 29.4869H319.955C320.194 29.4869 320.397 29.5587 320.529 29.7023C320.648 29.822 320.708 30.0015 320.696 30.2049L320.601 31.8325H317.67C316.976 31.8325 316.737 32.2633 316.737 32.6582C316.737 33.1848 317.096 33.4959 317.742 33.4959H320.493L320.373 35.6619H317.574C317.096 35.6619 316.737 36.0329 316.737 36.4996C316.737 37.0142 317.096 37.3014 317.742 37.3014H320.278L320.158 39.4316H315.697C316.031 39.1563 316.271 38.7614 316.271 38.3426C316.271 37.7442 315.864 37.4211 314.979 36.7988C315.804 36.2244 316.307 35.8773 316.307 35.2192C316.307 34.4892 315.649 33.831 314.823 33.831C314.536 33.831 314.285 33.9267 314.034 34.1421C313.878 34.3336 313.053 35.2192 312.862 35.3987C312.383 35.1115 311.319 34.4533 310.936 34.4533C310.494 34.4533 310.206 34.8601 310.206 35.2072C310.206 35.4226 310.326 35.6141 310.422 35.7098C310.553 35.8414 311.307 36.4039 311.462 36.5355C310.613 37.1698 310.362 37.2895 308.245 38.3665C307.994 38.4862 307.838 38.6776 307.838 39.0008C307.838 39.1683 307.91 39.3119 307.994 39.4316H304.453L304.37 37.3014H307.001C307.467 37.3014 307.838 36.9424 307.838 36.4996C307.838 35.9731 307.467 35.6619 306.833 35.6619H304.286L304.166 33.6275H306.893C307.635 33.6275 307.826 33.101 307.826 32.7898C307.826 32.1795 307.312 31.9641 306.822 31.9641H304.082L303.999 30.4563C303.975 30.0254 303.975 30.0135 305.769 29.8938H305.853C307.551 29.7981 308.687 29.7382 308.687 28.4937C308.687 27.8355 308.137 27.1055 307.336 27.1055C307.085 27.1055 306.403 27.3328 305.625 27.6081C305.35 27.7038 305.111 27.7876 305.003 27.8235C303.963 28.0868 303.126 28.1586 302.384 28.2184H302.276C301.164 28.2902 300.518 29.1159 300.59 30.3725L301.056 39.4316C299.8 39.4316 298.03 39.5034 298.03 41.7891V43.8714C298.03 45.1638 298.652 45.8818 299.789 45.8818L299.8 45.9058ZM312.922 37.9716C313.233 38.3186 313.304 38.4144 313.902 39.2401C313.962 39.3119 314.022 39.3837 314.094 39.4555H309.584C310.601 39.0845 312.048 38.4503 312.922 37.9836V37.9716Z" fill="white"/>
<path d="M313.854 54.0314C313.902 53.8878 313.938 53.7322 313.962 53.5647C313.962 53.5048 313.986 53.445 313.998 53.3852C313.998 53.3493 314.01 53.3134 314.022 53.2655H314.01C314.022 53.1099 314.046 52.9544 314.046 52.7749V49.819H324.978C325.289 49.819 325.863 49.7232 325.863 49.101C325.863 48.4428 325.289 48.3829 324.978 48.3829H314.046V47.7247C314.046 47.5692 314.01 47.4734 313.986 47.3538C319.548 44.9244 319.548 44.6133 319.548 44.0269C319.548 43.991 319.512 42.9977 318.256 42.9977H305.075C304.764 42.9977 304.19 43.0935 304.19 43.7158C304.19 44.3979 304.848 44.4338 305.075 44.4338H313.866C314.058 44.4338 314.177 44.5535 314.177 44.709C314.177 45.0561 313.077 45.9895 313.041 46.0134C312.886 45.9536 312.694 45.8938 312.371 45.8938C311.235 45.8938 310.661 46.6118 310.661 47.7247V48.3829H299.286C298.939 48.3829 298.401 48.4787 298.401 49.101C298.401 49.7232 298.975 49.819 299.286 49.819H310.661V52.7749C310.661 52.9663 310.565 53.9835 309.692 54.0912C308.305 54.2707 305.96 54.0553 305.96 54.0553C305.673 54.0553 305.075 54.1152 305.075 54.7734C305.075 55.4316 307.252 56.2812 310.481 56.2812C312.228 56.2812 313.436 55.3238 313.866 54.0194L313.854 54.0314Z" fill="white"/>
<path d="M447.553 38.9888V35.7816C451.513 39.8265 458.773 42.0643 459.323 42.0643C459.718 42.0643 460.148 41.7532 460.148 41.2386C460.148 40.8078 459.897 40.5325 459.335 40.3291C454.431 38.4742 451.166 35.5901 450.089 34.4054H458.462C459.084 34.4054 459.443 34.1062 459.443 33.5797C459.443 33.089 459.072 32.7898 458.462 32.7898H447.553V30.2887C451.022 30.1331 453.689 29.834 454.706 29.6186C455.34 29.4869 455.998 29.2476 455.998 28.3979C455.998 27.632 455.304 26.7823 454.383 26.7823C454.12 26.7823 453.283 26.9978 452.374 27.2371C452.134 27.2969 451.943 27.3448 451.835 27.3687C445.735 28.6851 437.231 28.745 435.593 28.745C434.624 28.745 434.528 29.3194 434.528 29.5707C434.528 30.0015 434.851 30.2767 435.162 30.3605C435.581 30.4682 438.236 30.4921 440.784 30.4921C442.207 30.4921 443.499 30.4682 444.049 30.4323V32.8018H433.26C432.638 32.8018 432.279 33.101 432.279 33.6275C432.279 33.9267 432.411 34.4174 433.26 34.4174H441.406C439.707 36.2364 436.286 38.7016 432.255 40.2812C431.873 40.4368 431.454 40.6163 431.454 41.1907C431.454 41.7651 431.849 42.0165 432.244 42.0165C432.806 42.0165 439.683 39.8863 444.037 35.8654V39.0007C444.037 39.5752 444.133 40.018 444.324 40.365C444.061 40.2334 443.75 40.1496 443.415 40.1496C442.793 40.1496 442.315 40.4248 441.908 41.0352C441.465 41.7053 440.628 42.9738 439.946 43.8953H432.447C431.825 43.8953 431.478 44.1945 431.478 44.721C431.478 45.2476 431.837 45.5108 432.447 45.5108H438.607L437.028 47.282C436.956 47.3657 436.884 47.4495 436.837 47.5213L436.526 47.8325C436.262 48.0957 436.119 48.4428 436.119 48.8138C436.119 49.1847 436.262 49.5318 436.526 49.7951L436.597 49.8669C436.86 50.1301 437.207 50.2737 437.578 50.2737C437.949 50.2737 438.296 50.1301 438.559 49.8669L438.619 49.807C441.047 50.178 442.984 50.4652 445.221 51.0157C441.513 53.2296 434.373 53.6485 432.961 53.7083C432.614 53.7083 431.801 53.7083 431.801 54.534C431.801 55.0845 432.16 55.3598 432.865 55.3598C435.018 55.3598 437.997 55.1324 440.126 54.8093C445.436 54.0314 447.721 52.4877 448.51 51.9372C450.556 52.6432 452.78 53.469 455.304 55.0127C455.747 55.288 456.058 55.4316 456.476 55.4316C457.385 55.4316 458.282 54.5819 458.282 53.7203C458.282 53.1698 457.971 52.6911 457.445 52.4518C455.591 51.5662 452.792 50.7285 450.771 50.166C451.776 49.1967 452.996 47.7966 453.785 45.5467H459.072C459.694 45.5467 460.053 45.2476 460.053 44.721C460.053 44.1945 459.694 43.9312 459.072 43.9312H453.965C453.797 43.1653 453.115 42.5789 452.29 42.5789H452.039C451.214 42.5789 450.532 43.1533 450.364 43.9312H444.121C445.078 42.8063 445.341 42.4951 445.341 41.9327C445.341 41.6335 445.245 41.3343 445.066 41.0591C445.281 41.1429 445.532 41.1907 445.807 41.1907C446.967 41.1907 447.553 40.4727 447.553 39.0486V38.9888ZM440.556 48.0598C440.556 47.9641 440.604 47.8803 440.712 47.7726C441.023 47.4375 442.35 45.9297 442.709 45.5108H449.958C449.694 46.2528 449.001 47.8205 447.374 49.3523C445.113 48.9454 442.984 48.6103 440.891 48.347C440.676 48.3111 440.556 48.2154 440.556 48.0598Z" fill="white"/>
<path d="M375.513 33.101H381.529V38.1152H376.183C375.561 38.1152 375.19 38.4144 375.19 38.9529C375.19 39.5632 375.704 39.7906 376.183 39.7906H386.062C386.35 39.7906 386.696 39.8624 386.696 40.2334C386.696 40.4009 386.661 40.6163 386.625 40.8078L386.601 40.9275C385.967 44.5774 384.221 46.8153 383.515 47.6649C382.259 45.9776 381.434 44.1466 380.979 42.0763C380.848 41.5019 380.608 40.4368 379.125 40.4368C378.073 40.4368 377.14 41.2266 377.14 42.1361C377.14 43.0456 378.431 46.552 381.493 49.7113C378.575 52.2005 375.908 53.0142 373.312 53.8041C373.121 53.8759 372.654 54.0314 372.654 54.6298C372.654 55.0726 373.025 55.4675 373.456 55.4675C373.815 55.4675 379.041 54.4862 383.335 51.3987C387.271 54.5101 391.875 55.5393 391.911 55.5393C392.294 55.5393 392.713 55.2162 392.713 54.7016C392.713 54.187 392.378 54.0314 392.186 53.9237L392.115 53.8998C389.519 52.8228 387.534 51.9013 385.309 49.7831C387.904 47.3179 389.495 44.6253 390.321 41.3224L390.368 41.095C390.464 40.6881 390.572 40.2214 390.572 39.8385C390.572 38.8093 389.758 38.1391 388.502 38.1391H385.082V33.1249H391.277C391.756 33.1249 392.27 32.9095 392.27 32.2872C392.27 31.7607 391.911 31.4495 391.277 31.4495H385.082V28.6133C385.082 27.273 384.46 26.567 383.288 26.567C382.115 26.567 381.529 27.2969 381.529 28.6133V31.4495H375.513C374.891 31.4495 374.532 31.7487 374.532 32.2872C374.532 32.8257 374.903 33.1249 375.513 33.1249V33.101Z" fill="white"/>
<path d="M371.052 43.4644C372.032 43.0336 372.989 42.6028 373.91 42.172C374.448 41.9207 374.496 41.5497 374.317 41.1548C374.137 40.7599 373.803 40.5564 373.264 40.7958C372.547 41.1309 371.805 41.454 371.052 41.789V34.884H373.48C373.934 34.884 374.305 34.5131 374.305 34.0583C374.305 33.6036 373.934 33.2326 373.48 33.2326H371.052V28.2782C371.052 27.3089 370.274 26.531 369.305 26.531C368.336 26.531 367.559 27.3089 367.559 28.2782V33.2326H364.27C363.815 33.2326 363.444 33.6036 363.444 34.0583C363.444 34.5131 363.815 34.884 364.27 34.884H367.559V43.273C366.124 43.8594 364.688 44.4218 363.313 44.9484C362.763 45.1518 362.667 45.5347 362.822 45.9416C362.978 46.3485 363.277 46.5759 363.827 46.3724C365.047 45.9297 366.303 45.439 367.571 44.9364V52.3919C367.571 52.3919 367.547 53.2775 366.877 53.3612C365.777 53.5048 364.497 53.3373 364.473 53.3373C363.959 53.3373 363.672 53.5766 363.672 54.0075C363.672 54.6297 365.573 55.3119 368.121 55.3119C369.473 55.3119 370.549 54.5938 370.932 53.433V53.4091C370.98 53.2894 371.004 53.1578 371.028 53.0381V52.9902C371.028 52.9902 371.052 52.9184 371.052 52.8945C371.052 52.8825 371.052 52.8706 371.052 52.8586C371.052 52.8347 371.052 52.8227 371.052 52.7988V52.703C371.052 52.6073 371.064 52.4996 371.064 52.3919V43.4764L371.052 43.4644Z" fill="white"/>
<path d="M311.127 30.516C310.565 31.1503 310.338 31.3059 308.508 32.7898C308.448 32.8496 308.221 33.0411 308.221 33.3881C308.221 33.795 308.532 34.0822 308.914 34.0822C309.357 34.0822 311.187 32.8855 312.443 31.9401C312.574 32.0598 313.041 32.6941 313.172 32.8257C313.328 33.0411 313.615 33.3881 314.177 33.3881C314.931 33.3881 315.625 32.6342 315.625 31.8683C315.625 31.2101 315.182 30.9229 314.393 30.3485C315.625 29.2475 315.936 28.9244 315.936 28.3261C315.936 27.5362 315.146 26.902 314.416 26.902C313.938 26.902 313.531 27.1174 313.316 27.4405C313.196 27.6559 312.527 28.7688 312.335 29.0202C311.797 28.709 310.505 27.9431 310.122 27.9431C309.68 27.9431 309.393 28.35 309.393 28.6731C309.393 28.7928 309.453 29.0202 309.644 29.2116C309.8 29.3313 311.067 30.4682 311.091 30.5041L311.127 30.516Z" fill="white"/>
<path d="M124.633 14.8153C123.508 -1.83096 73.0811 -9.89678 0 56.4129H15.4655C63.1416 1.59162 131.271 -4.09274 120.769 24.9514C120.769 24.9514 142.586 -6.67764 177.811 5.13388C178.062 5.21765 178.265 5.14585 178.337 5.00224C178.517 4.64323 178.026 4.46372 178.026 4.46372C172.321 1.41212 167.584 0 161.281 0C138.28 0 124.621 14.8153 124.621 14.8153" fill="white"/>
<path d="M79.6 28.2423C75.9998 28.2423 75.7127 32.0479 75.7127 32.0479L73.2488 45.0202L71.3231 41.8729L64.314 30.4443C63.1657 28.5774 61.1324 27.4406 58.9316 27.4406C55.9174 27.4406 53.3339 29.5946 52.7717 32.5505L48.2744 56.1017H54.3027C57.9029 56.1017 58.19 52.2842 58.19 52.2842L60.6539 39.3119L62.5797 42.4593L69.5887 53.8878C70.737 55.7547 72.7703 56.8916 74.9712 56.8916C77.9853 56.8916 80.5689 54.7375 81.131 51.7816L85.6283 28.2304H79.6V28.2423Z" fill="white"/>
<path d="M125.339 35.1952L122.169 51.8175C122.169 51.8175 120.794 56.1257 125.231 56.1257H130.518L134.501 35.1952H141.689C143.28 35.1952 144.321 34.561 144.99 33.8788C145.589 33.2565 145.971 32.4428 146.127 31.5931L146.773 28.1825H98.1396C97.8286 28.1825 90.1736 28.745 88.4632 37.0381C86.5734 46.2169 95.7235 45.9177 95.7355 45.9177H105.173C106.62 45.9177 107.756 46.1451 107.505 47.4974C107.254 48.8377 106.046 49.1249 104.563 49.1249L89.7072 49.1488C88.1164 49.1488 87.0758 49.7831 86.406 50.4533C85.8079 51.0755 85.4252 51.8893 85.2697 52.739L84.6357 56.1496H106.739C113.426 56.1496 115.507 50.7285 116.117 47.9282C118.09 38.7614 110.112 38.8811 109.79 38.8811H99.5749C98.1516 38.8811 97.111 38.2708 97.3621 36.9663C97.6133 35.65 98.8812 35.1832 100.436 35.1832L125.363 35.2072L125.339 35.1952Z" fill="white"/>
<path d="M174.271 28.5056C172.513 27.5722 169.821 27.1055 166.221 27.1055C164.858 27.1055 163.518 27.1653 162.214 27.261C157.705 27.5602 154.284 28.4937 151.928 30.0853C149.572 31.6769 147.969 34.1062 147.132 37.3732L145.84 42.5071L145.732 42.9858L144.955 47.4376C144.763 48.5385 144.727 49.5198 144.871 50.4054C145.553 54.6657 149.679 56.7839 157.25 56.7839C158.076 56.7839 158.841 56.7719 159.547 56.7479C160.241 56.724 160.922 56.6642 161.568 56.5924C165.731 56.2214 168.924 55.264 171.137 53.7203C173.35 52.1765 174.893 49.819 175.754 46.6358C175.874 46.0972 176.292 44.2782 176.352 43.8235H168.829C167.776 43.8235 166.807 44.4578 166.424 45.451C166.197 46.0254 165.994 46.2648 165.719 46.7554C165.719 46.7554 164.152 49.9267 159.272 49.7831C157.849 49.7352 156.018 49.472 155.157 48.1675C154.535 47.2221 154.715 45.7622 154.894 44.6971C155.026 43.8594 154.954 44.015 155.588 41.1788C156.018 39.2162 156.664 37.1459 158.207 35.7337C159.69 34.3815 161.688 33.8669 163.661 33.9147C164.726 33.9387 165.85 34.0823 166.783 34.6447C167.31 34.9559 167.74 35.4226 167.944 36.009C168.027 36.2364 168.087 36.4877 168.087 36.727C168.135 37.6365 168.888 38.3545 169.797 38.3545H177.106L177.261 37.3732C177.56 35.638 177.62 34.1661 177.428 32.9574C177.106 30.923 176.065 29.4391 174.295 28.5056" fill="white"/>
<path d="M90.8431 63.4854H88.9653C88.7671 63.4854 88.6064 63.6461 88.6064 63.8444V64.742C88.6064 64.9402 88.7671 65.101 88.9653 65.101H90.8431C91.0413 65.101 91.202 64.9402 91.202 64.742V63.8444C91.202 63.6461 91.0413 63.4854 90.8431 63.4854Z" fill="white"/>
<path d="M184.832 63.4854H182.954C182.756 63.4854 182.595 63.6461 182.595 63.8444V64.742C182.595 64.9402 182.756 65.101 182.954 65.101H184.832C185.03 65.101 185.191 64.9402 185.191 64.742V63.8444C185.191 63.6461 185.03 63.4854 184.832 63.4854Z" fill="white"/>
<path d="M513.876 63.4854H511.998C511.8 63.4854 511.64 63.6461 511.64 63.8444V64.742C511.64 64.9402 511.8 65.101 511.998 65.101H513.876C514.075 65.101 514.235 64.9402 514.235 64.742V63.8444C514.235 63.6461 514.075 63.4854 513.876 63.4854Z" fill="white"/>
<path d="M138.687 63.4854H136.857C136.659 63.4854 136.498 63.6461 136.498 63.8444V76.3979C136.498 76.5962 136.659 76.7569 136.857 76.7569H138.687C138.885 76.7569 139.046 76.5962 139.046 76.3979V63.8444C139.046 63.6461 138.885 63.4854 138.687 63.4854Z" fill="white"/>
<path d="M60.4744 64.0359H58.752C58.5247 64.0359 58.3453 64.2154 58.3453 64.4428V73.4899L52.1974 64.7061C51.8386 64.2035 51.2525 63.9043 50.6425 63.9043C49.578 63.9043 48.7168 64.359 48.7168 65.4121V76.362C48.7168 76.5894 48.8962 76.7689 49.1235 76.7689H50.8458C51.0731 76.7689 51.2525 76.5894 51.2525 76.362V67.5902L57.4004 76.0868C57.7592 76.5894 58.3453 76.8886 58.9553 76.8886C60.0199 76.8886 60.881 76.027 60.881 74.9619V64.4428C60.881 64.2154 60.7016 64.0359 60.4744 64.0359Z" fill="white"/>
<path d="M73.1647 67.6021C72.3753 67.0157 71.227 66.7166 69.7439 66.7166C68.4282 66.7166 67.3636 66.9918 66.5981 67.5183C65.9164 67.997 65.5456 68.6074 65.4738 69.3852C65.4738 69.445 65.4858 69.5767 65.6652 69.5767H67.6029C67.7225 69.5767 67.8182 69.445 67.8301 69.3852C67.9019 69.086 68.0693 68.8347 68.3444 68.6313C68.6913 68.38 69.1578 68.2603 69.7319 68.2603C71.4543 68.2603 71.8251 69.2416 71.8251 70.0673V71.0367H69.1099C67.854 71.0367 66.8613 71.2999 66.1676 71.8026C65.4738 72.3052 65.1509 72.9753 65.1509 73.8489C65.1509 74.8063 65.4619 75.5363 66.1078 76.0629C66.7536 76.6014 67.6866 76.8766 68.8827 76.8766C69.5046 76.8766 70.0309 76.8048 70.4376 76.6492C70.8443 76.5056 71.239 76.2543 71.6217 75.9073L71.8968 75.6679V76.4458C71.8968 76.4458 71.8609 76.745 72.2796 76.745H74.0498C74.2172 76.745 74.3488 76.6133 74.3488 76.4458V70.1631C74.3488 69.0142 73.9661 68.1646 73.1886 67.5901L73.1647 67.6021ZM71.8131 73.2865C71.8131 73.9327 71.6217 74.4353 71.2629 74.7584C70.8921 75.0816 70.3299 75.2491 69.5166 75.2491C67.9258 75.2491 67.5909 74.4593 67.5909 73.8011C67.5909 73.1429 67.9378 72.389 69.5645 72.389H71.8131V73.2865Z" fill="white"/>
<path d="M130.793 67.6021C130.003 67.0157 128.855 66.7166 127.372 66.7166C126.056 66.7166 124.992 66.9918 124.226 67.5183C123.544 67.997 123.174 68.6074 123.102 69.3852C123.102 69.445 123.114 69.5767 123.293 69.5767H125.231C125.35 69.5767 125.446 69.445 125.458 69.3852C125.53 69.086 125.697 68.8347 125.972 68.6313C126.319 68.38 126.786 68.2603 127.36 68.2603C129.082 68.2603 129.453 69.2416 129.453 70.0673V71.0367H126.738C125.482 71.0367 124.489 71.2999 123.795 71.8026C123.102 72.3052 122.779 72.9753 122.779 73.8489C122.779 74.8063 123.09 75.5363 123.736 76.0629C124.382 76.6014 125.315 76.8766 126.511 76.8766C127.133 76.8766 127.659 76.8048 128.066 76.6492C128.472 76.5056 128.867 76.2543 129.25 75.9073L129.525 75.6679V76.4458C129.525 76.4458 129.489 76.745 129.908 76.745H131.678C131.845 76.745 131.977 76.6133 131.977 76.4458V70.1631C131.977 69.0142 131.594 68.1646 130.817 67.5901L130.793 67.6021ZM129.429 73.2865C129.429 73.9327 129.238 74.4353 128.879 74.7584C128.508 75.0816 127.946 75.2491 127.133 75.2491C125.542 75.2491 125.207 74.4593 125.207 73.8011C125.207 73.1429 125.554 72.389 127.18 72.389H129.429V73.2865Z" fill="white"/>
<path d="M260.939 67.6021C260.15 67.0157 259.001 66.7166 257.518 66.7166C256.203 66.7166 255.138 66.9918 254.373 67.5183C253.691 67.997 253.32 68.6074 253.248 69.3852C253.248 69.445 253.26 69.5767 253.44 69.5767H255.377C255.497 69.5767 255.593 69.445 255.605 69.3852C255.676 69.086 255.844 68.8347 256.119 68.6313C256.466 68.38 256.932 68.2603 257.506 68.2603C259.229 68.2603 259.599 69.2416 259.599 70.0673V71.0367H256.884C255.628 71.0367 254.636 71.2999 253.942 71.8026C253.248 72.3052 252.925 72.9753 252.925 73.8489C252.925 74.8063 253.236 75.5363 253.882 76.0629C254.528 76.6014 255.461 76.8766 256.657 76.8766C257.279 76.8766 257.805 76.8048 258.212 76.6492C258.619 76.5056 259.013 76.2543 259.396 75.9073L259.671 75.6679V76.4458C259.671 76.4458 259.635 76.745 260.054 76.745H261.824C261.992 76.745 262.123 76.6133 262.123 76.4458V70.1631C262.123 69.0142 261.74 68.1646 260.963 67.5901L260.939 67.6021ZM259.588 73.2865C259.588 73.9327 259.396 74.4353 259.037 74.7584C258.667 75.0816 258.104 75.2491 257.291 75.2491C255.7 75.2491 255.365 74.4593 255.365 73.8011C255.365 73.1429 255.712 72.389 257.339 72.389H259.588V73.2865Z" fill="white"/>
<path d="M100.364 66.7285C98.893 66.7285 97.7208 67.0636 96.8836 67.7338C96.0583 68.3919 95.6396 69.445 95.6396 70.8332V72.748C95.6396 74.1601 96.0583 75.2132 96.8836 75.8714C97.7208 76.5415 98.893 76.8766 100.364 76.8766C101.835 76.8766 102.972 76.5415 103.809 75.8714C104.634 75.2132 105.041 74.1601 105.041 72.748V70.8332C105.041 69.4331 104.622 68.3919 103.809 67.7338C102.972 67.0636 101.823 66.7285 100.364 66.7285ZM102.517 72.736C102.517 74.2438 101.776 75.0456 100.364 75.0456C98.9528 75.0456 98.1634 74.2438 98.1634 72.736V70.8811C98.1634 69.3613 98.9289 68.5714 100.364 68.5714C101.8 68.5714 102.517 69.3732 102.517 70.8811V72.736Z" fill="white"/>
<path d="M114.885 66.7285C114.37 66.7285 113.856 66.8123 113.378 66.9798C112.899 67.1474 112.492 67.3987 112.146 67.7218L111.87 67.9851V67.1234C111.87 66.8123 111.607 66.8362 111.607 66.8362H109.634C109.502 66.8362 109.395 66.9439 109.395 67.0756V76.5176C109.395 76.6492 109.502 76.7569 109.634 76.7569H111.703C111.835 76.7569 111.942 76.6492 111.942 76.5176V70.5341C111.942 69.9118 112.146 69.4211 112.54 69.0741C112.935 68.727 113.437 68.5595 114.023 68.5595C114.609 68.5595 115.136 68.739 115.507 69.0741C115.877 69.4211 116.069 69.9118 116.069 70.5341V76.5176C116.069 76.6492 116.176 76.7569 116.308 76.7569H118.377C118.509 76.7569 118.616 76.6492 118.616 76.5176V70.2349C118.616 69.1459 118.293 68.2723 117.648 67.65C117.002 67.0277 116.069 66.7166 114.885 66.7166V66.7285Z" fill="white"/>
<path d="M271.943 66.7285C271.429 66.7285 270.915 66.8123 270.436 66.9798C269.958 67.1474 269.539 67.3987 269.204 67.7218L268.929 67.9851V67.1234C268.929 66.8123 268.666 66.8362 268.666 66.8362H266.692C266.561 66.8362 266.453 66.9439 266.453 67.0756V76.5176C266.453 76.6492 266.561 76.7569 266.692 76.7569H268.762C268.893 76.7569 269.001 76.6492 269.001 76.5176V70.5341C269.001 69.9118 269.204 69.4211 269.599 69.0741C269.994 68.727 270.496 68.5595 271.082 68.5595C271.668 68.5595 272.194 68.739 272.565 69.0741C272.936 69.4211 273.127 69.9118 273.127 70.5341V76.5176C273.127 76.6492 273.235 76.7569 273.367 76.7569H275.436C275.567 76.7569 275.675 76.6492 275.675 76.5176V70.2349C275.675 69.1459 275.352 68.2723 274.706 67.65C274.06 67.0277 273.127 66.7166 271.943 66.7166V66.7285Z" fill="white"/>
<path d="M363.516 66.7285C363.002 66.7285 362.487 66.8123 362.009 66.9798C361.53 67.1474 361.124 67.3987 360.777 67.7218L360.502 67.9851V67.1234C360.502 66.8123 360.239 66.8362 360.239 66.8362H358.265C358.134 66.8362 358.026 66.9439 358.026 67.0756V76.5176C358.026 76.6492 358.134 76.7569 358.265 76.7569H360.334C360.466 76.7569 360.574 76.6492 360.574 76.5176V70.5341C360.574 69.9118 360.777 69.4211 361.172 69.0741C361.566 68.727 362.069 68.5595 362.655 68.5595C363.241 68.5595 363.767 68.739 364.138 69.0741C364.509 69.4211 364.7 69.9118 364.7 70.5341V76.5176C364.7 76.6492 364.808 76.7569 364.939 76.7569H367.009C367.14 76.7569 367.248 76.6492 367.248 76.5176V70.2349C367.248 69.1459 366.925 68.2723 366.279 67.65C365.633 67.0277 364.7 66.7166 363.516 66.7166V66.7285Z" fill="white"/>
<path d="M489.823 66.7285C489.309 66.7285 488.794 66.8123 488.316 66.9798C487.838 67.1474 487.419 67.3987 487.084 67.7218L486.809 67.9851V67.1234C486.809 66.8123 486.546 66.8362 486.546 66.8362H484.572C484.441 66.8362 484.333 66.9439 484.333 67.0756V76.5176C484.333 76.6492 484.441 76.7569 484.572 76.7569H486.641C486.773 76.7569 486.881 76.6492 486.881 76.5176V70.5341C486.881 69.9118 487.084 69.4211 487.479 69.0741C487.873 68.727 488.376 68.5595 488.962 68.5595C489.548 68.5595 490.074 68.739 490.445 69.0741C490.816 69.4211 491.007 69.9118 491.007 70.5341V76.5176C491.007 76.6492 491.115 76.7569 491.246 76.7569H493.316C493.447 76.7569 493.555 76.6492 493.555 76.5176V70.2349C493.555 69.1459 493.232 68.2723 492.586 67.65C491.94 67.0277 491.007 66.7166 489.823 66.7166V66.7285Z" fill="white"/>
<path d="M208.658 66.7285C208.144 66.7285 207.629 66.8123 207.151 66.9798C206.673 67.1474 206.254 67.3987 205.919 67.7218L205.644 67.9851V67.1234C205.644 66.8123 205.381 66.8362 205.381 66.8362H203.407C203.276 66.8362 203.168 66.9439 203.168 67.0756V76.5176C203.168 76.6492 203.276 76.7569 203.407 76.7569H205.476C205.608 76.7569 205.716 76.6492 205.716 76.5176V70.5341C205.716 69.9118 205.919 69.4211 206.314 69.0741C206.708 68.727 207.211 68.5595 207.797 68.5595C208.383 68.5595 208.909 68.739 209.28 69.0741C209.651 69.4211 209.842 69.9118 209.842 70.5341V76.5176C209.842 76.6492 209.95 76.7569 210.081 76.7569H212.151C212.282 76.7569 212.39 76.6492 212.39 76.5176V70.2349C212.39 69.1459 212.067 68.2723 211.421 67.65C210.775 67.0277 209.842 66.7166 208.658 66.7166V66.7285Z" fill="white"/>
<path d="M165.982 70.7136C165.766 70.4264 165.527 70.187 165.264 69.9836C164.989 69.7801 164.702 69.6126 164.403 69.481C164.104 69.3493 163.805 69.2536 163.494 69.1818C163.195 69.1219 162.908 69.086 162.633 69.0741H160.001C159.523 69.0741 159.152 68.9424 158.877 68.6792C158.614 68.4159 158.47 68.0569 158.47 67.6021C158.47 67.1474 158.602 66.8003 158.877 66.5251C159.14 66.2498 159.523 66.1182 160.001 66.1182H165.18C165.42 66.1182 165.396 65.8549 165.396 65.8549V63.9881C165.396 63.9881 165.396 63.7607 165.18 63.7607H160.001C159.595 63.7607 159.152 63.8325 158.686 63.9641C158.219 64.0958 157.777 64.3231 157.37 64.6223C156.963 64.9215 156.628 65.3164 156.365 65.8071C156.102 66.2977 155.958 66.8841 155.958 67.5902C155.958 68.2962 156.09 68.8946 156.365 69.3852C156.628 69.8759 156.963 70.2708 157.37 70.57C157.777 70.8691 158.207 71.0845 158.686 71.2281C159.152 71.3598 159.595 71.4316 160.001 71.4316H162.609C162.836 71.4316 163.051 71.4675 163.243 71.5393C163.434 71.6111 163.59 71.7188 163.721 71.8504C163.853 71.9821 163.96 72.1376 164.032 72.3172C164.104 72.4967 164.14 72.7001 164.14 72.9155C164.14 73.3583 164.008 73.7173 163.733 73.9806C163.47 74.2439 163.087 74.3755 162.609 74.3755H156.437C156.078 74.3755 156.078 74.7704 156.078 74.7704V76.3501C156.078 76.3501 156.114 76.733 156.425 76.733H162.609C162.884 76.733 163.171 76.6971 163.482 76.6373C163.793 76.5774 164.092 76.4817 164.391 76.362C164.69 76.2304 164.977 76.0748 165.252 75.8714C165.527 75.6679 165.766 75.4286 165.982 75.1414C166.185 74.8542 166.353 74.5311 166.484 74.1601C166.604 73.7891 166.675 73.3703 166.675 72.9035C166.675 72.4368 166.616 72.018 166.496 71.659C166.376 71.288 166.209 70.9649 165.994 70.6777L165.982 70.7136Z" fill="white"/>
<path d="M174.641 68.5595C175.275 68.5595 175.789 68.7151 176.172 69.0142C176.471 69.2536 176.662 69.5647 176.722 69.9477C176.722 70.2588 176.997 70.2349 176.997 70.2349H178.935C178.935 70.2349 179.15 70.2468 179.15 70.0554C179.114 69.0262 178.732 68.2483 177.966 67.65C177.165 67.0277 176.029 66.7166 174.593 66.7166C173.158 66.7166 171.95 67.0516 171.113 67.7218C170.287 68.38 169.869 69.4331 169.869 70.8213V72.736C169.869 74.1481 170.287 75.2012 171.113 75.8594C171.95 76.5296 173.122 76.8646 174.593 76.8646C176.064 76.8646 177.165 76.5535 177.966 75.9192C178.696 75.3568 179.079 74.6148 179.15 73.6694C179.15 73.5857 179.15 73.4062 178.923 73.4062H176.985C176.77 73.4062 176.746 73.5258 176.746 73.5857C176.698 74.0045 176.507 74.3396 176.172 74.5909C175.801 74.8781 175.287 75.0217 174.641 75.0217C173.935 75.0217 173.385 74.8422 172.99 74.4832C172.596 74.1242 172.392 73.5258 172.392 72.7001V70.8452C172.392 69.3254 173.17 68.5356 174.641 68.5356V68.5595Z" fill="white"/>
<path d="M221.516 68.5595C222.15 68.5595 222.664 68.7151 223.047 69.0142C223.346 69.2536 223.537 69.5647 223.597 69.9477C223.597 70.2588 223.872 70.2349 223.872 70.2349H225.81C225.81 70.2349 226.025 70.2468 226.025 70.0554C225.989 69.0262 225.607 68.2483 224.841 67.65C224.04 67.0277 222.904 66.7166 221.468 66.7166C220.033 66.7166 218.825 67.0516 217.988 67.7218C217.162 68.38 216.744 69.4331 216.744 70.8213V72.736C216.744 74.1481 217.162 75.2012 217.988 75.8594C218.825 76.5296 219.997 76.8646 221.468 76.8646C222.939 76.8646 224.04 76.5535 224.841 75.9192C225.571 75.3568 225.954 74.6148 226.025 73.6694C226.025 73.5857 226.025 73.4062 225.798 73.4062H223.86C223.645 73.4062 223.621 73.5258 223.621 73.5857C223.573 74.0045 223.382 74.3396 223.047 74.5909C222.676 74.8781 222.162 75.0217 221.516 75.0217C220.81 75.0217 220.26 74.8422 219.865 74.4832C219.471 74.1242 219.267 73.5258 219.267 72.7001V70.8452C219.267 69.3254 220.045 68.5356 221.516 68.5356V68.5595Z" fill="white"/>
<path d="M335.384 68.5595C336.018 68.5595 336.532 68.7151 336.915 69.0142C337.214 69.2536 337.405 69.5647 337.465 69.9477C337.465 70.2588 337.74 70.2349 337.74 70.2349H339.678C339.678 70.2349 339.893 70.2468 339.893 70.0554C339.857 69.0262 339.474 68.2483 338.709 67.65C337.907 67.0277 336.771 66.7166 335.336 66.7166C333.901 66.7166 332.693 67.0516 331.855 67.7218C331.03 68.38 330.611 69.4331 330.611 70.8213V72.736C330.611 74.1481 331.03 75.2012 331.855 75.8594C332.693 76.5296 333.865 76.8646 335.336 76.8646C336.807 76.8646 337.907 76.5535 338.709 75.9192C339.438 75.3568 339.821 74.6148 339.893 73.6694C339.893 73.5857 339.893 73.4062 339.666 73.4062H337.728C337.513 73.4062 337.489 73.5258 337.489 73.5857C337.441 74.0045 337.25 74.3396 336.915 74.5909C336.544 74.8781 336.03 75.0217 335.384 75.0217C334.678 75.0217 334.128 74.8422 333.733 74.4832C333.338 74.1242 333.135 73.5258 333.135 72.7001V70.8452C333.135 69.3254 333.913 68.5356 335.384 68.5356V68.5595Z" fill="white"/>
<path d="M502.681 68.5595C503.315 68.5595 503.829 68.7151 504.212 69.0142C504.511 69.2536 504.702 69.5647 504.762 69.9477C504.762 70.2588 505.037 70.2349 505.037 70.2349H506.975C506.975 70.2349 507.19 70.2468 507.19 70.0554C507.154 69.0262 506.772 68.2483 506.006 67.65C505.205 67.0277 504.069 66.7166 502.633 66.7166C501.198 66.7166 499.99 67.0516 499.153 67.7218C498.327 68.38 497.909 69.4331 497.909 70.8213V72.736C497.909 74.1481 498.327 75.2012 499.153 75.8594C499.99 76.5296 501.162 76.8646 502.633 76.8646C504.104 76.8646 505.205 76.5535 506.006 75.9192C506.736 75.3568 507.119 74.6148 507.19 73.6694C507.19 73.5857 507.19 73.4062 506.963 73.4062H505.025C504.81 73.4062 504.786 73.5258 504.786 73.5857C504.738 74.0045 504.547 74.3396 504.212 74.5909C503.841 74.8781 503.327 75.0217 502.681 75.0217C501.975 75.0217 501.425 74.8422 501.031 74.4832C500.636 74.1242 500.432 73.5258 500.432 72.7001V70.8452C500.432 69.3254 501.21 68.5356 502.681 68.5356V68.5595Z" fill="white"/>
<path d="M194.054 66.7285C192.559 66.7285 191.362 67.0995 190.525 67.8415C189.688 68.5714 189.257 69.6964 189.257 71.1803V72.4249C189.257 73.9447 189.7 75.0815 190.561 75.7996C191.434 76.5296 192.642 76.9005 194.137 76.9005C195.632 76.9005 196.697 76.6133 197.522 76.0389C198.264 75.5243 198.647 74.8781 198.718 74.0643C198.718 74.0045 198.718 73.8848 198.539 73.8848H196.494C196.29 73.8848 196.278 73.9806 196.266 74.0165C196.183 74.3276 195.991 74.5789 195.692 74.7704C195.345 74.9858 194.867 75.1055 194.257 75.1055C193.48 75.1055 192.87 74.926 192.439 74.5789C191.996 74.2199 191.781 73.6216 191.781 72.8198V72.377H198.372C198.372 72.377 198.826 72.4009 198.826 72.0299V71.1803C198.826 69.7083 198.395 68.5954 197.546 67.8534C196.697 67.1115 195.513 66.7285 194.054 66.7285ZM196.278 71.0247H191.781V70.7973C191.781 69.9716 191.984 69.3732 192.379 69.0142C192.774 68.6552 193.336 68.4757 194.054 68.4757C195.513 68.4757 196.278 69.2057 196.278 70.5939V71.0127V71.0247Z" fill="white"/>
<path d="M234.757 66.7285C233.262 66.7285 232.066 67.0995 231.228 67.8415C230.391 68.5714 229.96 69.6964 229.96 71.1803V72.4249C229.96 73.9447 230.403 75.0815 231.264 75.7996C232.137 76.5296 233.345 76.9005 234.841 76.9005C236.336 76.9005 237.4 76.6133 238.225 76.0389C238.967 75.5243 239.35 74.8781 239.422 74.0643C239.422 74.0045 239.422 73.8848 239.242 73.8848H237.197C236.993 73.8848 236.982 73.9806 236.97 74.0165C236.886 74.3276 236.694 74.5789 236.395 74.7704C236.049 74.9858 235.57 75.1055 234.96 75.1055C234.183 75.1055 233.573 74.926 233.142 74.5789C232.7 74.2199 232.484 73.6216 232.484 72.8198V72.377H239.075C239.075 72.377 239.529 72.4009 239.529 72.0299V71.1803C239.529 69.7083 239.099 68.5954 238.249 67.8534C237.4 67.1115 236.216 66.7285 234.757 66.7285ZM236.982 71.0247H232.484V70.7973C232.484 69.9716 232.688 69.3732 233.082 69.0142C233.477 68.6552 234.039 68.4757 234.757 68.4757C236.216 68.4757 236.982 69.2057 236.982 70.5939V71.0127V71.0247Z" fill="white"/>
<path d="M321.701 66.7285C320.205 66.7285 319.009 67.0995 318.172 67.8415C317.335 68.5714 316.904 69.6964 316.904 71.1803V72.4249C316.904 73.9447 317.347 75.0815 318.208 75.7996C319.081 76.5296 320.289 76.9005 321.784 76.9005C323.279 76.9005 324.344 76.6133 325.169 76.0389C325.911 75.5243 326.294 74.8781 326.365 74.0643C326.365 74.0045 326.365 73.8848 326.186 73.8848H324.141C323.937 73.8848 323.925 73.9806 323.913 74.0165C323.83 74.3276 323.638 74.5789 323.339 74.7704C322.992 74.9858 322.514 75.1055 321.904 75.1055C321.126 75.1055 320.516 74.926 320.086 74.5789C319.643 74.2199 319.428 73.6216 319.428 72.8198V72.377H326.019C326.019 72.377 326.473 72.4009 326.473 72.0299V71.1803C326.473 69.7083 326.042 68.5954 325.193 67.8534C324.344 67.1115 323.16 66.7285 321.701 66.7285ZM323.925 71.0247H319.428V70.7973C319.428 69.9716 319.631 69.3732 320.026 69.0142C320.421 68.6552 320.983 68.4757 321.701 68.4757C323.16 68.4757 323.925 69.2057 323.925 70.5939V71.0127V71.0247Z" fill="white"/>
<path d="M288.988 63.4854H287.122C286.942 63.4854 286.799 63.629 286.799 63.8085V68.1645L286.512 67.8295C285.89 67.0995 284.981 66.7285 283.832 66.7285C282.684 66.7285 281.787 67.0636 281.081 67.7337C280.388 68.3919 280.029 69.4211 280.029 70.7853V72.8197C280.029 74.184 280.388 75.2132 281.105 75.8833C281.823 76.5535 282.744 76.8886 283.856 76.8886C285.028 76.8886 285.938 76.5535 286.559 75.8714L286.847 75.5722V76.4697C286.847 76.4697 286.847 76.7689 287.158 76.7689H288.976C289.167 76.7689 289.322 76.6133 289.322 76.4218V63.8205C289.322 63.641 289.179 63.4974 288.999 63.4974L288.988 63.4854ZM286.787 72.736C286.787 73.4779 286.595 74.0524 286.213 74.4473C285.83 74.8422 285.28 75.0456 284.586 75.0456C283.665 75.0456 282.565 74.6387 282.565 72.736V70.8811C282.565 69.3613 283.282 68.5714 284.658 68.5714C285.316 68.5714 285.854 68.7749 286.225 69.1698C286.595 69.5647 286.787 70.1391 286.787 70.8811V72.736Z" fill="white"/>
<path d="M387.593 63.4854H385.644C385.479 63.4854 385.345 63.6194 385.345 63.7846V76.4577C385.345 76.623 385.479 76.7569 385.644 76.7569H387.593C387.758 76.7569 387.892 76.623 387.892 76.4577V63.7846C387.892 63.6194 387.758 63.4854 387.593 63.4854Z" fill="white"/>
<path d="M520.921 63.4854H518.972C518.807 63.4854 518.673 63.6194 518.673 63.7846V76.4577C518.673 76.623 518.807 76.7569 518.972 76.7569H520.921C521.087 76.7569 521.22 76.623 521.22 76.4577V63.7846C521.22 63.6194 521.087 63.4854 520.921 63.4854Z" fill="white"/>
<path d="M349.737 66.7285C349.223 66.7285 348.72 66.8123 348.266 66.9798C347.811 67.1354 347.417 67.3867 347.07 67.7098L346.795 67.985V63.7247C346.795 63.5931 346.687 63.4974 346.567 63.4974H344.474C344.343 63.4974 344.247 63.6051 344.247 63.7247V76.5415C344.247 76.6731 344.355 76.7689 344.474 76.7689H346.567C346.699 76.7689 346.795 76.6612 346.795 76.5415V70.546C346.795 69.9237 346.998 69.4211 347.393 69.074C347.788 68.739 348.29 68.5595 348.876 68.5595C349.462 68.5595 349.988 68.727 350.359 69.0621C350.73 69.3971 350.921 69.8998 350.921 70.534V76.5295C350.921 76.6612 351.029 76.7569 351.148 76.7569H353.242C353.373 76.7569 353.469 76.6492 353.469 76.5295V70.2348C353.469 69.1339 353.146 68.2603 352.5 67.638C351.854 67.0157 350.933 66.7046 349.737 66.7046V66.7285Z" fill="white"/>
<path d="M376.326 66.7285C374.855 66.7285 373.683 67.0636 372.846 67.7338C372.02 68.3919 371.602 69.445 371.602 70.8332V72.748C371.602 74.1601 372.02 75.2132 372.846 75.8714C373.683 76.5415 374.855 76.8766 376.326 76.8766C377.797 76.8766 378.934 76.5415 379.771 75.8714C380.596 75.2132 381.003 74.1601 381.003 72.748V70.8332C381.003 69.4331 380.584 68.3919 379.771 67.7338C378.946 67.0636 377.785 66.7285 376.326 66.7285ZM378.479 72.736C378.479 74.2438 377.738 75.0456 376.326 75.0456C374.915 75.0456 374.125 74.2438 374.125 72.736V70.8811C374.125 69.3613 374.891 68.5714 376.326 68.5714C377.761 68.5714 378.479 69.3732 378.479 70.8811V72.736Z" fill="white"/>
<path d="M397.15 66.7285C395.679 66.7285 394.507 67.0636 393.669 67.7338C392.844 68.3919 392.425 69.445 392.425 70.8332V72.748C392.425 74.1601 392.844 75.2132 393.669 75.8714C394.507 76.5415 395.679 76.8766 397.15 76.8766C398.621 76.8766 399.757 76.5415 400.595 75.8714C401.42 75.2132 401.827 74.1601 401.827 72.748V70.8332C401.827 69.4331 401.408 68.3919 400.595 67.7338C399.769 67.0636 398.609 66.7285 397.15 66.7285ZM399.303 72.736C399.303 74.2438 398.561 75.0456 397.15 75.0456C395.738 75.0456 394.949 74.2438 394.949 72.736V70.8811C394.949 69.3613 395.715 68.5714 397.15 68.5714C398.585 68.5714 399.303 69.3732 399.303 70.8811V72.736Z" fill="white"/>
<path d="M414.971 66.8362H413.058C412.735 66.8362 412.735 67.1234 412.735 67.1234V68.1646L412.448 67.8295C411.826 67.0995 410.917 66.7285 409.768 66.7285C408.62 66.7285 407.723 67.0636 407.017 67.7338C406.324 68.3919 405.965 69.4211 405.965 70.7854V71.9103C405.965 73.2745 406.324 74.3037 407.041 74.9738C407.759 75.644 408.68 75.9791 409.792 75.9791C410.964 75.9791 411.874 75.644 412.495 74.9619L412.783 74.6627V76.3381C412.783 77.6904 412.041 78.3964 410.642 78.3964C410.079 78.3964 409.601 78.2887 409.254 78.0853C409.003 77.9417 408.824 77.7741 408.704 77.5587C408.668 77.4869 408.62 77.3433 408.345 77.3433H406.419C406.156 77.3433 406.18 77.5228 406.192 77.6186C406.348 78.2887 406.718 78.8153 407.34 79.2341C408.094 79.7367 409.158 80 410.534 80C412.017 80 413.189 79.653 414.026 78.9589C414.852 78.2768 415.258 77.3433 415.258 76.1825V67.2072C415.258 67.2072 415.282 66.8482 414.971 66.8482V66.8362ZM412.735 71.8265C412.735 72.5685 412.543 73.1429 412.161 73.5378C411.778 73.9327 411.228 74.1361 410.534 74.1361C409.613 74.1361 408.513 73.7293 408.513 71.8265V70.8811C408.513 69.3613 409.23 68.5714 410.606 68.5714C411.264 68.5714 411.802 68.7749 412.173 69.1698C412.543 69.5647 412.735 70.1391 412.735 70.8811V71.8265Z" fill="white"/>
<path d="M428.511 66.8362H426.478C426.179 66.8362 426.059 67.1832 426.059 67.1832L423.655 73.5976L421.287 67.1234C421.287 67.1234 421.239 66.8362 420.904 66.8362H418.907C418.524 66.8362 418.656 67.2072 418.656 67.2072L422.519 76.6372L422.459 76.8287C422.304 77.2595 422.1 77.5348 421.849 77.6903C421.598 77.8459 421.227 77.9177 420.725 77.9177H420.306C419.947 77.9177 419.983 78.2767 419.983 78.2767V79.4734C419.983 79.7606 420.222 79.7606 420.222 79.7606H420.809C421.73 79.7606 422.483 79.5931 423.033 79.27C423.584 78.9469 424.002 78.4203 424.301 77.7143L428.607 67.2072C428.607 67.2072 428.834 66.8123 428.511 66.8123V66.8362Z" fill="white"/>
<path d="M451.404 64.4428C450.4 63.6769 449.036 63.2939 447.338 63.2939C443.498 63.2939 441.632 65.0172 441.632 68.5475V71.6589C441.632 75.2012 443.486 76.9125 447.29 76.9125C449.024 76.9125 450.4 76.5295 451.392 75.7756C452.301 75.0696 452.804 74.0643 452.852 72.7838C452.852 72.712 452.876 72.5684 452.636 72.5684H450.412C450.22 72.5684 450.196 72.6881 450.196 72.7479C450.16 73.3942 449.909 73.9207 449.467 74.3037C448.976 74.7225 448.283 74.9379 447.374 74.9379C446.357 74.9379 445.591 74.6627 445.101 74.1361C444.623 73.6096 444.371 72.7599 444.371 71.623V68.6911C444.371 67.4824 444.611 66.5969 445.077 66.0583C445.544 65.5079 446.309 65.2326 447.326 65.2326C448.223 65.2326 448.94 65.448 449.443 65.8788C449.897 66.2618 450.148 66.7883 450.196 67.4106C450.196 67.4705 450.196 67.6141 450.459 67.6141H452.672C452.852 67.6141 452.899 67.4465 452.899 67.3747C452.84 66.1182 452.349 65.1608 451.416 64.4428H451.404Z" fill="white"/>
<path d="M461.536 66.7285C460.064 66.7285 458.892 67.0636 458.055 67.7338C457.23 68.3919 456.811 69.445 456.811 70.8332V72.748C456.811 74.1601 457.23 75.2132 458.055 75.8714C458.892 76.5415 460.064 76.8766 461.536 76.8766C463.007 76.8766 464.143 76.5415 464.98 75.8714C465.806 75.2132 466.212 74.1601 466.212 72.748V70.8332C466.212 69.4331 465.794 68.3919 464.98 67.7338C464.155 67.0636 462.995 66.7285 461.536 66.7285ZM463.689 72.736C463.689 74.2438 462.947 75.0456 461.536 75.0456C460.124 75.0456 459.335 74.2438 459.335 72.736V70.8811C459.335 69.3613 460.1 68.5714 461.536 68.5714C462.971 68.5714 463.689 69.3732 463.689 70.8811V72.736Z" fill="white"/>
<path d="M479.453 66.8362H477.551C477.372 66.8362 477.228 66.9798 477.228 67.1593V72.6642C477.228 73.466 477.097 74.0523 476.81 74.4353C476.523 74.8302 475.972 75.0336 475.159 75.0336C474.346 75.0336 473.796 74.8182 473.509 74.3994C473.233 74.0045 473.102 73.4181 473.102 72.6642V67.1593C473.102 66.9798 472.958 66.8362 472.779 66.8362H470.877C470.698 66.8362 470.554 66.9798 470.554 67.1593V72.7838C470.554 75.5363 472.061 76.8766 475.171 76.8766C476.726 76.8766 477.898 76.5295 478.652 75.8594C479.393 75.1892 479.776 74.1481 479.776 72.7838V67.1593C479.776 66.9798 479.633 66.8362 479.453 66.8362Z" fill="white"/>
<path d="M88.9892 66.8362H90.8431C91.0225 66.8362 91.178 66.9918 91.178 67.1713V76.4218C91.178 76.6013 91.0225 76.7569 90.8431 76.7569H88.9892C88.8098 76.7569 88.6543 76.6013 88.6543 76.4218V67.1713C88.6543 66.9918 88.8098 66.8362 88.9892 66.8362Z" fill="white"/>
<path d="M182.966 66.8362H184.82C184.999 66.8362 185.155 66.9918 185.155 67.1713V76.4218C185.155 76.6013 184.999 76.7569 184.82 76.7569H182.966C182.786 76.7569 182.631 76.6013 182.631 76.4218V67.1713C182.631 66.9918 182.786 66.8362 182.966 66.8362Z" fill="white"/>
<path d="M512.022 66.8362H513.876C514.056 66.8362 514.211 66.9918 514.211 67.1713V76.4218C514.211 76.6013 514.056 76.7569 513.876 76.7569H512.022C511.843 76.7569 511.688 76.6013 511.688 76.4218V67.1713C511.688 66.9918 511.843 66.8362 512.022 66.8362Z" fill="white"/>
<path d="M84.3842 66.8362H82.2911V64.2752C82.2911 64.1436 82.1834 64.0359 82.0518 64.0359H80.0065C79.8749 64.0359 79.7673 64.1436 79.7673 64.2752V66.8362H78.32C78.2004 66.8362 78.0928 66.9319 78.0928 67.0636V68.009C78.0928 68.1286 78.1885 68.2363 78.32 68.2363H79.7673V73.9805C79.7673 74.8422 80.0663 75.5123 80.6644 76.0149C81.2744 76.5176 82.1116 76.7808 83.1642 76.7808H84.0732C84.0732 76.7808 84.3603 76.8167 84.3603 76.4817V75.3448C84.3603 75.0456 84.0732 75.0456 84.0732 75.0456H83.6307C82.5183 75.0456 82.2791 74.3874 82.2791 73.8369V68.2483H84.3722C84.4919 68.2483 84.5995 68.1526 84.5995 68.0209V67.0755C84.5995 66.9559 84.5038 66.8482 84.3722 66.8482L84.3842 66.8362Z" fill="white"/>
<path d="M314.907 63.4854H304.656C304.477 63.4854 304.333 63.629 304.333 63.8085V65.089C304.333 65.2685 304.477 65.4121 304.656 65.4121H308.412V76.4936C308.412 76.6492 308.532 76.7689 308.687 76.7689H310.852C311.008 76.7689 311.127 76.6492 311.127 76.4936V65.4121H314.907C315.086 65.4121 315.23 65.2685 315.23 65.089V63.8085C315.23 63.629 315.086 63.4854 314.907 63.4854Z" fill="white"/>
</g>
<defs>
<clipPath id="clip0_2106_3860">
<rect width="525" height="80" fill="white"/>
</clipPath>
</defs>
</svg>
