<svg width="66" height="80" viewBox="0 0 66 80" fill="none" xmlns="http://www.w3.org/2000/svg">
<g clip-path="url(#clip0_2106_4023)">
<path d="M49.5003 57.3952H16.4983L0 28.6969L16.4983 0H49.5003L65.9986 28.6969L49.5003 57.3938V57.3952ZM18.69 53.591H47.31L61.6221 28.6983L47.3087 3.80415H18.6886L4.37788 28.6969L18.69 53.5897V53.591Z" fill="white"/>
<path d="M42.068 24.5313L49.8769 10.8187H22.2483L8.43335 34.8175H17.544L26.8023 18.7327H36.364L19.2358 48.5315H45.1726L58.9875 24.5327H42.068V24.5313ZM40.6172 40.6161H32.8219L37.5181 32.4453H45.3202L40.6172 40.6161Z" fill="url(#paint0_linear_2106_4023)"/>
<path d="M11.8075 67.1949H8.63112V79.8994H6.85261V67.1949H3.69653V65.873H11.8075V67.1949Z" fill="#EDECEC"/>
<path d="M14.1252 67.6759C14.1252 67.0754 14.6048 66.5944 15.2035 66.5944C15.8022 66.5944 16.2817 67.0754 16.2817 67.6759C16.2817 68.2764 15.8022 68.7574 15.2035 68.7574C14.6048 68.7574 14.1252 68.2764 14.1252 67.6759ZM14.3853 69.7994H16.023V79.8995H14.3853V69.7994Z" fill="#EDECEC"/>
<path d="M26.9905 65.873V79.8995H25.5519L25.3921 78.9172C24.8733 79.5584 24.1134 79.9986 23.0948 79.9986C21.2567 79.9986 19.7979 79.5177 19.7979 77.0124V72.6444C19.7979 70.1391 21.2567 69.6785 22.9742 69.6785C24.0335 69.6785 24.8124 69.9788 25.3515 70.5603V65.8716H26.9891L26.9905 65.873ZM25.3528 77.0545V72.7055C25.3528 71.7436 24.7338 70.942 23.3955 70.942C22.0572 70.942 21.4382 71.4434 21.4382 72.6458V77.0137C21.4382 78.2161 22.0572 78.7175 23.3955 78.7175C24.7338 78.7175 25.3528 78.0558 25.3528 77.0545Z" fill="#EDECEC"/>
<path d="M32.3248 75.3508V76.9934C32.3248 78.1957 32.9641 78.6971 34.3024 78.6971C35.6407 78.6971 36.2408 78.3167 36.2408 77.314V76.8724H37.8784V77.314C37.8784 79.6182 36.4399 79.9592 34.3024 79.9592C32.165 79.9592 30.6858 79.4987 30.6858 76.9934V72.6458C30.6858 70.1404 32.1243 69.6799 34.2618 69.6799C36.3992 69.6799 37.8784 70.1404 37.8784 72.6458V75.3508H32.3248ZM32.3248 72.6458V74.0886H36.2408V72.6458C36.2408 71.4434 35.6014 70.942 34.2631 70.942C32.9248 70.942 32.3248 71.4434 32.3248 72.6458Z" fill="#EDECEC"/>
<path d="M49.8253 75.4105V77.0735C49.8253 79.4783 48.2676 79.8994 46.3685 79.8994H41.7739V65.873H46.1694C48.0671 65.873 49.6262 66.2942 49.6262 68.6989V70.0616C49.6262 71.745 49.0465 72.4256 48.0874 72.7069C49.1657 72.9474 49.8253 73.628 49.8253 75.4119V75.4105ZM46.1694 67.1949H43.5524V72.0439H46.1694C47.2679 72.0439 47.8477 71.5425 47.8477 70.5412V68.6976C47.8477 67.6949 47.2679 67.1949 46.1694 67.1949ZM48.0468 74.81C48.0468 73.8074 47.4671 73.3074 46.3685 73.3074H43.5511V78.5775H46.3685C47.4671 78.5775 48.0468 78.0762 48.0468 77.0749V74.81Z" fill="url(#paint1_linear_2106_4023)"/>
<path d="M53.4407 67.6759C53.4407 67.0754 53.9202 66.5944 54.5189 66.5944C55.1176 66.5944 55.5971 67.0754 55.5971 67.6759C55.5971 68.2764 55.1176 68.7574 54.5189 68.7574C53.9202 68.7574 53.4407 68.2764 53.4407 67.6759ZM53.7007 69.7994H55.3384V79.8995H53.7007V69.7994Z" fill="url(#paint2_linear_2106_4023)"/>
<path d="M63.6092 71.0629H61.8916V79.8994H60.254V71.0629H58.5161V69.8008H60.254V66.6746H61.8916V69.8008H63.6092V71.0629Z" fill="url(#paint3_linear_2106_4023)"/>
</g>
<defs>
<linearGradient id="paint0_linear_2106_4023" x1="8.43335" y1="29.6737" x2="58.9875" y2="29.6737" gradientUnits="userSpaceOnUse">
<stop stop-color="#29C1E1"/>
<stop offset="1" stop-color="#1AE2A0"/>
</linearGradient>
<linearGradient id="paint1_linear_2106_4023" x1="41.7739" y1="72.8862" x2="49.8253" y2="72.8862" gradientUnits="userSpaceOnUse">
<stop stop-color="#29C1E1"/>
<stop offset="1" stop-color="#1AE2A0"/>
</linearGradient>
<linearGradient id="paint2_linear_2106_4023" x1="53.4407" y1="73.2463" x2="55.5985" y2="73.2463" gradientUnits="userSpaceOnUse">
<stop stop-color="#29C1E1"/>
<stop offset="1" stop-color="#1AE2A0"/>
</linearGradient>
<linearGradient id="paint3_linear_2106_4023" x1="58.5148" y1="73.287" x2="63.6092" y2="73.287" gradientUnits="userSpaceOnUse">
<stop stop-color="#29C1E1"/>
<stop offset="1" stop-color="#1AE2A0"/>
</linearGradient>
<clipPath id="clip0_2106_4023">
<rect width="66" height="80" fill="white"/>
</clipPath>
</defs>
</svg>
