<svg width="110" height="150" viewBox="0 0 110 150" fill="none" xmlns="http://www.w3.org/2000/svg">
<g id="Logo / BAIFAAA" clip-path="url(#clip0_90_8094)">
<g id="Group">
<g id="Group_2">
<path id="Vector" d="M99.3039 9.74982H44.8299C35.415 9.74982 26.8896 13.5549 20.7192 19.7087L27.6043 26.5754C32.2064 21.9857 38.3253 19.4575 44.8299 19.4575H89.565V64.0727C89.565 70.5649 87.03 76.6623 82.428 81.2521L89.3131 88.1187C95.4834 81.9649 99.2988 73.4624 99.2988 64.0727V9.74982H99.3039Z" fill="#30528F"/>
<path id="Vector_2" d="M44.8298 0.0370483C38.9165 0.0370483 33.1729 1.19602 27.7636 3.47806C22.5445 5.67805 17.855 8.83188 13.834 12.8421L20.7191 19.7088C26.8894 13.5549 35.4148 9.74983 44.8298 9.74983H99.3038V64.0778C99.3038 73.4675 95.4884 81.97 89.3181 88.1238L96.2032 94.9905C100.224 90.9802 103.386 86.3033 105.592 81.0982C107.881 75.7034 109.043 69.9752 109.043 64.0778V0.0370483H44.8298Z" fill="#30528F"/>
</g>
<g id="Group_3">
<path id="Vector_3" d="M10.7334 98.0776H65.2074C74.6223 98.0776 83.1477 94.2725 89.3181 88.1187L82.433 81.2521C77.8309 85.8418 71.712 88.37 65.2074 88.37H20.4671V43.7548C20.4671 37.2625 23.0021 31.1651 27.6042 26.5754L20.7191 19.7087C14.5487 25.8626 10.7334 34.3651 10.7334 43.7548V98.0827V98.0776Z" fill="#30528F"/>
<path id="Vector_4" d="M65.2075 107.79C71.1208 107.79 76.8644 106.631 82.2737 104.349C87.4928 102.149 92.1823 98.9956 96.2033 94.9853L89.3182 88.1187C83.1478 94.2725 74.6225 98.0776 65.2075 98.0776H10.7335V43.7497C10.7335 34.36 14.5489 25.8574 20.7192 19.7036L13.8341 12.837C9.8131 16.8472 6.65079 21.5241 4.44489 26.7292C2.15671 32.1292 0.994629 37.8523 0.994629 43.7497V107.79H65.2075Z" fill="#30528F"/>
</g>
<g id="Group_4">
<g id="Group_5">
<path id="Vector_5" d="M42.9629 41.9189C36.3092 48.5548 36.3092 59.3086 42.9629 65.9393C49.6166 72.5752 60.3993 72.5752 67.0479 65.9393L60.1628 59.0727C58.7848 60.4471 56.9542 61.206 55.0054 61.206C53.0566 61.206 51.2261 60.4471 49.848 59.0727C47.0045 56.2368 47.0045 51.6215 49.848 48.7805L42.9629 41.9087V41.9189Z" fill="#30528F"/>
<path id="Vector_6" d="M35.3528 35.7651L35.2654 35.9036C30.725 40.8369 28.2363 47.1958 28.2363 53.9343C28.2363 61.0676 31.0181 67.7701 36.0778 72.8111C41.1324 77.8521 47.8581 80.6316 55.0054 80.6316C62.1579 80.6316 68.8784 77.8521 73.933 72.8111L67.0479 65.9445C60.3942 72.5804 49.6115 72.5804 42.9629 65.9445C36.3092 59.3086 36.3092 48.5548 42.9629 41.9241L36.0727 35.0472L35.3477 35.7703L35.3528 35.7651Z" fill="#30528F"/>
</g>
<g id="Group_6">
<path id="Vector_7" d="M42.9888 41.883L49.8739 48.7497C51.2519 47.3753 53.0824 46.6163 55.0313 46.6163C56.9801 46.6163 58.8106 47.3753 60.1886 48.7497C63.0322 51.5855 63.0322 56.2009 60.1886 59.0419L60.1629 59.0676L67.0532 65.9393L67.0737 65.9086C73.7274 59.2727 73.7274 48.5189 67.0737 41.8882C60.42 35.2523 49.6373 35.2523 42.9888 41.8882V41.883Z" fill="#30528F"/>
<path id="Vector_8" d="M55.0311 27.1959C47.8786 27.1959 41.1581 29.9754 36.1035 35.0164L42.9886 41.883C49.6423 35.2472 60.425 35.2472 67.0736 41.883C73.7273 48.5189 73.7273 59.2727 67.0736 65.9034L67.053 65.9342L73.9381 72.8008L74.6837 72.0573L74.7711 71.9188C79.3115 66.9855 81.8002 60.6265 81.8002 53.8881C81.8002 46.7548 79.0184 40.0523 73.9587 35.0113C68.9041 29.9703 62.1784 27.1908 55.0311 27.1908V27.1959Z" fill="#30528F"/>
</g>
<g id="Group_7">
<path id="Vector_9" d="M42.9888 41.883L42.9683 41.9138L49.8534 48.7804L50.3624 48.2727C59.366 39.801 73.6041 39.96 82.4174 48.7497C91.3902 57.6983 91.3902 72.2573 82.4174 81.2059L89.3025 88.0726C102.091 75.3188 102.091 54.6368 89.3025 41.883C76.5145 29.1292 55.7769 29.1292 42.9888 41.883Z" fill="#30528F"/>
<path id="Vector_10" d="M82.1244 25.7088C77.0339 23.6472 71.6554 22.6062 66.1432 22.6062C60.631 22.6062 55.2525 23.6524 50.162 25.7088C44.8863 27.8421 40.1557 30.9754 36.1038 35.0164L36.0781 35.042L42.9684 41.9138L42.9889 41.883C55.777 29.1292 76.5146 29.1292 89.3026 41.883C102.091 54.6368 102.091 75.3188 89.3026 88.0726L96.1877 94.9392C100.24 90.8982 103.381 86.1803 105.52 80.9188C107.587 75.8419 108.631 70.4778 108.631 64.9804C108.631 59.483 107.582 54.1189 105.52 49.042C103.381 43.7805 100.24 39.0625 96.1877 35.0215C92.1358 30.9805 87.4052 27.8472 82.1296 25.7139L82.1244 25.7088Z" fill="#30528F"/>
</g>
<g id="Group_8">
<path id="Vector_11" d="M59.6747 59.5496C50.6711 68.0214 36.433 67.8624 27.6197 59.0727C18.647 50.124 18.647 35.5651 27.6197 26.6165L20.7346 19.7498C7.94654 32.5036 7.94654 53.1856 20.7346 65.9394C33.5227 78.6931 54.2602 78.6931 67.0483 65.9394L60.1581 59.0625L59.6696 59.5496H59.6747Z" fill="#30528F"/>
<path id="Vector_12" d="M67.0481 65.9445C54.26 78.6983 33.5225 78.6983 20.7344 65.9445C7.94634 53.1907 7.94634 32.5087 20.7344 19.7549L13.8493 12.8883C9.79745 16.9293 6.65571 21.6472 4.51665 26.9088C2.45472 31.9857 1.40576 37.3497 1.40576 42.8471C1.40576 48.3446 2.45472 53.7086 4.51665 58.7855C6.65571 64.0471 9.79745 68.765 13.8493 72.806C17.9012 76.847 22.6318 79.9803 27.9075 82.1136C32.998 84.1752 38.3765 85.2162 43.8887 85.2162C49.4009 85.2162 54.7794 84.17 59.8699 82.1136C65.1456 79.9803 69.8762 76.847 73.9281 72.806L67.043 65.9342L67.0481 65.9445Z" fill="#30528F"/>
</g>
</g>
</g>
<g id="Group_9">
<path id="Vector_13" d="M21.6462 124.409V145.003H0.994629V124.409H21.6462ZM17.5156 128.528H5.12525V140.885H17.5156V136.766H9.25587V132.646H17.5156V128.527V128.528Z" fill="#30528F"/>
<path id="Vector_14" d="M36.7011 145.005V140.885H40.7028L36.7011 130.588L31.0859 145.005H26.3745L34.6342 124.41H38.7649L47.0246 145.005H36.6995H36.7011Z" fill="#30528F"/>
<path id="Vector_15" d="M56.3396 124.409V145.003H52.209V124.409H56.3396Z" fill="#30528F"/>
<path id="Vector_16" d="M65.4258 124.409H86.0774V128.528H69.5564V132.648H86.0774V136.767H69.5564V145.005H65.4258V124.409Z" fill="#30528F"/>
<g id="Group_10">
<path id="Vector_17" d="M91.8486 145.005L98.0976 129.423L99.153 132.053L102.525 140.462H97.1211V139.266H100.354L98.0976 133.457L93.6001 145.005H91.8486Z" fill="#30528F"/>
<path id="Vector_18" d="M97.121 145.005V143.741H107.193L99.8793 125.51H96.3052L88.4958 145.005H87.1538L95.5364 124.103H100.66L109.043 145.005H97.121Z" fill="#30528F"/>
<path id="Vector_19" d="M103.761 141.297H97.1209V142.904H105.955L99.3136 126.344H96.8722L89.3979 145.005H90.9477L97.7001 128.17H98.4962L103.761 141.297Z" fill="#30528F"/>
</g>
</g>
</g>
<defs>
<clipPath id="clip0_90_8094">
<rect width="108.059" height="150" fill="white" transform="translate(0.983398)"/>
</clipPath>
</defs>
</svg>
