<svg width="109" height="150" viewBox="0 0 109 150" fill="none" xmlns="http://www.w3.org/2000/svg">
<g clip-path="url(#clip0_15_9749)">
<path d="M98.8008 9.74976H44.3268C34.9118 9.74976 26.3864 13.5549 20.2161 19.7087L27.1012 26.5753C31.7032 21.9856 37.8222 19.4574 44.3268 19.4574H89.0619V64.0726C89.0619 70.5649 86.5269 76.6623 81.9248 81.252L88.8099 88.1186C94.9803 81.9648 98.7956 73.4623 98.7956 64.0726V9.74976H98.8008Z" fill="#A97BFE"/>
<path d="M44.3268 0.0369873C38.4135 0.0369873 32.67 1.19596 27.2606 3.478C22.0415 5.67799 17.352 8.83182 13.331 12.8421L20.2161 19.7087C26.3865 13.5549 34.9119 9.74977 44.3268 9.74977H98.8008V64.0777C98.8008 73.4674 94.9855 81.97 88.8151 88.1238L95.7002 94.9904C99.7212 90.9802 102.884 86.3033 105.089 81.0982C107.378 75.7033 108.54 69.9751 108.54 64.0777V0.0369873H44.3268Z" fill="#7160FF"/>
<path d="M10.2305 98.0776H64.7045C74.1194 98.0776 82.6448 94.2725 88.8151 88.1187L81.9301 81.2521C77.328 85.8418 71.2091 88.37 64.7045 88.37H19.9642V43.7548C19.9642 37.2625 22.4992 31.1651 27.1013 26.5754L20.2162 19.7087C14.0458 25.8626 10.2305 34.3651 10.2305 43.7548V98.0827V98.0776Z" fill="#12CFFF"/>
<path d="M64.7044 107.79C70.6177 107.79 76.3613 106.631 81.7706 104.349C86.9897 102.149 91.6792 98.9955 95.7002 94.9853L88.8151 88.1186C82.6448 94.2725 74.1194 98.0776 64.7044 98.0776H10.2304V43.7496C10.2304 34.3599 14.0458 25.8574 20.2161 19.7036L13.3311 12.8369C9.31003 16.8472 6.14773 21.5241 3.94182 26.7292C1.65365 32.1291 0.491562 37.8522 0.491562 43.7496V107.79H64.7044Z" fill="#11FFF5"/>
<path d="M42.4602 41.9189C35.8065 48.5548 35.8065 59.3086 42.4602 65.9394C49.1139 72.5752 59.8966 72.5752 66.5452 65.9394L59.6601 59.0727C58.2821 60.4471 56.4515 61.206 54.5027 61.206C52.5539 61.206 50.7234 60.4471 49.3453 59.0727C46.5018 56.2368 46.5018 51.6215 49.3453 48.7805L42.4602 41.9087V41.9189Z" fill="#A97BFE"/>
<path d="M34.8502 35.7651L34.7627 35.9035C30.2224 40.8368 27.7337 47.1958 27.7337 53.9342C27.7337 61.0675 30.5155 67.7701 35.5752 72.8111C40.6297 77.8521 47.3554 80.6315 54.5028 80.6315C61.6552 80.6315 68.3758 77.8521 73.4303 72.8111L66.5452 65.9444C59.8915 72.5803 49.1088 72.5803 42.4603 65.9444C35.8066 59.3086 35.8066 48.5548 42.4603 41.924L35.57 35.0471L34.845 35.7702L34.8502 35.7651Z" fill="#7160FF"/>
<path d="M42.486 41.8829L49.3711 48.7495C50.7491 47.3752 52.5796 46.6162 54.5284 46.6162C56.4773 46.6162 58.3078 47.3752 59.6858 48.7495C62.5293 51.5854 62.5293 56.2008 59.6858 59.0418L59.6601 59.0674L66.5504 65.9392L66.5709 65.9084C73.2246 59.2726 73.2246 48.5188 66.5709 41.888C59.9172 35.2522 49.1345 35.2522 42.486 41.888V41.8829Z" fill="#12CFFF"/>
<path d="M54.5285 27.1958C47.376 27.1958 40.6554 29.9753 35.6009 35.0163L42.486 41.8829C49.1397 35.247 59.9224 35.247 66.571 41.8829C73.2247 48.5188 73.2247 59.2726 66.571 65.9033L66.5504 65.9341L73.4355 72.8007L74.1811 72.0571L74.2685 71.9187C78.8088 66.9854 81.2976 60.6264 81.2976 53.888C81.2976 46.7547 78.5157 40.0522 73.4561 35.0111C68.4015 29.9701 61.6758 27.1907 54.5285 27.1907V27.1958Z" fill="#11FFF5"/>
<path d="M42.486 41.883L42.4654 41.9137L49.3505 48.7804L49.8596 48.2727C58.8632 39.8009 73.1013 39.9599 81.9146 48.7496C90.8873 57.6983 90.8873 72.2572 81.9146 81.2059L88.7997 88.0725C101.588 75.3187 101.588 54.6368 88.7997 41.883C76.0116 29.1292 55.2741 29.1292 42.486 41.883Z" fill="#A97BFE"/>
<path d="M81.6215 25.7086C76.531 23.6471 71.1525 22.6061 65.6403 22.6061C60.1281 22.6061 54.7496 23.6522 49.659 25.7086C44.3834 27.842 39.6528 30.9753 35.6009 35.0163L35.5752 35.0419L42.4654 41.9137L42.486 41.8829C55.2741 29.1291 76.0116 29.1291 88.7997 41.8829C101.588 54.6367 101.588 75.3187 88.7997 88.0725L95.6848 94.9391C99.7367 90.8981 102.878 86.1802 105.017 80.9186C107.085 75.8417 108.128 70.4777 108.128 64.9803C108.128 59.4828 107.079 54.1188 105.017 49.0419C102.878 43.7803 99.7367 39.0624 95.6848 35.0214C91.6329 30.9804 86.9023 27.8471 81.6266 25.7138L81.6215 25.7086Z" fill="#7160FF"/>
<path d="M59.1717 59.5496C50.1681 68.0213 35.93 67.8624 27.1167 59.0727C18.1439 50.124 18.1439 35.5651 27.1167 26.6164L20.2316 19.7498C7.44352 32.5035 7.44352 53.1855 20.2316 65.9393C33.0197 78.6931 53.7572 78.6931 66.5453 65.9393L59.655 59.0624L59.1666 59.5496H59.1717Z" fill="#12CFFF"/>
<path d="M66.5452 65.9444C53.7572 78.6982 33.0196 78.6982 20.2316 65.9444C7.44348 53.1906 7.44348 32.5086 20.2316 19.7548L13.3465 12.8882C9.29459 16.9292 6.15285 21.6471 4.01379 26.9086C1.95186 31.9855 0.902901 37.3496 0.902901 42.847C0.902901 48.3444 1.95186 53.7085 4.01379 58.7854C6.15285 64.0469 9.29459 68.7649 13.3465 72.8059C17.3983 76.8469 22.1289 79.9802 27.4046 82.1135C32.4951 84.175 37.8736 85.2161 43.3858 85.2161C48.898 85.2161 54.2765 84.1699 59.3671 82.1135C64.6427 79.9802 69.3733 76.8469 73.4252 72.8059L66.5401 65.9341L66.5452 65.9444Z" fill="#11FFF5"/>
<path d="M21.1431 124.409V145.003H0.491562V124.409H21.1431ZM17.0125 128.528H4.62218V140.885H17.0125V136.766H8.7528V132.646H17.0125V128.527V128.528Z" fill="white"/>
<path d="M36.1978 145.005V140.885H40.1995L36.1978 130.588L30.5826 145.005H25.8712L34.1309 124.41H38.2616L46.5213 145.005H36.1962H36.1978Z" fill="white"/>
<path d="M55.8364 124.409V145.003H51.7058V124.409H55.8364Z" fill="white"/>
<path d="M64.9225 124.409H85.5741V128.528H69.0532V132.648H85.5741V136.767H69.0532V145.005H64.9225V124.409Z" fill="white"/>
<path d="M91.3455 145.005L97.5945 129.423L98.6499 132.053L102.022 140.462H96.6179V139.266H99.8509L97.5945 133.457L93.0969 145.005H91.3455Z" fill="white"/>
<path d="M96.6179 145.005V143.741H106.69L99.3762 125.51H95.8021L87.9928 145.005H86.6508L95.0333 124.103H100.157L108.54 145.005H96.6179Z" fill="white"/>
<path d="M103.258 141.297H96.6179V142.904H105.452L98.8106 126.344H96.3692L88.895 145.005H90.4447L97.1972 128.17H97.9933L103.258 141.297Z" fill="white"/>
</g>
<defs>
<clipPath id="clip0_15_9749">
<rect width="108.059" height="150" fill="white" transform="translate(0.480499)"/>
</clipPath>
</defs>
</svg>
