<svg width="130" height="150" viewBox="0 0 130 150" fill="none" xmlns="http://www.w3.org/2000/svg">
<g id="Logo / BOLT" clip-path="url(#clip0_90_8096)">
<g id="Group 13">
<g id="Clip path group">
<mask id="mask0_90_8096" style="mask-type:luminance" maskUnits="userSpaceOnUse" x="18" y="-1" width="94" height="101">
<g id="clippath">
<path id="Vector" d="M111.646 -0.81134H18.043V99.0365H111.646V-0.81134Z" fill="white"/>
</g>
</mask>
<g mask="url(#mask0_90_8096)">
<g id="Group">
<g id="Group 13-2">
<path id="Path 20" d="M80.5443 30.7904V37.5629C78.5559 37.1657 76.5331 36.9648 74.5056 36.9632H49.7389C32.7252 36.9632 18.9336 50.7923 18.9336 67.8523C18.9336 67.8523 18.9336 67.8554 18.9336 67.857V-0.0986328H49.7389C66.7526 -0.0986328 80.5443 13.7305 80.5443 30.7904Z" fill="#30528F"/>
<path id="Path 21" d="M80.5443 37.5661V67.8617C80.5411 84.9217 66.7464 98.7476 49.7327 98.7445C32.719 98.7414 18.9305 84.9091 18.9336 67.8492C18.9367 50.7923 32.7284 36.9664 49.7389 36.9664H74.4978C76.5253 36.9664 78.5481 37.1673 80.5364 37.5661" fill="#30528F"/>
<path id="Path 22" d="M80.7308 37.5849H80.6697V67.857C80.6697 84.917 66.8749 98.7445 49.8628 98.7445H80.7323C97.5754 98.7445 111.229 85.0535 111.229 68.1647C111.229 51.2759 97.5754 37.5849 80.7323 37.5849" fill="#30528F"/>
</g>
</g>
</g>
</g>
</g>
<g id="Group_2">
<path id="Vector_2" d="M0.15625 148.3L8.87167 131.839H8.90847L8.91844 131.821H28.729C29.0242 131.821 29.2695 131.635 29.4658 131.266L30.9378 128.491C31.121 128.146 31.062 127.967 30.7614 127.955H10.9325L14.2874 121.666H35.0379C39.0099 121.666 40.0235 123.51 38.08 127.197H38.0984L35.4588 132.172C34.3939 133.292 32.626 134.852 30.6457 134.994C31.9896 135.348 32.7678 137.122 32.2725 138.185L30.0898 142.326C27.9777 146.284 24.9294 148.263 20.9451 148.263L0.15625 148.299V148.3ZM25.4101 138.109L11.9905 138.127L9.93963 141.993L23.3593 141.974C23.6545 141.974 23.8998 141.789 24.0961 141.419L25.568 138.645C25.7513 138.3 25.6984 138.121 25.4101 138.108V138.109Z" fill="#30528F"/>
<g id="Group_3">
<path id="Vector_3" d="M36.5475 148.282L33.3252 148.253L45.8563 123.212L46.6582 121.666H73.3235L72.3767 123.208L59.8395 148.328L57.6246 148.281H36.5475V148.282ZM44.8512 145.819H50.8342L61.5943 124.189H55.6113L44.8512 145.819Z" fill="#30528F"/>
<path id="Vector_4" d="M66.8099 148.282L65.2168 148.253L77.7809 123.185L78.4739 121.743L88.8001 121.775L77.1606 145.117H83.1437L87.8441 135.74L88.495 134.421L95.2769 141.263L91.8307 148.282H66.8099Z" fill="#30528F"/>
<path id="Vector_5" d="M98.3918 143.098L107.862 124.165H99.2298L96.8677 121.751H129.532L127.17 124.165H118.152L105.917 148.698L105.269 150L98.3918 143.098Z" fill="#30528F"/>
</g>
</g>
</g>
<defs>
<clipPath id="clip0_90_8096">
<rect width="129.276" height="150" fill="white" transform="translate(0.220215)"/>
</clipPath>
</defs>
</svg>
