<svg width="130" height="150" viewBox="0 0 130 150" fill="none" xmlns="http://www.w3.org/2000/svg">
<g clip-path="url(#clip0_15_9748)">
<mask id="mask0_15_9748" style="mask-type:luminance" maskUnits="userSpaceOnUse" x="18" y="-1" width="94" height="101">
<path d="M111.712 -0.811401H18.1088V99.0365H111.712V-0.811401Z" fill="white"/>
</mask>
<g mask="url(#mask0_15_9748)">
<path d="M80.6103 30.7904V37.5629C78.6219 37.1657 76.5991 36.9648 74.5717 36.9632H49.8049C32.7912 36.9632 18.9996 50.7923 18.9996 67.8523C18.9996 67.8523 18.9996 67.8554 18.9996 67.857V-0.0986328H49.8049C66.8186 -0.0986328 80.6103 13.7305 80.6103 30.7904Z" fill="#01FAA8"/>
<path d="M80.6103 37.566V67.8617C80.6072 84.9216 66.8124 98.7476 49.7987 98.7444C32.785 98.7413 18.9965 84.909 18.9996 67.8491C19.0027 50.7923 32.7944 36.9663 49.805 36.9663H74.5638C76.5913 36.9663 78.6141 37.1673 80.6025 37.566" fill="#07D6F2"/>
<path d="M80.7966 37.5848H80.7355V67.8569C80.7355 84.9169 66.9408 98.7444 49.9286 98.7444H80.7982C97.6412 98.7444 111.295 85.0535 111.295 68.1646C111.295 51.2758 97.6412 37.5848 80.7982 37.5848" fill="#0037FF"/>
</g>
<path d="M0.22226 148.3L8.93768 131.839H8.97448L8.98445 131.821H28.795C29.0902 131.821 29.3355 131.635 29.5318 131.266L31.0038 128.491C31.187 128.146 31.128 127.967 30.8274 127.955H10.9985L14.3534 121.666H35.1039C39.076 121.666 40.0895 123.51 38.146 127.197H38.1644L35.5248 132.172C34.4599 133.292 32.692 134.852 30.7117 134.994C32.0556 135.348 32.8338 137.122 32.3385 138.185L30.1558 142.326C28.0437 146.284 24.9954 148.263 21.0111 148.263L0.22226 148.3V148.3ZM25.4761 138.109L12.0565 138.127L10.0056 141.993L23.4253 141.974C23.7205 141.974 23.9658 141.789 24.1621 141.419L25.6341 138.645C25.8173 138.3 25.7644 138.121 25.4761 138.108V138.109Z" fill="white"/>
<path d="M36.6134 148.282L33.3912 148.253L45.9222 123.212L46.7242 121.666H73.3895L72.4426 123.208L59.9054 148.328L57.6905 148.281H36.6134V148.282ZM44.9172 145.819H50.9002L61.6603 124.189H55.6773L44.9172 145.819Z" fill="white"/>
<path d="M66.8759 148.282L65.2828 148.253L77.8468 123.185L78.5399 121.743L88.8661 121.775L77.2266 145.117H83.2097L87.9101 135.741L88.561 134.421L95.3429 141.263L91.8967 148.282H66.8759Z" fill="white"/>
<path d="M98.4578 143.098L107.928 124.165H99.2958L96.9337 121.751H129.598L127.236 124.165H118.218L105.983 148.698L105.335 150L98.4578 143.098Z" fill="white"/>
</g>
<defs>
<clipPath id="clip0_15_9748">
<rect width="129.276" height="150" fill="white" transform="translate(0.286194)"/>
</clipPath>
</defs>
</svg>
