<svg width="123" height="150" viewBox="0 0 123 150" fill="none" xmlns="http://www.w3.org/2000/svg">
<g clip-path="url(#clip0_15_9747)">
<path d="M37.8564 39.7051L63.6108 13.9216L66.6226 16.9369C67.326 17.6411 68.4803 17.6411 69.2017 16.9369L75.2074 10.9243C75.9108 10.2202 75.9108 9.06459 75.2074 8.34236L69.2197 2.34786C66.1177 -0.757719 61.1039 -0.757719 58.0018 2.34786L26.2957 34.0898C23.1937 37.1954 23.1937 42.2149 26.2957 45.3205L33.564 52.5969L42.1488 44.0024L37.8564 39.7051Z" fill="#B100E8"/>
<path d="M46.4492 48.3205L37.8665 56.9129L46.4492 65.5053L55.0319 56.9129L46.4492 48.3205Z" fill="#1F8FFF"/>
<path d="M100.926 34.0898L94.9381 28.0953C94.2347 27.3911 93.0805 27.3911 92.3591 28.0953L86.3533 34.1078C85.6499 34.812 85.6499 35.9676 86.3533 36.6898L89.3652 39.7051L63.6108 65.4887L55.026 74.0832L58.0018 77.0624C61.1039 80.1679 66.1177 80.1679 69.2198 77.0624L100.926 45.3204C104.028 42.2148 104.028 37.1954 100.926 34.0898Z" fill="#B100E8"/>
<path d="M100.926 79.6985C104.028 76.593 104.028 71.5735 100.926 68.4679L94.9381 62.4734C94.2347 61.7692 93.0804 61.7692 92.359 62.4734L86.3533 68.4859C85.6499 69.1901 85.6499 70.3457 86.3533 71.0679L89.3652 74.0832L72.1956 91.2722L80.7804 99.8668L100.926 79.6985Z" fill="#1F8FFF"/>
<path d="M63.6108 99.8668L37.8564 74.0832L38.7221 73.2165L60.2202 51.6941L63.5928 48.3177L66.6047 51.333C67.308 52.0372 68.4623 52.0372 69.1837 51.333L75.1895 45.3204C75.8928 44.6163 75.8928 43.4607 75.1895 42.7385L69.2017 36.744C66.0997 33.6384 61.0859 33.6384 57.9838 36.744L48.7497 45.9885L35.8725 58.8803L26.2597 68.504C23.1576 71.6096 23.1576 76.6291 26.2597 79.7346L57.9658 111.477C61.0678 114.582 66.0816 114.582 69.1837 111.477L72.1595 108.497L63.5747 99.9029L63.6108 99.8668Z" fill="#1F8FFF"/>
<path d="M40.06 148.734L32.7045 133.251C32.5537 132.966 32.2437 132.748 31.7578 132.605C31.2719 132.463 30.7442 132.387 30.1829 132.387C29.6216 132.387 29.1273 132.463 28.6414 132.605C28.1555 132.748 27.8455 132.966 27.6947 133.251L20.2973 148.734C20.2721 148.826 20.2638 148.901 20.2638 148.952C20.2638 149.161 20.3894 149.337 20.6324 149.488C20.8753 149.639 21.2021 149.765 21.5958 149.857C21.9896 149.95 22.3665 150 22.71 150C23.0284 150 23.3216 149.958 23.5813 149.883C23.841 149.807 24.0086 149.665 24.084 149.48L25.5668 146.779H34.7822L36.3069 149.48C36.4074 149.673 36.575 149.807 36.8095 149.883C37.0441 149.966 37.3206 150 37.6473 150C38.0159 150 38.3929 149.95 38.7783 149.857C39.1636 149.765 39.482 149.631 39.7417 149.472C40.0014 149.312 40.1355 149.136 40.1355 148.943C40.1355 148.893 40.1103 148.826 40.06 148.725V148.734ZM26.4632 144.054L30.1829 135.859L33.8941 144.054H26.4632Z" fill="white"/>
<path d="M122.286 148.734L114.931 133.251C114.78 132.966 114.47 132.748 113.984 132.605C113.498 132.463 112.97 132.387 112.409 132.387C111.848 132.387 111.354 132.463 110.868 132.605C110.382 132.748 110.072 132.966 109.921 133.251L102.524 148.734C102.498 148.826 102.49 148.901 102.49 148.952C102.49 149.161 102.616 149.337 102.859 149.488C103.102 149.639 103.428 149.765 103.822 149.857C104.216 149.95 104.593 150 104.936 150C105.255 150 105.548 149.958 105.808 149.883C106.067 149.807 106.235 149.665 106.31 149.48L107.793 146.779H117.008L118.533 149.48C118.634 149.673 118.801 149.807 119.036 149.883C119.27 149.966 119.547 150 119.874 150C120.242 150 120.619 149.95 121.005 149.857C121.39 149.765 121.708 149.631 121.968 149.472C122.228 149.312 122.362 149.136 122.362 148.943C122.362 148.893 122.337 148.826 122.286 148.725V148.734ZM108.689 144.054L112.409 135.859L116.12 144.054H108.689Z" fill="white"/>
<path d="M45.9328 150C45.4385 150 44.9861 149.891 44.5756 149.681C44.1651 149.472 43.964 149.145 43.964 148.7V133.687C43.964 133.268 44.1483 132.941 44.5253 132.723C44.8939 132.496 45.2961 132.387 45.7149 132.387H58.7589C59.2029 132.387 59.5296 132.572 59.7223 132.949C59.9234 133.318 60.0155 133.704 60.0155 134.098C60.0155 134.568 59.9066 134.987 59.6972 135.348C59.4877 135.708 59.1694 135.885 58.7505 135.885H47.9015V140.296H53.6569C54.0758 140.296 54.3941 140.455 54.6036 140.783C54.813 141.101 54.9219 141.479 54.9219 141.898C54.9219 142.242 54.8214 142.586 54.6287 142.921C54.4277 143.257 54.1093 143.425 53.6653 143.425H47.9099V148.7C47.9099 149.145 47.7088 149.472 47.2983 149.681C46.8878 149.891 46.4354 150 45.9411 150H45.9328Z" fill="white"/>
<path d="M65.3353 150C64.9164 150 64.5227 149.891 64.1457 149.665C63.7687 149.438 63.5928 149.119 63.5928 148.7V133.687C63.5928 133.268 63.7771 132.941 64.1457 132.723C64.5143 132.496 64.908 132.387 65.3353 132.387H78.5384C79.0076 132.387 79.3427 132.572 79.5437 132.941C79.7448 133.31 79.8369 133.695 79.8369 134.09C79.8369 134.559 79.728 134.979 79.5018 135.331C79.2756 135.692 78.9573 135.868 78.5384 135.868H67.5219V140.305H73.2354C73.6543 140.305 73.981 140.464 74.1988 140.791C74.425 141.11 74.5339 141.487 74.5339 141.906C74.5339 142.25 74.4334 142.594 74.2407 142.93C74.0396 143.265 73.7129 143.433 73.2354 143.433H67.5219V146.511H78.5384C78.9573 146.511 79.284 146.687 79.5018 147.031C79.728 147.375 79.8369 147.803 79.8369 148.297C79.8369 148.692 79.7364 149.077 79.5437 149.446C79.3427 149.815 79.0159 150 78.5384 150H65.3353Z" fill="white"/>
<path d="M15.3042 150C16.5692 150 17.5997 148.968 17.5997 147.702V145.245C17.5997 144.951 17.3651 144.716 17.0719 144.716H14.6089C14.3157 144.716 14.0811 144.951 14.0811 145.245V146.477H7.0439V150H15.3042Z" fill="white"/>
<path d="M3.52531 146.477V135.91H3.88554H12.6988H14.0811V137.143C14.0811 137.436 14.3157 137.671 14.6089 137.671H17.0719C17.3651 137.671 17.5997 137.436 17.5997 137.143V134.685C17.5997 133.419 16.5692 132.387 15.3042 132.387H11.5175H6.23966H2.30218C1.03716 132.387 0.00671387 133.419 0.00671387 134.685V147.702C0.00671387 148.968 1.03716 150 2.30218 150H3.52531V146.477Z" fill="white"/>
<path d="M98.0666 150C99.3316 150 100.362 148.968 100.362 147.702V145.245C100.362 144.951 100.128 144.716 99.8343 144.716H97.3713C97.0781 144.716 96.8435 144.951 96.8435 145.245V146.477H89.8063V150H98.0666Z" fill="white"/>
<path d="M86.2877 146.477V135.91H86.6479H95.4612H96.8435V137.143C96.8435 137.436 97.0781 137.671 97.3713 137.671H99.8343C100.128 137.671 100.362 137.436 100.362 137.143V134.685C100.362 133.419 99.3316 132.387 98.0666 132.387H94.2799H89.002H85.0646C83.7996 132.387 82.7691 133.419 82.7691 134.685V147.702C82.7691 148.968 83.7996 150 85.0646 150H86.2877V146.477Z" fill="white"/>
</g>
<defs>
<clipPath id="clip0_15_9747">
<rect width="122.368" height="150" fill="white"/>
</clipPath>
</defs>
</svg>
