<svg width="123" height="150" viewBox="0 0 123 150" fill="none" xmlns="http://www.w3.org/2000/svg">
<g id="Logo / CAFECA" clip-path="url(#clip0_90_8097)">
<g id="Group">
<path id="Vector" d="M38.353 39.7052L64.1074 13.9216L67.1193 16.9369C67.8227 17.6411 68.9769 17.6411 69.6983 16.9369L75.7041 10.9244C76.4074 10.2202 76.4074 9.06465 75.7041 8.34242L69.7164 2.34792C66.6143 -0.757658 61.6005 -0.757658 58.4984 2.34792L26.7924 34.0899C23.6903 37.1955 23.6903 42.2149 26.7924 45.3205L34.0606 52.597L42.6454 44.0025L38.353 39.7052Z" fill="#30528F"/>
<path id="Vector_2" d="M46.946 48.3206L38.3633 56.913L46.946 65.5054L55.5287 56.913L46.946 48.3206Z" fill="#30528F"/>
<path id="Vector_3" d="M101.422 34.0899L95.4346 28.0954C94.7312 27.3912 93.5769 27.3912 92.8555 28.0954L86.8498 34.1079C86.1464 34.8121 86.1464 35.9677 86.8498 36.6899L89.8616 39.7052L64.1073 65.4888L55.5225 74.0833L58.4983 77.0625C61.6004 80.1681 66.6142 80.1681 69.7162 77.0625L101.422 45.3205C104.524 42.215 104.524 37.1955 101.422 34.0899Z" fill="#30528F"/>
<path id="Vector_4" d="M101.422 79.6986C104.524 76.593 104.524 71.5735 101.422 68.4679L95.4344 62.4734C94.731 61.7693 93.5768 61.7693 92.8553 62.4734L86.8496 68.486C86.1462 69.1902 86.1462 70.3457 86.8496 71.068L89.8615 74.0833L72.6919 91.2723L81.2767 99.8668L101.422 79.6986Z" fill="#30528F"/>
<path id="Vector_5" d="M64.1073 99.8668L38.3529 74.0833L39.2186 73.2166L60.7167 51.6942L64.0893 48.3178L67.1012 51.3331C67.8046 52.0372 68.9588 52.0372 69.6802 51.3331L75.686 45.3205C76.3894 44.6163 76.3894 43.4608 75.686 42.7385L69.6983 36.744C66.5962 33.6385 61.5824 33.6385 58.4803 36.744L49.2462 45.9886L36.369 58.8803L26.7562 68.504C23.6542 71.6096 23.6542 76.6291 26.7562 79.7347L58.4623 111.477C61.5644 114.582 66.5782 114.582 69.6802 111.477L72.6561 108.497L64.0713 99.9029L64.1073 99.8668Z" fill="#30528F"/>
</g>
<g id="Group_2">
<path id="Vector_6" d="M40.5565 148.734L33.201 133.251C33.0502 132.966 32.7402 132.748 32.2543 132.605C31.7684 132.463 31.2406 132.387 30.6793 132.387C30.118 132.387 29.6238 132.463 29.1379 132.605C28.652 132.748 28.342 132.966 28.1912 133.251L20.7938 148.734C20.7686 148.826 20.7603 148.901 20.7603 148.952C20.7603 149.161 20.8859 149.337 21.1289 149.488C21.3718 149.639 21.6985 149.765 22.0923 149.857C22.486 149.95 22.863 150 23.2065 150C23.5249 150 23.8181 149.958 24.0778 149.883C24.3375 149.807 24.505 149.665 24.5804 149.48L26.0633 146.779H35.2787L36.8034 149.48C36.9039 149.673 37.0715 149.807 37.306 149.883C37.5406 149.966 37.8171 150 38.1438 150C38.5124 150 38.8894 149.95 39.2748 149.857C39.6601 149.765 39.9785 149.631 40.2382 149.472C40.4979 149.312 40.6319 149.136 40.6319 148.943C40.6319 148.893 40.6068 148.826 40.5565 148.725V148.734ZM26.9597 144.054L30.6793 135.859L34.3906 144.054H26.9597Z" fill="#30528F"/>
<path id="Vector_7" d="M122.783 148.734L115.428 133.251C115.277 132.966 114.967 132.748 114.481 132.605C113.995 132.463 113.467 132.387 112.906 132.387C112.345 132.387 111.85 132.463 111.364 132.605C110.879 132.748 110.569 132.966 110.418 133.251L103.02 148.734C102.995 148.826 102.987 148.901 102.987 148.952C102.987 149.161 103.112 149.337 103.355 149.488C103.598 149.639 103.925 149.765 104.319 149.857C104.713 149.95 105.09 150 105.433 150C105.751 150 106.045 149.958 106.304 149.883C106.564 149.807 106.732 149.665 106.807 149.48L108.29 146.779H117.505L119.03 149.48C119.13 149.673 119.298 149.807 119.533 149.883C119.767 149.966 120.044 150 120.37 150C120.739 150 121.116 149.95 121.501 149.857C121.887 149.765 122.205 149.631 122.465 149.472C122.724 149.312 122.859 149.136 122.859 148.943C122.859 148.893 122.833 148.826 122.783 148.725V148.734ZM109.186 144.054L112.906 135.859L116.617 144.054H109.186Z" fill="#30528F"/>
<path id="Vector_8" d="M46.4297 150C45.9354 150 45.483 149.891 45.0725 149.681C44.662 149.472 44.4609 149.145 44.4609 148.7V133.687C44.4609 133.268 44.6452 132.941 45.0222 132.723C45.3909 132.496 45.793 132.387 46.2119 132.387H59.2558C59.6998 132.387 60.0265 132.572 60.2192 132.949C60.4203 133.318 60.5124 133.704 60.5124 134.098C60.5124 134.568 60.4035 134.987 60.1941 135.348C59.9846 135.708 59.6663 135.885 59.2474 135.885H48.3984V140.296H54.1538C54.5727 140.296 54.8911 140.455 55.1005 140.783C55.3099 141.101 55.4188 141.479 55.4188 141.898C55.4188 142.242 55.3183 142.586 55.1256 142.921C54.9246 143.257 54.6062 143.425 54.1622 143.425H48.4068V148.7C48.4068 149.145 48.2057 149.472 47.7952 149.681C47.3847 149.891 46.9323 150 46.4381 150H46.4297Z" fill="#30528F"/>
<path id="Vector_9" d="M65.8319 150C65.413 150 65.0193 149.891 64.6423 149.665C64.2653 149.438 64.0894 149.119 64.0894 148.7V133.687C64.0894 133.268 64.2737 132.941 64.6423 132.723C65.0109 132.496 65.4046 132.387 65.8319 132.387H79.035C79.5042 132.387 79.8393 132.572 80.0403 132.941C80.2414 133.31 80.3335 133.695 80.3335 134.09C80.3335 134.559 80.2246 134.979 79.9984 135.331C79.7722 135.692 79.4539 135.868 79.035 135.868H68.0185V140.305H73.732C74.1509 140.305 74.4776 140.464 74.6954 140.791C74.9216 141.11 75.0305 141.487 75.0305 141.906C75.0305 142.25 74.93 142.594 74.7373 142.93C74.5362 143.265 74.2095 143.433 73.732 143.433H68.0185V146.511H79.035C79.4539 146.511 79.7806 146.687 79.9984 147.031C80.2246 147.375 80.3335 147.803 80.3335 148.297C80.3335 148.692 80.233 149.077 80.0403 149.446C79.8393 149.815 79.5125 150 79.035 150H65.8319Z" fill="#30528F"/>
<g id="Group_3">
<path id="Vector_10" d="M15.8008 150C17.0659 150 18.0963 148.968 18.0963 147.702V145.244C18.0963 144.951 17.8617 144.716 17.5685 144.716H15.1055C14.8123 144.716 14.5777 144.951 14.5777 145.244V146.477H7.54053V150H15.8008Z" fill="#30528F"/>
<path id="Vector_11" d="M4.02202 146.477V135.91H4.38225H13.1955H14.5778V137.143C14.5778 137.436 14.8124 137.671 15.1056 137.671H17.5686C17.8618 137.671 18.0964 137.436 18.0964 137.143V134.685C18.0964 133.419 17.0659 132.387 15.8009 132.387H12.0142H6.73636H2.79888C1.53386 132.387 0.503418 133.419 0.503418 134.685V147.702C0.503418 148.968 1.53386 150 2.79888 150H4.02202V146.477Z" fill="#30528F"/>
</g>
<g id="Group_4">
<path id="Vector_12" d="M98.5631 150C99.8281 150 100.859 148.968 100.859 147.702V145.244C100.859 144.951 100.624 144.716 100.331 144.716H97.8677C97.5745 144.716 97.3399 144.951 97.3399 145.244V146.477H90.3027V150H98.5631Z" fill="#30528F"/>
<path id="Vector_13" d="M86.7842 146.477V135.91H87.1445H95.9577H97.34V137.143C97.34 137.436 97.5746 137.671 97.8678 137.671H100.331C100.624 137.671 100.859 137.436 100.859 137.143V134.685C100.859 133.419 99.8282 132.387 98.5631 132.387H94.7765H89.4986H85.5611C84.2961 132.387 83.2656 133.419 83.2656 134.685V147.702C83.2656 148.968 84.2961 150 85.5611 150H86.7842V146.477Z" fill="#30528F"/>
</g>
</g>
</g>
<defs>
<clipPath id="clip0_90_8097">
<rect width="122.368" height="150" fill="white" transform="translate(0.496582)"/>
</clipPath>
</defs>
</svg>
