<svg width="175" height="150" viewBox="0 0 175 150" fill="none" xmlns="http://www.w3.org/2000/svg">
<g id="Logo / iSunCloud" clip-path="url(#clip0_90_8095)">
<g id="Group">
<path id="Vector" d="M143.836 26.9072C142.62 25.6919 141.304 24.5473 139.922 23.5085C133.506 18.6727 125.824 16.1211 117.708 16.1211C111.822 16.1211 106.152 17.4776 101.058 20.0442L94.0112 13.1611C89.5321 8.68836 84.2661 5.27453 78.3697 3.01042C73.1643 1.01356 67.6915 0 62.1128 0H61.9161C49.9013 0.0100852 38.6077 4.69464 30.1086 13.1863C21.6043 21.6831 16.9185 32.9936 16.9185 45.0151C16.9185 57.0366 21.6043 68.3471 30.1086 76.8489C38.5875 85.3254 49.866 90.01 61.8707 90.0352H78.6471V90.0453H94.9948L102.177 90.0352H117.663C127.559 90.0352 136.855 86.1776 143.841 79.1735L145.904 77.106L145.975 76.8236C151.573 70.1876 154.63 61.8119 154.63 53.0227C154.63 43.1342 150.797 33.8559 143.841 26.9021L143.836 26.9072Z" fill="#30528F"/>
<path id="Vector_2" d="M138.757 31.985C137.763 30.9916 136.709 30.0789 135.599 29.2418C130.48 25.3843 124.26 23.2966 117.708 23.2966C109.739 23.2966 102.263 26.3827 96.6594 31.9799L77.2853 51.3485L75.0458 53.5874H84.7L101.487 36.8057C105.799 32.4943 111.559 30.1192 117.708 30.1192C122.328 30.1192 126.732 31.4606 130.464 33.9566C131.7 34.7836 132.86 35.7316 133.93 36.8057C138.242 41.1171 140.618 46.8757 140.618 53.0226C140.618 59.1695 138.242 64.9281 133.93 69.2395L133.264 69.9052V69.9152C129.007 73.8636 123.504 76.0268 117.663 76.0268H93.0176V76.0369H87.908H61.9566C44.8473 76.0369 30.9258 62.1194 30.9258 45.015C30.9258 27.9106 44.3227 14.5226 60.9881 14.0082L61.9969 13.9931C62.0322 13.9931 62.0675 13.9931 62.1029 13.9931C65.9716 13.9931 69.7496 14.694 73.3561 16.0757C77.4215 17.6338 81.0482 19.9937 84.1402 23.0798L89.9862 28.788C89.9862 28.788 94.8234 23.9623 94.8234 23.9824L88.9723 18.2692C85.1994 14.4973 80.7708 11.618 75.8024 9.71194C71.3586 8.00755 66.6929 7.15535 61.9263 7.17552C51.8282 7.18561 42.3354 11.1188 35.1981 18.2591C28.0507 25.4044 24.1113 34.9097 24.1113 45.015C24.1113 55.1203 28.0507 64.6256 35.1981 71.7709C42.3253 78.8961 51.803 82.8343 61.8809 82.8545H85.84V82.8646H94.9999V82.8545H117.668C125.637 82.8545 133.128 79.7483 138.757 74.1006L139.423 73.435L139.438 73.3694C144.613 67.8528 147.448 60.6672 147.448 53.0226C147.448 45.3781 144.361 37.5823 138.762 31.9799L138.757 31.985Z" fill="#0F103E"/>
<path id="Vector_3" d="M46.3152 46.0488C46.3152 36.9369 53.7299 29.5294 62.8394 29.5294C70.471 29.5294 76.9071 34.7283 78.7986 41.7677L84.3924 36.1755C80.6397 28.0216 72.3927 22.3437 62.8394 22.3437C49.7653 22.3437 39.1274 32.9785 39.1274 46.0488C39.1274 55.5995 44.807 63.8441 52.9632 67.5958L58.557 62.0036C51.5155 60.1126 46.3152 53.6732 46.3152 46.0488Z" fill="#0F103E"/>
</g>
<g id="Group_2">
<path id="Vector_4" d="M5.17855 144.771H0.290527V146.84H5.17855V144.771Z" fill="#30528F"/>
<path id="Vector_5" d="M5.17855 130.945H0.290527V138.558H5.17855V130.945Z" fill="#30528F"/>
<path id="Vector_6" d="M5.17855 140.628H0.290527V142.698H5.17855V140.628Z" fill="#30528F"/>
<path id="Vector_7" d="M2.69513 128.186C4.39038 128.186 5.45465 127.044 5.45465 125.584C5.41394 124.087 4.39038 122.945 2.73293 122.945C1.07548 122.945 0.0112305 124.087 0.0112305 125.584C0.0112305 127.082 1.07549 128.186 2.69223 128.186H2.69513Z" fill="#30528F"/>
<path id="Vector_8" d="M5.17855 148.91H0.290527V150.14H5.17855V148.91Z" fill="#30528F"/>
<path id="Vector_9" d="M10.6595 144.861C12.2355 145.768 14.6024 146.555 17.0857 146.555C20.2 146.555 21.9359 145.096 21.9359 142.928C21.9359 140.916 20.5954 139.736 17.2049 138.512C12.8287 136.936 10.0285 134.611 10.0285 130.785C10.0285 126.448 13.6574 123.137 19.412 123.137C22.2907 123.137 24.4192 123.768 25.8004 124.477L24.6169 128.378C23.6719 127.866 21.8167 127.116 19.3334 127.116C16.257 127.116 14.9165 128.773 14.9165 130.308C14.9165 132.358 16.4547 133.305 20.0022 134.683C24.6169 136.419 26.8618 138.744 26.8618 142.567C26.8618 146.823 23.6283 150.529 16.7687 150.529C13.9685 150.529 11.052 149.741 9.59229 148.872L10.6565 144.852L10.6595 144.861Z" fill="#30528F"/>
<path id="Vector_10" d="M48.435 144.387C48.435 146.672 48.5135 148.564 48.592 150.143H44.335L44.0995 147.227H44.021C43.1922 148.608 41.2993 150.579 37.8709 150.579C34.4426 150.579 31.1685 148.489 31.1685 142.221V130.948H36.0187V141.393C36.0187 144.584 37.0451 146.634 39.6069 146.634C41.5377 146.634 42.7997 145.253 43.3144 144.032C43.4714 143.599 43.5906 143.087 43.5906 142.535V130.945H48.4408V144.387H48.435Z" fill="#30528F"/>
<path id="Vector_11" d="M53.8753 136.66C53.8753 134.454 53.8346 132.599 53.7183 130.945H57.9753L58.2108 133.823H58.33C59.1588 132.326 61.2466 130.512 64.4423 130.512C67.795 130.512 71.264 132.68 71.264 138.75V150.143H66.4138V139.303C66.4138 136.544 65.3873 134.454 62.747 134.454C60.8162 134.454 59.4757 135.835 58.961 137.291C58.804 137.724 58.7633 138.317 58.7633 138.866V150.14H53.8753V136.66Z" fill="#30528F"/>
<path id="Vector_12" d="M95.8673 149.355C94.7245 149.945 92.2005 150.538 89.0078 150.538C80.5693 150.538 75.4429 145.256 75.4429 137.175C75.4429 128.425 81.5144 123.143 89.6388 123.143C92.8316 123.143 95.12 123.814 96.1057 124.326L95.0415 128.189C93.7795 127.637 92.0435 127.163 89.8365 127.163C84.4338 127.163 80.5315 130.553 80.5315 136.939C80.5315 142.774 83.9627 146.518 89.7987 146.518C91.7702 146.518 93.8202 146.122 95.0822 145.532L95.8702 149.355H95.8673Z" fill="#30528F"/>
<path id="Vector_13" d="M99.8887 122.154H104.777V150.14H99.8887V122.154Z" fill="#30528F"/>
<path id="Vector_14" d="M128.475 140.366C128.475 147.422 123.506 150.576 118.618 150.576C113.177 150.576 108.996 146.832 108.996 140.68C108.996 134.529 113.136 130.512 118.932 130.512C124.727 130.512 128.472 134.532 128.472 140.366H128.475ZM114.006 140.564C114.006 144.271 115.82 147.067 118.777 147.067C121.537 147.067 123.471 144.346 123.471 140.486C123.471 137.489 122.13 134.061 118.818 134.061C115.506 134.061 114.009 137.372 114.009 140.564H114.006Z" fill="#30528F"/>
<path id="Vector_15" d="M149.845 144.387C149.845 146.672 149.923 148.564 150.002 150.143H145.745L145.509 147.227H145.431C144.602 148.608 142.709 150.579 139.281 150.579C135.852 150.579 132.578 148.489 132.578 142.221V130.948H137.428V141.393C137.428 144.584 138.455 146.634 141.017 146.634C142.947 146.634 144.209 145.253 144.724 144.032C144.881 143.599 145 143.087 145 142.535V130.945H149.851V144.387H149.845Z" fill="#30528F"/>
<path id="Vector_16" d="M172.988 122.154V144.742C172.988 146.712 173.066 148.84 173.145 150.143H168.806L168.609 147.108H168.53C167.387 149.236 165.061 150.576 162.261 150.576C157.687 150.576 154.061 146.675 154.061 140.762C154.02 134.337 158.045 130.512 162.656 130.512C165.3 130.512 167.19 131.617 168.059 133.035H168.138V122.154H172.988ZM168.138 138.945C168.138 138.55 168.097 138.079 168.018 137.683C167.585 135.791 166.047 134.253 163.84 134.253C160.726 134.253 158.99 137.012 158.99 140.599C158.99 144.186 160.726 146.669 163.799 146.669C165.771 146.669 167.507 145.329 167.978 143.239C168.097 142.805 168.135 142.332 168.135 141.82V138.942L168.138 138.945Z" fill="#30528F"/>
</g>
</g>
<defs>
<clipPath id="clip0_90_8095">
<rect width="174.178" height="150" fill="white" transform="translate(0.0429688)"/>
</clipPath>
</defs>
</svg>
