<svg width="175" height="150" viewBox="0 0 175 150" fill="none" xmlns="http://www.w3.org/2000/svg">
<g clip-path="url(#clip0_15_9750)">
<path d="M143.793 26.9072C142.577 25.6919 141.261 24.5473 139.879 23.5085C133.463 18.6727 125.781 16.1211 117.665 16.1211C111.779 16.1211 106.109 17.4776 101.015 20.0442L93.9682 13.1611C89.4891 8.68836 84.2231 5.27453 78.3267 3.01042C73.1212 1.01356 67.6485 0 62.0698 0H61.8731C49.8582 0.0100852 38.5647 4.69464 30.0655 13.1863C21.5613 21.6831 16.8754 32.9936 16.8754 45.0151C16.8754 57.0366 21.5613 68.3471 30.0655 76.8489C38.5445 85.3254 49.8229 90.01 61.8277 90.0352H78.6041V90.0453H94.9517L102.134 90.0352H117.62C127.516 90.0352 136.812 86.1776 143.798 79.1735L145.861 77.106L145.932 76.8236C151.53 70.1876 154.587 61.8119 154.587 53.0227C154.587 43.1342 150.754 33.8559 143.798 26.9021L143.793 26.9072Z" fill="#FFA502"/>
<path d="M138.714 31.985C137.72 30.9916 136.666 30.0789 135.556 29.2418C130.436 25.3843 124.217 23.2966 117.665 23.2966C109.695 23.2966 102.22 26.3827 96.6163 31.9799L77.2422 51.3485L75.0027 53.5874H84.6569L101.443 36.8057C105.756 32.4943 111.516 30.1192 117.665 30.1192C122.285 30.1192 126.689 31.4606 130.421 33.9566C131.657 34.7836 132.817 35.7316 133.887 36.8057C138.199 41.1171 140.575 46.8757 140.575 53.0226C140.575 59.1695 138.199 64.9281 133.887 69.2395L133.221 69.9052V69.9152C128.964 73.8636 123.461 76.0268 117.62 76.0268H92.9745V76.0369H87.8649H61.9135C44.8042 76.0369 30.8827 62.1194 30.8827 45.015C30.8827 27.9106 44.2796 14.5226 60.945 14.0082L61.9538 13.9931C61.9891 13.9931 62.0244 13.9931 62.0597 13.9931C65.9285 13.9931 69.7065 14.694 73.3129 16.0757C77.3784 17.6338 81.0051 19.9937 84.097 23.0798L89.9431 28.788C89.9431 28.788 94.7803 23.9623 94.7803 23.9824L88.9292 18.2692C85.1563 14.4973 80.7276 11.618 75.7593 9.71194C71.3155 8.00755 66.6498 7.15535 61.8832 7.17552C51.7851 7.18561 42.2922 11.1188 35.155 18.2591C28.0076 25.4044 24.0682 34.9097 24.0682 45.015C24.0682 55.1203 28.0076 64.6256 35.155 71.7709C42.2821 78.8961 51.7599 82.8343 61.8378 82.8545H85.7969V82.8646H94.9568V82.8545H117.625C125.594 82.8545 133.085 79.7483 138.714 74.1006L139.379 73.435L139.395 73.3694C144.57 67.8528 147.404 60.6672 147.404 53.0226C147.404 45.3781 144.318 37.5823 138.719 31.9799L138.714 31.985Z" fill="white"/>
<path d="M46.2719 46.0488C46.2719 36.9368 53.6867 29.5293 62.7961 29.5293C70.4277 29.5293 76.8639 34.7282 78.7554 41.7676L84.3492 36.1754C80.5965 28.0216 72.3495 22.3436 62.7961 22.3436C49.7221 22.3436 39.0842 32.9784 39.0842 46.0488C39.0842 55.5994 44.7638 63.844 52.92 67.5957L58.5138 62.0035C51.4723 60.1125 46.2719 53.6732 46.2719 46.0488Z" fill="white"/>
<path d="M5.13558 144.771H0.247559V146.84H5.13558V144.771Z" fill="white"/>
<path d="M5.13558 130.945H0.247559V138.558H5.13558V130.945Z" fill="white"/>
<path d="M5.13558 140.628H0.247559V142.698H5.13558V140.628Z" fill="white"/>
<path d="M2.65231 128.186C4.34757 128.186 5.41183 127.044 5.41183 125.585C5.37112 124.087 4.34757 122.945 2.69012 122.945C1.03267 122.945 -0.0315857 124.087 -0.0315857 125.585C-0.0315857 127.082 1.03267 128.186 2.64941 128.186H2.65231Z" fill="white"/>
<path d="M5.13558 148.91H0.247559V150.14H5.13558V148.91Z" fill="white"/>
<path d="M10.6168 144.861C12.1928 145.768 14.5598 146.555 17.043 146.555C20.1573 146.555 21.8933 145.096 21.8933 142.928C21.8933 140.916 20.5528 139.736 17.1623 138.512C12.786 136.936 9.98579 134.611 9.98579 130.785C9.98579 126.448 13.6147 123.137 19.3693 123.137C22.248 123.137 24.3765 123.768 25.7577 124.477L24.5743 128.378C23.6292 127.866 21.774 127.116 19.2908 127.116C16.2143 127.116 14.8738 128.773 14.8738 130.308C14.8738 132.358 16.4121 133.305 19.9596 134.683C24.5743 136.419 26.8191 138.744 26.8191 142.567C26.8191 146.823 23.5856 150.529 16.7261 150.529C13.9259 150.529 11.0093 149.741 9.54962 148.872L10.6139 144.852L10.6168 144.861Z" fill="white"/>
<path d="M48.3921 144.387C48.3921 146.672 48.4706 148.564 48.5491 150.143H44.2921L44.0566 147.227H43.978C43.1493 148.608 41.2563 150.579 37.828 150.579C34.3997 150.579 31.1255 148.489 31.1255 142.221V130.948H35.9758V141.393C35.9758 144.585 37.0022 146.634 39.564 146.634C41.4948 146.634 42.7568 145.253 43.2715 144.032C43.4285 143.599 43.5477 143.087 43.5477 142.535V130.945H48.3979V144.387H48.3921Z" fill="white"/>
<path d="M53.8326 136.66C53.8326 134.454 53.7919 132.599 53.6756 130.945H57.9326L58.1682 133.823H58.2874C59.1161 132.326 61.2039 130.512 64.3996 130.512C67.7523 130.512 71.2213 132.68 71.2213 138.75V150.143H66.3711V139.303C66.3711 136.544 65.3446 134.454 62.7043 134.454C60.7736 134.454 59.4331 135.835 58.9184 137.291C58.7614 137.724 58.7207 138.317 58.7207 138.866V150.14H53.8326V136.66Z" fill="white"/>
<path d="M95.8243 149.355C94.6815 149.945 92.1575 150.538 88.9647 150.538C80.5263 150.538 75.3998 145.256 75.3998 137.175C75.3998 128.425 81.4713 123.143 89.5958 123.143C92.7885 123.143 95.077 123.814 96.0627 124.326L94.9984 128.189C93.7365 127.637 92.0005 127.163 89.7935 127.163C84.3908 127.163 80.4885 130.553 80.4885 136.939C80.4885 142.774 83.9197 146.518 89.7557 146.518C91.7272 146.518 93.7772 146.122 95.0392 145.532L95.8272 149.355H95.8243Z" fill="white"/>
<path d="M99.8458 122.154H104.734V150.14H99.8458V122.154Z" fill="white"/>
<path d="M128.432 140.366C128.432 147.422 123.463 150.576 118.575 150.576C113.134 150.576 108.953 146.832 108.953 140.68C108.953 134.529 113.094 130.512 118.889 130.512C124.684 130.512 128.429 134.532 128.429 140.366H128.432ZM113.963 140.564C113.963 144.271 115.778 147.067 118.735 147.067C121.494 147.067 123.428 144.346 123.428 140.486C123.428 137.489 122.088 134.061 118.776 134.061C115.464 134.061 113.966 137.372 113.966 140.564H113.963Z" fill="white"/>
<path d="M149.802 144.387C149.802 146.672 149.88 148.564 149.959 150.143H145.702L145.466 147.227H145.388C144.559 148.608 142.666 150.579 139.238 150.579C135.81 150.579 132.535 148.489 132.535 142.221V130.948H137.386V141.393C137.386 144.585 138.412 146.634 140.974 146.634C142.905 146.634 144.167 145.253 144.681 144.032C144.838 143.599 144.957 143.087 144.957 142.535V130.945H149.808V144.387H149.802Z" fill="white"/>
<path d="M172.945 122.154V144.742C172.945 146.712 173.024 148.84 173.102 150.143H168.764L168.566 147.108H168.487C167.345 149.236 165.018 150.576 162.218 150.576C157.644 150.576 154.018 146.675 154.018 140.762C153.977 134.337 158.002 130.512 162.614 130.512C165.257 130.512 167.147 131.617 168.016 133.035H168.095V122.154H172.945ZM168.095 138.945C168.095 138.55 168.054 138.079 167.976 137.683C167.542 135.791 166.004 134.253 163.797 134.253C160.683 134.253 158.947 137.012 158.947 140.599C158.947 144.186 160.683 146.669 163.756 146.669C165.728 146.669 167.464 145.329 167.935 143.239C168.054 142.805 168.092 142.332 168.092 141.82V138.942L168.095 138.945Z" fill="white"/>
</g>
<defs>
<clipPath id="clip0_15_9750">
<rect width="174.178" height="150" fill="white"/>
</clipPath>
</defs>
</svg>
