<svg width="150" height="45" viewBox="0 0 150 45" fill="none" xmlns="http://www.w3.org/2000/svg">
<g clip-path="url(#clip0_31_7600)">
<g clip-path="url(#clip1_31_7600)">
<path d="M73.7337 23.7186H71.3222L69.2704 9.12723L62.2439 24.3152L55.2341 9.12723L53.1823 23.7186H50.7438L54.1801 1.72656L62.3 19.2283L70.3535 1.72656L73.7357 23.7186H73.7337Z" fill="white"/>
<path d="M89.0547 17.4405H78.4111C78.4942 18.8729 78.9162 19.983 79.6792 20.7729C80.4421 21.5629 81.4607 21.9579 82.735 21.9579C83.7059 21.9579 84.5291 21.7666 85.2089 21.382C85.8886 20.9995 86.425 20.4237 86.8241 19.6566L88.7221 20.6544C88.113 21.8103 87.3023 22.6792 86.2899 23.2675C85.2775 23.8538 84.0842 24.1469 82.708 24.1469C80.7123 24.1469 79.122 23.4962 77.935 22.1928C76.748 20.8893 76.1534 19.168 76.1534 17.0248C76.1534 15.0291 76.7813 13.3702 78.0389 12.0501C79.2946 10.73 80.8433 10.069 82.681 10.069C84.5187 10.069 86.0986 10.6739 87.2815 11.8838C88.4643 13.0937 89.0547 14.684 89.0547 16.6506V17.4405ZM86.795 15.8336C86.6744 14.6965 86.2504 13.813 85.5207 13.1789C84.791 12.5469 83.8431 12.2289 82.6789 12.2289C81.5148 12.2289 80.6146 12.5553 79.8371 13.2059C79.0617 13.8566 78.6044 14.7318 78.4651 15.8315H86.7929L86.795 15.8336Z" fill="white"/>
<path d="M99.5923 10.3184L99.0518 12.5636C98.8855 12.4617 98.7047 12.3848 98.5113 12.3349C98.318 12.285 98.1101 12.258 97.8877 12.258C96.7693 12.258 95.9274 12.7361 95.3578 13.6924C94.7902 14.6487 94.5054 16.0789 94.5054 17.981V23.7186H92.2457V10.4702H94.5054V12.7985C94.8297 11.8464 95.2954 11.1541 95.9045 10.7196C96.5136 10.2852 97.3264 10.069 98.343 10.069C98.5841 10.069 98.8169 10.0918 99.0435 10.1376C99.2701 10.1833 99.4531 10.2436 99.5903 10.3184H99.5923Z" fill="white"/>
<path d="M124.141 23.7186H121.73L119.678 9.12723L112.652 24.3152L105.64 9.12723L103.588 23.7186H101.149L104.588 1.72656L112.708 19.2283L120.759 1.72656L124.141 23.7186Z" fill="white"/>
<path d="M139.46 17.4405H128.817C128.9 18.8729 129.322 19.983 130.085 20.7729C130.848 21.5629 131.866 21.9579 133.141 21.9579C134.111 21.9579 134.935 21.7666 135.615 21.382C136.294 20.9995 136.831 20.4237 137.23 19.6566L139.128 20.6544C138.519 21.8103 137.708 22.6792 136.695 23.2675C135.683 23.8538 134.49 24.1469 133.114 24.1469C131.118 24.1469 129.528 23.4962 128.341 22.1928C127.154 20.8893 126.559 19.168 126.559 17.0248C126.559 15.0291 127.187 13.3702 128.445 12.0501C129.7 10.73 131.249 10.069 133.087 10.069C134.924 10.069 136.504 10.6739 137.687 11.8838C138.87 13.0937 139.46 14.684 139.46 16.6506V17.4405ZM137.201 15.8336C137.08 14.6965 136.656 13.813 135.926 13.1789C135.197 12.5469 134.249 12.2289 133.085 12.2289C131.92 12.2289 131.02 12.5553 130.243 13.2059C129.467 13.8566 129.01 14.7318 128.871 15.8315H137.199L137.201 15.8336Z" fill="white"/>
<path d="M150 10.3184L149.46 12.5636C149.293 12.4617 149.112 12.3848 148.919 12.3349C148.726 12.285 148.518 12.258 148.295 12.258C147.177 12.258 146.335 12.7361 145.765 13.6924C145.198 14.6487 144.913 16.0789 144.913 17.981V23.7186H142.653V10.4702H144.913V12.7985C145.237 11.8464 145.703 11.1541 146.312 10.7196C146.921 10.2852 147.734 10.069 148.751 10.069C148.992 10.069 149.225 10.0918 149.451 10.1376C149.678 10.1833 149.861 10.2436 149.998 10.3184H150Z" fill="white"/>
</g>
<path d="M59.7339 33.5255L59.1179 33.2875C59.4119 32.8535 59.7759 32.1675 59.9719 31.7335L60.7559 31.9855C60.4059 32.5455 60.0559 33.1195 59.7339 33.5255ZM54.9319 32.0135L55.5899 31.7755C55.9259 32.2095 56.2479 32.7835 56.4019 33.1895L55.7019 33.4555C55.5619 33.0635 55.2399 32.4615 54.9319 32.0135ZM54.1059 33.6795H57.3399V31.4955H54.1059V33.6795ZM61.6379 33.6795V31.4955H58.3339V33.6795H61.6379ZM61.2459 37.9355L62.0019 37.5715H51.7539V36.7875H57.3399V35.9055H52.9719V35.1775H57.3399V34.3795H53.1539V30.7955H62.6319V34.3795H58.3339V35.1775H62.8419V35.9055H58.3339V36.7875H64.0039V37.5715H62.0439C62.6739 38.0615 63.4159 38.7615 63.7659 39.2655L62.9679 39.6855C62.6039 39.1955 61.8759 38.4535 61.2459 37.9355ZM60.1259 38.9715L59.2299 39.2935C59.0899 38.9015 58.7679 38.3135 58.4459 37.9075L59.2999 37.6275C59.6219 38.0335 59.9579 38.5935 60.1259 38.9715ZM57.0459 39.0695L56.1359 39.2935C56.0799 38.9015 55.8839 38.3275 55.6739 37.8935L56.5419 37.7115C56.7659 38.1315 56.9759 38.7055 57.0459 39.0695ZM52.5939 39.8255L51.8939 39.2795C52.6219 38.9575 53.2379 38.3555 53.5459 37.6275L54.3859 37.8655C54.0499 38.6775 53.4339 39.4195 52.5939 39.8255ZM58.3339 41.6875H64.1159V42.5275H51.6979V41.6875H57.3259V40.5255H53.2799V39.7415H57.3259V38.8455H58.3339V39.7415H62.5899V40.5255H58.3339V41.6875Z" fill="white"/>
<path d="M72.1239 31.8735L71.5219 32.7135C71.0039 32.2235 69.9819 31.5515 69.1419 31.1175L69.7299 30.3755C70.5559 30.7675 71.6059 31.4115 72.1239 31.8735ZM71.4379 35.5415L70.8639 36.3955C70.3179 35.9475 69.2539 35.3315 68.3999 34.9535L68.9459 34.1835C69.7859 34.5195 70.8919 35.0935 71.4379 35.5415ZM71.3679 37.5575L72.1659 38.2155C71.4659 39.6995 70.5419 41.4495 69.7579 42.7655L68.8619 42.0935C69.5619 41.0155 70.6119 39.1675 71.3679 37.5575ZM80.7759 36.8575H77.7239C78.5499 38.6635 79.9499 40.4415 81.3219 41.3515C81.0699 41.5475 80.7479 41.9255 80.5659 42.1915C79.2779 41.1975 77.9899 39.4335 77.1079 37.5995V42.9755H76.0579V37.5855C75.1059 39.5035 73.6919 41.2675 72.2779 42.2755C72.0959 42.0235 71.7739 41.6595 71.5359 41.4635C73.0199 40.5395 74.5319 38.7195 75.4419 36.8575H72.5719V35.8495H76.0579V33.4975H72.2079V32.4895H76.0579V30.2075H77.1079V32.4895H81.0139V33.4975H77.1079V35.8495H80.7759V36.8575Z" fill="white"/>
<path d="M95.2099 36.9555V35.5415H89.3719V36.9555H95.2099ZM89.3299 39.3215H95.2099V37.8515H89.3719V38.2855C89.3719 38.6215 89.3579 38.9575 89.3299 39.3215ZM97.8699 32.9795H90.3099C90.0439 33.5255 89.7639 34.0855 89.4559 34.6035H96.2319V41.6735C96.2319 42.3035 96.0919 42.6115 95.6439 42.7795C95.1819 42.9475 94.3979 42.9615 93.2079 42.9615C93.1659 42.6535 93.0119 42.2335 92.8579 41.9395C93.7959 41.9815 94.6359 41.9675 94.8879 41.9675C95.1259 41.9535 95.2099 41.8835 95.2099 41.6735V40.2175H89.2039C89.0219 41.2395 88.6019 42.2895 87.7759 43.0595C87.6499 42.8355 87.2719 42.4015 87.0479 42.2475C88.2099 41.1275 88.3359 39.5875 88.3359 38.2575V36.2135C87.6779 37.0115 86.9219 37.7535 86.0679 38.3555C85.9279 38.1315 85.6059 37.7535 85.4099 37.5435C87.0479 36.4375 88.3079 34.7855 89.1759 32.9795H85.6899V31.9995H89.6239C89.8619 31.3975 90.0719 30.7955 90.2399 30.1935L91.2759 30.4455C91.1219 30.9635 90.9399 31.4955 90.7299 31.9995H97.8699V32.9795Z" fill="white"/>
<path d="M106.522 30.7255L107.208 31.1315C106.788 32.2655 106.284 33.6375 105.808 34.7435C106.816 35.9055 107.068 36.9275 107.068 37.7955C107.068 38.5235 106.9 39.1395 106.522 39.4055C106.326 39.5595 106.06 39.6435 105.78 39.6715C105.514 39.7135 105.15 39.7135 104.856 39.6995C104.842 39.4335 104.744 39.0415 104.59 38.7755C104.912 38.8035 105.178 38.8175 105.402 38.7895C105.57 38.7755 105.724 38.7475 105.836 38.6635C106.046 38.5095 106.13 38.1175 106.13 37.6975C106.13 36.9415 105.878 35.9755 104.87 34.8555C105.276 33.8475 105.696 32.6435 105.976 31.7195H103.946V42.9615H103.022V30.7675H106.368L106.522 30.7255ZM108.902 34.2815V36.0175H113.004V34.2815H108.902ZM113.004 31.7335H108.902V33.4135H113.004V31.7335ZM114.166 37.3755L114.852 38.1035C114.138 38.6915 113.214 39.3075 112.444 39.7695C113.13 40.7635 114.026 41.5335 115.146 41.9955C114.922 42.1915 114.6 42.6115 114.432 42.8775C112.248 41.8415 110.946 39.6995 110.246 36.9275H108.902V41.5335L111.366 40.9315C111.366 41.2395 111.38 41.6595 111.422 41.8835C108.538 42.6675 108.118 42.8075 107.838 42.9895C107.768 42.7655 107.544 42.3315 107.376 42.1355C107.6 42.0235 107.894 41.7295 107.894 41.1555V30.8095H114.012V36.9275H111.156C111.366 37.6835 111.632 38.3975 111.982 39.0275C112.71 38.5375 113.592 37.8795 114.166 37.3755Z" fill="white"/>
<path d="M123.084 30.6135L124.218 30.9635C123.21 33.2595 121.67 35.4855 120.116 36.9135C119.92 36.7035 119.472 36.2695 119.192 36.0735C120.76 34.7715 122.216 32.7275 123.084 30.6135ZM127.158 38.0755L128.152 37.6135C129.286 39.1115 130.616 41.0715 131.288 42.3175L130.252 42.8915C130.056 42.4995 129.79 42.0515 129.496 41.5475C122.244 42.0515 121.474 42.0935 120.928 42.2895C120.872 42.0655 120.676 41.5055 120.522 41.1835C120.9 41.0995 121.306 40.6375 121.824 39.9795C122.412 39.3355 124.204 36.8295 125.366 34.4635L126.528 34.9535C125.324 37.1235 123.882 39.2935 122.426 40.9595L128.894 40.5955C128.348 39.7275 127.718 38.8175 127.158 38.0755ZM125.058 30.5575H128.446C129.118 32.7695 130.518 34.8695 132.156 35.9475C131.904 36.1575 131.54 36.6195 131.344 36.9135C129.762 35.7375 128.418 33.7215 127.662 31.6075H125.058V30.5575Z" fill="white"/>
<path d="M143.342 36.9135H138.848V39.5175H143.342V36.9135ZM144.364 40.4415H138.848V41.4635H137.826V35.9895H144.364V40.4415ZM145.316 33.5535V34.4915H136.944V33.5535H145.316ZM147.962 31.1035V41.4355C147.962 42.1495 147.808 42.5135 147.332 42.6955C146.842 42.8775 145.974 42.8915 144.728 42.8915C144.686 42.5835 144.532 42.0655 144.364 41.7715C145.33 41.7995 146.296 41.7995 146.576 41.7855C146.842 41.7715 146.912 41.7015 146.912 41.4355V32.0975H136.846V31.1035H147.962Z" fill="white"/>
<g clip-path="url(#clip2_31_7600)">
<path d="M21.7183 -0.000976562C9.72283 -0.000976562 0 9.72185 0 21.7173C0 30.2498 4.92056 37.6343 12.0801 41.1848C11.9837 40.5977 11.6361 37.8869 12.4526 33.3972C13.3859 28.2663 14.3454 27.0395 15.4803 25.5892C17.8829 22.5206 15.4029 19.9486 13.9774 19.395C10.3771 17.9944 8.19656 15.3479 8.19656 11.993C8.19656 8.63813 10.5495 7.29589 10.5495 7.29589C10.0675 8.49645 10.7525 10.1425 12.6804 10.1425C15.0669 10.1425 18.7358 10.6318 21.0902 13.512C23.4169 16.3571 21.47 20.1428 21.47 20.1428C21.47 20.1428 24.3969 16.9194 28.7011 18.9379C32.1611 20.5591 32.0414 25.17 34.9814 25.9996C36.6698 26.4757 37.5374 25.2255 37.5374 25.2255C37.5374 25.2255 36.9736 27.2527 35.1041 28.4694C32.1378 30.4002 29.4942 29.6144 27.9299 28.2123C26.3394 26.7868 23.0868 25.2664 20.7733 27.7259C19.5085 29.0711 18.4364 32.6611 21.2392 35.1221C23.9354 37.4897 25.2571 36.8908 27.5108 36.7477C27.4363 36.5593 27.3545 36.3738 27.2639 36.1927C27.0215 35.7093 27.5283 35.1922 28.0176 35.4215L32.6533 37.6007C32.6738 37.6094 32.6913 37.6211 32.7088 37.6313C33.5559 38.0345 34.2059 38.5646 34.6908 39.0846L34.7215 39.1152C40.0115 35.1543 43.4365 28.836 43.4365 21.7187C43.4365 9.72185 33.7122 -0.000976562 21.7183 -0.000976562ZM29.6008 15.7422C28.52 15.7422 27.6451 14.8659 27.6451 13.7865C27.6451 12.7072 28.5215 11.8309 29.6008 11.8309C30.6801 11.8309 31.5565 12.7072 31.5565 13.7865C31.5565 14.8659 30.6801 15.7422 29.6008 15.7422ZM33.8101 11.1152C33.2697 11.1152 32.8315 10.677 32.8315 10.1366C32.8315 9.59624 33.2697 9.15808 33.8101 9.15808C34.3505 9.15808 34.7886 9.59624 34.7886 10.1366C34.7886 10.677 34.3505 11.1152 33.8101 11.1152ZM36.0929 15.7276C35.3524 15.7276 34.7492 15.1259 34.7492 14.3839C34.7492 13.6419 35.3509 13.0402 36.0929 13.0402C36.8349 13.0402 37.4366 13.6419 37.4366 14.3839C37.4366 15.1259 36.8349 15.7276 36.0929 15.7276Z" fill="url(#paint0_linear_31_7600)"/>
<path d="M32.2561 39.2963C32.1276 39.2569 32.0005 39.2189 31.872 39.1839C30.5677 38.8231 29.2605 38.6975 27.9489 38.7369C23.5673 38.8713 19.1506 40.8606 14.7515 42.1561C10.3407 43.4866 5.90499 43.9993 1.62415 41.6843C5.90645 45.1487 10.3407 45.0625 14.7515 43.9584C19.1229 42.8571 23.5118 40.8226 27.8657 40.2384C28.7712 40.1171 29.6753 40.0573 30.5779 40.0821C31.1373 40.0982 31.6967 40.1449 32.2546 40.2311C33.7269 40.4472 35.1859 40.9248 36.6304 41.6843C35.1859 40.51 33.7269 39.7549 32.2546 39.2949L32.2561 39.2963Z" fill="white"/>
<path d="M36.0929 13.772C35.7555 13.772 35.4795 14.0466 35.4795 14.3854C35.4795 14.7242 35.7541 14.9988 36.0929 14.9988C36.4318 14.9988 36.7063 14.7242 36.7063 14.3854C36.7063 14.0466 36.4318 13.772 36.0929 13.772Z" fill="url(#paint1_linear_31_7600)"/>
</g>
</g>
<defs>
<linearGradient id="paint0_linear_31_7600" x1="21.7183" y1="-0.103214" x2="21.7183" y2="40.7657" gradientUnits="userSpaceOnUse">
<stop stop-color="#9BB2E5"/>
<stop offset="1" stop-color="#698CBF"/>
</linearGradient>
<linearGradient id="paint1_linear_31_7600" x1="36.0929" y1="-0.103164" x2="36.0929" y2="40.7657" gradientUnits="userSpaceOnUse">
<stop stop-color="#9BB2E5"/>
<stop offset="1" stop-color="#698CBF"/>
</linearGradient>
<clipPath id="clip0_31_7600">
<rect width="150" height="44.6381" fill="white"/>
</clipPath>
<clipPath id="clip1_31_7600">
<rect width="99.2563" height="22.5887" fill="white" transform="translate(50.7438 1.72656)"/>
</clipPath>
<clipPath id="clip2_31_7600">
<rect width="43.4365" height="44.64" fill="white" transform="translate(0 -0.000976562)"/>
</clipPath>
</defs>
</svg>
