<svg width="125" height="150" viewBox="0 0 125 150" fill="none" xmlns="http://www.w3.org/2000/svg">
<g clip-path="url(#clip0_15_9746)">
<path d="M93.1205 107.616H31.1923L0.233307 53.8067L31.1923 0H93.1205L124.079 53.8067L93.1205 107.613V107.616ZM35.3049 100.483H89.0104L115.867 53.8092L89.0078 7.13279H35.3024L8.44837 53.8067L35.3049 100.481V100.483Z" fill="white"/>
<path d="M79.1736 45.9963L93.8271 20.2852H41.9822L16.0585 65.2829H33.1546L50.5277 35.1239H68.4702L36.3292 90.9966H84.9994L110.923 45.9989H79.1736V45.9963ZM76.4514 76.1553H61.8234L70.6358 60.8351H85.2765L76.4514 76.1553Z" fill="url(#paint0_linear_15_9746)"/>
<path d="M22.3901 125.99H16.4296V149.811H13.0922V125.99H7.16986V123.512H22.3901V125.99Z" fill="#EDECEC"/>
<path d="M26.7391 126.892C26.7391 125.766 27.6389 124.865 28.7623 124.865C29.8858 124.865 30.7856 125.766 30.7856 126.892C30.7856 128.018 29.8858 128.92 28.7623 128.92C27.6389 128.92 26.7391 128.018 26.7391 126.892ZM27.2271 130.874H30.3001V149.811H27.2271V130.874Z" fill="#EDECEC"/>
<path d="M50.881 123.512V149.812H48.1816L47.8817 147.97C46.9082 149.172 45.4822 149.997 43.5708 149.997C40.1216 149.997 37.3841 149.096 37.3841 144.398V136.208C37.3841 131.511 40.1216 130.647 43.3446 130.647C45.3323 130.647 46.7938 131.21 47.8054 132.3V123.509H50.8785L50.881 123.512ZM47.808 144.477V136.323C47.808 134.519 46.6464 133.016 44.1351 133.016C41.6238 133.016 40.4622 133.956 40.4622 136.211V144.401C40.4622 146.655 41.6238 147.595 44.1351 147.595C46.6464 147.595 47.808 146.355 47.808 144.477Z" fill="#EDECEC"/>
<path d="M60.8906 141.283V144.363C60.8906 146.617 62.0903 147.557 64.6016 147.557C67.1129 147.557 68.2389 146.844 68.2389 144.964V144.136H71.3119V144.964C71.3119 149.284 68.6125 149.924 64.6016 149.924C60.5906 149.924 57.815 149.06 57.815 144.363V136.211C57.815 131.513 60.5144 130.65 64.5253 130.65C68.5363 130.65 71.3119 131.513 71.3119 136.211V141.283H60.8906ZM60.8906 136.211V138.916H68.2389V136.211C68.2389 133.956 67.0392 133.016 64.5279 133.016C62.0166 133.016 60.8906 133.956 60.8906 136.211Z" fill="#EDECEC"/>
<path d="M93.7305 141.395V144.513C93.7305 149.022 90.8074 149.811 87.2439 149.811H78.6221V123.512H86.8702C90.4313 123.512 93.3569 124.302 93.3569 128.81V131.366C93.3569 134.522 92.269 135.798 90.4694 136.325C92.4927 136.776 93.7305 138.053 93.7305 141.397V141.395ZM86.8702 125.99H81.9595V135.082H86.8702C88.9316 135.082 90.0195 134.142 90.0195 132.265V128.808C90.0195 126.928 88.9316 125.99 86.8702 125.99ZM90.3931 140.269C90.3931 138.389 89.3052 137.451 87.2439 137.451H81.9569V147.333H87.2439C89.3052 147.333 90.3931 146.393 90.3931 144.515V140.269Z" fill="url(#paint1_linear_15_9746)"/>
<path d="M100.515 126.892C100.515 125.766 101.414 124.865 102.538 124.865C103.661 124.865 104.561 125.766 104.561 126.892C104.561 128.018 103.661 128.92 102.538 128.92C101.414 128.92 100.515 128.018 100.515 126.892ZM101.003 130.874H104.076V149.811H101.003V130.874Z" fill="url(#paint2_linear_15_9746)"/>
<path d="M119.596 133.243H116.373V149.812H113.3V133.243H110.039V130.877H113.3V125.015H116.373V130.877H119.596V133.243Z" fill="url(#paint3_linear_15_9746)"/>
</g>
<defs>
<linearGradient id="paint0_linear_15_9746" x1="16.0585" y1="55.6383" x2="110.923" y2="55.6383" gradientUnits="userSpaceOnUse">
<stop stop-color="#29C1E1"/>
<stop offset="1" stop-color="#1AE2A0"/>
</linearGradient>
<linearGradient id="paint1_linear_15_9746" x1="78.6221" y1="136.662" x2="93.7305" y2="136.662" gradientUnits="userSpaceOnUse">
<stop stop-color="#29C1E1"/>
<stop offset="1" stop-color="#1AE2A0"/>
</linearGradient>
<linearGradient id="paint2_linear_15_9746" x1="100.515" y1="137.337" x2="104.564" y2="137.337" gradientUnits="userSpaceOnUse">
<stop stop-color="#29C1E1"/>
<stop offset="1" stop-color="#1AE2A0"/>
</linearGradient>
<linearGradient id="paint3_linear_15_9746" x1="110.036" y1="137.413" x2="119.596" y2="137.413" gradientUnits="userSpaceOnUse">
<stop stop-color="#29C1E1"/>
<stop offset="1" stop-color="#1AE2A0"/>
</linearGradient>
<clipPath id="clip0_15_9746">
<rect width="123.849" height="150" fill="white" transform="translate(0.233307)"/>
</clipPath>
</defs>
</svg>
