<svg width="124" height="150" viewBox="0 0 124 150" fill="none" xmlns="http://www.w3.org/2000/svg">
<g id="Logo / TideBit" clip-path="url(#clip0_90_8093)">
<path id="Vector" d="M93.0219 107.616H31.0938L0.134766 53.8067L31.0938 0H93.0219L123.981 53.8067L93.0219 107.613V107.616ZM35.2064 100.483H88.9118L115.768 53.8092L88.9093 7.13279H35.2038L8.34983 53.8067L35.2064 100.481V100.483Z" fill="#30528F"/>
<path id="Vector_2" d="M79.0751 45.9963L93.7285 20.2852H41.8837L15.96 65.2829H33.056L50.4292 35.1239H68.3717L36.2307 90.9966H84.9009L110.825 45.9989H79.0751V45.9963ZM76.3529 76.1553H61.7249L70.5373 60.8351H85.178L76.3529 76.1553Z" fill="#30528F"/>
<path id="Vector_3" d="M22.2915 125.99H16.331V149.811H12.9937V125.99H7.07129V123.512H22.2915V125.99Z" fill="#30528F"/>
<path id="Vector_4" d="M26.6406 126.892C26.6406 125.766 27.5404 124.865 28.6639 124.865C29.7874 124.865 30.6872 125.766 30.6872 126.892C30.6872 128.018 29.7874 128.92 28.6639 128.92C27.5404 128.92 26.6406 128.018 26.6406 126.892ZM27.1286 130.874H30.2017V149.811H27.1286V130.874Z" fill="#30528F"/>
<path id="Vector_5" d="M50.7825 123.512V149.811H48.0832L47.7832 147.97C46.8097 149.172 45.3838 149.997 43.4724 149.997C40.0232 149.997 37.2856 149.096 37.2856 144.398V136.208C37.2856 131.511 40.0232 130.647 43.2461 130.647C45.2338 130.647 46.6953 131.21 47.707 132.3V123.509H50.78L50.7825 123.512ZM47.7095 144.477V136.323C47.7095 134.519 46.5479 133.016 44.0366 133.016C41.5253 133.016 40.3638 133.956 40.3638 136.211V144.401C40.3638 146.655 41.5253 147.595 44.0366 147.595C46.5479 147.595 47.7095 146.355 47.7095 144.477Z" fill="#30528F"/>
<path id="Vector_6" d="M60.7921 141.283V144.363C60.7921 146.617 61.9918 147.557 64.5031 147.557C67.0144 147.557 68.1404 146.844 68.1404 144.964V144.136H71.2135V144.964C71.2135 149.284 68.5141 149.924 64.5031 149.924C60.4922 149.924 57.7166 149.06 57.7166 144.363V136.211C57.7166 131.513 60.4159 130.65 64.4269 130.65C68.4378 130.65 71.2135 131.513 71.2135 136.211V141.283H60.7921ZM60.7921 136.211V138.916H68.1404V136.211C68.1404 133.956 66.9407 133.016 64.4294 133.016C61.9181 133.016 60.7921 133.956 60.7921 136.211Z" fill="#30528F"/>
<path id="Vector_7" d="M93.6318 141.395V144.513C93.6318 149.022 90.7088 149.811 87.1452 149.811H78.5234V123.512H86.7715C90.3326 123.512 93.2582 124.302 93.2582 128.81V131.366C93.2582 134.522 92.1703 135.798 90.3707 136.325C92.394 136.776 93.6318 138.053 93.6318 141.397V141.395ZM86.7715 125.99H81.8608V135.082H86.7715C88.8329 135.082 89.9208 134.142 89.9208 132.265V128.808C89.9208 126.928 88.8329 125.99 86.7715 125.99ZM90.2945 140.269C90.2945 138.389 89.2066 137.451 87.1452 137.451H81.8583V147.333H87.1452C89.2066 147.333 90.2945 146.393 90.2945 144.515V140.269Z" fill="#30528F"/>
<path id="Vector_8" d="M100.416 126.892C100.416 125.766 101.316 124.865 102.439 124.865C103.563 124.865 104.463 125.766 104.463 126.892C104.463 128.018 103.563 128.92 102.439 128.92C101.316 128.92 100.416 128.018 100.416 126.892ZM100.904 130.874H103.977V149.811H100.904V130.874Z" fill="#30528F"/>
<path id="Vector_9" d="M119.497 133.243H116.274V149.812H113.201V133.243H109.94V130.877H113.201V125.015H116.274V130.877H119.497V133.243Z" fill="#30528F"/>
</g>
<defs>
<clipPath id="clip0_90_8093">
<rect width="123.849" height="150" fill="white" transform="translate(0.134766)"/>
</clipPath>
</defs>
</svg>
