<svg width="101" height="103" viewBox="0 0 101 103" fill="none" xmlns="http://www.w3.org/2000/svg">
<g id="logo" clip-path="url(#clip0_247_13109)">
<path id="Vector" d="M50.5288 0C22.9128 0 0.528809 22.384 0.528809 50C0.528809 69.6436 11.857 86.6443 28.3398 94.8184C28.1179 93.4667 27.3176 87.226 29.1973 76.8897C31.3459 65.0773 33.555 62.2529 36.1677 58.9139C41.6989 51.8494 35.9895 45.928 32.7077 44.6537C24.4192 41.4291 19.399 35.3363 19.399 27.6126C19.399 19.889 24.816 16.7989 24.816 16.7989C23.7063 19.5629 25.2833 23.3524 29.7218 23.3524C35.2161 23.3524 43.6626 24.4788 49.0829 31.1096C54.4394 37.6597 49.9572 46.3753 49.9572 46.3753C49.9572 46.3753 56.6956 38.9543 66.6048 43.6012C74.5705 47.3336 74.2948 57.9489 81.0634 59.8588C84.9505 60.9549 86.9478 58.0767 86.9478 58.0767C86.9478 58.0767 85.6499 62.7438 81.3459 65.5447C74.5167 69.9899 68.4306 68.1809 64.8294 64.9529C61.1677 61.6712 53.6794 58.1708 48.3533 63.8332C45.4414 66.9301 42.9733 75.195 49.4259 80.8608C55.633 86.3114 58.6761 84.9328 63.8644 84.6032C63.6929 84.1695 63.5046 83.7424 63.2961 83.3255C62.738 82.2125 63.9047 81.0222 65.0312 81.5501L75.7037 86.5669C75.7507 86.5871 75.7911 86.614 75.8314 86.6375C77.7817 87.5656 79.278 88.7861 80.3943 89.9832L80.4649 90.0538C92.6438 80.9348 100.529 66.3887 100.529 50.0034C100.529 22.384 78.1414 0 50.5288 0ZM68.6761 36.2441C66.1879 36.2441 64.1737 34.2266 64.1737 31.7418C64.1737 29.2569 66.1912 27.2394 68.6761 27.2394C71.1609 27.2394 73.1784 29.2569 73.1784 31.7418C73.1784 34.2266 71.1609 36.2441 68.6761 36.2441ZM78.3667 25.5918C77.1226 25.5918 76.1139 24.5831 76.1139 23.3389C76.1139 22.0948 77.1226 21.0861 78.3667 21.0861C79.6109 21.0861 80.6196 22.0948 80.6196 23.3389C80.6196 24.5831 79.6109 25.5918 78.3667 25.5918ZM83.6223 36.2105C81.9175 36.2105 80.5288 34.8252 80.5288 33.117C80.5288 31.4089 81.9141 30.0235 83.6223 30.0235C85.3304 30.0235 86.7158 31.4089 86.7158 33.117C86.7158 34.8252 85.3304 36.2105 83.6223 36.2105Z" fill="url(#paint0_linear_247_13109)"/>
<path id="Vector_2" d="M74.7893 90.4707C74.4934 90.3799 74.2008 90.2925 73.9049 90.2118C70.9022 89.3813 67.8928 89.0921 64.8733 89.1829C54.7859 89.4922 44.6178 94.0719 34.49 97.0544C24.3353 100.118 14.1235 101.298 4.26807 95.9683C14.1268 103.944 24.3353 103.746 34.49 101.204C44.5539 98.6684 54.6581 93.9845 64.6816 92.6395C66.7664 92.3604 68.8478 92.2225 70.9258 92.2797C72.2136 92.3167 73.5014 92.4243 74.7859 92.6227C78.1753 93.1203 81.5344 94.2199 84.8599 95.9683C81.5344 93.2649 78.1753 91.5265 74.7859 90.4673L74.7893 90.4707Z" fill="#012B51"/>
<path id="Vector_3" d="M83.6222 31.7081C82.8455 31.7081 82.21 32.3403 82.21 33.1204C82.21 33.9005 82.8421 34.5326 83.6222 34.5326C84.4023 34.5326 85.0344 33.9005 85.0344 33.1204C85.0344 32.3403 84.4023 31.7081 83.6222 31.7081Z" fill="url(#paint1_linear_247_13109)"/>
</g>
<defs>
<linearGradient id="paint0_linear_247_13109" x1="50.5288" y1="-0.235373" x2="50.5288" y2="93.8534" gradientUnits="userSpaceOnUse">
<stop stop-color="#9BB2E5"/>
<stop offset="1" stop-color="#698CBF"/>
</linearGradient>
<linearGradient id="paint1_linear_247_13109" x1="83.6222" y1="-0.23536" x2="83.6222" y2="93.8533" gradientUnits="userSpaceOnUse">
<stop stop-color="#9BB2E5"/>
<stop offset="1" stop-color="#698CBF"/>
</linearGradient>
<clipPath id="clip0_247_13109">
<rect width="100" height="102.771" fill="white" transform="translate(0.528809)"/>
</clipPath>
</defs>
</svg>
